<?xml version="1.0" standalone="no"?>
<!DOCTYPE svg PUBLIC "-//W3C//DTD SVG 1.1//EN" "http://www.w3.org/Graphics/SVG/1.1/DTD/svg11.dtd" >
<svg>
<metadata>
Created by FontForge 20090914 at Thu May  7 09:41:44 2020
 By www-data
Copyright (c) 2020 by Hendra Pratama. All rights reserved.
</metadata>
<defs>
<font id="Brotherline" horiz-adv-x="289" >
  <font-face 
    font-family="Brotherline"
    font-weight="400"
    font-stretch="normal"
    units-per-em="1000"
    panose-1="0 0 0 0 0 0 0 0 0 0"
    ascent="750"
    descent="-250"
    x-height="356"
    cap-height="639.001"
    bbox="-2497 -391.211 3326 841.004"
    underline-thickness="50"
    underline-position="-50"
    unicode-range="U+0020-U+FB00"
  />
<missing-glyph horiz-adv-x="296" 
 />
    <glyph glyph-name="c_r" unicode="cr" horiz-adv-x="542" 
d="M29 257c0 16.667 2.82812 31.668 8.49512 45.001s13.334 24.833 23.001 34.5s20.5 17.167 32.5 22.5s24.667 8 38 8c18 0 33.5 -3.33301 46.5 -10s24 -15.5 33 -26.5s15.667 -23.667 20 -38s6.5 -29.5 6.5 -45.5h-60c-1.33301 17.333 -5.16602 31.666 -11.499 42.999
s-17.5 17 -33.5 17c-8.66699 0 -18 -4 -28 -12s-15 -20.667 -15 -38v-118c0 -30 6.66699 -51.667 20 -65s28 -20 44 -20h60c8 0 16.5 1.66699 25.5 5s17.5 8.5 25.5 15.5s14.667 15.667 20 26s8 22.833 8 37.5v228h58c5.33301 -14 16 -25.667 32 -35s32.5 -19.5 49.5 -30.5
s32.167 -24.833 45.5 -41.5s20 -39.334 20 -68.001v-80c0 -11.333 1.33301 -20.666 4 -27.999s6 -13.166 10 -17.499s8.16699 -7.33301 12.5 -9s8.5 -2.5 12.5 -2.5v-57c-20 0 -36.333 3.5 -49 10.5s-22.667 15.833 -30 26.5s-12.5 22.167 -15.5 34.5s-4.5 23.833 -4.5 34.5
v87c0 12 -2.66699 22.167 -8 30.5s-12.166 15.666 -20.499 21.999s-17.5 12.166 -27.5 17.499s-19.667 11 -29 17v-133c0 -25.333 -4.33301 -47.333 -13 -66s-19.667 -34 -33 -46s-28.166 -20.833 -44.499 -26.5s-32.5 -8.5 -48.5 -8.5h-60c-17.333 0 -33.166 3 -47.499 9
s-27.166 14.333 -38.499 25c-7.33301 -10 -17.333 -18.167 -30 -24.5s-28.334 -9.5 -47.001 -9.5v57c4 0 8.16699 0.666992 12.5 2s8.5 4.33301 12.5 9s7.33301 11.334 10 20.001s4 20.667 4 36v136z" />
    <glyph glyph-name="e_r" unicode="er" horiz-adv-x="529" 
d="M29 257c0 16.667 2.66602 31.666 7.99902 44.999s12.666 24.833 21.999 34.5s19.833 17.167 31.5 22.5s24.167 8 37.5 8c34.667 0 60.834 -10.667 78.501 -32s26.5 -47.333 26.5 -78v-30c0 -29.333 -9.16699 -53.666 -27.5 -72.999s-41.5 -29 -69.5 -29h-47v-6
c0 -17.333 6.66699 -32.5 20 -45.5s28 -19.5 44 -19.5h64c8 0 16.5 1.66699 25.5 5s17.5 8.5 25.5 15.5s14.667 15.667 20 26s8 22.833 8 37.5v228h58c5.33301 -14 15 -25.667 29 -35s28.167 -19.5 42.5 -30.5s27.166 -24.833 38.499 -41.5s17 -39.334 17 -68.001v-80
c0 -11.333 1.33301 -20.666 4 -27.999s6 -13.166 10 -17.499s8.16699 -7.33301 12.5 -9s8.5 -2.5 12.5 -2.5v-57c-20 0 -36.333 3.5 -49 10.5s-22.667 15.833 -30 26.5s-12.5 22.167 -15.5 34.5s-4.5 23.833 -4.5 34.5v86c0 12 -1.66699 22.167 -5 30.5
s-7.83301 15.5 -13.5 21.5s-12.5 11.5 -20.5 16.5l-26 16.5v-131c0 -25.333 -4.33301 -47.166 -13 -65.499s-19.667 -33.5 -33 -45.5s-28.166 -20.833 -44.499 -26.5s-32.5 -8.5 -48.5 -8.5h-64c-17.333 0 -33.166 3 -47.499 9s-27.166 14.333 -38.499 25
c-7.33301 -10 -17.333 -18.167 -30 -24.5s-28.334 -9.5 -47.001 -9.5v57c4 0 8.16699 0.833008 12.5 2.5s8.5 4.66699 12.5 9s7.33301 10.166 10 17.499s4 16.666 4 27.999v146zM172.999 258.999c0 16 -4.16699 28.1689 -12.5 36.502s-18.833 12.166 -31.5 11.499
c-8.66699 -0.666992 -17.5 -4.83398 -26.5 -12.501s-13.5 -20.167 -13.5 -37.5v-71h40c10.667 0 20.667 3.33301 30 10s14 18.667 14 36v27z" />
    <glyph glyph-name="t_h" unicode="th" horiz-adv-x="421" 
d="M29 419l-135.006 -0.00195312v60h135v155h60v-155h74v75c0 28 4.5 52.833 13.5 74.5s20.833 40 35.5 55s31.5 26.5 50.5 34.5s38.167 12.333 57.5 13c16.667 0.666992 33.834 -2 51.501 -8s34 -15 49 -27s27.833 -26.5 38.5 -43.5s17.334 -36.5 20.001 -58.5
c2.66699 -23.333 0.833984 -45.666 -5.49902 -66.999s-17 -40 -32 -56s-33.5 -28.667 -55.5 -38s-47 -14 -75 -14h-88v-62c14.667 7.33301 31 11 49 11c14.667 0 28.334 -2.83301 41.001 -8.5s23.667 -13.5 33 -23.5s16.5 -21.833 21.5 -35.5s7.5 -28.167 7.5 -43.5v-146
c0 -11.333 1.33301 -20.666 4 -27.999s6 -13.166 10 -17.499s8.16699 -7.33301 12.5 -9s8.5 -2.5 12.5 -2.5v-57c-20 0 -36.333 3.5 -49 10.5s-22.667 15.833 -30 26.5s-12.5 22.167 -15.5 34.5s-4.5 23.833 -4.5 34.5v154c0 16.667 -4.33301 29.334 -13 38.001
s-18.667 13 -30 13c-14 0 -25.333 -4 -34 -12s-13.667 -21 -15 -39v-154c0 -10.667 -1.33301 -22 -4 -34s-7.66699 -23.333 -15 -34s-17.166 -19.5 -29.499 -26.5s-27.833 -10.833 -46.5 -11.5c-16 0 -29.667 2.33301 -41 7s-20.666 10.667 -27.999 18
c-7.33301 -7.33301 -16.833 -13.333 -28.5 -18s-25.167 -7 -40.5 -7v57c4 0 8.16699 0.833008 12.5 2.5s8.5 4.66699 12.5 9s7.33301 10.166 10 17.499s4 16.666 4 27.999v308zM312.994 478.998c18.667 0 35 3.16992 49 9.50293s25.5 14.5 34.5 24.5s15.5 21.333 19.5 34
s5 25.667 3 39c-3.33301 25.333 -14 46.166 -32 62.499s-39.667 24.166 -65 23.499c-10 0 -20.833 -2.33301 -32.5 -7s-22.5 -11.834 -32.5 -21.501s-18.167 -22 -24.5 -37s-9.5 -32.833 -9.5 -53.5v-74h90zM162.994 419.001l-74.001 -0.000976562v-315
c1.33301 -19.333 5.83301 -32.166 13.5 -38.499s15.167 -10.166 22.5 -11.499c4 0 8.16699 1 12.5 3s8.33301 5 12 9s6.83398 9.66699 9.50098 17s4 16.666 4 27.999v308z" />
    <glyph glyph-name="DAFONT" unicode="Brotherline" horiz-adv-x="3401" 
d="M2279 634l-0.00195312 -522.993c0 -22 4.33301 -36.833 13 -44.5s16.667 -11.834 24 -12.501c7.33301 1.33301 15 5.16602 23 11.499s12.667 19.166 14 38.499v253h60v-253c1.33301 -19.333 5.83301 -32.166 13.5 -38.499s15.167 -10.166 22.5 -11.499
c4 0 8.16699 0.833008 12.5 2.5s8.5 4.66699 12.5 9s7.33301 10.166 10 17.499s4 16.666 4 27.999v155c3.33301 31.333 14.833 56.166 34.5 74.499s44.5 27.5 74.5 27.5c14.667 0 28.334 -2.83301 41 -8.5c12.667 -5.66699 23.667 -13.5 33 -23.5s16.5 -21.833 21.5 -35.5
s7.5 -28.167 7.5 -43.5v-146c0 -21.333 4.16699 -36 12.5 -44s16.166 -12.333 23.5 -13c4 0 8.16699 0.833008 12.5 2.5s8.5 4.66699 12.5 9s7.33301 10.166 10 17.499s4 16.666 4 27.999v146c0 16.667 2.66699 31.667 8 45s12.666 24.833 22 34.5
c9.33301 9.66699 19.833 17.167 31.5 22.5s24.167 8 37.5 8c34.667 0 60.834 -10.667 78.5 -32c17.667 -21.333 26.5 -47.333 26.5 -78v-27c0 -14.667 -2.5 -28.5 -7.5 -41.5s-11.833 -24.5 -20.5 -34.5s-18.834 -18 -30.5 -24c-11.667 -6 -24.5 -9 -38.5 -9h-47v-9
c0 -29.333 6.33301 -55.5 19 -78.5s29.334 -42.167 50 -57.5c20.667 -15.333 44 -26.666 70 -33.999s52 -10.333 78 -9c37.333 2 69.5 10.333 96.5 25s49.167 32.667 66.5 54s30.166 44.5 38.5 69.5c8.33301 25 12.5 49.167 12.5 72.5c0 32.667 -5.33301 62 -16 88
s-25.667 48 -45 66s-42.166 31.833 -68.5 41.5c-26.333 9.66699 -54.833 14.5 -85.5 14.5c-14 0 -28.333 -1 -43 -3l-9 60c16 2 32.333 3 49 3c38.667 0 74.834 -6.16699 108.5 -18.5c33.667 -12.333 63 -30 88 -53s44.833 -51.333 59.5 -85s22 -71.834 22 -114.501
c0 -31.333 -5.83301 -63 -17.5 -95s-28.667 -61.333 -51 -88s-50.333 -48.834 -84 -66.501s-72.834 -27.834 -117.5 -30.501c-28 -2 -55 0.166992 -81 6.5s-50.333 16 -73 29s-43 28.667 -61 47s-32.333 38.5 -43 60.5c-16 -12.667 -36.667 -19 -62 -19
c-19.333 0.666992 -35.166 4.5 -47.5 11.5c-12.333 7 -22.166 15.833 -29.5 26.5c-7.33301 10.667 -12.333 22 -15 34s-4 23.333 -4 34v154c0 16.667 -4.33301 29.334 -13 38.001s-18.667 13 -30 13c-14 0 -25.333 -4 -34 -12s-13.667 -21 -15 -39v-154
c0 -10.667 -1.5 -22.167 -4.5 -34.5s-8.16699 -23.833 -15.5 -34.5s-17.333 -19.5 -30 -26.5s-29 -10.5 -49 -10.5c-29.333 0.666992 -51.333 9 -66 25c-16 -16 -37.667 -24.333 -65 -25c-16 0 -29.667 2.33301 -41 7s-20.666 10.667 -28 18c-16 -16 -38 -24.333 -66 -25
c-20 0 -36.333 3.5 -49 10.5s-22.667 15.833 -30 26.5s-12.5 22.167 -15.5 34.5s-4.5 23.833 -4.5 34.5v86c0 12 -1.66699 22.167 -5 30.5s-7.83301 15.5 -13.5 21.5s-12.5 11.5 -20.5 16.5l-26 16.5v-131c0 -25.333 -4.33301 -47.166 -13 -65.499s-19.667 -33.5 -33 -45.5
s-28.166 -20.833 -44.499 -26.5s-32.5 -8.5 -48.5 -8.5h-64c-17.333 0 -33.166 3 -47.499 9s-27.166 14.333 -38.499 25c-7.33301 -10 -17.333 -18.167 -30 -24.5s-28.334 -9.5 -47.001 -9.5v57c4 0 8.16699 0.833008 12.5 2.5s8.5 4.66699 12.5 9s7.33301 10.166 10 17.499
s4 16.666 4 27.999v146c0 16.667 2.66699 31.667 8 45s12.666 24.833 21.999 34.5s19.833 17.167 31.5 22.5s24.167 8 37.5 8c34.667 0 60.834 -10.667 78.501 -32s26.5 -47.333 26.5 -78v-30c0 -29.333 -9.16699 -53.666 -27.5 -72.999s-41.5 -29 -69.5 -29h-47v-6
c0 -17.333 6.66699 -32.5 20 -45.5s28 -19.5 44 -19.5h64c8 0 16.5 1.66699 25.5 5s17.5 8.5 25.5 15.5s14.667 15.667 20 26s8 22.833 8 37.5v228h58c5.33301 -14 15 -25.667 29 -35s28.167 -19.5 42.5 -30.5s27.166 -24.833 38.5 -41.5
c11.333 -16.667 17 -39.334 17 -68.001v-80c0 -21.333 4.16699 -36 12.5 -44s16.166 -12.333 23.5 -13h2c7.33301 0.666992 15.333 4.83398 24 12.501s13 22.5 13 44.5v523h60zM1473 634.007l-0.000976562 -141.002h423c44 0 79.333 4 106 12s47.167 17.167 61.501 27.5
c14.333 10.333 24 20.833 29 31.5s8.5 18.667 10.5 24l51 -27c-2 -8.66699 -7.16699 -20.167 -15.5 -34.5s-22.166 -28.5 -41.5 -42.5c-19.333 -14 -45.333 -26 -78 -36s-74.334 -15 -125.001 -15h-421v-76c16 7.33301 32.333 11 49 11
c14.667 0 28.334 -2.83301 41.001 -8.5s23.667 -13.5 33 -23.5s16.5 -21.667 21.5 -35s7.5 -28 7.5 -44v-220c0 -23.333 2 -42.333 6 -57s10.5 -26 19.5 -34s20.833 -13.333 35.5 -16s32.667 -4 54 -4h980c25.333 -2 45.833 -7.5 61.5 -16.5s29.167 -19.5 40.5 -31.5
l-44 -41c-6 6.66699 -12.667 12.334 -20 17.001s-17.666 8.33398 -31 11.001l-11 1h-979c-60 0 -103.667 12.667 -131 38s-41 69.666 -41 132.999v220c0 16.667 -4.33301 29.334 -13 38.001s-18.667 13 -30 13c-14.667 0 -26.334 -4.33301 -35.001 -13
c-3.33301 -3.33301 -6.33301 -8.16602 -9 -14.499s-4.33398 -14.166 -5.00098 -23.499v-154c0 -10.667 -1.33301 -22 -4 -34s-7.66699 -23.333 -15 -34s-17.166 -19.5 -29.499 -26.5s-27.833 -10.833 -46.5 -11.5c-16 0 -29.667 2.33301 -41 7s-20.666 10.667 -27.999 18
c-7.33301 -7.33301 -16.833 -13.333 -28.5 -18s-25.167 -7 -40.5 -7v57c4 0 8.16699 0.833008 12.5 2.5s8.5 4.66699 12.5 9s7.33301 10.166 10 17.499s4 16.666 4 27.999v322h-133v60h133v141h60v-141h74v141h60zM134.997 -64.9951
c-23.333 26.667 -40.8311 55.166 -52.498 85.499s-17.5 61.5 -17.5 93.5c0 40.667 9.33301 80 28 118s46 71 82 99l36 -48c-28.667 -22 -50.167 -47.667 -64.5 -77s-21.5 -59.666 -21.5 -90.999c0 -24.667 4.5 -49 13.5 -73s22.833 -46.333 41.5 -67
c24 -26.667 52.333 -46.667 85 -60s66.667 -20 102 -20c28 0 55.167 4.16699 81.5 12.5s50.833 21.166 73.5 38.499c32 24 55 52.833 69 86.5s19.333 67.834 16 102.501c-4.66699 46.667 -22.167 85.167 -52.5 115.5s-67.5 49.166 -111.5 56.499h-24v-320h-60v550h-81v60
h162c26.667 0 50.5 -4 71.5 -12s38.833 -18.667 53.5 -32s26 -28.666 34 -45.999s12.333 -35.333 13 -54c0.666992 -24 -4.83301 -46.833 -16.5 -68.5s-29.167 -39.167 -52.5 -52.5c33.333 -19.333 61.166 -45.333 83.499 -78s35.833 -69.334 40.5 -110.001
c0.666992 -5.33301 1.16699 -10.166 1.5 -14.499s0.5 -9.16602 0.5 -14.499c0 -40.667 -9.33301 -79.834 -28 -117.501s-46.334 -70.5 -83.001 -98.5c-28 -21.333 -58.333 -37.333 -91 -48s-66 -16 -100 -16c-43.333 0 -85.333 8.33301 -126 25s-76 41.667 -106 75z
M996.999 256.004c0 16.667 2.83105 31.8428 8.49805 45.5098s13.334 25.167 23.001 34.5s20.667 16.666 33 21.999s25.166 8 38.499 8c33.333 0 60.333 -11.333 81 -34c10 -11.333 17.333 -24.333 22 -39s7 -30.334 7 -47.001v-143c0 -16.667 -2.83301 -31.667 -8.5 -45
s-13.334 -24.833 -23.001 -34.5s-20.667 -17 -33 -22s-25.166 -7.5 -38.499 -7.5c-32 0 -58 10 -78 30c-8 -8 -17.667 -14.5 -29 -19.5s-25.333 -7.5 -42 -7.5c-19.333 0.666992 -35.166 4.5 -47.499 11.5s-22.166 15.833 -29.499 26.5s-12.333 22 -15 34s-4 23.333 -4 34
v84c0 12 -1.66699 22.167 -5 30.5s-7.83301 15.666 -13.5 21.999s-12.5 12 -20.5 17l-26 16.5v-156c0 -10.667 -1.5 -22.834 -4.5 -36.501s-8.16699 -26.667 -15.5 -39s-17.333 -22.833 -30 -31.5s-29 -13 -49 -13v57c4 0 8.16699 0.833008 12.5 2.5s8.5 4.66699 12.5 9
s7.33301 10.166 10 17.499s4 16.666 4 27.999v255h58c5.33301 -14 14.833 -25.667 28.5 -35l42.5 -30.5c14.667 -11 27.5 -24.833 38.5 -41.5s16.5 -39.334 16.5 -68.001v-80c0 -22 4.33301 -36.833 13 -44.5s16.667 -11.834 24 -12.501c4 0 8.16699 0.833008 12.5 2.5
s8.5 4.66699 12.5 9s7.33301 10.166 10 17.499s4 16.666 4 27.999v145zM689.997 -75.9873h833v-58h-833v58zM1375 54.0127c4 0 8.16602 0.999023 12.499 2.99902s8.33301 5 12 9s6.83398 9.66699 9.50098 17s4 16.666 4 27.999v322h-74v-329
c1.33301 -19.333 5.83301 -32.166 13.5 -38.499s15.167 -10.166 22.5 -11.499zM1057 107.012c0.666992 -9.33301 2.33301 -17.332 5 -23.999s5.66699 -11.667 9 -15c3.33301 -4 7.83301 -7.33301 13.5 -10s13.167 -4 22.5 -4c10 0 19.667 4 29 12s14 20.333 14 37v143
c0 11.333 -1.33301 20.666 -4 27.999s-6 13.333 -10 18c-3.33301 4 -7.83301 7.33301 -13.5 10s-13.167 4 -22.5 4c-10 0 -19.667 -4 -29 -12s-14 -20.667 -14 -38v-149zM551.995 451.013c0 10 -2.33301 20.167 -7 30.5s-11.5 19.5 -20.5 27.5s-20.5 14.667 -34.5 20
s-30.667 8 -50 8h-21v-168l25 -2c20 0 37 2.66699 51 8s25.167 12 33.5 20s14.333 17 18 27s5.5 19.667 5.5 29zM2919 259.013c0 16 -4.16699 28.1689 -12.5 36.502s-18.833 12.166 -31.5 11.499c-8.66699 -0.666992 -17.5 -4.83398 -26.5 -12.501
s-13.5 -20.167 -13.5 -37.5v-75h40c10.667 0 20.667 3.83301 30 11.5s14 20.167 14 37.5v28zM1836 259.015c0 16 -4.16699 28.1689 -12.5 36.502s-18.833 12.166 -31.5 11.499c-8.66699 -0.666992 -17.5 -4.83398 -26.5 -12.501s-13.5 -20.167 -13.5 -37.5v-71h40
c10.667 0 20.667 3.33301 30 10s14 18.667 14 36v27zM2414 478.017v-59h-61v59h61z" />
    <glyph glyph-name="f_f" unicode="ff" horiz-adv-x="306" 
d="M178 545c-12 -2.66699 -23.5 -6.99707 -34.5 -12.9971s-20.5 -14.5 -28.5 -25.5s-14.333 -25.167 -19 -42.5s-7 -39 -7 -65v-43h79v43c0 63.333 13.167 112.166 39.5 146.499s62.833 54.5 109.5 60.5v-61c-12 -2.66699 -23.5 -7 -34.5 -13s-20.5 -14.5 -28.5 -25.5
s-14.333 -25.167 -19 -42.5s-7 -39 -7 -65v-43h69v-60h-69v-546h-60v546h-79v-546h-60v253c-5.33301 -1.33301 -11.333 -2.66602 -18 -3.99902s-13.667 -2 -21 -2v57c4 0 8.16699 0.833008 12.5 2.5s8.5 4.66699 12.5 9s7.33301 10.166 10 17.499s4 16.666 4 27.999v185h-39
v60h39v43c0 63.333 13.167 112.166 39.5 146.499s62.833 54.5 109.5 60.5v-61z" />
    <glyph glyph-name=".notdef" horiz-adv-x="296" 
 />
    <glyph glyph-name="space" unicode=" " horiz-adv-x="197" 
 />
    <glyph glyph-name="exclam" unicode="!" horiz-adv-x="308" 
d="M218 654v-516h-60v516h60zM219 61v-61h-63v61h63z" />
    <glyph glyph-name="quotedbl" unicode="&#x22;" horiz-adv-x="224" 
d="M188 654v-136h-60v136h60zM88 654v-136h-60v136h60z" />
    <glyph glyph-name="numbersign" unicode="#" horiz-adv-x="591" 
d="M-8 110v60h132l55 139h-132v60h156l68 172l56 -22l-60 -150h153l68 172l55 -22l-60 -150h98v-60h-121l-55 -139h121v-60h-145l-49 -126l-55 22l41 104h-153l-49 -126l-56 22l41 104h-109zM189 170h152l55 139h-152z" />
    <glyph glyph-name="dollar" unicode="$" horiz-adv-x="336" 
d="M140 242l-25.999 17.498c-8.66699 5.66699 -16.667 12 -24 19s-13.5 14.833 -18.5 23.5s-8.16699 18.334 -9.5 29.001c-3.33301 28 3 51.167 19 69.5s35.667 30.166 59 35.499v54h57v-55c16.667 -6 31.167 -16.333 43.5 -31s20.833 -28.667 25.5 -42l-51 -19
c-4 14 -10 24.667 -18 32c0 -16.667 0.333008 -34 1 -52s1 -35.667 1 -53c28 -15.333 51.667 -35.5 71 -60.5s29 -52.833 29 -83.5c-0.666992 -28.667 -10.334 -54.667 -29.001 -78s-43 -39 -73 -47v-57h-57v53c-37.333 2.66699 -68 15 -92 37s-36.667 50 -38 84
c-1.33301 28 6.16699 52.333 22.5 73s37.5 33.667 63.5 39l8 -52c-13.333 -3.33301 -24 -10.166 -32 -20.499s-11.333 -22.833 -10 -37.5c1.33301 -18.667 9.33301 -34.667 24 -48s32.667 -21.666 54 -24.999v195zM197.001 56.998c14.667 6.66699 26.5 16.5 35.5 29.5
s13.5 27.5 13.5 43.5c0 17.333 -4.83301 31.833 -14.5 43.5s-21.167 22.5 -34.5 32.5v-149zM140.001 380.998c-8.66699 -3.33301 -15 -8.5 -19 -15.5s-6 -13.833 -6 -20.5c0 -8.66699 2.33301 -15.667 7 -21s10.667 -10.333 18 -15v72z" />
    <glyph glyph-name="percent" unicode="%" horiz-adv-x="469" 
d="M87 -12l-40 28l314 428l39 -28zM79 216c-15.333 9.33301 -26.832 23.332 -34.499 41.999s-11.5 38.667 -11.5 60c0 11.333 1.66699 24.333 5 39c3.33301 13.333 8.5 25.333 15.5 36s15.167 19 24.5 25c10 8 21.667 12 35 12c12.667 0 24 -3.66699 34 -11
c15.333 -9.33301 26.833 -23.166 34.5 -41.499s11.5 -38.166 11.5 -59.499c0 -12.667 -1.66699 -25.667 -5 -39c-6 -26.667 -19 -47.334 -39 -62.001c-11.333 -7.33301 -23 -11 -35 -11c-12.667 0 -24.334 3.33301 -35.001 10zM121.001 257.999
c8.66699 4.66699 15.334 15.6689 20.001 33.002c1.33301 4.66699 2.16602 9.16699 2.49902 13.5s0.5 8.83301 0.5 13.5c0 13.333 -2.33301 25.666 -7 36.999s-10 19.333 -16 24c-6 2.66699 -11.667 2.66699 -17 0c-3.33301 -2.66699 -6.66602 -6.83398 -9.99902 -12.501
s-6.33301 -13.167 -9 -22.5c-2.66699 -7.33301 -4 -16 -4 -26c0 -14 2.5 -26.5 7.5 -37.5s10.5 -18.833 16.5 -23.5c5.33301 -3.33301 10.666 -3 15.999 1zM310.001 2.00098c-15.333 9.33301 -27 23.333 -35 42s-12 38.667 -12 60c0 6 0.333008 12.333 1 19
s2 13.334 4 20.001c3.33301 13.333 8.33301 25.166 15 35.499s15 18.833 25 25.5c10 8 22 12 36 12c12.667 0 23.667 -3.33301 33 -10c15.333 -9.33301 27 -23.5 35 -42.5s12 -38.5 12 -58.5c0 -14.667 -2 -28 -6 -40c-6 -27.333 -19.333 -48.333 -40 -63
c-5.33301 -3.33301 -11 -6 -17 -8s-11.667 -3 -17 -3c-12 0 -23.333 3.66699 -34 11zM352.001 43.001c3.33301 2.66699 6.83105 6.66797 10.498 12.001s6.5 12.666 8.5 21.999c2 10 3 19.333 3 28c0 13.333 -2.16699 25.5 -6.5 36.5s-9.83301 18.5 -16.5 22.5
c-6 2.66699 -11.667 2.66699 -17 0c-3.33301 -2 -6.66602 -5.83301 -9.99902 -11.5s-6 -13.167 -8 -22.5c-1.33301 -4 -2.33301 -8.33301 -3 -13s-1 -9 -1 -13c0 -14 2.16699 -26.5 6.5 -37.5s9.83301 -18.833 16.5 -23.5c4.66699 -3.33301 10.334 -3.33301 17.001 0z" />
    <glyph glyph-name="ampersand" unicode="&#x26;" horiz-adv-x="614" 
d="M355 463l-0.00292969 53.0039c-8 21.333 -20.5 35.166 -37.5 41.499s-34.167 8.83301 -51.5 7.5c-13.333 -2 -26.5 -10 -39.5 -24s-20.833 -33.667 -23.5 -59c-2 -24 2.33301 -51.333 13 -82c9.33301 2 18.666 3.33301 27.999 4s18.666 1 27.999 1l81 -1l-1 -60l-81 1
c-5.33301 0 -10.166 -0.166992 -14.499 -0.5s-8.83301 -0.833008 -13.5 -1.5c14.667 -26 32.334 -52.333 53.001 -79s43.667 -53 69 -79l41 -41c14 -13.333 28 -26 42 -38c5.33301 18 8 35.333 8 52c0 23.333 -4.66699 46.333 -14 69h-87v60h202v-60h-51
c6.66699 -22 10 -45.333 10 -70c0 -32.667 -6.33301 -63.667 -19 -93c27.333 -22 53 -41 77 -57s44.333 -28.333 61 -37l-27 -54c-18 9.33301 -39.333 22.333 -64 39s-51 36 -79 58c-23.333 -28.667 -51.166 -50.334 -83.499 -65.001s-66.166 -22 -101.499 -22
c-25.333 0 -50.166 3.83301 -74.499 11.5s-47.5 19.167 -69.5 34.5c-34 24 -59.833 53.833 -77.5 89.5s-26.5 72.5 -26.5 110.5c0 23.333 3.5 46.666 10.5 69.999s18.167 45.333 33.5 66c11.333 15.333 24 29 38 41s29 22.333 45 31c-13.333 37.333 -18.666 73 -15.999 107
c2 18 6.16699 34.833 12.5 50.5s14.5 29.667 24.5 42s21.667 22.333 35 30s27.666 12.5 42.999 14.5c16 2 32.333 1.66699 49 -1s32.667 -8.33398 48 -17.001v59h60v-202h-60zM321.997 144.004c-26.667 28 -52.001 57.168 -76.001 87.501s-44.667 61.5 -62 93.5
c-24 -12.667 -44 -30 -60 -52c-21.333 -30.667 -32 -64 -32 -100c0 -28.667 6.83301 -56.5 20.5 -83.5s33.167 -49.833 58.5 -68.5c34 -24 70.667 -36 110 -36c26.667 0 52 5.66699 76 17s44.667 27.666 62 48.999l-49.5 45c-16.333 15.333 -32.166 31.333 -47.499 48z" />
    <glyph glyph-name="quotesingle" unicode="'" horiz-adv-x="144" 
d="M88 654v-136h-60v136h60z" />
    <glyph glyph-name="parenleft" unicode="(" horiz-adv-x="833" 
d="M144 10c-27.333 36 -47.832 77.332 -61.499 123.999s-20.5 98 -20.5 154c0 12 0.333008 24 1 36s1.66699 24.333 3 37c5.33301 46 16.333 91.167 33 135.5s39.667 84.166 69 119.499s64.333 63 105 83s87 27.667 139 23l-5 -60
c-40.667 3.33301 -77.167 -2.66699 -109.5 -18s-60.166 -37.666 -83.499 -66.999c-24.667 -29.333 -44.334 -63.333 -59.001 -102s-24.334 -79 -29.001 -121c-1.33301 -11.333 -2.33301 -22.666 -3 -33.999s-1 -22.333 -1 -33c0 -50 6.16699 -95.167 18.5 -135.5
s29.5 -75.166 51.5 -104.499c22.667 -30.667 50 -54.334 82 -71.001s68.667 -25 110 -25c12.667 0 26 1 40 3l7 -60c-16 -2 -32 -3 -48 -3c-50 0 -95.333 10.333 -136 31s-75 50 -103 88z" />
    <glyph glyph-name="parenright" unicode=")" horiz-adv-x="833" 
d="M394 10c-28 -38 -62.332 -67.332 -102.999 -87.999s-86 -31 -136 -31c-16 0 -32 1 -48 3l7 60c14 -2 27.333 -3 40 -3c41.333 0 78 8.33301 110 25s59.333 40.334 82 71.001c22 29.333 39.167 64.166 51.5 104.499s18.5 85.5 18.5 135.5c0 10.667 -0.333008 21.667 -1 33
s-1.66699 22.666 -3 33.999c-4.66699 42 -14.334 82.333 -29.001 121s-34.334 72.667 -59.001 102c-23.333 29.333 -51.166 51.666 -83.499 66.999s-68.833 21.333 -109.5 18l-5 60c52 4.66699 98.333 -3 139 -23s75.667 -47.667 105 -83s52.333 -75.166 69 -119.499
s27.667 -89.5 33 -135.5c1.33301 -12.667 2.33301 -25 3 -37s1 -24 1 -36c0 -56 -6.83301 -107.333 -20.5 -154s-34.167 -88 -61.5 -124z" />
    <glyph glyph-name="asterisk" unicode="*" horiz-adv-x="481" 
d="M180 405v58l-59 -32l-21 39l58 31l-64 35l22 39l64 -35v64h45v-66l69 37l21 -39l-64 -35l59 -31l-22 -39l-63 34v-60h-45z" />
    <glyph glyph-name="plus" unicode="+" horiz-adv-x="621" 
d="M269 190h-85v60h85v85h60v-85h86v-60h-86v-86h-60v86z" />
    <glyph glyph-name="comma" unicode="," horiz-adv-x="306" 
d="M120 23c3.33301 0.666992 6.33105 2.33203 8.99805 4.99902c4 2.66699 7.33301 8 10 16c7.33301 16 10 35.333 8 58l60 4c1.33301 -13.333 1 -27.5 -1 -42.5s-5.66699 -29.167 -11 -42.5c-5.33301 -14.667 -13.666 -27.334 -24.999 -38.001
c-6 -5.33301 -12.667 -9.66602 -20 -12.999s-15.666 -5.66602 -24.999 -6.99902z" />
    <glyph glyph-name="hyphen" unicode="-" horiz-adv-x="577" 
d="M184 190v60h231v-60h-231z" />
    <glyph glyph-name="period" unicode="." horiz-adv-x="252" 
d="M184 78v-78h-81v78h81z" />
    <glyph glyph-name="slash" unicode="/" horiz-adv-x="453" 
d="M130 -72l-53 28l415 779l53 -28z" />
    <glyph glyph-name="zero" unicode="0" horiz-adv-x="360" 
d="M106 5c-19.333 12.667 -35.666 30 -48.999 52s-23.5 46.5 -30.5 73.5s-10.667 55.167 -11 84.5s2.83398 58 9.50098 86c7.33301 28 17.5 53 30.5 75s28.833 39.667 47.5 53c19.333 13.333 40.166 20.5 62.499 21.5s44.166 -5.5 65.499 -19.5
c19.333 -12.667 35.833 -30 49.5 -52s24 -46.5 31 -73.5s10.667 -55.167 11 -84.5s-2.83398 -58 -9.50098 -86c-7.33301 -28 -17.666 -53 -30.999 -75s-29 -39.667 -47 -53c-19.333 -13.333 -40.333 -20.5 -63 -21.5s-44.667 5.5 -66 19.5zM200 56
c10.667 7.33301 21.001 18.833 31.001 34.5s17.667 35.5 23 59.5c6 24 8.83301 48.167 8.5 72.5s-3.33301 46.833 -9 67.5s-13.334 39 -23.001 55s-20.5 28 -32.5 36c-20 14 -40.333 13.667 -61 -1c-10.667 -7.33301 -20.834 -18.833 -30.501 -34.5s-17.5 -35.5 -23.5 -59.5
s-8.83301 -48.167 -8.5 -72.5s3.33301 -46.833 9 -67.5s13.334 -39 23.001 -55s20.5 -28 32.5 -36c20.667 -13.333 41 -13 61 1z" />
    <glyph glyph-name="one" unicode="1" horiz-adv-x="166" 
d="M54 -1v323l-1 -2l-45 27l50 102l56 -16v-434h-60z" />
    <glyph glyph-name="two" unicode="2" horiz-adv-x="306" 
d="M18 51l71.5 67.499c24.333 23 46.5 46.833 66.5 71.5c20.667 24.667 36.167 48.667 46.5 72s14.166 46.333 11.499 69c-3.33301 22 -10.333 37.5 -21 46.5s-22.667 13.833 -36 14.5c-15.333 1.33301 -31.333 -2.16699 -48 -10.5s-30.667 -21.166 -42 -38.499l-50 33
c17.333 25.333 38.833 44.666 64.5 57.999s51.834 19.333 78.501 18c28.667 -1.33301 53.5 -11.5 74.5 -30.5s33.833 -46.5 38.5 -82.5s-0.5 -69.5 -15.5 -100.5s-33.167 -59.833 -54.5 -86.5c-11.333 -13.333 -23 -26.333 -35 -39l-37 -38l-17 -15h150v-60h-226
c-6.66699 0 -12.5 1.83301 -17.5 5.5s-8.5 8.16699 -10.5 13.5s-2.5 10.833 -1.5 16.5s4.16699 10.834 9.5 15.501z" />
    <glyph glyph-name="three" unicode="3" horiz-adv-x="295" 
d="M49 86c13.333 -17.333 28.665 -28.499 45.998 -33.499s34 -5.83301 50 -2.5c16 4 29.667 11.833 41 23.5s18 26.167 20 43.5c1.33301 14.667 0.5 27.667 -2.5 39s-7.83301 20.666 -14.5 27.999c-6 7.33301 -15 13.333 -27 18s-28 6 -48 4
c-6 -0.666992 -11.5 0.5 -16.5 3.5s-8.83301 6.66699 -11.5 11s-4.16699 9.33301 -4.5 15s1.16699 11.167 4.5 16.5l84 136h-134v60h188l25 -46l-85 -139h1c29.333 -6 52.333 -19 69 -39c13.333 -15.333 22.5 -33 27.5 -53s6.16699 -40 3.5 -60
c-3.33301 -32 -15.166 -58.167 -35.499 -78.5s-43.833 -33.833 -70.5 -40.5c-27.333 -6.66699 -55.166 -5.5 -83.499 3.5s-52.833 26.833 -73.5 53.5z" />
    <glyph glyph-name="four" unicode="4" horiz-adv-x="313" 
d="M199 3v113h-153l-26 46l185 292l54 -33v-418h-60zM199 176v158l-99 -158h99z" />
    <glyph glyph-name="five" unicode="5" horiz-adv-x="295" 
d="M46 86c13.333 -16.667 28.6699 -26.9971 46.0029 -30.9971s33.666 -3.33301 48.999 2c16.667 5.33301 30.667 14.5 42 27.5s17.666 28.167 18.999 45.5c2 20 0.333008 36.667 -5 50s-13 24 -23 32c-10 8.66699 -24 15 -42 19s-40.667 4.33301 -68 1
c-10 -1.33301 -18.5 1.5 -25.5 8.5s-9.83301 15.167 -8.5 24.5l20 156c1.33301 7.33301 4.66602 13.666 9.99902 18.999s12 8 20 8h132v-60h-106l-12 -94h8c45.333 -1.33301 82 -13 110 -35c19.333 -16 33.166 -35.5 41.499 -58.5s11.166 -48.167 8.49902 -75.5
c-3.33301 -31.333 -14.666 -57.833 -33.999 -79.5s-42 -36.834 -68 -45.501c-13.333 -4 -27.166 -6.33301 -41.499 -7s-28.5 1 -42.5 5s-27.5 10.167 -40.5 18.5s-24.833 19.166 -35.5 32.499z" />
    <glyph glyph-name="six" unicode="6" horiz-adv-x="324" 
d="M23 158c-1.33301 36.667 1.50781 73.9971 8.50781 111.997s19.833 71.667 38.5 101c10 15.333 21.5 28.833 34.5 40.5s27.5 20.834 43.5 27.501s33.667 10 53 10s40 -3.66699 62 -11l-19 -57c-30 10 -54.833 10.667 -74.5 2s-35.834 -23.334 -48.501 -44.001
c-7.33301 -11.333 -13.5 -23.833 -18.5 -37.5s-9.16699 -28.167 -12.5 -43.5l-2 -16l5 5c12.667 11.333 26.5 19.5 41.5 24.5s30.167 7 45.5 6s30.166 -5.33301 44.499 -13s27.166 -18.5 38.499 -32.5c11.333 -13.333 19.666 -29.666 24.999 -48.999
s7.66602 -39 6.99902 -59c0 -20 -3.66699 -40.5 -11 -61.5s-20 -39.167 -38 -54.5c-18.667 -15.333 -40.334 -24.166 -65.001 -26.499s-48.334 2.5 -71.001 14.5s-42.334 31.333 -59.001 58s-26 61.334 -28 104.001zM207.008 53.9971
c18.667 16.667 27.999 40.3359 27.999 71.0029c0.666992 14.667 -1 28.167 -5 40.5s-8.66699 22.166 -14 29.499c-8 10.667 -18.167 17.667 -30.5 21s-24.166 2.66602 -35.499 -2.00098s-21.333 -13.5 -30 -26.5s-14 -30.5 -16 -52.5l-18 2l-1 2
c3.33301 -25.333 10 -45.333 20 -60s21.167 -25 33.5 -31s24.833 -8.33301 37.5 -7s23 5.66602 31 12.999z" />
    <glyph glyph-name="seven" unicode="7" horiz-adv-x="275" 
d="M80 -9l-55 24l162 373h-177v60h223l27 -42z" />
    <glyph glyph-name="eight" unicode="8" horiz-adv-x="322" 
d="M25 66c-6 14 -9.33496 28.334 -10.002 43.001s1 28.834 5 42.501s10.333 26.5 19 38.5s19 22.333 31 31c-21.333 18 -35.5 40.833 -42.5 68.5s-5.16699 55.167 5.5 82.5c6.66699 16.667 16.167 31.167 28.5 43.5s26 21.833 41 28.5s31 10.167 48 10.5
s33.833 -2.83398 50.5 -9.50098s31 -16.167 43 -28.5s21.167 -26.333 27.5 -42s9.83301 -32.167 10.5 -49.5s-2.33301 -34.333 -9 -51c-9.33301 -21.333 -22 -39 -38 -53c20.667 -14.667 36 -33.334 46 -56.001c7.33301 -17.333 10.833 -34.833 10.5 -52.5
s-4.16602 -34.167 -11.499 -49.5s-17.5 -29.166 -30.5 -41.499s-28.167 -21.833 -45.5 -28.5s-35.166 -9.83398 -53.499 -9.50098s-35.5 3.83301 -51.5 10.5s-30.5 16 -43.5 28s-23.167 26.667 -30.5 44zM182.998 49.001c20 7.33301 34.002 20.166 42.002 38.499
s8.33301 36.5 1 54.5c-8 18 -21.833 31.167 -41.5 39.5s-40.167 8.5 -61.5 0.5c-20.667 -7.33301 -34.834 -20.166 -42.501 -38.499s-7.83398 -36.5 -0.500977 -54.5c8 -18 21.833 -31.167 41.5 -39.5s40.167 -8.5 61.5 -0.5zM217 296.001
c7.33301 18.667 7 37.168 -1 55.501s-20.667 31.166 -38 38.499s-34.666 7.16602 -51.999 -0.500977s-29.666 -20.834 -36.999 -39.501c-7.33301 -19.333 -7 -38 1 -56s20.667 -30.667 38 -38s34.666 -7.16602 51.999 0.500977s29.666 20.834 36.999 39.501z" />
    <glyph glyph-name="nine" unicode="9" horiz-adv-x="330" 
d="M71 59c21.333 -6.66699 39.3301 -10.002 53.9971 -10.002s26.667 1.66699 36 5c18.667 6.66699 34 21 46 43c6 11.333 10.833 23.833 14.5 37.5s6.5 28.5 8.5 44.5l2 23l-2 -3c-12 -12.667 -25.833 -22.167 -41.5 -28.5s-31.5 -9.16602 -47.5 -8.49902
s-31.667 4.83398 -47 12.501s-29 18.834 -41 33.501c-11.333 14 -19.5 31 -24.5 51s-6.83301 39.667 -5.5 59c1.33301 20 5.83301 40.5 13.5 61.5s20.834 38.167 39.501 51.5c18 13.333 39.333 21.5 64 24.5s48.334 -1.83301 71.001 -14.5
c23.333 -12.667 42.333 -32.167 57 -58.5s23 -59.833 25 -100.5c0.666992 -17.333 0.833984 -35.5 0.500977 -54.5s-1.66602 -37.833 -3.99902 -56.5s-5.83301 -36.834 -10.5 -54.501s-11 -33.834 -19 -48.501c-8.66699 -15.333 -19.334 -29.166 -32.001 -41.499
s-28 -21.833 -46 -28.5c-36 -13.333 -78.667 -12.333 -128 3zM230.997 302.998l-1.99707 9.99609c-4 22 -10.333 38.833 -19 50.5s-17.667 19.834 -27 24.501c-12 6.66699 -24.5 9.33398 -37.5 8.00098s-24.5 -5.66602 -34.5 -12.999c-8 -6.66699 -14.5 -15.667 -19.5 -27
s-7.83301 -24.666 -8.5 -39.999s0.666016 -29.333 3.99902 -42s7.66602 -22.334 12.999 -29.001c8 -10.667 18.167 -17.667 30.5 -21s24.166 -2.66602 35.499 2.00098s21.5 13.5 30.5 26.5s14.167 30.5 15.5 52.5z" />
    <glyph glyph-name="colon" unicode=":" horiz-adv-x="258" 
d="M184 415v-78h-81v78h81zM184 78v-78h-81v78h81z" />
    <glyph glyph-name="semicolon" unicode=";" horiz-adv-x="295" 
d="M120 23c3.33301 0.666992 6.33105 2.33203 8.99805 4.99902c4 2.66699 7.33301 8 10 16c7.33301 16 10 35.333 8 58l60 4c1.33301 -13.333 1 -27.5 -1 -42.5s-5.66699 -29.167 -11 -42.5c-5.33301 -14.667 -13.666 -27.334 -24.999 -38.001
c-6 -5.33301 -12.667 -9.66602 -20 -12.999s-15.666 -5.66602 -24.999 -6.99902zM213.998 414.998v-78h-81v78h81z" />
    <glyph glyph-name="less" unicode="&#x3c;" horiz-adv-x="411" 
d="M273 34l-241 173.001c-7.33301 5.33301 -11.5 12.666 -12.5 21.999s1.83301 17.333 8.5 24l232 232l43 -43l-208 -207l213 -152z" />
    <glyph glyph-name="equal" unicode="=" horiz-adv-x="557" 
d="M184 250v60h201v-60h-201zM184 140v60h201v-60h-201z" />
    <glyph glyph-name="greater" unicode="&#x3e;" horiz-adv-x="507" 
d="M135 83l213 151.999l-208 207l43 43l232 -232c6.66699 -6.66699 9.5 -14.667 8.5 -24s-5.16699 -16.666 -12.5 -21.999l-241 -173z" />
    <glyph glyph-name="question" unicode="?" horiz-adv-x="495" 
d="M197 132c-2 10 -3.00098 20.998 -3.00098 32.998c0 16 2.16699 32.167 6.5 48.5s11.833 31.833 22.5 46.5c12.667 18 28.334 34.5 47.001 49.5l54.5 45c17.667 15 33.167 31.167 46.5 48.5s21 37.333 23 60c0 30 -5.16699 55.333 -15.5 76s-23.833 37.334 -40.5 50.001
s-35 21.334 -55 26.001s-39.667 6.66699 -59 6c-18.667 -1.33301 -36.667 -6 -54 -14s-32.666 -19.167 -45.999 -33.5s-23.833 -31.5 -31.5 -51.5s-10.834 -42.333 -9.50098 -67c1.33301 -24 8 -45.333 20 -64s27 -33.334 45 -44.001l-28 -53
c-27.333 15.333 -50 36.833 -68 64.5s-27.667 59.167 -29 94.5c-1.33301 34.667 3.33398 65.667 14.001 93s25.5 50.666 44.5 69.999s40.667 34.333 65 45s49.166 17 74.499 19c30 2 58.5 -1.16699 85.5 -9.5s51 -21.166 72 -38.499s38 -39.166 51 -65.499
s20.5 -56.5 22.5 -90.5c1.33301 -31.333 -5.66699 -59.5 -21 -84.5s-33.333 -47.5 -54 -67.5s-41.334 -38.167 -62.001 -54.5s-35.667 -31.5 -45 -45.5c-7.33301 -10.667 -12.166 -24.167 -14.499 -40.5s-2.83301 -33.5 -1.5 -51.5h-57zM257.999 68.998v-69h-71v69h71z" />
    <glyph glyph-name="at" unicode="@" horiz-adv-x="745" 
d="M44 240c2.66699 38.667 11.668 77.0049 27.001 115.005s36.833 72.167 64.5 102.5s61 55.166 100 74.499s84.167 29.666 135.5 30.999c50 0.666992 93.833 -6 131.5 -20s69.667 -33.167 96 -57.5s46.833 -52.666 61.5 -84.999s23.667 -66.166 27 -101.499
c0.666992 -6 1.16699 -11.833 1.5 -17.5s0.5 -11.5 0.5 -17.5c0 -32 -4.5 -62.833 -13.5 -92.5s-21.5 -56.5 -37.5 -80.5c-19.333 -28.667 -43.666 -51.834 -72.999 -69.501s-62.333 -25.834 -99 -24.501c-38.667 2 -67 18.667 -85 50c-17.333 -13.333 -38.333 -20 -63 -20
c-13.333 0 -26 2.5 -38 7.5s-22.5 12.167 -31.5 21.5s-16.333 20.666 -22 33.999s-8.5 28 -8.5 44v109c0 15.333 3.66699 31.333 11 48s17.666 31.834 30.999 45.501s29.5 25 48.5 34s40.167 13.5 63.5 13.5h52v-268c0 -12 1.5 -21.667 4.5 -29s6.16699 -13 9.5 -17
c8 -8 18.333 -12.333 31 -13c23.333 -0.666992 45.166 5 65.499 17s38.166 28.667 53.499 50c12.667 18.667 22.667 39.834 30 63.501s11 48.834 11 75.501c0 5.33301 -0.166992 10.333 -0.5 15s-0.833008 9.66699 -1.5 15c-2.66699 28 -9.66699 54.833 -21 80.5
s-27.333 48.167 -48 67.5s-46.5 34.666 -77.5 45.999s-67.167 16.666 -108.5 15.999s-78.166 -9 -110.499 -25s-59.666 -36.5 -81.999 -61.5s-39.833 -53.333 -52.5 -85s-20.334 -63.834 -23.001 -96.501c-0.666992 -5.33301 -1 -10.833 -1 -16.5v-16.5
c0 -39.333 5.83301 -75 17.5 -107s28.167 -59.333 49.5 -82s47 -40.167 77 -52.5s63.667 -18.5 101 -18.5c23.333 0 46.333 2.33301 69 7l12 -59c-14 -2.66699 -27.667 -4.66699 -41 -6s-26.666 -2 -39.999 -2c-46 0 -87.667 7.83301 -125 23.5s-69.333 37.667 -96 66
s-47.334 62.166 -62.001 101.499s-22 82.666 -22 129.999v18c0 6 0.333008 12.333 1 19zM364.001 323.005c-7.33301 0 -16.001 -2.00098 -26.001 -6.00098s-19.5 -9.66699 -28.5 -17s-16.5 -16.666 -22.5 -27.999s-9 -24.333 -9 -39v-99c0 -16.667 4.33301 -28.667 13 -36
s17.667 -11 27 -11c14.667 0 25.334 4.33301 32.001 13c3.33301 4 6.33301 9.5 9 16.5s4 16.167 4 27.5h1v179z" />
    <glyph glyph-name="A" unicode="A" horiz-adv-x="720" 
d="M79 401c-2 28.667 2 57.668 12 87.001s25.667 56 47 80s48 43.5 80 58.5s68.667 22.5 110 22.5h235c13.333 3.33301 26.666 5 39.999 5c10.667 0 21.834 -1 33.501 -3s24.167 -5.66699 37.5 -11v-529c0 -11.333 1.33301 -20.666 4 -27.999s6 -13.166 10 -17.499
s8.16699 -7.33301 12.5 -9s8.5 -2.5 12.5 -2.5v-57c-20 0 -36.333 3.5 -49 10.5s-22.667 15.833 -30 26.5s-12.5 22.167 -15.5 34.5s-4.5 23.833 -4.5 34.5v87h-146c-4 -44.667 -13.5 -82.834 -28.5 -114.501s-33.5 -57.5 -55.5 -77.5s-46.667 -34.5 -74 -43.5
s-55.333 -13.167 -84 -12.5c-27.333 0.666992 -53.333 6 -78 16s-46.167 24.5 -64.5 43.5s-32.666 42 -42.999 69s-15.166 57.833 -14.499 92.5l60 -2c-0.666992 -26 3 -49.167 11 -69.5s19 -37.166 33 -50.499s30.167 -23.5 48.5 -30.5s37.5 -10.5 57.5 -10.5
c28 0 52.333 5.33301 73 16s37.667 24.834 51 42.501s23.833 37.5 31.5 59.5s12.5 44.667 14.5 68c3.33301 25.333 6.16602 50.166 8.49902 74.499s5.16602 47.166 8.49902 68.499c2.66699 17.333 5.5 37.166 8.5 59.499s7 45.333 12 69s11 47 18 70s16.167 43.5 27.5 61.5
h-161c-32 0 -60.167 -5.66699 -84.5 -17s-44.5 -26 -60.5 -44s-27.667 -37.833 -35 -59.5s-10.333 -42.5 -9 -62.5c2 -24 8.16699 -45.167 18.5 -63.5s23.333 -33.5 39 -45.5s33.667 -20.833 54 -26.5s41.5 -7.83398 63.5 -6.50098l5 -59
c-29.333 -2 -57.666 0.833008 -84.999 8.5s-52 19.834 -74 36.501s-40.333 37.667 -55 63s-23.334 54.666 -26.001 87.999zM565 585.001c-14 -8.66699 -25.833 -24.666 -35.5 -47.999s-17.667 -48.666 -24 -75.999s-11.333 -54 -15 -80l-8.5 -60l-8 -71h140v339h-42
c-1.33301 -0.666992 -2.5 -1.33398 -3.5 -2.00098s-2.16699 -1.33398 -3.5 -2.00098z" />
    <glyph glyph-name="B" unicode="B" horiz-adv-x="642" 
d="M215 634l191.002 -0.00195312c20 0 38.667 -2.83301 56 -8.5s32.5 -14.167 45.5 -25.5s23.333 -25.666 31 -42.999s11.834 -38 12.501 -62c0.666992 -22 -4.66602 -43.667 -15.999 -65s-28 -37.333 -50 -48c16 -8.66699 31 -20 45 -34s26.5 -29.5 37.5 -46.5
s20 -35.167 27 -54.5s11.167 -39 12.5 -59c2 -40 -3.83301 -76.667 -17.5 -110s-33.5 -62 -59.5 -86s-57.167 -42.667 -93.5 -56s-75.833 -20 -118.5 -20c-36 0 -70.167 5.16699 -102.5 15.5s-61.333 25.5 -87 45.5s-46.834 44.833 -63.501 74.5s-27 64.167 -31 103.5
c-4.66699 47.333 3.5 93 24.5 137s53.5 81 97.5 111l33 -50c-35.333 -23.333 -61 -52.5 -77 -87.5s-22 -71.167 -18 -108.5c3.33301 -32.667 11.833 -60.667 25.5 -84s30.667 -42.166 51 -56.499s43.166 -24.833 68.499 -31.5s52 -9.66699 80 -9
c32.667 0.666992 63.167 5.66699 91.5 15s52.666 22.666 72.999 39.999s36.166 38.833 47.499 64.5s16.333 54.834 15 87.501c-0.666992 23.333 -5.66699 44.833 -15 64.5s-21.5 37 -36.5 52s-32.167 27.333 -51.5 37s-40 15.5 -62 17.5h-36v-333h-60v553h-70v60z
M404.002 410.998c10.667 1.33301 21.166 4.00098 31.499 8.00098s19.833 9.16699 28.5 15.5s15.667 14.166 21 23.499s8 20 8 32c0.666992 56 -28.666 84 -87.999 84h-60v-159c10 0 20 -0.333008 30 -1s19.667 -1.66699 29 -3z" />
    <glyph glyph-name="C" unicode="C" horiz-adv-x="618" 
d="M580 37c-9.33301 -16.667 -20.6641 -30.667 -33.9971 -42s-27.833 -20.5 -43.5 -27.5s-31.334 -12 -47.001 -15s-29.834 -4.5 -42.501 -4.5c-20 0 -42 2.83301 -66 8.5s-47.5 15.834 -70.5 30.501s-44.167 34.667 -63.5 60s-34.333 57.333 -45 96
c-24.667 8.66699 -47.167 20.667 -67.5 36s-37.5 34 -51.5 56s-24.333 47.5 -31 76.5s-8.66699 61.833 -6 98.5c2.66699 40 15 77.833 37 113.5s52 64.5 90 86.5l31 -51c-28.667 -17.333 -52 -39.5 -70 -66.5s-27.667 -55.833 -29 -86.5c-2 -49.333 5.16699 -89 21.5 -119
s37.166 -53 62.499 -69c-0.666992 8.66699 -1.16699 17.5 -1.5 26.5s-0.5 18.167 -0.5 27.5c0 74 9.83301 135.333 29.5 184s43.834 87.334 72.501 116.001s58.667 48.667 90 60s58.666 17 81.999 17c28.667 0 54 -6.33301 76 -19s40.5 -28.667 55.5 -48
s26.5 -41.166 34.5 -65.499s12 -47.833 12 -70.5v-6c0 -46.667 -8.16699 -89.334 -24.5 -128.001s-38.5 -71.834 -66.5 -99.501s-60.667 -49.167 -98 -64.5s-77 -23.333 -119 -24c-10.667 -0.666992 -21 -0.666992 -31 0s-20 1.66699 -30 3c10 -26 22.5 -47 37.5 -63
s30.5 -28.5 46.5 -37.5s31.833 -15 47.5 -18s29.5 -4.5 41.5 -4.5c24.667 0 48.5 5.66699 71.5 17s39.5 26.666 49.5 45.999zM213.002 272c0 -30 2.00195 -56.999 6.00195 -80.999c30.667 -7.33301 59.334 -10 86.001 -8c28 1.33301 56.167 8.16602 84.5 20.499
s53.833 29.5 76.5 51.5s41.334 48.667 56.001 80s22.334 67 23.001 107v4c0 16.667 -2.66699 33.667 -8 51s-13 32.666 -23 45.999s-22.333 24.333 -37 33s-31.334 13 -50.001 13c-10 0 -22.333 -1.83301 -37 -5.5s-29.834 -10 -45.501 -19s-31.334 -21.167 -47.001 -36.5
s-29.834 -34.666 -42.501 -57.999s-22.834 -51.333 -30.501 -84s-11.5 -70.667 -11.5 -114z" />
    <glyph glyph-name="D" unicode="D" horiz-adv-x="688" 
d="M186 -40l0.000976562 60.0029h46v2c4.66699 0 10 1.66699 16 5s12 9.33301 18 18s11 19 15 31s6 24.667 6 38v361h60v-361c0 -17.333 -2.33301 -34 -7 -50s-10.667 -30.667 -18 -44h14c40 0 76 6.66699 108 20s59.333 32.333 82 57c22.667 25.333 40.5 56.833 53.5 94.5
s19.5 81.5 19.5 131.5c0 31.333 -5.66699 62.666 -17 93.999s-28.333 59.666 -51 84.999s-51.334 46 -86.001 62s-75 24 -121 24h-15c-4.66699 0 -9.66699 -0.333008 -15 -1c-20 -2 -41.5 -7 -64.5 -15s-44.833 -19.833 -65.5 -35.5s-38.667 -35.5 -54 -59.5
s-25 -52.333 -29 -85c-4.66699 -34 -1.16699 -65.333 10.5 -94s28.167 -49.667 49.5 -63l-31 -52c-30.667 18 -53.5 43.667 -68.5 77s-22.5 68.333 -22.5 105c0 5.33301 0.166992 11 0.5 17s0.833008 11.667 1.5 17c5.33301 42 17.5 78.167 36.5 108.5s41.5 55.5 67.5 75.5
s53.5 35.167 82.5 45.5s56.5 16.5 82.5 18.5c5.33301 0.666992 10.833 1 16.5 1h16.5c55.333 0 104 -9.66699 146 -29s77 -44.5 105 -75.5s49.167 -65.833 63.5 -104.5s21.5 -77.334 21.5 -116.001c0 -56 -7.5 -106.333 -22.5 -151s-36.833 -83 -65.5 -115
c-29.333 -32 -63.833 -56.167 -103.5 -72.5s-83.5 -24.5 -131.5 -24.5h-150z" />
    <glyph glyph-name="E" unicode="E" horiz-adv-x="406" 
d="M343 481l0.000976562 33.999c-4 12 -9.66699 21.5 -17 28.5s-15.166 12 -23.499 15s-17 4.5 -26 4.5s-17.5 -1 -25.5 -3c-7.33301 -1.33301 -14.833 -4.5 -22.5 -9.5s-14.5 -11.167 -20.5 -18.5s-10.833 -15.833 -14.5 -25.5s-4.83398 -20.167 -3.50098 -31.5
c2 -17.333 6.66699 -30.833 14 -40.5s15.666 -17.167 24.999 -22.5c10.667 -6 21.667 -9.66699 33 -11l14 1h1l66 4l3 -60l-61 -3c-3.33301 -1.33301 -7 -2 -11 -2h-11l-9 -1c-16 -3.33301 -33.333 -9 -52 -17s-36 -19 -52 -33s-29.833 -31.167 -41.5 -51.5
s-18.834 -44.5 -21.501 -72.5c-3.33301 -40.667 2.33398 -77.167 17.001 -109.5s37 -58.833 67 -79.5c21.333 -15.333 46.5 -27.166 75.5 -35.499s61.833 -12.5 98.5 -12.5c29.333 0 60.666 3 93.999 9l11 -59c-35.333 -6.66699 -70.333 -10 -105 -10
c-84 0 -153.333 19.667 -208 59c-38.667 28 -67.667 62.833 -87 104.5s-26.666 87.834 -21.999 138.501c2 26.667 7.5 51 16.5 73s20.167 41.5 33.5 58.5s28.333 31.667 45 44s34 22.5 52 30.5c-11.333 10 -21 22.667 -29 38s-13 33.333 -15 54
c-2 20 -0.166992 38.5 5.5 55.5s13.667 31.833 24 44.5s22.333 23.167 36 31.5s27.5 14.166 41.5 17.499c13.333 3.33301 26 5 38 5c20 0 39 -4.33301 57 -13l10 -5v79h60v-203h-60z" />
    <glyph glyph-name="F" unicode="F" horiz-adv-x="607" 
d="M467 186c0 -41.333 -6.66504 -77.5 -19.998 -108.5s-31.166 -56.833 -53.499 -77.5s-47.833 -35.834 -76.5 -45.501s-58.334 -14.167 -89.001 -13.5c-27.333 0.666992 -53.833 6 -79.5 16s-48.167 24.5 -67.5 43.5s-34.833 42 -46.5 69s-17.167 57.833 -16.5 92.5l60 -2
c0 -26 4.5 -49.167 13.5 -69.5s21 -37.166 36 -50.499s32.167 -23.5 51.5 -30.5s39 -10.5 59 -10.5c22.667 0 44.167 4.33301 64.5 13s38.166 21 53.499 37s27.666 35.5 36.999 58.5s14 49.167 14 78.5v78h-60v60h60v180c0 28.667 5 53.667 15 75h-104
c-32 0 -60.167 -5.66699 -84.5 -17s-44.5 -26 -60.5 -44s-27.667 -37.833 -35 -59.5s-10.333 -42.5 -9 -62.5c2 -24 8.16699 -45.167 18.5 -63.5s23.333 -33.5 39 -45.5s33.667 -20.833 54 -26.5s41.5 -7.83398 63.5 -6.50098l5 -59
c-29.333 -2 -57.666 0.833008 -84.999 8.5s-52 19.834 -74 36.501s-40.333 37.667 -55 63s-23.334 54.666 -26.001 87.999c-2 28.667 2 57.667 12 87s25.667 56 47 80s48 43.5 80 58.5s68.667 22.5 110 22.5h249c29.333 1.33301 50.833 6.66602 64.5 15.999
s22.167 21 25.5 35l58 -13c-6.66699 -30 -22.834 -53.5 -48.501 -70.5s-58.5 -26.167 -98.5 -27.5h-57c-11.333 0 -20.666 -4.66699 -27.999 -14c-4 -5.33301 -7.5 -13.166 -10.5 -23.499s-4.83301 -23.166 -5.5 -38.499v-179h94v-60h-94v-78z" />
    <glyph glyph-name="G" unicode="G" horiz-adv-x="638" 
d="M582 232l0.000976562 -281.999c-0.666992 -16.667 -3.16699 -32.667 -7.5 -48s-10.666 -28.666 -18.999 -39.999s-18.833 -20.5 -31.5 -27.5s-28 -10.5 -46 -10.5v60c9.33301 0.666992 16.833 3.16699 22.5 7.5s10 9.66602 13 15.999s5.16699 13.333 6.5 21
s2 15.167 2 22.5v39c-14.667 -13.333 -31 -24 -49 -32s-37.667 -12.333 -59 -13c-20 0 -41.167 3 -63.5 9s-44 16.5 -65 31.5s-40 35.167 -57 60.5s-30.5 56.666 -40.5 93.999c-26.667 8.66699 -51.334 20.667 -74.001 36s-42 34.166 -58 56.499
s-28.167 48.166 -36.5 77.499s-10.833 62.666 -7.5 99.999c3.33301 40 15.833 77.833 37.5 113.5s51.5 64.5 89.5 86.5l31 -51c-28.667 -17.333 -51.667 -39.5 -69 -66.5s-27.333 -55.833 -30 -86.5c-2.66699 -27.333 -1.66699 -51.666 3 -72.999s12 -40.166 22 -56.499
s21.833 -30.333 35.5 -42s28.5 -21.5 44.5 -29.5c-2 20.667 -3 43 -3 67c0 74 8.83301 135.333 26.5 184s39.5 87.334 65.5 116.001s53.667 48.667 83 60s55.666 17 78.999 17c28.667 0 54 -6.33301 76 -19s40.5 -28.667 55.5 -48s26.5 -41.166 34.5 -65.499
s12 -47.833 12 -70.5v-6c0 -42 -7 -80.333 -21 -115s-32.667 -65.334 -56 -92.001zM305.001 183.001c28.667 2.66699 57.168 10.333 85.501 23s53.833 29.834 76.5 51.501s41.167 47.834 55.5 78.501s21.833 66 22.5 106v4c0 16.667 -2.66699 33.667 -8 51
s-13 32.666 -23 45.999s-22.333 24.333 -37 33s-31.334 13 -50.001 13c-15.333 0 -34 -4.33301 -56 -13s-43.333 -24.667 -64 -48s-38.167 -55.5 -52.5 -96.5s-21.5 -94.167 -21.5 -159.5c0 -32.667 2 -61.334 6 -86.001c23.333 -4 45.333 -5 66 -3zM304.002 124
c-15.333 -0.666992 -32.332 -0.00195312 -50.999 1.99805c8.66699 -25.333 19.5 -46 32.5 -62s26.667 -28.5 41 -37.5s28.666 -15 42.999 -18s27.5 -4.5 39.5 -4.5c16 0 30 2 42 6s22.5 9.33301 31.5 16s16.667 14.167 23 22.5s11.833 16.833 16.5 25.5v151
c-29.333 -31.333 -63 -55.666 -101 -72.999s-77 -26.666 -117 -27.999z" />
    <glyph glyph-name="H" unicode="H" horiz-adv-x="739" 
d="M467 186c0 -41.333 -6.66504 -77.502 -19.998 -108.502s-31.166 -56.833 -53.499 -77.5s-47.833 -35.834 -76.5 -45.501s-58.334 -14.167 -89.001 -13.5c-27.333 0.666992 -53.833 6 -79.5 16s-48.167 24.5 -67.5 43.5s-34.833 42 -46.5 69s-17.167 57.833 -16.5 92.5
l60 -2c0 -26 4.5 -49.167 13.5 -69.5s21 -37.166 36 -50.499s32.167 -23.5 51.5 -30.5s39 -10.5 59 -10.5c22.667 0 44.167 4.33301 64.5 13s38.166 21 53.499 37s27.666 35.5 36.999 58.5s14 49.167 14 78.5v318c0 28.667 5 53.667 15 75h-104
c-32 0 -60.167 -5.66699 -84.5 -17s-44.5 -26 -60.5 -44s-27.667 -37.833 -35 -59.5s-10.333 -42.5 -9 -62.5c2 -24 8.16699 -45.167 18.5 -63.5s23.333 -33.5 39 -45.5s33.667 -20.833 54 -26.5s41.5 -7.83398 63.5 -6.50098l5 -59
c-29.333 -2 -57.666 0.833008 -84.999 8.5s-52 19.834 -74 36.501s-40.333 37.667 -55 63s-23.334 54.666 -26.001 87.999c-2 28.667 2 57.667 12 87s25.667 56 47 80s48 43.5 80 58.5s68.667 22.5 110 22.5h202l1 -60h-10c-11.333 0 -20.666 -4.66699 -27.999 -14
c-4 -5.33301 -7.5 -13.166 -10.5 -23.499s-4.83301 -23.166 -5.5 -38.499v-183h168v314h60v-527c0 -17.333 3.66699 -30.5 11 -39.5s17.666 -12.833 30.999 -11.5v-60c-12.667 0 -25 1.83301 -37 5.5s-22.833 9.83398 -32.5 18.501s-17.5 20 -23.5 34s-9 31.667 -9 53v153
h-168v-74z" />
    <glyph glyph-name="I" unicode="I" horiz-adv-x="491" 
d="M24 391c-2 28.667 1.99805 57.668 11.998 87.001s25.667 56 47 80s48 43.5 80 58.5s68.667 22.5 110 22.5h202l1 -60h-10c-11.333 0 -20.666 -4.66699 -27.999 -14c-4 -5.33301 -7.5 -13.166 -10.5 -23.499s-4.83301 -23.166 -5.5 -38.499v-478
c-1.33301 -40 -10.666 -72.333 -27.999 -97c-20 -26 -45.333 -39 -76 -39v60c10.667 0 20 5 28 15c4 5.33301 7.5 13.166 10.5 23.499s4.83301 23.166 5.5 38.499v478c0 28.667 5 53.667 15 75h-104c-32 0 -60.167 -5.66699 -84.5 -17s-44.5 -26 -60.5 -44
s-27.667 -37.833 -35 -59.5s-10.333 -42.5 -9 -62.5c2 -24 8.16699 -45.167 18.5 -63.5s23.333 -33.5 39 -45.5s33.667 -20.833 54 -26.5s41.5 -7.83398 63.5 -6.50098l5 -59c-29.333 -2 -57.666 0.833008 -84.999 8.5s-52 19.834 -74 36.501s-40.333 37.667 -55 63
s-23.334 54.666 -26.001 87.999z" />
    <glyph glyph-name="J" unicode="J" horiz-adv-x="536" 
d="M467 95c0 -41.333 -6.66504 -77.3369 -19.998 -108.004s-31.166 -56 -53.499 -76s-47.833 -34.667 -76.5 -44s-58.334 -13.666 -89.001 -12.999c-27.333 0.666992 -53.833 5.83398 -79.5 15.501s-48.167 23.667 -67.5 42s-34.833 40.833 -46.5 67.5
s-17.167 57.334 -16.5 92.001c0.666992 31.333 6.5 59.333 17.5 84s25.167 45.5 42.5 62.5s37.166 30 59.499 39s44.833 13.5 67.5 13.5c27.333 0 53 -5.33301 77 -16l-22 -51c-18 7.33301 -35 11 -51 11c-15.333 0 -30.833 -3.33301 -46.5 -10s-29.667 -16.167 -42 -28.5
s-22.5 -27.5 -30.5 -45.5s-12 -38.333 -12 -61c0 -26 4.5 -48.833 13.5 -68.5s21 -36 36 -49s32.167 -22.833 51.5 -29.5s39 -10 59 -10c22.667 0 44.167 4.16699 64.5 12.5s38.166 20.166 53.499 35.499s27.666 34.333 36.999 57s14 48.667 14 78v406
c0 28.667 5 53.667 15 75h-256v60h434v-60h-89c-11.333 0 -20.666 -4.66699 -27.999 -14c-4 -5.33301 -7.5 -13.166 -10.5 -23.499s-4.83301 -23.166 -5.5 -38.499v-405v0z" />
    <glyph glyph-name="K" unicode="K" horiz-adv-x="737" 
d="M69 391c-2 28.667 2.00098 57.666 12.001 86.999s25.667 56 47 80s48 43.5 80 58.5s68.667 22.5 110 22.5h202l1 -60h-10c-11.333 0 -20.666 -4.66699 -27.999 -14c-4 -5.33301 -7.5 -13.166 -10.5 -23.499s-4.83301 -23.166 -5.5 -38.499v-317
c0 -41.333 -6.66699 -77.5 -20 -108.5s-31.166 -56.833 -53.499 -77.5s-47.833 -35.834 -76.5 -45.501s-58.334 -14.167 -89.001 -13.5c-27.333 0.666992 -53.833 6 -79.5 16s-48.167 24.5 -67.5 43.5s-34.833 42 -46.5 69s-17.167 57.833 -16.5 92.5l60 -2
c0 -26 4.5 -49.167 13.5 -69.5s21 -37.166 36 -50.499s32.167 -23.5 51.5 -30.5s39 -10.5 59 -10.5c22.667 0 44.167 4.33301 64.5 13s38.166 21 53.499 37s27.666 35.5 36.999 58.5s14 49.167 14 78.5v318c0 28.667 5 53.667 15 75h-104c-32 0 -60.167 -5.66699 -84.5 -17
s-44.5 -26 -60.5 -44s-27.667 -37.833 -35 -59.5s-10.333 -42.5 -9 -62.5c2 -24 8.16699 -45.167 18.5 -63.5s23.333 -33.5 39 -45.5s33.667 -20.833 54 -26.5s41.5 -7.83398 63.5 -6.50098l5 -59c-29.333 -2 -57.666 0.833008 -84.999 8.5s-52 19.834 -74 36.501
s-40.333 37.667 -55 63s-23.334 54.666 -26.001 87.999zM600.001 61.999c-0.666992 17.333 -1.6709 34.834 -3.00391 52.501s-5.66602 34.334 -12.999 50.001s-18.833 29.5 -34.5 41.5s-37.834 20.667 -66.501 26l14 59c0.666992 0 1.33398 -0.166992 2.00098 -0.5
s1.33398 -0.5 2.00098 -0.5l18 -3c20 2.66699 38.5 11.834 55.5 27.501s28.833 41.5 35.5 77.5l30 170c5.33301 29.333 16.333 51.5 33 66.5s35.667 25.833 57 32.5l18 -57c-13.333 -4 -24 -9.83301 -32 -17.5s-13.667 -19.167 -17 -34.5l-30 -170
c-5.33301 -31.333 -14.5 -57.5 -27.5 -78.5s-28.5 -37.833 -46.5 -50.5h-1c24 -20 41.167 -45.833 51.5 -77.5s15.5 -67.167 15.5 -106.5v-86c0.666992 -18 4.16699 -31.833 10.5 -41.5s14 -16.834 23 -21.501s18 -7.33398 27 -8.00098s16.5 -1.33398 22.5 -2.00098l-14 -59
c-14 0 -28.667 2.16699 -44 6.5s-29.166 11.5 -41.499 21.5s-22.666 23 -30.999 39s-12.833 35.333 -13.5 58v86z" />
    <glyph glyph-name="L" unicode="L" horiz-adv-x="634" 
d="M627 430c0 -44.667 -7.99609 -85.665 -23.9961 -122.998s-37.167 -69.833 -63.5 -97.5s-56.333 -49.667 -90 -66s-68.167 -25.833 -103.5 -28.5c-4 -26 -11.667 -48.333 -23 -67c26 -8.66699 50.333 -20.167 73 -34.5l68 -44.5c22.667 -15.333 45.667 -29.666 69 -42.999
s48 -23.333 74 -30c15.333 -3.33301 30.333 -5 45 -5c15.333 0 30.833 2.16699 46.5 6.5s30.5 11.166 44.5 20.499l27 -53c-18.667 -13.333 -37.5 -22.5 -56.5 -27.5s-38.167 -7.5 -57.5 -7.5c-11.333 0 -22 0.666992 -32 2s-20.333 3.33301 -31 6
c-31.333 8 -61.333 20.667 -90 38l-84.5 53c-27.667 18 -54.834 33.833 -81.501 47.5s-53.334 21.167 -80.001 22.5c-13.333 0 -26.166 -0.666992 -38.499 -2s-25.5 -3.33301 -39.5 -6v59c22.667 4 43.667 6 63 6c10 2.66699 19 8.66699 27 18s13.667 23.333 17 42
c-34.667 3.33301 -67.834 11.166 -99.501 23.499s-59.334 30 -83.001 53s-42 51.667 -55 86s-17.833 74.833 -14.5 121.5c2.66699 40 15 77.833 37 113.5s52 64.5 90 86.5l31 -51c-28.667 -17.333 -52 -39.5 -70 -66.5s-27.667 -55.833 -29 -86.5
c-1.33301 -40 3.83398 -73.667 15.501 -101s27.167 -49.5 46.5 -66.5s41 -29.667 65 -38s47 -13.833 69 -16.5v267c0 34 4 65.333 12 94s19.333 53.667 34 75c15.333 21.333 33.5 38.166 54.5 50.499s44.167 18.5 69.5 18.5c29.333 0 54.666 -6.16699 75.999 -18.5
s39 -28.5 53 -48.5c13.333 -19.333 23.166 -40.833 29.499 -64.5s9.5 -47.5 9.5 -71.5v-46zM349.004 174.002c26.667 3.33301 52.835 11.666 78.502 24.999s48.667 31 69 53s37 48.167 50 78.5s19.833 64.166 20.5 101.499v44c0 19.333 -2.33301 37.833 -7 55.5
s-11.667 33.167 -21 46.5c-9.33301 12.667 -20.333 22.667 -33 30s-28.334 11 -47.001 11c-13.333 0 -26.5 -3.5 -39.5 -10.5s-24.5 -18.167 -34.5 -33.5c-10.667 -15.333 -19.334 -34.166 -26.001 -56.499s-10 -48.166 -10 -77.499v-267z" />
    <glyph glyph-name="M" unicode="M" horiz-adv-x="905" 
d="M592 0l0.000976562 429.001c0 28.667 -5.83301 50.167 -17.5 64.5s-27.5 21.5 -47.5 21.5s-36.833 -7.66699 -50.5 -23s-20.5 -38.666 -20.5 -69.999v-422h-60v418c0 20.667 -4.16699 40.5 -12.5 59.5s-20.333 35.667 -36 50s-34.5 25.333 -56.5 33
s-46.667 11.167 -74 10.5c-22 -0.666992 -42.5 -5.66699 -61.5 -15s-35.333 -22 -49 -38s-24 -34.833 -31 -56.5s-9.5 -45.5 -7.5 -71.5c1.33301 -19.333 6.16602 -37 14.499 -53s18.833 -29.667 31.5 -41s26.667 -20 42 -26s30.666 -8.66699 45.999 -8
s32 5.33398 50 14.001l27 -53c-11.333 -6.66699 -23.333 -11.5 -36 -14.5s-25.334 -5.16699 -38.001 -6.5c-23.333 -1.33301 -46.333 2.16699 -69 10.5s-43 20.5 -61 36.5s-33.167 35.5 -45.5 58.5s-19.5 48.5 -21.5 76.5c-2.66699 34.667 0.666016 66.667 9.99902 96
s23.166 54.666 41.499 75.999s40.333 38.5 66 51.5s53.834 20.833 84.501 23.5c44 3.33301 85.167 -4.83398 123.5 -24.501s68.833 -46.834 91.5 -81.501c9.33301 14 22.333 25.833 39 35.5s37.667 14.5 63 14.5c22.667 0 42 -4 58 -12s29 -19 39 -33
c10 13.333 23 24.166 39 32.499s36 12.5 60 12.5c43.333 0 75 -13.667 95 -41s30 -62.333 30 -105v-444c0 -13.333 1.83301 -24.333 5.5 -33s7.83398 -15.667 12.501 -21c10 -10 22.333 -15 37 -15v-60c-14.667 0 -29 2.83301 -43 8.5s-26.333 13.834 -37 24.501
s-19.167 24 -25.5 40s-9.5 34.667 -9.5 56v444c0 28.667 -5.83301 50.167 -17.5 64.5s-27.5 21.5 -47.5 21.5c-19.333 0 -35.666 -7 -48.999 -21s-20.666 -35 -21.999 -63v-431h-60z" />
    <glyph glyph-name="N" unicode="N" horiz-adv-x="755" 
d="M757 -144c-14.667 0 -28.9971 2.83203 -42.9971 8.49902s-26.333 13.834 -37 24.501s-19.167 24 -25.5 40s-9.5 34.667 -9.5 56v444c0 28.667 -8 51.834 -24 69.501s-36.333 26.5 -61 26.5c-28.667 0 -52.667 -9.33301 -72 -28s-29 -43.667 -29 -75v-422h-60v423
c-0.666992 20.667 -5.5 40.167 -14.5 58.5s-21.167 34.333 -36.5 48s-33.833 24.167 -55.5 31.5s-45.834 10.666 -72.501 9.99902c-22 -0.666992 -42.5 -5.66699 -61.5 -15s-35.333 -22 -49 -38s-24 -34.833 -31 -56.5s-9.5 -45.5 -7.5 -71.5
c1.33301 -19.333 6.16602 -37 14.499 -53s18.833 -29.667 31.5 -41s26.667 -20 42 -26s30.666 -8.66699 45.999 -8s32 5.33398 50 14.001l27 -53c-11.333 -6.66699 -23.333 -11.5 -36 -14.5s-25.334 -5.16699 -38.001 -6.5c-23.333 -1.33301 -46.333 2.16699 -69 10.5
s-43 20.5 -61 36.5s-33.167 35.5 -45.5 58.5s-19.5 48.5 -21.5 76.5c-2.66699 34.667 0.666016 66.667 9.99902 96s23.166 54.666 41.499 75.999s40.333 38.5 66 51.5s53.834 20.833 84.501 23.5c44 3.33301 85.5 -5 124.5 -25s69.5 -47.667 91.5 -83
c11.333 17.333 27.5 32 48.5 44s48.5 18 82.5 18c22 0 41.833 -4.16699 59.5 -12.5s32.834 -19.5 45.501 -33.5s22.5 -30.5 29.5 -49.5s10.5 -39.167 10.5 -60.5v-444c0 -13.333 1.83301 -24.333 5.5 -33s7.83398 -15.667 12.501 -21c10 -10 22.333 -15 37 -15v-60v0z" />
    <glyph glyph-name="O" unicode="O" horiz-adv-x="654" 
d="M71 366c-1.33301 -30 1.3291 -56.3301 7.99609 -78.9971s15.834 -42.334 27.501 -59.001s25.334 -30.334 41.001 -41.001s32.167 -19.334 49.5 -26.001v250c0 42 6.5 78 19.5 108s29.833 54.667 50.5 74s43.334 33.5 68.001 42.5s48.667 13.5 72 13.5
c28.667 0 55 -6.33301 79 -19s44.833 -28.667 62.5 -48s31.5 -41.166 41.5 -65.499s15 -47.833 15 -70.5v-46c0 -14 -0.833008 -27.5 -2.5 -40.5s-4.16699 -25.833 -7.5 -38.5h1v-168c0 -39.333 -6.5 -72.333 -19.5 -99s-29.333 -48 -49 -64s-41.167 -27.5 -64.5 -34.5
s-45 -10.5 -65 -10.5c-21.333 0 -42.333 3.16699 -63 9.5s-39.667 15.833 -57 28.5s-32.666 28.5 -45.999 47.5s-23 41.167 -29 66.5c-28 7.33301 -54.167 18.333 -78.5 33s-45.333 33.167 -63 55.5s-31 48.666 -40 78.999s-12.167 65.5 -9.5 105.5s15 77.833 37 113.5
s52 64.5 90 86.5l31 -51c-28.667 -17.333 -52 -39.5 -70 -66.5s-27.667 -55.833 -29 -86.5zM256.995 155.003l-0.000976562 -8.99902c16.667 -3.33301 32.667 -4.33301 48 -3c28 0.666992 56.167 7 84.5 19s53.833 29.167 76.5 51.5s41.334 49.333 56.001 81
s22.334 67.5 23.001 107.5v44c0 16.667 -3.66699 33.667 -11 51s-17.333 32.666 -30 45.999s-27.334 24.333 -44.001 33s-34.334 13 -53.001 13c-15.333 0 -31.666 -3.33301 -48.999 -10s-33.5 -17 -48.5 -31s-27.5 -32.333 -37.5 -55s-15 -50 -15 -82v-256z
M303.994 84.0039l-17.5 -0.000976562c-5.66699 0 -11.5 0.333008 -17.5 1c12 -28 29.667 -48.5 53 -61.5s47 -19.5 71 -19.5c22.667 0 42.834 3.83301 60.501 11.5s32.667 18.334 45 32.001s21.666 29.667 27.999 48s9.5 38.166 9.5 59.499v46
c-30 -37.333 -65.333 -66.166 -106 -86.499s-82.667 -30.5 -126 -30.5z" />
    <glyph glyph-name="P" unicode="P" horiz-adv-x="638" 
d="M92 559c30 33.333 65.333 58.332 106 74.999s82.667 25 126 25c34 0 67.333 -5.33301 100 -16s63 -26.667 91 -48c36.667 -28 64.334 -60.833 83.001 -98.5s28 -76.834 28 -117.501c0 -5.33301 -0.166992 -10.166 -0.5 -14.499s-0.833008 -9.16602 -1.5 -14.499
c-3.33301 -32.667 -12.666 -62.667 -27.999 -90s-34.666 -51 -57.999 -71s-49.666 -35.667 -78.999 -47s-59.666 -17 -90.999 -17h-16.5c-5.66699 0 -11.167 0.666992 -16.5 2v-40c0 -17.333 -2.5 -34.333 -7.5 -51s-11.833 -31.834 -20.5 -45.501
s-19.334 -25.667 -32.001 -36s-26.334 -17.833 -41.001 -22.5l-18 57c15.333 5.33301 29 16.833 41 34.5s18 38.834 18 63.501v428h60v-329c5.33301 -0.666992 10.666 -1.16699 15.999 -1.5s10.666 -0.5 15.999 -0.5c25.333 0 49.5 4.16699 72.5 12.5
s43.167 20.166 60.5 35.499s31.666 33.833 42.999 55.5s18.333 45.5 21 71.5c3.33301 34.667 -2 68.834 -16 102.501s-37 62.5 -69 86.5c-22.667 17.333 -47.167 30.166 -73.5 38.499s-53.5 12.5 -81.5 12.5c-35.333 0 -69.333 -6.66699 -102 -20s-61 -33.333 -85 -60
c-18.667 -20.667 -32.5 -43 -41.5 -67s-13.5 -48.333 -13.5 -73c0 -31.333 7.16699 -61.666 21.5 -90.999s35.833 -55 64.5 -77l-36 -48c-36 28 -63.333 61 -82 99s-28 77.333 -28 118c0 32 5.83301 63.167 17.5 93.5s29.167 58.833 52.5 85.5z" />
    <glyph glyph-name="Q" unicode="Q" horiz-adv-x="662" 
d="M618 339l0.00195312 -59.0039c0 -46.667 -4.33301 -87.5 -13 -122.5s-19.834 -65 -33.501 -90s-28.834 -45.5 -45.501 -61.5s-33 -28.333 -49 -37c21.333 -14 43 -27.167 65 -39.5s45.667 -21.833 71 -28.5c15.333 -3.33301 29.333 -5 42 -5c29.333 0 57.333 9 84 27
l34 -49c-19.333 -13.333 -39 -23 -59 -29s-39.667 -9 -59 -9c-20.667 0 -39.334 2.33301 -56.001 7c-28 7.33301 -55.167 18 -81.5 32s-52.166 29 -77.499 45l-23.5 15.5c-7.66699 5 -15.167 9.5 -22.5 13.5c-19.333 1.33301 -39.333 5.5 -60 12.5s-40.667 18.167 -60 33.5
c-15.333 2 -28.666 3 -39.999 3c-14 0 -26 -0.833008 -36 -2.5s-17.667 -3.16699 -23 -4.5l-10 59c9.33301 2.66699 18.5 4.5 27.5 5.5s18.167 1.83301 27.5 2.5c-6.66699 11.333 -12.834 23.833 -18.501 37.5s-10.5 28.834 -14.5 45.501c-26 8.66699 -50.333 20.5 -73 35.5
s-42 33.5 -58 55.5s-28 47.667 -36 77s-10.667 63 -8 101c2.66699 40 15 77.833 37 113.5s52 64.5 90 86.5l31 -51c-28.667 -17.333 -52 -39.5 -70 -66.5s-27.667 -55.833 -29 -86.5c-1.33301 -26.667 0.666992 -50.5 6 -71.5s12.833 -39.5 22.5 -55.5s21 -29.667 34 -41
s27.167 -20.666 42.5 -27.999c-2 18.667 -3 39.334 -3 62.001c0 74 8.33301 135.333 25 184s37.334 87.334 62.001 116.001s51.167 48.667 79.5 60s54.166 17 77.499 17c28.667 0 54.5 -6.33301 77.5 -19s42.667 -28.667 59 -48s29 -41.166 38 -65.499
s13.5 -47.833 13.5 -70.5v-6c0 -36.667 -5.66699 -71.334 -17 -104.001zM305.002 182.996c28 0.666992 56.1641 7.00195 84.4971 19.002s53.833 29.167 76.5 51.5s41.334 49.333 56.001 81s22.334 67.5 23.001 107.5v4c0 16.667 -3.16699 33.667 -9.5 51
s-15.166 32.666 -26.499 45.999s-24.833 24.333 -40.5 33s-32.834 13 -51.501 13c-15.333 0 -33.5 -4.33301 -54.5 -13s-41.167 -24.667 -60.5 -48s-35.666 -55.5 -48.999 -96.5s-20 -94.167 -20 -159.5c0 -15.333 0.5 -29.833 1.5 -43.5s2.16699 -26.834 3.5 -39.501
c24 -5.33301 46.333 -7.33301 67 -6zM420.999 4.99805c12.667 3.33301 27.167 11.333 43.5 24s31.666 30.334 45.999 53.001s26.5 50.167 36.5 82.5s15 70.166 15 113.499c-14 -24 -30.667 -45.5 -50 -64.5s-40.166 -35.167 -62.499 -48.5s-46 -23.5 -71 -30.5
s-49.833 -10.5 -74.5 -10.5c-17.333 0 -34.333 1 -51 3c5.33301 -16 11.5 -29.833 18.5 -41.5s14.5 -22.167 22.5 -31.5c23.333 -3.33301 45.5 -9.5 66.5 -18.5s41.167 -19.167 60.5 -30.5z" />
    <glyph glyph-name="R" unicode="R" horiz-adv-x="753" 
d="M480 184c26 -1.33301 51.1729 2.00098 75.5059 10.001s46 19.833 65 35.5s34.5 34.334 46.5 56.001s19.333 46.167 22 73.5c3.33301 34.667 -1.5 69 -14.5 103s-35.5 63 -67.5 87c-22.667 17.333 -47.167 30.166 -73.5 38.499s-53.5 12.5 -81.5 12.5
c-36 0 -70.667 -6.83301 -104 -20.5s-62 -33.834 -86 -60.501c-18.667 -20.667 -32.5 -43 -41.5 -67s-13.5 -48.333 -13.5 -73c0 -31.333 7.16699 -61.666 21.5 -90.999s35.833 -55 64.5 -77l-36 -48c-36 28 -63.333 61 -82 99s-28 77.333 -28 118
c0 32 5.83301 63.167 17.5 93.5s29.167 58.833 52.5 85.5c30 33.333 65.5 58.5 106.5 75.5s83.5 25.5 127.5 25.5c34 0 67.5 -5.33301 100.5 -16s63.5 -26.667 91.5 -48c36.667 -28 63.834 -60.833 81.501 -98.5s26.5 -76.5 26.5 -116.5
c0 -5.33301 -0.166992 -10.5 -0.5 -15.5s-0.833008 -10.167 -1.5 -15.5c-4.66699 -40 -18.334 -76.333 -41.001 -109s-50 -58.667 -82 -78c11.333 -10.667 20.666 -23.834 27.999 -39.501s11 -36.5 11 -62.5v-86c0 -18 2.16699 -32.167 6.5 -42.5s9.5 -18.166 15.5 -23.499
s12.5 -9 19.5 -11s13.167 -3.66699 18.5 -5l-17 -53c-28.667 3.33301 -53.167 15.166 -73.5 35.499s-30.5 51.166 -30.5 92.499v86c-0.666992 14.667 -2.66699 26.834 -6 36.501s-7.33301 17.5 -12 23.5s-9.83398 10.167 -15.501 12.5s-10.834 4.16602 -15.501 5.49902
c-12 -3.33301 -24.833 -5.66602 -38.5 -6.99902s-26.5 -1.66602 -38.5 -0.999023c-4 -35.333 -13.167 -66.333 -27.5 -93s-32.333 -48.834 -54 -66.501s-45.834 -30.834 -72.501 -39.501s-54.334 -12.667 -83.001 -12c-27.333 0.666992 -53.833 6 -79.5 16
s-48.167 24.5 -67.5 43.5s-34.833 42 -46.5 69s-17.167 57.833 -16.5 92.5c0.666992 30.667 6 57.834 16 81.501s23.333 44.167 40 61.5l41 -44c-11.333 -12.667 -20.166 -27.334 -26.499 -44.001s-9.83301 -35.667 -10.5 -57c0 -26 4.5 -49.167 13.5 -69.5
s21 -37.166 36 -50.499s32.167 -23.5 51.5 -30.5s39 -10.5 59 -10.5c22.667 0 44.167 4.33301 64.5 13s38.166 21 53.499 37s27.666 35.5 36.999 58.5s14 49.167 14 78.5v348h60v-322v0z" />
    <glyph glyph-name="S" unicode="S" horiz-adv-x="528" 
d="M255 -75c-30.667 0.666992 -59.501 6.00293 -86.501 16.0029s-50.5 23.667 -70.5 41s-36 38.333 -48 63s-18.667 51.667 -20 81c-1.33301 25.333 2.16699 49 10.5 71s20 41.167 35 57.5s32.833 29.166 53.5 38.499s43 14 67 14c20 0 39.667 -3.33301 59 -10l-18 -54
c-13.333 4 -25.666 6 -36.999 6c-16 0 -31 -3.16699 -45 -9.5s-26 -15 -36 -26s-17.833 -24 -23.5 -39s-7.83398 -30.833 -6.50098 -47.5c1.33301 -42 17.166 -76 47.499 -102s70.166 -39.667 119.499 -41c26 -0.666992 49.667 3.33301 71 12s39.666 20.5 54.999 35.5
s27 32.5 35 52.5s11.667 40.667 11 62c0 15.333 -2.66699 30.166 -8 44.499s-12.166 28 -20.499 41s-18 25.167 -29 36.5s-22.5 21.666 -34.5 30.999c-17.333 14.667 -35.5 28.167 -54.5 40.5s-36.667 25.166 -53 38.499s-30.833 27.833 -43.5 43.5s-21.667 34.5 -27 56.5
c-2 10 -3 20 -3 30c0 18.667 3.66699 36.5 11 53.5s17.5 31.833 30.5 44.5s28.167 22.667 45.5 30s36.333 11 57 11c16 0 31.333 -2.83301 46 -8.5s27.834 -13.334 39.501 -23.001s21.834 -21 30.501 -34s15 -26.833 19 -41.5l-56 -24
c-7.33301 23.333 -18.166 41 -32.499 53s-30.833 17.667 -49.5 17c-12 0 -23 -2 -33 -6s-18.5 -9.66699 -25.5 -17s-12.333 -15.833 -16 -25.5s-5.5 -19.834 -5.5 -30.501c0 -8 1.16699 -16 3.5 -24s6.16602 -15.667 11.499 -23c8.66699 -12 19.667 -23.5 33 -34.5
s27 -21.333 41 -31s27.667 -18.667 41 -27s24.333 -16.166 33 -23.499c32 -26 58.167 -55.5 78.5 -88.5s30.5 -71.5 30.5 -115.5c0 -29.333 -6 -57.166 -18 -83.499s-28.333 -49.333 -49 -69s-45.167 -35.167 -73.5 -46.5s-59.166 -16.666 -92.499 -15.999z" />
    <glyph glyph-name="T" unicode="T" horiz-adv-x="557" 
d="M22 386c-2 28.667 2 57.6699 12 87.0029s25.667 56 47 80s48 43.5 80 58.5s68.667 22.5 110 22.5h392c29.333 1.33301 50.833 6.66602 64.5 15.999s22.167 21 25.5 35l58 -13c-6.66699 -30 -22.834 -53.5 -48.501 -70.5s-58.5 -26.167 -98.5 -27.5h-185
c-8 -0.666992 -15.667 -5.33398 -23 -14.001c-4 -5.33301 -7.5 -13.166 -10.5 -23.499s-4.83301 -23.166 -5.5 -38.499v-454c-1.33301 -40 -10.666 -72.333 -27.999 -97c-20 -26 -45.333 -39 -76 -39v60c10.667 0 20 5 28 15c4 5.33301 7.5 13.166 10.5 23.499
s4.83301 23.166 5.5 38.499v454c0 28.667 5 53.667 15 75h-124c-32 0 -60.167 -5.66699 -84.5 -17s-44.5 -26 -60.5 -44s-27.667 -37.833 -35 -59.5s-10.333 -42.5 -9 -62.5c2 -24 8.16699 -45.167 18.5 -63.5s23.333 -33.5 39 -45.5s33.667 -20.833 54 -26.5
s41.5 -7.83398 63.5 -6.50098l5 -59c-29.333 -2 -57.666 0.833008 -84.999 8.5s-52 19.834 -74 36.501s-40.333 37.667 -55 63s-23.334 54.666 -26.001 87.999z" />
    <glyph glyph-name="U" unicode="U" horiz-adv-x="762" 
d="M687 633l-0.00195312 -607.996c0 -13.333 1.83301 -24.333 5.5 -33s7.83398 -15.667 12.501 -21c10 -10 22.333 -15 37 -15v-60c-29.333 0 -55.5 10.5 -78.5 31.5s-35.167 51.5 -36.5 91.5c-28.667 -22.667 -62.334 -34 -101.001 -34c-22 0 -41.833 4.16699 -59.5 12.5
s-32.834 19.5 -45.501 33.5s-22.5 30.5 -29.5 49.5s-10.5 39.167 -10.5 60.5v312c0 30 -5.16699 55.5 -15.5 76.5s-23.666 38 -39.999 51s-34.5 22.167 -54.5 27.5s-39.667 7.66602 -59 6.99902c-18.667 -1.33301 -36.667 -6 -54 -14s-32.666 -19.167 -45.999 -33.5
s-23.833 -31.333 -31.5 -51s-10.834 -41.834 -9.50098 -66.501c0.666992 -18 4.83398 -34.667 12.501 -50s17.167 -28.5 28.5 -39.5s24.333 -19.667 39 -26s30 -9.5 46 -9.5c17.333 0 33 3.33301 47 10l17 -55c-11.333 -5.33301 -22.5 -9 -33.5 -11s-22.167 -3 -33.5 -3
c-23.333 0 -45.666 4.66699 -66.999 14s-40.5 22 -57.5 38s-30.667 35.167 -41 57.5s-16.166 46.5 -17.499 72.5c-1.33301 34.667 3.33398 65.667 14.001 93s25.5 50.5 44.5 69.5s40.667 33.833 65 44.5s49.166 17 74.499 19c31.333 2 61 -1.33301 89 -10
s52.667 -22.5 74 -41.5s38.166 -42.833 50.499 -71.5s18.5 -61.334 18.5 -98.001v-312c0 -28.667 8 -51.834 24 -69.501s36.333 -26.5 61 -26.5c28.667 0 52.667 9.33301 72 28s29 43.667 29 75v485h60z" />
    <glyph glyph-name="V" unicode="V" horiz-adv-x="738" 
d="M689 261c0 -35.333 -4.33398 -70.3291 -13.001 -104.996s-21.5 -65.834 -38.5 -93.501s-38 -50.167 -63 -67.5s-53.5 -26 -85.5 -26h-106v479c0 30 -5.16699 55.667 -15.5 77s-23.666 38.5 -39.999 51.5s-34.5 22.167 -54.5 27.5s-39.667 7.66602 -59 6.99902
c-18.667 -1.33301 -36.667 -6 -54 -14s-32.666 -19.167 -45.999 -33.5s-23.833 -31.5 -31.5 -51.5s-10.834 -42.333 -9.50098 -67c0.666992 -18 4.83398 -34.667 12.501 -50s17.167 -28.5 28.5 -39.5s24.333 -19.667 39 -26s30 -9.5 46 -9.5c17.333 0 33 3.33301 47 10
l17 -55c-11.333 -5.33301 -22.5 -9 -33.5 -11s-22.167 -3 -33.5 -3c-23.333 0 -45.666 4.66699 -66.999 14s-40.5 22 -57.5 38s-30.667 35.167 -41 57.5s-16.166 46.5 -17.499 72.5c-1.33301 34.667 3.33398 65.667 14.001 93s25.5 50.666 44.5 69.999s40.667 34.333 65 45
s49.166 17 74.499 19c31.333 2 61 -1.5 89 -10.5s52.667 -23 74 -42s38.166 -42.833 50.499 -71.5s18.5 -61.334 18.5 -98.001v-425h46c15.333 0 31.166 5.66699 47.499 17s31.333 27.166 45 47.499s25 44.833 34 73.5s13.5 60.667 13.5 96v283
c0 20.667 3.16699 39.167 9.5 55.5s14.833 29.833 25.5 40.5s23 18.834 37 24.501s28.333 8.5 43 8.5v-60c-14.667 0 -27 -5 -37 -15c-4.66699 -5.33301 -8.83398 -12.333 -12.501 -21s-5.5 -19.667 -5.5 -33v-279v0z" />
    <glyph glyph-name="W" unicode="W" horiz-adv-x="910" 
d="M396 418c0 30 -5.16504 55.668 -15.498 77.001s-23.666 38.5 -39.999 51.5s-34.5 22.167 -54.5 27.5s-39.667 7.66602 -59 6.99902c-18.667 -1.33301 -36.667 -6 -54 -14s-32.666 -19.167 -45.999 -33.5s-23.833 -31.5 -31.5 -51.5s-10.834 -42.333 -9.50098 -67
c0.666992 -18 4.83398 -34.667 12.501 -50s17.167 -28.5 28.5 -39.5s24.333 -19.667 39 -26s30 -9.5 46 -9.5c17.333 0 33 3.33301 47 10l17 -55c-11.333 -5.33301 -22.5 -9 -33.5 -11s-22.167 -3 -33.5 -3c-23.333 0 -45.666 4.66699 -66.999 14s-40.5 22 -57.5 38
s-30.667 35.167 -41 57.5s-16.166 46.5 -17.499 72.5c-1.33301 34.667 3.33398 65.667 14.001 93s25.5 50.666 44.5 69.999s40.667 34.333 65 45s49.166 17 74.499 19c31.333 2 61 -1.5 89 -10.5s52.667 -23 74 -42s38.166 -42.833 50.499 -71.5s18.5 -61.334 18.5 -98.001
v-306c0 -31.333 6.83301 -54.666 20.5 -69.999s30.5 -23 50.5 -23s35.833 7.16699 47.5 21.5s17.5 35.833 17.5 64.5v429h60v-431c1.33301 -28 8.66602 -49 21.999 -63s29.666 -21 48.999 -21c20 0 35.833 7.16699 47.5 21.5s17.5 35.833 17.5 64.5v444
c0 20.667 3.16699 39.167 9.5 55.5s14.833 29.833 25.5 40.5s23 18.834 37 24.501s28.333 8.5 43 8.5v-60c-14.667 0 -27 -5 -37 -15c-4.66699 -5.33301 -8.83398 -12.333 -12.501 -21s-5.5 -19.667 -5.5 -33v-444c0 -42.667 -10 -77.667 -30 -105s-51.667 -41 -95 -41
c-24 0 -44 4.16699 -60 12.5s-29 19.166 -39 32.499c-10 -14 -23 -25 -39 -33s-35.333 -12 -58 -12c-15.333 0 -30.833 3.16699 -46.5 9.5s-29.834 16 -42.501 29s-22.834 29.333 -30.501 49s-11.5 42.834 -11.5 69.501v302v0z" />
    <glyph glyph-name="X" unicode="X" horiz-adv-x="564" 
d="M9 -24c26 -10.667 50.3359 -16 73.0029 -16c20.667 0 40 4 58 12s34.667 19 50 33c9.33301 8 19.333 18.333 30 31s21.334 26.834 32.001 42.501s21.167 32.167 31.5 49.5l30.5 52l-29.5 70.5c-11.667 27.667 -24.834 55.167 -39.501 82.5s-30.334 53 -47.001 77
s-34.334 42 -53.001 54c-10 6 -20.333 10.333 -31 13s-21.667 4 -33 4c-12 0 -25.667 -1.66699 -41 -5l-14 58c9.33301 2 18.666 3.66699 27.999 5s18.666 2 27.999 2c32.667 0 64.334 -8.66699 95.001 -26c20 -11.333 38.167 -27.166 54.5 -47.499s31.5 -43 45.5 -68
s27 -50.833 39 -77.5l34 -76l2 3l36.5 71l44 83l44 79c14.333 24.667 26.833 44.667 37.5 60c11.333 15.333 23 29.666 35 42.999s25 24.666 39 33.999c20.667 13.333 43 20 67 20c11.333 0 22 -1.33301 32 -4l-15 -58c-18 4.66699 -35.333 1.66699 -52 -9
c-18.667 -11.333 -37.334 -31.333 -56.001 -60c-10 -14 -22 -33.167 -36 -57.5l-44 -78l-44.5 -82l-36.5 -69.5c-3.33301 -6 -6.66602 -12.333 -9.99902 -19l-11 -21c22.667 -42 45.667 -73.667 69 -95s51 -32 83 -32h19v-57h-19c-40 0 -74.333 10.333 -103 31
s-56.334 51.667 -83.001 93c-18 -31.333 -37.333 -61.833 -58 -91.5s-40.667 -53.167 -60 -70.5c-21.333 -18 -44.166 -32.167 -68.499 -42.5s-50.833 -15.5 -79.5 -15.5c-30 0 -61.667 6.33301 -95 19z" />
    <glyph glyph-name="Y" unicode="Y" horiz-adv-x="737" 
d="M381 438c0 30 -5.16797 55.668 -15.501 77.001s-23.666 38.5 -39.999 51.5s-34.5 22.167 -54.5 27.5s-39.667 7.66602 -59 6.99902c-18.667 -1.33301 -36.667 -6 -54 -14s-32.666 -19.167 -45.999 -33.5s-23.833 -31.5 -31.5 -51.5s-10.834 -42.333 -9.50098 -67
c0.666992 -18 4.83398 -34.667 12.501 -50s17.167 -28.5 28.5 -39.5s24.333 -19.667 39 -26s30 -9.5 46 -9.5c17.333 0 33 3.33301 47 10l17 -55c-11.333 -5.33301 -22.5 -9 -33.5 -11s-22.167 -3 -33.5 -3c-23.333 0 -45.666 4.66699 -66.999 14s-40.5 22 -57.5 38
s-30.667 35.167 -41 57.5s-16.166 46.5 -17.499 72.5c-1.33301 34.667 3.33398 65.667 14.001 93s25.5 50.666 44.5 69.999s40.667 34.333 65 45s49.166 17 74.499 19c31.333 2 61 -1.5 89 -10.5s52.667 -23 74 -42s38.166 -42.833 50.499 -71.5s18.5 -61.334 18.5 -98.001
v-297c0 -28.667 8 -51.834 24 -69.501s36.333 -26.5 61 -26.5c28 0 51.5 8.83301 70.5 26.5s29.167 41.5 30.5 71.5v475h60v-636c0 -37.333 -6.16699 -69.666 -18.5 -96.999s-29.166 -50 -50.499 -68s-46 -30.833 -74 -38.5s-57.667 -10.5 -89 -8.5l3 59
c19.333 -1.33301 39 0.333984 59 5.00098s38.167 12.834 54.5 24.501s29.666 27.667 39.999 48s15.5 45.5 15.5 75.5v37c-28.667 -22.667 -62.334 -34 -101.001 -34c-22 0 -41.833 4.16699 -59.5 12.5s-32.834 19.5 -45.501 33.5s-22.5 30.5 -29.5 49.5
s-10.5 39.167 -10.5 60.5v297z" />
    <glyph glyph-name="Z" unicode="Z" horiz-adv-x="527" 
d="M417 -141c-28 7.33301 -55.1631 18.166 -81.4961 32.499s-51.833 29.5 -76.5 45.5l-53.5 33.5c-15.667 9.66699 -30.667 18 -45 25s-28.5 12.5 -42.5 16.5s-29 6.33301 -45 7c-13.333 0.666992 -26.166 0.333984 -38.499 -0.999023s-25.5 -3 -39.5 -5l1 58
c7.33301 3.33301 16.166 5.83301 26.499 7.5s21.5 2.5 33.5 2.5l425 443c-22.667 3.33301 -48.334 9 -77.001 17l-85 23c-17.333 4.66699 -35.333 8.83398 -54 12.501s-37.334 5.5 -56.001 5.5c-23.333 0 -45.333 -3.83301 -66 -11.5s-39 -21.834 -55 -42.501l-48 38
c19.333 26 41.166 45 65.499 57s49.833 19 76.5 21c25.333 1.33301 51.166 -0.166992 77.499 -4.5s51.833 -10.166 76.5 -17.499l37.5 -11c13.667 -4 27.334 -7.66699 41.001 -11l39.5 -9.5c12.667 -3 24 -5.16699 34 -6.5c20 -2.66699 36.333 -2.5 49 0.5
s23.667 8.83301 33 17.5l41 -49c-4.66699 -4.66699 -12 -9.83398 -22 -15.501s-17.667 -9.83398 -23 -12.501l-435 -455l9 -3c24.667 -7.33301 48.667 -17.666 72 -30.999s49.666 -29.333 78.999 -48c25.333 -16.667 49.666 -31.334 72.999 -44.001s46 -22 68 -28
c14.667 -4 29.334 -6 44.001 -6c28.667 0 56 8.66699 82 26l33 -49c-19.333 -13.333 -38.5 -22.666 -57.5 -27.999s-38.167 -8 -57.5 -8s-39 2.66699 -59 8z" />
    <glyph glyph-name="bracketleft" unicode="[" horiz-adv-x="319" 
d="M40 674c0 8 3 14.999 9 20.999s13 9 21 9h145v-60h-115v-766h136v-60h-166c-8 0 -15 2.83301 -21 8.5s-9 12.834 -9 21.501v826z" />
    <glyph glyph-name="backslash" unicode="\" horiz-adv-x="597" 
d="M-13 707l53 28l415 -779l-53 -28z" />
    <glyph glyph-name="bracketright" unicode="]" horiz-adv-x="354" 
d="M276 -152c0 -8.66699 -3 -15.833 -9 -21.5s-13 -8.5 -21 -8.5h-166v60h136v766h-115v60h145c8 0 15 -3 21 -9s9 -13 9 -21v-826z" />
    <glyph glyph-name="asciicircum" unicode="^" horiz-adv-x="594" 
d="M363 527l-87 93l-92 -87l-41 43l113 109c6 5.33301 13.333 8 22 8s15.667 -3.33301 21 -10l108 -115z" />
    <glyph glyph-name="underscore" unicode="_" horiz-adv-x="643" 
d="M184 -110v60h331v-60h-331z" />
    <glyph glyph-name="grave" unicode="`" horiz-adv-x="497" 
d="M241 412l-86 80h75l62 -80h-51z" />
    <glyph glyph-name="a" unicode="a" horiz-adv-x="286" 
d="M241 358l0.000976562 -251.996c0 -10.667 1.33301 -19.334 4 -26.001s6 -11.834 10 -15.501s8.16699 -6.33398 12.5 -8.00098s8.5 -2.5 12.5 -2.5v-57c-16.667 0 -30.834 3 -42.501 9s-21.167 13.667 -28.5 23c-9.33301 -9.33301 -20 -16.5 -32 -21.5s-25 -7.5 -39 -7.5
c-30.667 0 -55.334 9 -74.001 27c-7.33301 -9.33301 -17.166 -16.666 -29.499 -21.999s-27.166 -8 -44.499 -8v57c4 0 8.16699 0.833008 12.5 2.5s8.5 4.66699 12.5 9s7.33301 10.166 10 17.499s4 16.666 4 27.999v84c0 22.667 4.33301 43.667 13 63s20 36 34 50
s30.167 25.333 48.5 34s37.166 14 56.499 16h60zM89.001 114.004c0.666992 -19.333 5.5 -33.1689 14.5 -41.502s20.5 -12.5 34.5 -12.5c11.333 0 21.333 4.33301 30 13s13 21.334 13 38.001v189c-18 -4 -32.833 -10.167 -44.5 -18.5s-21 -17.666 -28 -27.999
s-12 -21 -15 -32s-4.5 -21.167 -4.5 -30.5v-77z" />
    <glyph glyph-name="b" unicode="b" horiz-adv-x="287" 
d="M89 634v-277.999c14.667 6.66699 29 10 43 10c33.333 0 60.333 -11.333 81 -34c10 -11.333 17.333 -24.333 22 -39s7 -30.334 7 -47.001v-141c0 -19.333 -3.66699 -36.333 -11 -51h50v-57h-126c-2.66699 -0.666992 -5.33398 -1 -8.00098 -1h-8
c-15.333 0 -29.5 2.33301 -42.5 7s-24.5 12 -34.5 22c-8 -8 -17.667 -14.667 -29 -20s-25.666 -8 -42.999 -8v57c7.33301 0.666992 15.333 4.16699 24 10.5s13.667 19.5 15 39.5v530h60zM182 246.001c0 11.333 -1.33398 20.666 -4.00098 27.999s-6 13.333 -10 18
c-3.33301 4 -7.83301 7.33301 -13.5 10s-13.167 4 -22.5 4s-18.5 -3.66699 -27.5 -11s-14.167 -18.666 -15.5 -33.999v-152c0.666992 -9.33301 2.33398 -17.333 5.00098 -24s5.66699 -11.667 9 -15c3.33301 -4 7.83301 -7.33301 13.5 -10s13.167 -4 22.5 -4
c10 0 19.667 4 29 12s14 20.333 14 37v141z" />
    <glyph glyph-name="c" unicode="c" horiz-adv-x="263" 
d="M29 257c0 16.667 2.83008 31.6699 8.49707 45.0029s13.334 24.833 23.001 34.5s20.5 17.167 32.5 22.5s24.667 8 38 8c18 0 33.5 -3.33301 46.5 -10s24 -15.5 33 -26.5s15.667 -23.667 20 -38s6.5 -29.5 6.5 -45.5h-60c-1.33301 17.333 -5.16602 31.666 -11.499 42.999
s-17.5 17 -33.5 17c-8.66699 0 -18 -4 -28 -12s-15 -20.667 -15 -38v-138c0 -17.333 6.66699 -32.5 20 -45.5s28 -19.5 44 -19.5h109v-57h-109c-17.333 0 -33.166 3 -47.499 9s-27.166 14.333 -38.499 25c-7.33301 -10 -17.333 -18.167 -30 -24.5s-28.334 -9.5 -47.001 -9.5
v57c4 0 8.16699 0.833008 12.5 2.5s8.5 4.66699 12.5 9s7.33301 10.166 10 17.499s4 16.666 4 27.999v146z" />
    <glyph glyph-name="d" unicode="d" 
d="M242 634l0.00195312 -523.003c0 -11.333 1.33301 -20.666 4 -27.999s6 -13.166 10 -17.499s8.16699 -7.33301 12.5 -9s8.5 -2.5 12.5 -2.5v-57c-17.333 0 -31.833 2.66699 -43.5 8s-21.167 12 -28.5 20c-10 -10 -21.5 -17.333 -34.5 -22s-27.167 -7 -42.5 -7
c-27.333 0 -51 9.33301 -71 28c-7.33301 -8 -16.833 -14.5 -28.5 -19.5s-25.834 -7.5 -42.501 -7.5v57c7.33301 0.666992 15.333 4.16699 24 10.5s13.667 19.833 15 40.5v141c0 16.667 2.33301 32.334 7 47.001s12 27.667 22 39c20.667 22.667 47.667 34 81 34
c13.333 0 27.666 -3.33301 42.999 -10v278h60zM182.002 260.997c-1.33301 15.333 -6.50098 26.666 -15.501 33.999s-18.167 11 -27.5 11s-16.833 -1.33301 -22.5 -4s-10.167 -6 -13.5 -10c-4 -4.66699 -7.33301 -10.667 -10 -18s-4 -16.666 -4 -27.999v-141
c0 -16.667 4.66699 -29 14 -37s19 -12 29 -12c9.33301 0 16.833 1.33301 22.5 4s10.167 6 13.5 10c3.33301 3.33301 6.33301 8.33301 9 15s4.33398 14.667 5.00098 24v152z" />
    <glyph glyph-name="e" unicode="e" horiz-adv-x="267" 
d="M29 257c0 16.667 2.66602 31.668 7.99902 45.001s12.666 24.833 21.999 34.5s19.833 17.167 31.5 22.5s24.167 8 37.5 8c34.667 0 60.834 -10.667 78.501 -32s26.5 -47.333 26.5 -78v-30c0 -29.333 -9.16699 -53.666 -27.5 -72.999s-41.5 -29 -69.5 -29h-47v-6
c0 -17.333 6.66699 -32.5 20 -45.5s28 -19.5 44 -19.5h109v-57h-109c-17.333 0 -33.166 3 -47.499 9s-27.166 14.333 -38.499 25c-7.33301 -10 -17.333 -18.167 -30 -24.5s-28.334 -9.5 -47.001 -9.5v57c4 0 8.16699 0.833008 12.5 2.5s8.5 4.66699 12.5 9
s7.33301 10.166 10 17.499s4 16.666 4 27.999v146zM172.999 259.001c0 16 -4.16699 28.1689 -12.5 36.502s-18.833 12.166 -31.5 11.499c-8.66699 -0.666992 -17.5 -4.83398 -26.5 -12.501s-13.5 -20.167 -13.5 -37.5v-71h40c10.667 0 20.667 3.33301 30 10s14 18.667 14 36
v27z" />
    <glyph glyph-name="f" unicode="f" horiz-adv-x="161" 
d="M178 545c-12 -2.66699 -23.5 -6.99805 -34.5 -12.998s-20.5 -14.5 -28.5 -25.5s-14.333 -25.167 -19 -42.5s-7 -39 -7 -65v-43h69v-60h-69v-546h-60v253c-5.33301 -1.33301 -11.333 -2.66602 -18 -3.99902s-13.667 -2 -21 -2v57c4 0 8.16699 0.833008 12.5 2.5
s8.5 4.66699 12.5 9s7.33301 10.166 10 17.499s4 16.666 4 27.999v185h-39v60h39v43c0 63.333 13.167 112.166 39.5 146.499s62.833 54.5 109.5 60.5v-61z" />
    <glyph glyph-name="g" unicode="g" horiz-adv-x="288" 
d="M242 356v-301.998h39v-57h-39v-3c0 -37.333 -4.66699 -68.5 -14 -93.5s-22.666 -45 -39.999 -60s-38.5 -25.333 -63.5 -31s-53.167 -7.5 -84.5 -5.5l3 59c19.333 -1.33301 37.5 -0.833008 54.5 1.5s31.667 8 44 17s22.166 22.5 29.499 40.5s11 42 11 72v3h-27
c-2.66699 -0.666992 -5.33398 -1 -8.00098 -1h-8c-15.333 0 -29.5 2.33301 -42.5 7s-24.5 12 -34.5 22c-8 -8 -17.667 -14.667 -29 -20s-25.666 -8 -42.999 -8v57c4 0 8.16699 0.833008 12.5 2.5s8.5 4.66699 12.5 9s7.33301 10.166 10 17.499s4 16.666 4 27.999v145
c0 16.667 2.83301 31.834 8.5 45.501s13.334 25.167 23.001 34.5s20.667 16.666 33 21.999s25.166 8 38.499 8c17.333 0 34 -3.66699 50 -11v1h60zM89 116.002c0 -11.333 1.33398 -20.833 4.00098 -28.5s6 -13.5 10 -17.5c3.33301 -4 7.83301 -7.33301 13.5 -10
s13.167 -4 22.5 -4s18.5 3.5 27.5 10.5s14.167 18.167 15.5 33.5v152c-0.666992 9.33301 -2.33398 17.333 -5.00098 24s-5.66699 12 -9 16s-7.83301 7.33301 -13.5 10s-13.167 4 -22.5 4c-10 0 -19.667 -4 -29 -12s-14 -20.667 -14 -38v-140z" />
    <glyph glyph-name="h" unicode="h" horiz-adv-x="287" 
d="M241 111c0 -11.333 1.33203 -20.667 3.99902 -28s6 -13.166 10 -17.499s8.16699 -7.33301 12.5 -9s8.5 -2.5 12.5 -2.5v-57c-20 0 -36.333 3.5 -49 10.5s-22.667 15.833 -30 26.5s-12.5 22.167 -15.5 34.5s-4.5 23.833 -4.5 34.5v154
c0 16.667 -4.33301 29.334 -13 38.001s-18.667 13 -30 13c-14 0 -25.333 -4 -34 -12s-13.667 -21 -15 -39v-154c0 -10.667 -1.5 -22.167 -4.5 -34.5s-8.16699 -23.833 -15.5 -34.5s-17.333 -19.5 -30 -26.5s-29 -10.5 -49 -10.5v57c4 0 8.16699 0.833008 12.5 2.5
s8.5 4.66699 12.5 9s7.33301 10.166 10 17.499s4 16.666 4 27.999v523h60v-277c14.667 7.33301 31 11 49 11c14.667 0 28.334 -2.83301 41.001 -8.5s23.667 -13.5 33 -23.5s16.5 -21.833 21.5 -35.5s7.5 -28.167 7.5 -43.5v-146z" />
    <glyph glyph-name="i" unicode="i" horiz-adv-x="135" 
d="M29 357h59.999v-253c0.666992 -20 5.5 -33.167 14.5 -39.5s17.167 -9.83301 24.5 -10.5v-57c-16 0 -29.667 2.33301 -41 7s-20.666 10.667 -27.999 18c-7.33301 -7.33301 -16.833 -13.333 -28.5 -18s-25.167 -7 -40.5 -7v57c7.33301 0.666992 15.333 4.16699 24 10.5
s13.667 19.5 15 39.5v253zM89.999 478v-59h-61v59h61z" />
    <glyph glyph-name="j" unicode="j" horiz-adv-x="138" 
d="M-10 54c4 0 8.16699 0.834961 12.5 2.50195s8.5 4.66699 12.5 9s7.33301 10.166 10 17.499s4 16.666 4 27.999v246h60v-303h40v-57h-40v-3c0 -37.333 -4.66699 -68.5 -14 -93.5s-22.666 -45 -39.999 -60s-38.5 -25.333 -63.5 -31s-53.167 -7.5 -84.5 -5.5l3 59
c19.333 -1.33301 37.5 -0.833008 54.5 1.5s31.667 8 44 17s22.166 22.5 29.499 40.5s11 42 11 72v11c-12.667 -5.33301 -25.667 -8 -39 -8v57zM90 478.002v-59h-61v59h61z" />
    <glyph glyph-name="k" unicode="k" horiz-adv-x="280" 
d="M231 111c0 -14 1.33301 -24.665 4 -31.998s6 -12.833 10 -16.5s8.16699 -6 12.5 -7s8.5 -1.5 12.5 -1.5v-57c-20 0 -36.333 3.5 -49 10.5s-22.667 16 -30 27s-12.5 23.333 -15.5 37s-4.5 27.167 -4.5 40.5v21c0 20.667 -4.5 34 -13.5 40s-20.833 9 -35.5 9h-33v-79
c0 -10.667 -1.5 -22.167 -4.5 -34.5s-8.16699 -23.833 -15.5 -34.5s-17.333 -19.5 -30 -26.5s-29 -10.5 -49 -10.5v57c4 0 8.16699 0.833008 12.5 2.5s8.5 4.66699 12.5 9s7.33301 10.166 10 17.499s4 16.666 4 27.999v523h60v-392h24c15.333 0 29 3.83301 41 11.5
s18 20.167 18 37.5v66h60v-66c0 -16 -3 -30.333 -9 -43s-13.667 -23.667 -23 -33c20 -15.333 30.333 -39.333 31 -72v-32z" />
    <glyph glyph-name="l" unicode="l" horiz-adv-x="134" 
d="M89 634l-0.000976562 -523c0 -11.333 1.33301 -20.666 4 -27.999s6 -13.166 10 -17.499s8.16699 -7.33301 12.5 -9s8.5 -2.5 12.5 -2.5v-57c-16 0 -29.667 2.33301 -41 7s-20.666 10.667 -27.999 18c-7.33301 -7.33301 -16.833 -13.333 -28.5 -18s-25.167 -7 -40.5 -7v57
c4 0 8.16699 0.833008 12.5 2.5s8.5 4.66699 12.5 9s7.33301 10.166 10 17.499s4 16.666 4 27.999v523h60z" />
    <glyph glyph-name="m" unicode="m" horiz-adv-x="441" 
d="M393 111c0 -11.333 1.33301 -20.665 4 -27.998s6 -13.166 10 -17.499s8.16699 -7.33301 12.5 -9s8.5 -2.5 12.5 -2.5v-57c-20 0 -36.333 3.5 -49 10.5s-22.667 15.833 -30 26.5s-12.5 22.167 -15.5 34.5s-4.5 23.833 -4.5 34.5v154c0 16.667 -4.33301 29.334 -13 38.001
s-18.667 13 -30 13c-14 0 -25.333 -4 -34 -12s-13.667 -21 -15 -39v-257h-60v260c-0.666992 15.333 -5.16699 27.166 -13.5 35.499s-18.166 12.5 -29.499 12.5c-14 0 -25.333 -4 -34 -12s-13.667 -21 -15 -39v-154c0 -10.667 -1.5 -22.167 -4.5 -34.5
s-8.16699 -23.833 -15.5 -34.5s-17.333 -19.5 -30 -26.5s-29 -10.5 -49 -10.5v57c4 0 8.16699 0.833008 12.5 2.5s8.5 4.66699 12.5 9s7.33301 10.166 10 17.499s4 16.666 4 27.999v155c3.33301 31.333 14.833 56.166 34.5 74.499s44.5 27.5 74.5 27.5
c29.333 0 53.666 -10.667 72.999 -32c21.333 21.333 47.666 32 78.999 32c14.667 0 28.334 -2.83301 41.001 -8.5s23.667 -13.5 33 -23.5s16.5 -21.833 21.5 -35.5s7.5 -28.167 7.5 -43.5v-146z" />
    <glyph glyph-name="n" unicode="n" horiz-adv-x="287" 
d="M241 111c0 -11.333 1.33203 -20.666 3.99902 -27.999s6 -13.166 10 -17.499s8.16699 -7.33301 12.5 -9s8.5 -2.5 12.5 -2.5v-57c-20 0 -36.333 3.5 -49 10.5s-22.667 15.833 -30 26.5s-12.5 22.167 -15.5 34.5s-4.5 23.833 -4.5 34.5v154
c0 16.667 -4.33301 29.334 -13 38.001s-18.667 13 -30 13c-14 0 -25.333 -4 -34 -12s-13.667 -21 -15 -39v-154c0 -10.667 -1.5 -22.167 -4.5 -34.5s-8.16699 -23.833 -15.5 -34.5s-17.333 -19.5 -30 -26.5s-29 -10.5 -49 -10.5v57c4 0 8.16699 0.833008 12.5 2.5
s8.5 4.66699 12.5 9s7.33301 10.166 10 17.499s4 16.666 4 27.999v155c3.33301 31.333 14.833 56.166 34.5 74.499s44.5 27.5 74.5 27.5c14.667 0 28.334 -2.83301 41.001 -8.5s23.667 -13.5 33 -23.5s16.5 -21.833 21.5 -35.5s7.5 -28.167 7.5 -43.5v-146z" />
    <glyph glyph-name="o" unicode="o" horiz-adv-x="282" 
d="M29 256c0 16.667 2.83301 31.8369 8.5 45.5039s13.334 25.167 23.001 34.5s20.667 16.666 33 21.999s25.166 8 38.499 8c33.333 0 60.333 -11.333 81 -34c10 -11.333 17.333 -24.333 22 -39s7 -30.334 7 -47.001v-143c0 -16.667 -2.83301 -31.667 -8.5 -45
s-13.334 -24.833 -23.001 -34.5s-20.667 -17 -33 -22s-25.166 -7.5 -38.499 -7.5c-32 0 -58 10 -78 30c-8 -8 -17.667 -14.5 -29 -19.5s-25.333 -7.5 -42 -7.5v57c4 0 8.16699 0.833008 12.5 2.5s8.5 4.66699 12.5 9s7.33301 10.166 10 17.499s4 16.666 4 27.999v145z
M89 107.003c0.666992 -9.33301 2.33301 -17.332 5 -23.999s5.66699 -11.667 9 -15c3.33301 -4 7.83301 -7.33301 13.5 -10s13.167 -4 22.5 -4c10 0 19.667 4 29 12s14 20.333 14 37v143c0 11.333 -1.33301 20.666 -4 27.999s-6 13.333 -10 18
c-3.33301 4 -7.83301 7.33301 -13.5 10s-13.167 4 -22.5 4c-10 0 -19.667 -4 -29 -12s-14 -20.667 -14 -38v-149z" />
    <glyph glyph-name="p" unicode="p" horiz-adv-x="288" 
d="M29 -250v253c-5.33301 -1.33301 -11.333 -2.66602 -18 -3.99902s-13.667 -2 -21 -2v57c7.33301 0.666992 15.333 4.16699 24 10.5s13.667 19.5 15 39.5v251h57c14.667 7.33301 30 11 46 11c33.333 0 60.333 -11.333 81 -34c10 -11.333 17.333 -24.333 22 -39
s7 -30.334 7 -47.001v-141c0 -19.333 -3.66699 -36.333 -11 -51h50v-57h-192v-247h-60zM182 246c0 11.333 -1.33301 20.667 -4 28s-6 13.333 -10 18c-3.33301 4 -7.83301 7.33301 -13.5 10s-13.167 4 -22.5 4c-10 0 -19.667 -4 -29 -12s-14 -20.667 -14 -38v-200h50
c10 0 19.667 4 29 12s14 20.333 14 37v141z" />
    <glyph glyph-name="q" unicode="q" 
d="M241 358l-0.000976562 -251.996c0 -10.667 1.33301 -19.334 4 -26.001s6 -11.834 10 -15.501s8.16699 -6.33398 12.5 -8.00098s8.5 -2.5 12.5 -2.5v-57c-13.333 0 -26.333 2.33301 -39 7v-254h-60v259c-13.333 -6 -27.666 -9 -42.999 -9c-30.667 0 -55.334 9 -74.001 27
c-7.33301 -9.33301 -17.166 -16.666 -29.499 -21.999s-27.166 -8 -44.499 -8v57c4 0 8.16699 0.833008 12.5 2.5s8.5 4.66699 12.5 9s7.33301 10.166 10 17.499s4 16.666 4 27.999v84c0 22.667 4.33301 43.667 13 63s20 36 34 50s30.167 25.333 48.5 34s37.166 14 56.499 16
h60zM88.999 114.004c0.666992 -19.333 5.5 -33.168 14.5 -41.501s20.5 -12.5 34.5 -12.5c11.333 0 21 3.83301 29 11.5s12.667 19.167 14 34.5v194c-18 -4 -32.833 -10.167 -44.5 -18.5s-21 -17.666 -28 -27.999s-12 -21 -15 -32s-4.5 -21.167 -4.5 -30.5v-77z" />
    <glyph glyph-name="r" unicode="r" horiz-adv-x="260" 
d="M213 111c0 -11.333 1.33301 -20.6631 4 -27.9961s6 -13.166 10 -17.499s8.33301 -7.33301 13 -9s9 -2.5 13 -2.5v-57c-20 0 -36.333 3.5 -49 10.5s-22.667 15.833 -30 26.5s-12.5 22.167 -15.5 34.5s-4.5 23.833 -4.5 34.5v84c0 12 -1.66699 22.167 -5 30.5
s-7.83301 15.666 -13.5 21.999s-12.5 12 -20.5 17l-26 16.5v-156c0 -10.667 -1.5 -22.834 -4.5 -36.501s-8.16699 -26.667 -15.5 -39s-17.333 -22.833 -30 -31.5s-29 -13 -49 -13v57c4 0 8.16699 0.833008 12.5 2.5s8.5 4.66699 12.5 9s7.33301 10.166 10 17.499
s4 16.666 4 27.999v255h58c5.33301 -14 14.833 -25.667 28.5 -35l42.5 -30.5c14.667 -11 27.5 -24.833 38.5 -41.5s16.5 -39.334 16.5 -68.001v-80z" />
    <glyph glyph-name="s" unicode="s" horiz-adv-x="257" 
d="M-10 54c5.33301 0 10.334 1.5 15.001 4.5s8.66699 9.16699 12 18.5l90 290l58 -17c-2 -8.66699 -2.33301 -18.5 -1 -29.5s3.66602 -22.5 6.99902 -34.5s7.33301 -23.667 12 -35s9.66699 -22 15 -32c9.33301 -17.333 16.5 -34.5 21.5 -51.5s7.5 -33.833 7.5 -50.5
c0 -23.333 -5.66699 -44.333 -17 -63h39v-57h-259v57zM132.001 62c13.333 5.33301 22.5 13.168 27.5 23.501s7.5 21.833 7.5 34.5c0 10 -1.5 20.167 -4.5 30.5s-6.66699 20.333 -11 30s-9 19.167 -14 28.5s-9.16699 18.666 -12.5 27.999l-27 -87.5l-16 -53
c-4 -13 -7 -22.167 -9 -27.5s-3.33301 -9 -4 -11c12.667 0 25 0.333008 37 1s20.667 1.66699 26 3z" />
    <glyph glyph-name="t" unicode="t" horiz-adv-x="134" 
d="M29 418l-93.001 0.00195312v60h93v156h60v-156h125v-60h-125v-314c0.666992 -20 5.5 -33.167 14.5 -39.5s17.167 -9.83301 24.5 -10.5v-57c-16 0 -29.667 2.33301 -41 7s-20.666 10.667 -27.999 18c-7.33301 -7.33301 -16.833 -13.333 -28.5 -18s-25.167 -7 -40.5 -7v57
c4 0 8.16699 0.833008 12.5 2.5s8.5 4.66699 12.5 9s7.33301 10.166 10 17.499s4 16.666 4 27.999v307z" />
    <glyph glyph-name="u" unicode="u" 
d="M241 356l-0.00390625 -245.003c0 -11.333 1.33301 -20.666 4 -27.999s6 -13.166 10 -17.499s8.16699 -7.33301 12.5 -9s8.5 -2.5 12.5 -2.5v-57c-16 0 -29.667 2.33301 -41 7s-20.666 10.667 -27.999 18c-9.33301 -9.33301 -20.166 -16.833 -32.499 -22.5
s-25.833 -8.5 -40.5 -8.5c-33.333 0 -59.666 10.333 -78.999 31c-7.33301 -7.33301 -16.666 -13.333 -27.999 -18s-25 -7 -41 -7v57c7.33301 0.666992 15.333 4.16699 24 10.5s13.667 19.5 15 39.5v252h60v-254c1.33301 -18 6.33301 -31 15 -39s20 -12 34 -12
c11.333 0 21.333 4.33301 30 13s13 21.334 13 38.001v254h60z" />
    <glyph glyph-name="v" unicode="v" horiz-adv-x="284" 
d="M128 -3c-26.667 0 -49.665 9.66211 -68.998 28.9951c-9.33301 -9.33301 -19.833 -16.5 -31.5 -21.5s-24.167 -7.5 -37.5 -7.5v57c3.33301 0 7 0.666992 11 2s8 3.83301 12 7.5s7.5 8.5 10.5 14.5s4.83301 13.667 5.5 23v256h60v-256c0.666992 -9.33301 2.5 -17 5.5 -23
s6.33301 -10.833 10 -14.5s7.66699 -6.16699 12 -7.5s8.16602 -2 11.499 -2h7c7.33301 0.666992 15.333 4.16699 24 10.5s13.667 19.5 15 39.5v167c0 10.667 1.5 22.167 4.5 34.5s8.16699 23.833 15.5 34.5s17.333 19.5 30 26.5s29 10.5 49 10.5v-57
c-4 0 -8.16699 -0.833008 -12.5 -2.5s-8.5 -4.66699 -12.5 -9s-7.33301 -10.166 -10 -17.499s-4 -16.666 -4 -27.999v-161c0 -15.333 -2.5 -29.166 -7.5 -41.499s-12 -23.166 -21 -32.499s-19.333 -16.666 -31 -21.999s-23.834 -8.33301 -36.501 -9h-10z" />
    <glyph glyph-name="w" unicode="w" horiz-adv-x="417" 
d="M-10 54c7.33301 0.666992 15.335 3.99707 24.002 9.99707s13.667 18.667 15 38v255h60v-256c0.666992 -9.33301 2.5 -17 5.5 -23s6.33301 -10.833 10 -14.5s7.66699 -6.16699 12 -7.5s8.16602 -2 11.499 -2h7c3.33301 0 7 0.666992 11 2s8 3.83301 12 7.5
s7.5 8.5 10.5 14.5s4.83301 13.667 5.5 23v256h60v-255c1.33301 -19.333 6.33301 -32 15 -38s16.667 -9.33301 24 -10h7c7.33301 0.666992 15.333 4.16699 24 10.5s13.667 19.5 15 39.5v253h60v-255c0 -15.333 -2.5 -29.166 -7.5 -41.499s-12 -23.166 -21 -32.499
s-19.333 -16.666 -31 -21.999s-23.834 -8.33301 -36.501 -9h-10c-26.667 0 -49.667 9.66699 -69 29c-18 -18 -40 -27.667 -66 -29h-10c-26.667 0 -49.667 9.66699 -69 29c-9.33301 -9.33301 -19.833 -16.5 -31.5 -21.5s-24.167 -7.5 -37.5 -7.5v57z" />
    <glyph glyph-name="x" unicode="x" horiz-adv-x="282" 
d="M273 -3c-27.333 0 -50.6689 9.83203 -70.002 29.499s-29 44.834 -29 75.501v4c-1.33301 17.333 -6.16602 28.666 -14.499 33.999s-15.833 8.66602 -22.5 9.99902h-11c-7.33301 -1.33301 -15 -4.66602 -23 -9.99902s-12.667 -16.666 -14 -33.999v-6
c-0.666992 -30 -10.667 -54.667 -30 -74s-42.333 -29 -69 -29v57c3.33301 0 7 0.666992 11 2s8 3.83301 12 7.5s7.5 8.5 10.5 14.5s4.83301 13.667 5.5 23v7c0 14.667 2.66699 27.834 8 39.501s12.333 22.167 21 31.5c-19.333 19.333 -29 44.333 -29 75v103h60v-101
c1.33301 -19.333 6 -32.166 14 -38.499s15.667 -9.83301 23 -10.5h11c7.33301 0.666992 15 4.16699 23 10.5s12.667 19.166 14 38.499v101h60v-103c0 -15.333 -2.66699 -29.333 -8 -42s-12.666 -23.667 -21.999 -33c8.66699 -9.33301 15.667 -19.833 21 -31.5
s8.33301 -24.834 9 -39.501v-4c1.33301 -20 6.33301 -33.167 15 -39.5s16.667 -9.83301 24 -10.5v-57z" />
    <glyph glyph-name="y" unicode="y" horiz-adv-x="288" 
d="M89 356l-0.00292969 -252.997c0.666992 -18.667 5.5 -32 14.5 -40s20.5 -12 34.5 -12c11.333 0 21 3.83301 29 11.5s12.667 19.167 14 34.5v259h60v-302h40v-57h-40v-3c0 -37.333 -4.66699 -68.5 -14 -93.5s-22.666 -45 -39.999 -60s-38.5 -25.333 -63.5 -31
s-53.167 -7.5 -84.5 -5.5l3 59c19.333 -1.33301 37.5 -0.833008 54.5 1.5s31.667 8 44 17s22.166 22.5 29.499 40.5s11 42 11 72v6c-6.66699 -2.66699 -13.667 -4.83398 -21 -6.50098s-14.666 -2.5 -21.999 -2.5c-33.333 0 -59.666 10.333 -78.999 31
c-7.33301 -7.33301 -16.666 -13.333 -27.999 -18s-25 -7 -41 -7v57c4 0 8.16699 0.833008 12.5 2.5s8.5 4.66699 12.5 9s7.33301 10.166 10 17.499s4 16.666 4 27.999v245h60z" />
    <glyph glyph-name="z" unicode="z" horiz-adv-x="287" 
d="M88 357c22.667 0 43.8301 -2.16211 63.4971 -6.49512s36.834 -11.333 51.501 -21s26.334 -22.334 35.001 -38.001s13 -34.834 13 -57.501v-18c0 -22.667 -4.5 -45.5 -13.5 -68.5s-23.833 -44.167 -44.5 -63.5c28 -14.667 48.667 -35.5 62 -62.5
s18.666 -57.833 15.999 -92.5c-1.33301 -20 -6.5 -39.5 -15.5 -58.5s-21 -35.667 -36 -50s-32.5 -25.833 -52.5 -34.5s-41.667 -12.667 -65 -12c-21.333 0.666992 -41 4 -59 10s-34 14.833 -48 26.5s-25.167 25.5 -33.5 41.5s-13.5 34.333 -15.5 55l56 5
c0.666992 -16 4.33398 -29 11.001 -39s14.834 -18 24.501 -24s20.167 -10.333 31.5 -13s22 -4.33398 32 -5.00098c14.667 0 28.667 2.66699 42 8s25 12.666 35 21.999s18.167 20 24.5 32s10.166 24.667 11.499 38c2 17.333 0.5 33 -4.5 47s-12.167 25.833 -21.5 35.5
s-20.666 17.167 -33.999 22.5s-27.333 8 -42 8v59c10.667 0 21 4 31 12s18.5 17.667 25.5 29s12.667 23.5 17 36.5s6.5 24.5 6.5 34.5v14c0 16 -3 28.5 -9 37.5s-13.667 15.5 -23 19.5s-20.333 6.5 -33 7.5s-25.334 1.5 -38.001 1.5v-193
c0 -30.667 -9.66699 -55.834 -29 -75.501s-42.666 -29.5 -69.999 -29.5v57c7.33301 0.666992 15.333 4.16699 24 10.5s13.667 19.5 15 39.5v253h59z" />
    <glyph glyph-name="braceleft" unicode="{" horiz-adv-x="321" 
d="M215 -216c-32 17.333 -58.5 41.665 -79.5 72.998s-31.167 71.333 -30.5 120v63c0 17.333 -0.166992 35.333 -0.5 54s-0.666016 36.334 -0.999023 53.001s-1 31.667 -2 45s-2.16699 23 -3.5 29c-4 14.667 -9 24.667 -15 30c-2 2 -4.5 3.66699 -7.5 5s-7.5 2 -13.5 2
c-10 0 -17.667 3.33301 -23 10s-8 13.667 -8 21s2.33301 14 7 20s12 9 22 9s18 4.33301 24 13c4 4.66699 7.33301 10.834 10 18.501s5.33398 16.834 8.00098 27.501s4.83398 27.5 6.50098 50.5s3 47 4 72s2.16699 48.833 3.5 71.5s2.66602 39.667 3.99902 51
c5.33301 37.333 17 67.333 35 90s39.667 39.667 65 51c17.333 8 35 13.5 53 16.5s35.667 4.5 53 4.5c6.66699 0 13 -0.166992 19 -0.5s12 -0.833008 18 -1.5l-3 -60c-5.33301 0.666992 -10.666 1 -15.999 1h-16c-14.667 0 -28.834 -1 -42.501 -3s-26.834 -6 -39.501 -12
c-16 -7.33301 -30.167 -18.333 -42.5 -33s-20.166 -36 -23.499 -64c-1.33301 -10 -2.66602 -26.333 -3.99902 -49s-2.66602 -46.667 -3.99902 -72s-2.83301 -50 -4.5 -74s-3.83398 -42 -6.50098 -54s-6.33398 -24 -11.001 -36s-10.667 -23 -18 -33l-4 -4l9 -9
c7.33301 -12.667 13.666 -28.334 18.999 -47.001c2 -8 3.66699 -19.833 5 -35.5s2.16602 -33 2.49902 -52l1 -58.5c0.333008 -20 0.5 -39 0.5 -57v-55c0 -37.333 7.33301 -66.833 22 -88.5s33 -38.167 55 -49.5c17.333 -9.33301 36 -16 56 -20s40 -6 60 -6
c13.333 0 26.666 1 39.999 3l10 -60c-14 -2 -29.333 -3 -46 -3c-24 0 -48.667 2.5 -74 7.5s-49.666 13.5 -72.999 25.5z" />
    <glyph glyph-name="bar" unicode="|" horiz-adv-x="455" 
d="M190 -127v846h60v-846h-60z" />
    <glyph glyph-name="braceright" unicode="}" horiz-adv-x="451" 
d="M183 -216c-23.333 -12 -47.666 -20.499 -72.999 -25.499s-50 -7.5 -74 -7.5c-16.667 0 -32 1 -46 3l10 60c12.667 -2 26 -3 40 -3c20 0 40 2 60 6s38.667 10.667 56 20c22 11.333 40.333 27.833 55 49.5s22 51.167 22 88.5v55c0 18 0.166992 37 0.5 57l1 58.5
c0.333008 19 1.16602 36.333 2.49902 52s3 27.5 5 35.5c5.33301 18.667 11.666 34.334 18.999 47.001l9 9l-4 4c-7.33301 10 -13.333 21 -18 33s-8.33398 24 -11.001 36s-4.83398 30 -6.50098 54s-3.16699 48.667 -4.5 74s-2.66602 49.333 -3.99902 72
s-2.66602 39 -3.99902 49c-3.33301 28 -11.166 49.333 -23.499 64s-26.5 25.667 -42.5 33c-12.667 6 -25.834 10 -39.501 12s-27.834 3 -42.501 3h-16c-5.33301 0 -10.666 -0.333008 -15.999 -1l-3 60c6 0.666992 12 1.16699 18 1.5s12.333 0.5 19 0.5
c17.333 0 35 -1.5 53 -4.5s35.667 -8.5 53 -16.5c25.333 -11.333 47 -28.333 65 -51s29.667 -52.667 35 -90c1.33301 -11.333 2.66602 -28.333 3.99902 -51s2.5 -46.5 3.5 -71.5s2.33301 -49 4 -72s3.83398 -39.833 6.50098 -50.5s5.33398 -19.834 8.00098 -27.501
s6 -13.834 10 -18.501c6 -8.66699 14 -13 24 -13s17.333 -3 22 -9s7 -12.667 7 -20s-2.66699 -14.333 -8 -21s-13 -10 -23 -10c-6 0 -10.5 -0.666992 -13.5 -2s-5.5 -3 -7.5 -5c-6 -5.33301 -11 -15.333 -15 -30c-1.33301 -6 -2.5 -15.667 -3.5 -29
s-1.83301 -28.333 -2.5 -45s-1 -34.334 -1 -53.001v-54v-63c0.666992 -48.667 -9.5 -88.667 -30.5 -120s-47.5 -55.666 -79.5 -72.999z" />
    <glyph glyph-name="asciitilde" unicode="~" horiz-adv-x="389" 
d="M161 213c-8.66699 5.33301 -17.5049 9.33398 -26.5049 12.001s-17.167 3.33398 -24.5 2.00098c-3.33301 -0.666992 -6.5 -1.66699 -9.5 -3s-5.83301 -2.66602 -8.5 -3.99902c-6 -4.66699 -10.667 -12.334 -14 -23.001l-57 19c7.33301 22 18.333 38.667 33 50
s30.667 18 48 20c16.667 2 32.834 0.666992 48.501 -4s29.834 -11 42.501 -19c7.33301 -4.66699 14 -7.83398 20 -9.50098s11 -2.5 15 -2.5c8 0 15.667 2.33301 23 7c7.33301 3.33301 13.333 8.66602 18 15.999c5.33301 5.33301 8 9 8 11l54 -27l-1 -1
c-1.33301 -2 -3.16602 -5 -5.49902 -9s-5.5 -8.33301 -9.5 -13c-3.33301 -4.66699 -7.66602 -9.5 -12.999 -14.5s-11.666 -9.5 -18.999 -13.5c-7.33301 -4.66699 -15.5 -8.5 -24.5 -11.5s-19.167 -4.5 -30.5 -4.5c-22 0 -44.333 7.33301 -67 22z" />
    <glyph glyph-name="exclamdown" unicode="&#xa1;" horiz-adv-x="246" 
d="M108 -80v516h60v-516h-60zM106 513v61h63v-61h-63z" />
    <glyph glyph-name="cent" unicode="&#xa2;" horiz-adv-x="327" 
d="M118 -17v67c-32 10 -57.167 29.667 -75.5 59s-27.5 62.333 -27.5 99c0 16 2 32.667 6 50c7.33301 30 19.833 54.333 37.5 73s37.5 31.667 59.5 39v79h60v-75c15.333 -2.66699 29.833 -8.33398 43.5 -17.001s25.5 -20.667 35.5 -36l-50 -34c-8 12 -17.667 20 -29 24v-205
c5.33301 0.666992 10.666 2.66699 15.999 6c13.333 7.33301 27.666 20.666 42.999 39.999l48 -36c-13.333 -17.333 -28.666 -32.666 -45.999 -45.999s-37.666 -21.666 -60.999 -24.999v-62h-60zM79 244c-2.66699 -10.667 -4 -22.333 -4 -35
c0 -20.667 3.83301 -39.167 11.5 -55.5s18.167 -28.833 31.5 -37.5v189c-8.66699 -6 -16.5 -14 -23.5 -24s-12.167 -22.333 -15.5 -37z" />
    <glyph glyph-name="sterling" unicode="&#xa3;" horiz-adv-x="413" 
d="M158 163c0 -18.667 -0.829102 -33.4961 -2.49609 -44.4961s-3.83398 -20 -6.50098 -27s-5.33398 -12.667 -8.00098 -17l-8 -12.5c22 -1.33301 42.833 -4.16602 62.5 -8.49902l56 -12c17.667 -3.66699 34.667 -6.33398 51 -8.00098s32.5 -0.833984 48.5 2.49902l4 -55
c-24 -4.66699 -49.667 -4.66699 -77 0l-84.5 14.5c-29 5 -58.333 8.16699 -88 9.5s-58.834 -3.33398 -87.501 -14.001l-17 50c6.66699 3.33301 14 6.33301 22 9s17.333 4.66699 28 6c4.66699 1.33301 9.66699 3.66602 15 6.99902s10.333 8.83301 15 16.5
s8.5 18.167 11.5 31.5s4.83301 30.666 5.5 51.999h-58v60h58v74c0 43.333 11.5 77.833 34.5 103.5s52.833 38.5 89.5 38.5c32 0 57.167 -7.33301 75.5 -22s32.166 -33.667 41.499 -57l-53 -28c-5.33301 13.333 -13 24.5 -23 33.5s-23.667 13.5 -41 13.5
s-32.333 -6.66699 -45 -20s-19 -34 -19 -62v-74h113v-60h-113z" />
    <glyph glyph-name="brokenbar" unicode="&#xa6;" horiz-adv-x="2390" 
d="M1231 59c-9.33301 0 -18.1611 3.17676 -26.4941 9.50977s-13.166 14.166 -14.499 23.499l-1 1c-14 0 -25.167 5.5 -33.5 16.5s-12.5 23.167 -12.5 36.5c0 1.33301 0.166992 2.5 0.5 3.5s0.5 2.16699 0.5 3.5h-27.5c-11.667 0 -23.167 1 -34.5 3s-21.333 5.5 -30 10.5
s-13.667 12.833 -15 23.5c-9.33301 0.666992 -18.833 4.66699 -28.5 12s-14.5 16 -14.5 26c0 13.333 5.5 21.5 16.5 24.5s21.5 4.5 31.5 4.5c-2 5.33301 -2 14.333 0 27s5.16699 27.167 9.5 43.5s9.16602 33.166 14.499 50.499l15.5 49l13 39.5
c3.66699 11 5.83398 17.833 6.50098 20.5c-12.667 -6.66699 -23.667 -12.834 -33 -18.501s-19 -13.167 -29 -22.5c-5.33301 -14.667 -15.666 -22 -30.999 -22c-1.33301 0 -3.83301 0.5 -7.5 1.5s-5.83398 1.5 -6.50098 1.5c-7.33301 4.66699 -13 9 -17 13
s-7.66699 10 -11 18c-16.667 0 -28.667 6.83301 -36 20.5s-11 27.5 -11 41.5c0 20 8.5 37.167 25.5 51.5s37.333 26.333 61 36s48 17.167 73 22.5s45.167 8.66602 60.5 9.99902l1 9c7.33301 15.333 21 23 41 23c5.33301 0 11.666 -0.833008 18.999 -2.5
s14.5 -4.16699 21.5 -7.5s13.333 -7.33301 19 -12s9.5 -9.66699 11.5 -15c1.33301 0 3.83301 -0.333008 7.5 -1s6.16699 -1.33398 7.5 -2.00098c22 -5.33301 41.167 -13.166 57.5 -23.499s33.166 -22.833 50.499 -37.5c4.66699 -4 9.66699 -7.66699 15 -11
s10.666 -7.33301 15.999 -12c15.333 -13.333 28.666 -29.333 39.999 -48c12.667 14 27.334 25.167 44.001 33.5s34.667 12.5 54 12.5c5.33301 0 10.666 -0.666992 15.999 -2l16 -4l1 -1c9.33301 -4 17.833 -8.5 25.5 -13.5s14.167 -12.167 19.5 -21.5
c2.66699 -1.33301 5.16699 -2.5 7.5 -3.5s4.83301 -2.16699 7.5 -3.5c4 6.66699 7.5 13.5 10.5 20.5s6.66699 13 11 18s9.33301 9.16699 15 12.5s13.167 5 22.5 5c8 0 18 -1.5 30 -4.5s20.667 -7.83301 26 -14.5c7.33301 5.33301 15.166 10.5 23.499 15.5
s17.166 7.5 26.499 7.5c13.333 0 25.666 -3.66699 36.999 -11s20.666 -16.333 27.999 -27c6.66699 -2.66699 11.334 -5 14.001 -7c7.33301 7.33301 15 13.5 23 18.5s17.667 7.5 29 7.5c5.33301 0 11.666 -0.666992 18.999 -2s14.333 -3.33301 21 -6
s12.5 -6.33398 17.5 -11.001s7.83301 -10.334 8.5 -17.001c3.33301 -0.666992 6.33301 -1.5 9 -2.5s5.33398 -2.16699 8.00098 -3.5c2 6 6.33301 13.667 13 23s14.167 18.5 22.5 27.5s17 16.833 26 23.5s16.833 10 23.5 10h24.5c8.33301 0 16.166 -1.66699 23.5 -5
c1.33301 0.666992 3.16602 0 5.5 -2c2.33301 -2 4.16602 -3.66699 5.5 -5c15.333 5.33301 28.166 11.5 38.5 18.5c10.333 7 21.5 15.5 33.5 25.5c6 5.33301 13.667 8 23 8c8.66699 0 17.667 -3.33301 27 -10s14.666 -14.667 16 -24c10.667 0 19.334 -3.33301 26 -10h1
c5.33301 -5.33301 9.33301 -10.333 12 -15s4.66699 -10.667 6 -18l-1 -1c0 -10 -3.16699 -18.167 -9.5 -24.5s-14 -11.833 -23 -16.5s-18.167 -8.66699 -27.5 -12s-16.666 -7.33301 -22 -12l1 -2c0 -12.667 -3.16699 -27.334 -9.5 -44.001s-14.333 -32.834 -24 -48.501
s-20.334 -30 -32 -43c-11.667 -13 -23.167 -22.5 -34.5 -28.5c10 -4 18.167 -7.66699 24.5 -11s11.166 -10.666 14.5 -21.999c11.333 -3.33301 21.666 -8.33301 31 -15c9.33301 -6.66699 14 -16.667 14 -30c0 -12 -3.33301 -22.833 -10 -32.5s-16.667 -14.5 -30 -14.5
c-4.66699 0 -9.33398 1 -14 3h-1c-2 1.33301 -3.83301 2.66602 -5.5 3.99902s-3.5 2.66602 -5.5 3.99902l-1 4c-3.33301 1.33301 -9.33301 2.5 -18 3.5s-18.334 1.66699 -29 2c-10.667 0.333008 -20.667 0.5 -30 0.5h-20c-31.333 0 -70 -1.66699 -116 -5
s-95.167 -7.83301 -147.5 -13.5s-106.333 -12.834 -162 -21.501s-109.167 -18.167 -160.5 -28.5s-98.333 -21.833 -141 -34.5s-77.667 -26 -105 -40c-4 -3.33301 -10 -5 -18 -5zM91.0049 389.01c0.666992 51.333 10.998 99.498 30.998 144.498s47 84.167 81 117.5
s73.667 59.666 119 78.999s94 29 146 29c51.333 0 99.5 -10 144.5 -30s84.167 -47 117.5 -81s59.666 -73.667 78.999 -119s29 -94 29 -146c0 -51.333 -10 -99.666 -30 -144.999s-47 -84.666 -81 -117.999s-73.667 -59.666 -119 -78.999s-94 -29 -146 -29
c-51.333 0 -99.666 10 -144.999 30s-84.666 47 -117.999 81s-59.666 73.833 -78.999 119.5s-29 94.5 -29 146.5zM824.003 383.008c0 49.333 -9.33008 95.834 -27.9971 139.501s-44.167 81.834 -76.5 114.501s-70.166 58.667 -113.499 78s-89.333 29 -138 29
c-50 0 -96.833 -9.16699 -140.5 -27.5s-81.834 -43.666 -114.501 -75.999s-58.5 -70.166 -77.5 -113.499s-28.833 -89.333 -29.5 -138c0 -50 9.16699 -96.833 27.5 -140.5s43.666 -81.834 75.999 -114.501s70.166 -58.5 113.499 -77.5s89.666 -28.833 138.999 -29.5
c49.333 0 95.833 9.16699 139.5 27.5s82 43.666 115 75.999s59 70.166 78 113.499s28.833 89.666 29.5 138.999zM218.006 387.009c0 34 6.49805 65.999 19.498 95.999s30.833 56.167 53.5 78.5s49 39.833 79 52.5s62 18.667 96 18c34 0 66 -6.5 96 -19.5
s56.167 -30.667 78.5 -53s40 -48.666 53 -78.999s19.5 -62.5 19.5 -96.5c-0.666992 -34 -7.66699 -66 -21 -96s-31.166 -56 -53.499 -78s-48.666 -39.333 -78.999 -52s-62.5 -19 -96.5 -19s-66 6.5 -96 19.5s-56 30.833 -78 53.5s-39.333 49 -52 79s-19 62 -19 96z
M696.004 384.008c0 32 -5.83301 62.167 -17.5 90.5s-28 53 -49 74s-45.5 37.667 -73.5 50s-58 18.5 -90 18.5s-62 -5.83301 -90 -17.5s-52.5 -28 -73.5 -49s-37.833 -45.5 -50.5 -73.5s-19 -58 -19 -90s5.83301 -62 17.5 -90s28 -52.5 49 -73.5s45.5 -37.833 73.5 -50.5
s58 -19 90 -19s62.167 5.83301 90.5 17.5s53 28 74 49s37.667 45.5 50 73.5s18.5 58 18.5 90zM1083 240.008c-2.66699 0 -7.49609 -0.166992 -14.4961 -0.5s-14.333 -0.833008 -22 -1.5s-14.334 -1.66699 -20.001 -3s-8.5 -3.33301 -8.5 -6
c0 -4.66699 2.16699 -8.5 6.5 -11.5s9.33301 -5.33301 15 -7s11.5 -2.83398 17.5 -3.50098s10.667 -1 14 -1c28 0 56.833 2.66699 86.5 8s58 13.666 85 24.999s52 25.833 75 43.5s42.5 39.167 58.5 64.5c9.33301 14 17 28.333 23 43s9 30.667 9 48
c0 24 -4.83301 46.5 -14.5 67.5s-22.834 39.5 -39.501 55.5s-35.667 29 -57 39s-43.333 16 -66 18c0.666992 5.33301 -0.833008 10.166 -4.5 14.499s-8.33398 8 -14.001 11s-11.5 5.16699 -17.5 6.5s-11 2 -15 2c-4.66699 0 -8.66699 -1 -12 -3s-5 -5.66699 -5 -11v-16
c-13.333 -1.33301 -32.166 -4 -56.499 -8s-48.833 -10 -73.5 -18s-46 -18.333 -64 -31s-27 -27.667 -27 -45c0 -20 7.33301 -34 22 -42l5 1c4.66699 4 8.16699 8.33301 10.5 13s6.16602 9 11.499 13c23.333 18.667 48.333 32.834 75 42.501s55 16.834 85 21.501
c-2 -8.66699 -5.66699 -21 -11 -37l-17.5 -53l-20 -61c-7 -21.333 -13.333 -41.666 -19 -60.999s-10.334 -36.833 -14.001 -52.5s-5.5 -27.834 -5.5 -36.501c0 -6.66699 1.83301 -12.167 5.5 -16.5s8.16699 -8.16602 13.5 -11.499zM1896.01 433.008
c-6.66699 -23.333 -4.83594 -42.8291 5.49707 -58.4961s27.833 -23.5 52.5 -23.5c11.333 0 23.5 2.16699 36.5 6.5s23.167 11.166 30.5 20.499c7.33301 -7.33301 16.666 -13.166 27.999 -17.499s22.333 -6.5 33 -6.5c5.33301 0 10.666 1.33301 16 4h-1
c10 3.33301 20.667 10.833 32 22.5s22 24.667 32 39s18.167 29.166 24.5 44.499s9.5 28 9.5 38c0 7.33301 -3 14 -9 20c4 1.33301 11 3.83301 21 7.5s20.167 8 30.5 13s19.333 10.333 27 16s11.5 11.5 11.5 17.5c0 2.66699 -0.666992 6 -2 10
c-3.33301 3.33301 -6.16602 6.5 -8.49902 9.5s-5.83301 4.5 -10.5 4.5c-2 0 -4.33301 -0.666992 -7 -2c-5.33301 -6 -12.333 -12.167 -21 -18.5s-18 -12 -28 -17s-20 -9.16699 -30 -12.5s-19.333 -5 -28 -5c2 2 3 4 3 6c0 4.66699 -4 7.5 -12 8.5s-13.667 1.5 -17 1.5
c-17.333 0 -32.333 -8.16699 -45 -24.5s-24.667 -35.166 -36 -56.499s-23 -42 -35 -62s-26.333 -33.667 -43 -41c-2 4 -3 8 -3 12c-1.33301 2.66699 -2 6.66699 -2 12c0 8.66699 1.16699 17.5 3.5 26.5s5 17.667 8 26l8.5 24.5c2.66699 8 4 15 4 21
c0 4 -1.66699 7.16699 -5 9.5s-7.33301 4.16602 -12 5.49902s-9.33398 2.33301 -14.001 3s-8.33398 1 -11.001 1c-2 0 -4.5 -0.166992 -7.5 -0.5s-5.16699 -1.5 -6.5 -3.5c-13.333 -8 -26.666 -18.5 -39.999 -31.5s-24.666 -25.167 -33.999 -36.5
c0 8 0.833008 16.167 2.5 24.5s2.5 16.5 2.5 24.5c0 10 -5.16699 19.333 -15.5 28s-20.166 13 -29.499 13c-8.66699 0 -17.334 -2.83301 -26.001 -8.5s-17 -12.334 -25 -20.001s-15.5 -15.5 -22.5 -23.5s-13.5 -14.667 -19.5 -20c0.666992 2 2 5.16699 4 9.5l6.5 14
c2.33301 5 4.83301 9.5 7.5 13.5s5 6.33301 7 7l1 5c-2 8 -7.5 13.333 -16.5 16s-17.167 4 -24.5 4c-2 0 -5.33301 -0.833008 -10 -2.5s-7.66699 -3.5 -9 -5.5l-27.5 -51c-11 -20 -23.5 -39.5 -37.5 -58.5s-29.333 -35.167 -46 -48.5s-34.667 -20 -54 -20
c-13.333 0 -22.333 6.33301 -27 19c8 2 18.667 7 32 15s26.666 17.5 39.999 28.5s24.833 22.667 34.5 35s14.5 23.5 14.5 33.5c0 6.66699 -2.16699 13 -6.5 19s-9.83301 11.167 -16.5 15.5s-13.667 7.66602 -21 9.99902s-14 3.5 -20 3.5c-15.333 0 -30.166 -4 -44.499 -12
s-27.166 -18.333 -38.499 -31s-20.333 -26.5 -27 -41.5s-10 -29.833 -10 -44.5c0 -26.667 8.83301 -47.167 26.5 -61.5s39.167 -21.5 64.5 -21.5c22.667 0 42.334 3.66699 59.001 11s32.667 18.666 48 33.999c5.33301 -7.33301 13 -13.666 23 -18.999s19.667 -8 29 -8
c8.66699 0 14.334 3.33301 17.001 10c4 10 10.167 21.667 18.5 35s17.666 26.666 27.999 39.999s20.833 26 31.5 38s20.667 22.333 30 31c-3.33301 -17.333 -8.33301 -35.333 -15 -54s-10 -36.667 -10 -54c0 -3.33301 1.5 -6.5 4.5 -9.5s6.66699 -5.5 11 -7.5
s8.83301 -3.66699 13.5 -5s8.33398 -2 11.001 -2h12.5c3 0 6.83301 1.66699 11.5 5c6.66699 13.333 15.667 26.5 27 39.5s22 24.5 32 34.5zM485.006 241.012c3.33301 4 5.66699 8.16797 7 12.501s2.66602 9.16602 3.99902 14.499v14l-59 1v-15
c0 -9.33301 3.66699 -18.333 11 -27h-67c3.33301 4.66699 5.66602 9.33398 6.99902 14.001s2.33301 9.33398 3 14.001v81h46v-20h59v34l-145 1v-55c0 -10.667 3.33301 -19.667 10 -27l-67 1c4 3.33301 6.5 7.5 7.5 12.5s2.16699 9.5 3.5 13.5l1 156
c-0.666992 4.66699 -1.83398 9.33398 -3.50098 14.001s-4.16699 9 -7.5 13h68c-4 -4 -6.66699 -8.5 -8 -13.5s-2.66602 -9.5 -3.99902 -13.5v-55h41v54c-0.666992 4.66699 -1.66699 9.16699 -3 13.5s-3.66602 9.16602 -6.99902 14.499l115 -1v14
c0 10 -3.66699 19.333 -11 28h67c-5.33301 -8.66699 -8.66602 -18 -9.99902 -28v-14h4c32 0 57 -11.667 75 -35c9.33301 -9.33301 15.833 -20.333 19.5 -33s5.5 -25.334 5.5 -38.001c0 -13.333 -2 -26 -6 -38s-10.667 -23 -20 -33
c-7.33301 -9.33301 -16.333 -16.833 -27 -22.5s-23 -8.83398 -37 -9.50098v47c15.333 2.66699 26.333 9.66699 33 21s10 23 10 35c0 13.333 -4 26.333 -12 39s-21.667 19 -41 19h-109v-33h59v19l46 -2l-2 -160c0 -9.33301 3.66699 -18.333 11 -27h-67zM2033.01 306.013
c-59.333 0 -121.335 -2.16992 -186.002 -6.50293s-129.834 -10.833 -195.501 -19.5s-130.334 -19 -194.001 -31s-124.167 -25.667 -181.5 -41c-5.33301 -1.33301 -13.166 -3.66602 -23.499 -6.99902s-21 -7 -32 -11s-21.167 -8 -30.5 -12s-15.666 -8 -18.999 -12
c-1.33301 -2 -2.33301 -5 -3 -9s-1 -7.33301 -1 -10c0 -7.33301 1.33301 -14.166 4 -20.499s7.66699 -10.833 15 -13.5c1.33301 0 5.83301 1.5 13.5 4.5l25.5 10.5c9.33301 4 18.333 7.66699 27 11l18 7l51.5 15.5c17 5 34.167 9.5 51.5 13.5
c53.333 12.667 108.833 24.334 166.5 35.001s115.834 19.834 174.501 27.501s117.167 13.667 175.5 18s114.833 6.5 169.5 6.5c4.66699 0 11.667 -0.166992 21 -0.5s19.166 -1 29.5 -2c10.333 -1 19.833 -2.5 28.5 -4.5s14.334 -4.66699 17.001 -8l1 -3l3 -3h4
c4 0 7.5 1.66699 10.5 5s4.5 7 4.5 11v11c0 4 -1 7.66699 -3 11c-3.33301 5.33301 -11.333 9.66602 -24 12.999s-26.667 6 -42 8s-30.333 3.5 -45 4.5s-25 1.5 -31 1.5zM1127 249.01c0 5.33301 0.668945 10.667 2.00195 16l4 16l40.5 145.5
c13.667 48.333 28.5 96.5 44.5 144.5c15.333 -0.666992 31.166 -2.5 47.499 -5.5s31.333 -8.33301 45 -16s25 -17.667 34 -30s13.5 -27.833 13.5 -46.5c0 -28.667 -7.33301 -55.334 -22 -80.001s-33.334 -46.667 -56.001 -66s-47.667 -35.666 -75 -48.999
s-53.333 -23 -78 -29zM1217.01 308.011c13.333 8.66699 27 18.667 41 30s26.667 23.833 38 37.5s20.5 28.334 27.5 44.001s10.5 32.167 10.5 49.5c0 7.33301 -0.5 13.5 -1.5 18.5s-2.83301 10.833 -5.5 17.5c-8 3.33301 -16 5.66602 -24 6.99902l-25 4
c-12 -34 -22.833 -68.333 -32.5 -103l-28.5 -104v-1zM2069.01 385.011c-2 0 -3.16602 1.33203 -3.49902 3.99902s-0.5 4.66699 -0.5 6c0 5.33301 1.66699 13 5 23s7.16602 20.333 11.5 31c4.33301 10.667 9.16602 20.834 14.5 30.501c5.33301 9.66699 10 17.5 14 23.5
c6 -0.666992 12 -0.333984 18 0.999023s12 2 18 2c2 0 3.66699 -1 5 -3c-1.33301 -5.33301 -5.33301 -14.5 -12 -27.5s-14.334 -26.167 -23 -39.5c-8.66699 -13.333 -17.334 -25.166 -26.001 -35.499s-15.667 -15.5 -21 -15.5zM580.008 133.01
c19.333 9.33301 33 5.00098 41 -12.999c7.33301 -16.667 2 -29.667 -16 -39c-20 -8.66699 -33.667 -4.33398 -41 12.999c-10 18 -4.66699 31 16 39zM251.008 555.011l-2 6.00098l-34 33h-5l21 22c14 15.333 27.667 16 41 2c13.333 -12.667 13.333 -26.334 0 -41.001z
M728.008 459.012l26.001 24l-26 -7l-4 -4l-4 20l1 -1c1.33301 -1.33301 2.66602 -2.33301 3.99902 -3l45 13l4 5l4 -19l-28 -27l38 -8l5 -20l-5 3l-46 -12l-4 -4l-6 21l6 -2l25 7l-33 6zM545.009 114.012l-17 -57l-11 -1l-13 27l-8 -30l-13 -2l-27 54l22 2l-3 -5l12 -29
l11 36l9 2l16 -34l8 31l-4 4zM271.009 651.012l29 20c12.667 6 21.667 5 27 -3c5.33301 -8.66699 5 -16 -1 -22l25 -11l-22 -13l1 6l-17 7l-6 -4l7 -13l6 -2l-19 -13l1 6l-27 41zM539.009 707.012l33 -11c14 -4 19.333 -11.667 16 -23c-3.33301 -8 -9 -12 -17 -12l7 -26
l-24 8l6 3l-7 19l-6 1l-6 -15l3 -5l-21 6l3 4l15 46zM620.009 154.012l27 21c12 10 21.333 10 28 0c6 -7.33301 6 -14.333 0 -21l26 -8l-19 -15v5l-18 6l-7 -6l11 -11h5l-18 -16v5l-30 39zM462.009 714.012l35 -1c13.333 -0.666992 20 -8 20 -22
c0 -13.333 -8 -19.333 -24 -18l-14 2l-1 -13l4 -4l-24 1l4 4l2 47zM162.009 517.012l9 16l42 9l-25 14l-5 -1l9 18l2 -6l46 -25l-6 -12l-43 -9l24 -15l6 1l-10 -16l-1 4l-43 22h-5zM327.009 143.012l30 -15c14 -6 18 -15.333 12 -28c-6 -10.667 -15.333 -13 -28 -7l-14 7
l-6 -13l2 -4l-21 10l5 1l20 44v5zM170.009 366.012h18l4 4v-24l-4 4l-48 -1l-4 -4v24l4 -4l17 1v27l-18 -1l-3 -3v24l3 -5l48 2l4 3v-23l-4 3h-17v-27zM363.009 698.012l19 6l42 -46l-23 -7l2 5l-3 5l-26 -9l-1 -6l3 -3l-19 -6l9 58zM740.009 567.012l10 -17l-33 -52l-13 19
h5l5 5l-16 22h-5l-3 -4l-10 16l57 7zM1402.01 258.012c15.333 3.33301 30.667 6.16992 46 8.50293s30.666 5.16602 45.999 8.49902c-10.667 5.33301 -17.667 10.5 -21 15.5s-8.66602 10.167 -15.999 15.5c-2 1.33301 -4 2.5 -6 3.5s-4 2.16699 -6 3.5
c-6 -10.667 -12.5 -20.334 -19.5 -29.001s-14.833 -17.334 -23.5 -26.001zM716.01 199.016v-7l11 -9l4 2l-13 -20l-2 5l-39 29h-4l14 17l1 -5l14 -10l-1 28h-6l16 22l3 -38l42 3l-16 -21l-2 5zM634.01 668.016l16 -11l-7 -62l-20 13l5 2l1 6l-22 14l-6 -2l1 -6l-17 10l49 31
v5zM795.01 386.016l-2 -19l-56 -25l1 23l4 -3l6 2l1 27l-6 3l-5 -3v20l52 -27zM391.01 117.016l52 -11l-4 -14l-2 3l-29 6l-1 -10l17 -4l5 3l-5 -18l-2 3l-18 5l-2 -10l28 -6l5 2l-4 -15l-50 10l3 4l10 47zM1556.01 476.016c0 -5.33301 -3 -11.834 -9 -19.501
s-13.167 -15.167 -21.5 -22.5s-16.833 -14.166 -25.5 -20.499s-15.334 -10.5 -20.001 -12.5c2.66699 5.33301 6.66699 12.833 12 22.5s11.333 19 18 28s13.5 16.833 20.5 23.5s13.5 10 19.5 10c2.66699 0 4.33398 -0.333008 5.00098 -1c0.666992 -1.33301 1 -4 1 -8z
M139.01 438.015l12 50l15 -2l-4 -5l-8 -27l12 -3l4 18l-3 5l18 -5l-5 -2l-3 -18l9 -3l7 28l-2 6l15 -5l-13 -50l-2 3l-47 12zM720.01 595.015l-12 -11l-1 5l-11 11l-27 -27v-6l-17 17l5 1l27 26l-10 11l-5 1l12 12zM253.01 202.015l-14 -9l1 6l-9 11l-33 -21v-4l-14 18h6
l31 21l-9 13l-5 3l14 8zM272.01 135.015l-10 -10v-6l-17 15l4 1l10 11l6 44l18 -16h-5l-4 -26l27 7l-1 6l14 -13zM578.01 101.015c6.66699 -10.667 14 -13.667 22 -9c7.33301 2.66699 9.33301 9.66699 6 21c-4.66699 10 -11.667 13 -21 9
c-8.66699 -3.33301 -11 -10.333 -7 -21zM1809.01 316.015c-8 6.66699 -13.333 13.667 -16 21l-14 5l-19 -27l-1 -4zM255.01 578.015l5.99805 5.99902c6.66699 6.66699 6.33398 14.334 -0.999023 23.001c-7.33301 7.33301 -14.666 7.33301 -21.999 0l-6 -6zM736.008 278.014
c-5.33301 6.66699 -5.33301 13.334 0 20.001c6.66699 6.66699 13.334 6.66699 20.001 0c8 -6.66699 8 -13.334 0 -20.001c-6.66699 -6.66699 -13.334 -6.66699 -20.001 0zM169.008 278.014c-6.66699 6.66699 -6.66699 13.334 0 20.001c2 3.33301 5.16699 5 9.5 5
s7.5 -1.66699 9.5 -5c6.66699 -6.66699 6.66699 -13.334 0 -20.001c-2 -3.33301 -5.16699 -5 -9.5 -5s-7.5 1.66699 -9.5 5zM480.008 702.014v-17l11 -1c5.33301 0 8 2.66699 8 8c1.33301 6.66699 -1 10 -7 10h-12zM339.008 125.014l-7 -16l10 -4c5.33301 -4 9 -3 11 3
c4 6 2.66699 9.66699 -4 11zM554.008 690.014l-4 -12.999l10 -4c6.66699 -2.66699 10.667 -1.33398 12 3.99902c0 4.66699 -2.33301 7.66699 -7 9zM294.008 652.015l7 -11l9 5c4 3.33301 5.33301 7 4 11c-2 4.66699 -6 5 -12 1zM642.008 156.015l10 -10l8 7
c4 2.66699 4.66699 6 2 10c-2 5.33301 -5.33301 5.33301 -10 0zM709.008 548.015l11 -18l11 19zM1928.01 324.015c-2.66699 2.66699 -4.33203 5.00098 -4.99902 7.00098l-1 1l-1 3l-6 2c-4.66699 -4.66699 -8.33398 -9.33398 -11.001 -14.001c4 0 8 0.166992 12 0.5
s8 0.5 12 0.5zM615.01 636.016l17 -9l2 21zM375.01 664.016l17 6l-15 15zM758.01 386.016v-17l20 8z" />
    <glyph glyph-name="section" unicode="&#xa7;" horiz-adv-x="517" 
d="M158 470c-2 10 -3.00195 20 -3.00195 30c0 18.667 3.66699 36.5 11 53.5s17.5 31.833 30.5 44.5s28.167 22.667 45.5 30s36.333 11 57 11c16 0 31.333 -2.83301 46 -8.5s27.834 -13.334 39.501 -23.001s21.834 -21 30.501 -34s15 -26.833 19 -41.5l-56 -24
c-7.33301 23.333 -18.166 41 -32.499 53s-30.833 17.667 -49.5 17c-12 0 -23 -2 -33 -6s-18.5 -9.66699 -25.5 -17s-12.333 -15.833 -16 -25.5s-5.5 -19.834 -5.5 -30.501c0 -8 1.16699 -16 3.5 -24s6.16602 -15.667 11.499 -23c8.66699 -12 19.667 -23.5 33 -34.5
s27 -21.333 41 -31s27.667 -18.667 41 -27s24.333 -16.166 33 -23.499c32 -26 58.167 -55.5 78.5 -88.5s30.5 -71.5 30.5 -115.5c-0.666992 -28 -6.16699 -54.667 -16.5 -80s-25.166 -47.666 -44.499 -66.999c0.666992 -3.33301 1 -8.33301 1 -15
c0 -29.333 -6 -57.166 -18 -83.499s-28.333 -49.333 -49 -69s-45.167 -35.167 -73.5 -46.5s-59.166 -16.666 -92.499 -15.999c-30.667 0.666992 -59.5 6 -86.5 16s-50.5 23.667 -70.5 41s-36 38.333 -48 63s-18.667 51.667 -20 81c-1.33301 25.333 2.16699 49 10.5 71
s20 41.167 35 57.5s32.833 29.166 53.5 38.499s43 14 67 14c20 0 39.667 -3.33301 59 -10l-18 -54c-13.333 4 -25.666 6 -36.999 6c-16 0 -31 -3.16699 -45 -9.5s-26 -15 -36 -26s-17.833 -24 -23.5 -39s-7.83398 -30.833 -6.50098 -47.5
c1.33301 -42 17.166 -76 47.499 -102s70.166 -39.667 119.499 -41c26 -0.666992 49.667 3.33301 71 12s39.666 20.5 54.999 35.5s27 32.5 35 52.5s11.667 40.667 11 62c0 15.333 -2.66699 30.166 -8 44.499s-12.166 28 -20.499 41s-18 25.167 -29 36.5
s-22.5 21.666 -34.5 30.999c-17.333 14.667 -35.5 28.167 -54.5 40.5s-36.667 25.166 -53 38.499s-30.833 27.833 -43.5 43.5s-21.667 34.5 -27 56.5c-2 10 -3 19.667 -3 29c0 24.667 6 47.334 18 68.001s28.333 37.334 49 50.001zM427.998 138
c0 15.333 -2.66797 30.168 -8.00098 44.501s-12.166 28 -20.499 41s-18 25.167 -29 36.5s-22.5 21.666 -34.5 30.999c-24.667 20.667 -50.167 39.167 -76.5 55.5s-48.833 35.5 -67.5 57.5c-11.333 -7.33301 -20.333 -17 -27 -29s-10 -24.667 -10 -38c0 -8 1.33301 -16 4 -24
s6.66699 -15.667 12 -23c8.66699 -12 19.667 -23.5 33 -34.5s27 -21.333 41 -31s27.667 -18.667 41 -27s24.333 -16.166 33 -23.499c19.333 -16.667 37 -34.334 53 -53.001s28.667 -39 38 -61c13.333 23.333 19.333 49.333 18 78z" />
    <glyph glyph-name="dieresis" unicode="&#xa8;" horiz-adv-x="557" 
d="M240 478v-59h-61v59h61zM370 478v-59h-61v59h61z" />
    <glyph glyph-name="copyright" unicode="&#xa9;" horiz-adv-x="2390" 
d="M1231 59c-9.33301 0 -18.1611 3.17676 -26.4941 9.50977s-13.166 14.166 -14.499 23.499l-1 1c-14 0 -25.167 5.5 -33.5 16.5s-12.5 23.167 -12.5 36.5c0 1.33301 0.166992 2.5 0.5 3.5s0.5 2.16699 0.5 3.5h-27.5c-11.667 0 -23.167 1 -34.5 3s-21.333 5.5 -30 10.5
s-13.667 12.833 -15 23.5c-9.33301 0.666992 -18.833 4.66699 -28.5 12s-14.5 16 -14.5 26c0 13.333 5.5 21.5 16.5 24.5s21.5 4.5 31.5 4.5c-2 5.33301 -2 14.333 0 27s5.16699 27.167 9.5 43.5s9.16602 33.166 14.499 50.499l15.5 49l13 39.5
c3.66699 11 5.83398 17.833 6.50098 20.5c-12.667 -6.66699 -23.667 -12.834 -33 -18.501s-19 -13.167 -29 -22.5c-5.33301 -14.667 -15.666 -22 -30.999 -22c-1.33301 0 -3.83301 0.5 -7.5 1.5s-5.83398 1.5 -6.50098 1.5c-7.33301 4.66699 -13 9 -17 13
s-7.66699 10 -11 18c-16.667 0 -28.667 6.83301 -36 20.5s-11 27.5 -11 41.5c0 20 8.5 37.167 25.5 51.5s37.333 26.333 61 36s48 17.167 73 22.5s45.167 8.66602 60.5 9.99902l1 9c7.33301 15.333 21 23 41 23c5.33301 0 11.666 -0.833008 18.999 -2.5
s14.5 -4.16699 21.5 -7.5s13.333 -7.33301 19 -12s9.5 -9.66699 11.5 -15c1.33301 0 3.83301 -0.333008 7.5 -1s6.16699 -1.33398 7.5 -2.00098c22 -5.33301 41.167 -13.166 57.5 -23.499s33.166 -22.833 50.499 -37.5c4.66699 -4 9.66699 -7.66699 15 -11
s10.666 -7.33301 15.999 -12c15.333 -13.333 28.666 -29.333 39.999 -48c12.667 14 27.334 25.167 44.001 33.5s34.667 12.5 54 12.5c5.33301 0 10.666 -0.666992 15.999 -2l16 -4l1 -1c9.33301 -4 17.833 -8.5 25.5 -13.5s14.167 -12.167 19.5 -21.5
c2.66699 -1.33301 5.16699 -2.5 7.5 -3.5s4.83301 -2.16699 7.5 -3.5c4 6.66699 7.5 13.5 10.5 20.5s6.66699 13 11 18s9.33301 9.16699 15 12.5s13.167 5 22.5 5c8 0 18 -1.5 30 -4.5s20.667 -7.83301 26 -14.5c7.33301 5.33301 15.166 10.5 23.499 15.5
s17.166 7.5 26.499 7.5c13.333 0 25.666 -3.66699 36.999 -11s20.666 -16.333 27.999 -27c6.66699 -2.66699 11.334 -5 14.001 -7c7.33301 7.33301 15 13.5 23 18.5s17.667 7.5 29 7.5c5.33301 0 11.666 -0.666992 18.999 -2s14.333 -3.33301 21 -6
s12.5 -6.33398 17.5 -11.001s7.83301 -10.334 8.5 -17.001c3.33301 -0.666992 6.33301 -1.5 9 -2.5s5.33398 -2.16699 8.00098 -3.5c2 6 6.33301 13.667 13 23s14.167 18.5 22.5 27.5s17 16.833 26 23.5s16.833 10 23.5 10h24.5c8.33301 0 16.166 -1.66699 23.5 -5
c1.33301 0.666992 3.16602 0 5.5 -2c2.33301 -2 4.16602 -3.66699 5.5 -5c15.333 5.33301 28.166 11.5 38.5 18.5c10.333 7 21.5 15.5 33.5 25.5c6 5.33301 13.667 8 23 8c8.66699 0 17.667 -3.33301 27 -10s14.666 -14.667 16 -24c10.667 0 19.334 -3.33301 26 -10h1
c5.33301 -5.33301 9.33301 -10.333 12 -15s4.66699 -10.667 6 -18l-1 -1c0 -10 -3.16699 -18.167 -9.5 -24.5s-14 -11.833 -23 -16.5s-18.167 -8.66699 -27.5 -12s-16.666 -7.33301 -22 -12l1 -2c0 -12.667 -3.16699 -27.334 -9.5 -44.001s-14.333 -32.834 -24 -48.501
s-20.334 -30 -32 -43c-11.667 -13 -23.167 -22.5 -34.5 -28.5c10 -4 18.167 -7.66699 24.5 -11s11.166 -10.666 14.5 -21.999c11.333 -3.33301 21.666 -8.33301 31 -15c9.33301 -6.66699 14 -16.667 14 -30c0 -12 -3.33301 -22.833 -10 -32.5s-16.667 -14.5 -30 -14.5
c-4.66699 0 -9.33398 1 -14 3h-1c-2 1.33301 -3.83301 2.66602 -5.5 3.99902s-3.5 2.66602 -5.5 3.99902l-1 4c-3.33301 1.33301 -9.33301 2.5 -18 3.5s-18.334 1.66699 -29 2c-10.667 0.333008 -20.667 0.5 -30 0.5h-20c-31.333 0 -70 -1.66699 -116 -5
s-95.167 -7.83301 -147.5 -13.5s-106.333 -12.834 -162 -21.501s-109.167 -18.167 -160.5 -28.5s-98.333 -21.833 -141 -34.5s-77.667 -26 -105 -40c-4 -3.33301 -10 -5 -18 -5zM91.0049 389.01c0.666992 51.333 10.998 99.498 30.998 144.498s47 84.167 81 117.5
s73.667 59.666 119 78.999s94 29 146 29c51.333 0 99.5 -10 144.5 -30s84.167 -47 117.5 -81s59.666 -73.667 78.999 -119s29 -94 29 -146c0 -51.333 -10 -99.666 -30 -144.999s-47 -84.666 -81 -117.999s-73.667 -59.666 -119 -78.999s-94 -29 -146 -29
c-51.333 0 -99.666 10 -144.999 30s-84.666 47 -117.999 81s-59.666 73.833 -78.999 119.5s-29 94.5 -29 146.5zM824.003 383.008c0 49.333 -9.33008 95.834 -27.9971 139.501s-44.167 81.834 -76.5 114.501s-70.166 58.667 -113.499 78s-89.333 29 -138 29
c-50 0 -96.833 -9.16699 -140.5 -27.5s-81.834 -43.666 -114.501 -75.999s-58.5 -70.166 -77.5 -113.499s-28.833 -89.333 -29.5 -138c0 -50 9.16699 -96.833 27.5 -140.5s43.666 -81.834 75.999 -114.501s70.166 -58.5 113.499 -77.5s89.666 -28.833 138.999 -29.5
c49.333 0 95.833 9.16699 139.5 27.5s82 43.666 115 75.999s59 70.166 78 113.499s28.833 89.666 29.5 138.999zM218.006 387.009c0 34 6.49805 65.999 19.498 95.999s30.833 56.167 53.5 78.5s49 39.833 79 52.5s62 18.667 96 18c34 0 66 -6.5 96 -19.5
s56.167 -30.667 78.5 -53s40 -48.666 53 -78.999s19.5 -62.5 19.5 -96.5c-0.666992 -34 -7.66699 -66 -21 -96s-31.166 -56 -53.499 -78s-48.666 -39.333 -78.999 -52s-62.5 -19 -96.5 -19s-66 6.5 -96 19.5s-56 30.833 -78 53.5s-39.333 49 -52 79s-19 62 -19 96z
M696.004 384.008c0 32 -5.83301 62.167 -17.5 90.5s-28 53 -49 74s-45.5 37.667 -73.5 50s-58 18.5 -90 18.5s-62 -5.83301 -90 -17.5s-52.5 -28 -73.5 -49s-37.833 -45.5 -50.5 -73.5s-19 -58 -19 -90s5.83301 -62 17.5 -90s28 -52.5 49 -73.5s45.5 -37.833 73.5 -50.5
s58 -19 90 -19s62.167 5.83301 90.5 17.5s53 28 74 49s37.667 45.5 50 73.5s18.5 58 18.5 90zM1083 240.008c-2.66699 0 -7.49609 -0.166992 -14.4961 -0.5s-14.333 -0.833008 -22 -1.5s-14.334 -1.66699 -20.001 -3s-8.5 -3.33301 -8.5 -6
c0 -4.66699 2.16699 -8.5 6.5 -11.5s9.33301 -5.33301 15 -7s11.5 -2.83398 17.5 -3.50098s10.667 -1 14 -1c28 0 56.833 2.66699 86.5 8s58 13.666 85 24.999s52 25.833 75 43.5s42.5 39.167 58.5 64.5c9.33301 14 17 28.333 23 43s9 30.667 9 48
c0 24 -4.83301 46.5 -14.5 67.5s-22.834 39.5 -39.501 55.5s-35.667 29 -57 39s-43.333 16 -66 18c0.666992 5.33301 -0.833008 10.166 -4.5 14.499s-8.33398 8 -14.001 11s-11.5 5.16699 -17.5 6.5s-11 2 -15 2c-4.66699 0 -8.66699 -1 -12 -3s-5 -5.66699 -5 -11v-16
c-13.333 -1.33301 -32.166 -4 -56.499 -8s-48.833 -10 -73.5 -18s-46 -18.333 -64 -31s-27 -27.667 -27 -45c0 -20 7.33301 -34 22 -42l5 1c4.66699 4 8.16699 8.33301 10.5 13s6.16602 9 11.499 13c23.333 18.667 48.333 32.834 75 42.501s55 16.834 85 21.501
c-2 -8.66699 -5.66699 -21 -11 -37l-17.5 -53l-20 -61c-7 -21.333 -13.333 -41.666 -19 -60.999s-10.334 -36.833 -14.001 -52.5s-5.5 -27.834 -5.5 -36.501c0 -6.66699 1.83301 -12.167 5.5 -16.5s8.16699 -8.16602 13.5 -11.499zM1896.01 433.008
c-6.66699 -23.333 -4.83594 -42.8291 5.49707 -58.4961s27.833 -23.5 52.5 -23.5c11.333 0 23.5 2.16699 36.5 6.5s23.167 11.166 30.5 20.499c7.33301 -7.33301 16.666 -13.166 27.999 -17.499s22.333 -6.5 33 -6.5c5.33301 0 10.666 1.33301 16 4h-1
c10 3.33301 20.667 10.833 32 22.5s22 24.667 32 39s18.167 29.166 24.5 44.499s9.5 28 9.5 38c0 7.33301 -3 14 -9 20c4 1.33301 11 3.83301 21 7.5s20.167 8 30.5 13s19.333 10.333 27 16s11.5 11.5 11.5 17.5c0 2.66699 -0.666992 6 -2 10
c-3.33301 3.33301 -6.16602 6.5 -8.49902 9.5s-5.83301 4.5 -10.5 4.5c-2 0 -4.33301 -0.666992 -7 -2c-5.33301 -6 -12.333 -12.167 -21 -18.5s-18 -12 -28 -17s-20 -9.16699 -30 -12.5s-19.333 -5 -28 -5c2 2 3 4 3 6c0 4.66699 -4 7.5 -12 8.5s-13.667 1.5 -17 1.5
c-17.333 0 -32.333 -8.16699 -45 -24.5s-24.667 -35.166 -36 -56.499s-23 -42 -35 -62s-26.333 -33.667 -43 -41c-2 4 -3 8 -3 12c-1.33301 2.66699 -2 6.66699 -2 12c0 8.66699 1.16699 17.5 3.5 26.5s5 17.667 8 26l8.5 24.5c2.66699 8 4 15 4 21
c0 4 -1.66699 7.16699 -5 9.5s-7.33301 4.16602 -12 5.49902s-9.33398 2.33301 -14.001 3s-8.33398 1 -11.001 1c-2 0 -4.5 -0.166992 -7.5 -0.5s-5.16699 -1.5 -6.5 -3.5c-13.333 -8 -26.666 -18.5 -39.999 -31.5s-24.666 -25.167 -33.999 -36.5
c0 8 0.833008 16.167 2.5 24.5s2.5 16.5 2.5 24.5c0 10 -5.16699 19.333 -15.5 28s-20.166 13 -29.499 13c-8.66699 0 -17.334 -2.83301 -26.001 -8.5s-17 -12.334 -25 -20.001s-15.5 -15.5 -22.5 -23.5s-13.5 -14.667 -19.5 -20c0.666992 2 2 5.16699 4 9.5l6.5 14
c2.33301 5 4.83301 9.5 7.5 13.5s5 6.33301 7 7l1 5c-2 8 -7.5 13.333 -16.5 16s-17.167 4 -24.5 4c-2 0 -5.33301 -0.833008 -10 -2.5s-7.66699 -3.5 -9 -5.5l-27.5 -51c-11 -20 -23.5 -39.5 -37.5 -58.5s-29.333 -35.167 -46 -48.5s-34.667 -20 -54 -20
c-13.333 0 -22.333 6.33301 -27 19c8 2 18.667 7 32 15s26.666 17.5 39.999 28.5s24.833 22.667 34.5 35s14.5 23.5 14.5 33.5c0 6.66699 -2.16699 13 -6.5 19s-9.83301 11.167 -16.5 15.5s-13.667 7.66602 -21 9.99902s-14 3.5 -20 3.5c-15.333 0 -30.166 -4 -44.499 -12
s-27.166 -18.333 -38.499 -31s-20.333 -26.5 -27 -41.5s-10 -29.833 -10 -44.5c0 -26.667 8.83301 -47.167 26.5 -61.5s39.167 -21.5 64.5 -21.5c22.667 0 42.334 3.66699 59.001 11s32.667 18.666 48 33.999c5.33301 -7.33301 13 -13.666 23 -18.999s19.667 -8 29 -8
c8.66699 0 14.334 3.33301 17.001 10c4 10 10.167 21.667 18.5 35s17.666 26.666 27.999 39.999s20.833 26 31.5 38s20.667 22.333 30 31c-3.33301 -17.333 -8.33301 -35.333 -15 -54s-10 -36.667 -10 -54c0 -3.33301 1.5 -6.5 4.5 -9.5s6.66699 -5.5 11 -7.5
s8.83301 -3.66699 13.5 -5s8.33398 -2 11.001 -2h12.5c3 0 6.83301 1.66699 11.5 5c6.66699 13.333 15.667 26.5 27 39.5s22 24.5 32 34.5zM485.006 241.012c3.33301 4 5.66699 8.16797 7 12.501s2.66602 9.16602 3.99902 14.499v14l-59 1v-15
c0 -9.33301 3.66699 -18.333 11 -27h-67c3.33301 4.66699 5.66602 9.33398 6.99902 14.001s2.33301 9.33398 3 14.001v81h46v-20h59v34l-145 1v-55c0 -10.667 3.33301 -19.667 10 -27l-67 1c4 3.33301 6.5 7.5 7.5 12.5s2.16699 9.5 3.5 13.5l1 156
c-0.666992 4.66699 -1.83398 9.33398 -3.50098 14.001s-4.16699 9 -7.5 13h68c-4 -4 -6.66699 -8.5 -8 -13.5s-2.66602 -9.5 -3.99902 -13.5v-55h41v54c-0.666992 4.66699 -1.66699 9.16699 -3 13.5s-3.66602 9.16602 -6.99902 14.499l115 -1v14
c0 10 -3.66699 19.333 -11 28h67c-5.33301 -8.66699 -8.66602 -18 -9.99902 -28v-14h4c32 0 57 -11.667 75 -35c9.33301 -9.33301 15.833 -20.333 19.5 -33s5.5 -25.334 5.5 -38.001c0 -13.333 -2 -26 -6 -38s-10.667 -23 -20 -33
c-7.33301 -9.33301 -16.333 -16.833 -27 -22.5s-23 -8.83398 -37 -9.50098v47c15.333 2.66699 26.333 9.66699 33 21s10 23 10 35c0 13.333 -4 26.333 -12 39s-21.667 19 -41 19h-109v-33h59v19l46 -2l-2 -160c0 -9.33301 3.66699 -18.333 11 -27h-67zM2033.01 306.013
c-59.333 0 -121.335 -2.16992 -186.002 -6.50293s-129.834 -10.833 -195.501 -19.5s-130.334 -19 -194.001 -31s-124.167 -25.667 -181.5 -41c-5.33301 -1.33301 -13.166 -3.66602 -23.499 -6.99902s-21 -7 -32 -11s-21.167 -8 -30.5 -12s-15.666 -8 -18.999 -12
c-1.33301 -2 -2.33301 -5 -3 -9s-1 -7.33301 -1 -10c0 -7.33301 1.33301 -14.166 4 -20.499s7.66699 -10.833 15 -13.5c1.33301 0 5.83301 1.5 13.5 4.5l25.5 10.5c9.33301 4 18.333 7.66699 27 11l18 7l51.5 15.5c17 5 34.167 9.5 51.5 13.5
c53.333 12.667 108.833 24.334 166.5 35.001s115.834 19.834 174.501 27.501s117.167 13.667 175.5 18s114.833 6.5 169.5 6.5c4.66699 0 11.667 -0.166992 21 -0.5s19.166 -1 29.5 -2c10.333 -1 19.833 -2.5 28.5 -4.5s14.334 -4.66699 17.001 -8l1 -3l3 -3h4
c4 0 7.5 1.66699 10.5 5s4.5 7 4.5 11v11c0 4 -1 7.66699 -3 11c-3.33301 5.33301 -11.333 9.66602 -24 12.999s-26.667 6 -42 8s-30.333 3.5 -45 4.5s-25 1.5 -31 1.5zM1127 249.01c0 5.33301 0.668945 10.667 2.00195 16l4 16l40.5 145.5
c13.667 48.333 28.5 96.5 44.5 144.5c15.333 -0.666992 31.166 -2.5 47.499 -5.5s31.333 -8.33301 45 -16s25 -17.667 34 -30s13.5 -27.833 13.5 -46.5c0 -28.667 -7.33301 -55.334 -22 -80.001s-33.334 -46.667 -56.001 -66s-47.667 -35.666 -75 -48.999
s-53.333 -23 -78 -29zM1217.01 308.011c13.333 8.66699 27 18.667 41 30s26.667 23.833 38 37.5s20.5 28.334 27.5 44.001s10.5 32.167 10.5 49.5c0 7.33301 -0.5 13.5 -1.5 18.5s-2.83301 10.833 -5.5 17.5c-8 3.33301 -16 5.66602 -24 6.99902l-25 4
c-12 -34 -22.833 -68.333 -32.5 -103l-28.5 -104v-1zM2069.01 385.011c-2 0 -3.16602 1.33203 -3.49902 3.99902s-0.5 4.66699 -0.5 6c0 5.33301 1.66699 13 5 23s7.16602 20.333 11.5 31c4.33301 10.667 9.16602 20.834 14.5 30.501c5.33301 9.66699 10 17.5 14 23.5
c6 -0.666992 12 -0.333984 18 0.999023s12 2 18 2c2 0 3.66699 -1 5 -3c-1.33301 -5.33301 -5.33301 -14.5 -12 -27.5s-14.334 -26.167 -23 -39.5c-8.66699 -13.333 -17.334 -25.166 -26.001 -35.499s-15.667 -15.5 -21 -15.5zM580.008 133.01
c19.333 9.33301 33 5.00098 41 -12.999c7.33301 -16.667 2 -29.667 -16 -39c-20 -8.66699 -33.667 -4.33398 -41 12.999c-10 18 -4.66699 31 16 39zM251.008 555.011l-2 6.00098l-34 33h-5l21 22c14 15.333 27.667 16 41 2c13.333 -12.667 13.333 -26.334 0 -41.001z
M728.008 459.012l26.001 24l-26 -7l-4 -4l-4 20l1 -1c1.33301 -1.33301 2.66602 -2.33301 3.99902 -3l45 13l4 5l4 -19l-28 -27l38 -8l5 -20l-5 3l-46 -12l-4 -4l-6 21l6 -2l25 7l-33 6zM545.009 114.012l-17 -57l-11 -1l-13 27l-8 -30l-13 -2l-27 54l22 2l-3 -5l12 -29
l11 36l9 2l16 -34l8 31l-4 4zM271.009 651.012l29 20c12.667 6 21.667 5 27 -3c5.33301 -8.66699 5 -16 -1 -22l25 -11l-22 -13l1 6l-17 7l-6 -4l7 -13l6 -2l-19 -13l1 6l-27 41zM539.009 707.012l33 -11c14 -4 19.333 -11.667 16 -23c-3.33301 -8 -9 -12 -17 -12l7 -26
l-24 8l6 3l-7 19l-6 1l-6 -15l3 -5l-21 6l3 4l15 46zM620.009 154.012l27 21c12 10 21.333 10 28 0c6 -7.33301 6 -14.333 0 -21l26 -8l-19 -15v5l-18 6l-7 -6l11 -11h5l-18 -16v5l-30 39zM462.009 714.012l35 -1c13.333 -0.666992 20 -8 20 -22
c0 -13.333 -8 -19.333 -24 -18l-14 2l-1 -13l4 -4l-24 1l4 4l2 47zM162.009 517.012l9 16l42 9l-25 14l-5 -1l9 18l2 -6l46 -25l-6 -12l-43 -9l24 -15l6 1l-10 -16l-1 4l-43 22h-5zM327.009 143.012l30 -15c14 -6 18 -15.333 12 -28c-6 -10.667 -15.333 -13 -28 -7l-14 7
l-6 -13l2 -4l-21 10l5 1l20 44v5zM170.009 366.012h18l4 4v-24l-4 4l-48 -1l-4 -4v24l4 -4l17 1v27l-18 -1l-3 -3v24l3 -5l48 2l4 3v-23l-4 3h-17v-27zM363.009 698.012l19 6l42 -46l-23 -7l2 5l-3 5l-26 -9l-1 -6l3 -3l-19 -6l9 58zM740.009 567.012l10 -17l-33 -52l-13 19
h5l5 5l-16 22h-5l-3 -4l-10 16l57 7zM1402.01 258.012c15.333 3.33301 30.667 6.16992 46 8.50293s30.666 5.16602 45.999 8.49902c-10.667 5.33301 -17.667 10.5 -21 15.5s-8.66602 10.167 -15.999 15.5c-2 1.33301 -4 2.5 -6 3.5s-4 2.16699 -6 3.5
c-6 -10.667 -12.5 -20.334 -19.5 -29.001s-14.833 -17.334 -23.5 -26.001zM716.01 199.016v-7l11 -9l4 2l-13 -20l-2 5l-39 29h-4l14 17l1 -5l14 -10l-1 28h-6l16 22l3 -38l42 3l-16 -21l-2 5zM634.01 668.016l16 -11l-7 -62l-20 13l5 2l1 6l-22 14l-6 -2l1 -6l-17 10l49 31
v5zM795.01 386.016l-2 -19l-56 -25l1 23l4 -3l6 2l1 27l-6 3l-5 -3v20l52 -27zM391.01 117.016l52 -11l-4 -14l-2 3l-29 6l-1 -10l17 -4l5 3l-5 -18l-2 3l-18 5l-2 -10l28 -6l5 2l-4 -15l-50 10l3 4l10 47zM1556.01 476.016c0 -5.33301 -3 -11.834 -9 -19.501
s-13.167 -15.167 -21.5 -22.5s-16.833 -14.166 -25.5 -20.499s-15.334 -10.5 -20.001 -12.5c2.66699 5.33301 6.66699 12.833 12 22.5s11.333 19 18 28s13.5 16.833 20.5 23.5s13.5 10 19.5 10c2.66699 0 4.33398 -0.333008 5.00098 -1c0.666992 -1.33301 1 -4 1 -8z
M139.01 438.015l12 50l15 -2l-4 -5l-8 -27l12 -3l4 18l-3 5l18 -5l-5 -2l-3 -18l9 -3l7 28l-2 6l15 -5l-13 -50l-2 3l-47 12zM720.01 595.015l-12 -11l-1 5l-11 11l-27 -27v-6l-17 17l5 1l27 26l-10 11l-5 1l12 12zM253.01 202.015l-14 -9l1 6l-9 11l-33 -21v-4l-14 18h6
l31 21l-9 13l-5 3l14 8zM272.01 135.015l-10 -10v-6l-17 15l4 1l10 11l6 44l18 -16h-5l-4 -26l27 7l-1 6l14 -13zM578.01 101.015c6.66699 -10.667 14 -13.667 22 -9c7.33301 2.66699 9.33301 9.66699 6 21c-4.66699 10 -11.667 13 -21 9
c-8.66699 -3.33301 -11 -10.333 -7 -21zM1809.01 316.015c-8 6.66699 -13.333 13.667 -16 21l-14 5l-19 -27l-1 -4zM255.01 578.015l5.99805 5.99902c6.66699 6.66699 6.33398 14.334 -0.999023 23.001c-7.33301 7.33301 -14.666 7.33301 -21.999 0l-6 -6zM736.008 278.014
c-5.33301 6.66699 -5.33301 13.334 0 20.001c6.66699 6.66699 13.334 6.66699 20.001 0c8 -6.66699 8 -13.334 0 -20.001c-6.66699 -6.66699 -13.334 -6.66699 -20.001 0zM169.008 278.014c-6.66699 6.66699 -6.66699 13.334 0 20.001c2 3.33301 5.16699 5 9.5 5
s7.5 -1.66699 9.5 -5c6.66699 -6.66699 6.66699 -13.334 0 -20.001c-2 -3.33301 -5.16699 -5 -9.5 -5s-7.5 1.66699 -9.5 5zM480.008 702.014v-17l11 -1c5.33301 0 8 2.66699 8 8c1.33301 6.66699 -1 10 -7 10h-12zM339.008 125.014l-7 -16l10 -4c5.33301 -4 9 -3 11 3
c4 6 2.66699 9.66699 -4 11zM554.008 690.014l-4 -12.999l10 -4c6.66699 -2.66699 10.667 -1.33398 12 3.99902c0 4.66699 -2.33301 7.66699 -7 9zM294.008 652.015l7 -11l9 5c4 3.33301 5.33301 7 4 11c-2 4.66699 -6 5 -12 1zM642.008 156.015l10 -10l8 7
c4 2.66699 4.66699 6 2 10c-2 5.33301 -5.33301 5.33301 -10 0zM709.008 548.015l11 -18l11 19zM1928.01 324.015c-2.66699 2.66699 -4.33203 5.00098 -4.99902 7.00098l-1 1l-1 3l-6 2c-4.66699 -4.66699 -8.33398 -9.33398 -11.001 -14.001c4 0 8 0.166992 12 0.5
s8 0.5 12 0.5zM615.01 636.016l17 -9l2 21zM375.01 664.016l17 6l-15 15zM758.01 386.016v-17l20 8z" />
    <glyph glyph-name="guillemotleft" unicode="&#xab;" horiz-adv-x="391" 
d="M52 200l82 102l49 -27l-62 -78l62 -77l-49 -26l-82 101v5zM164 200l82 102l49 -27l-62 -78l62 -77l-49 -26l-82 101v5z" />
    <glyph glyph-name="logicalnot" unicode="&#xac;" horiz-adv-x="2390" 
d="M1231 59c-9.33301 0 -18.1611 3.17676 -26.4941 9.50977s-13.166 14.166 -14.499 23.499l-1 1c-14 0 -25.167 5.5 -33.5 16.5s-12.5 23.167 -12.5 36.5c0 1.33301 0.166992 2.5 0.5 3.5s0.5 2.16699 0.5 3.5h-27.5c-11.667 0 -23.167 1 -34.5 3s-21.333 5.5 -30 10.5
s-13.667 12.833 -15 23.5c-9.33301 0.666992 -18.833 4.66699 -28.5 12s-14.5 16 -14.5 26c0 13.333 5.5 21.5 16.5 24.5s21.5 4.5 31.5 4.5c-2 5.33301 -2 14.333 0 27s5.16699 27.167 9.5 43.5s9.16602 33.166 14.499 50.499l15.5 49l13 39.5
c3.66699 11 5.83398 17.833 6.50098 20.5c-12.667 -6.66699 -23.667 -12.834 -33 -18.501s-19 -13.167 -29 -22.5c-5.33301 -14.667 -15.666 -22 -30.999 -22c-1.33301 0 -3.83301 0.5 -7.5 1.5s-5.83398 1.5 -6.50098 1.5c-7.33301 4.66699 -13 9 -17 13
s-7.66699 10 -11 18c-16.667 0 -28.667 6.83301 -36 20.5s-11 27.5 -11 41.5c0 20 8.5 37.167 25.5 51.5s37.333 26.333 61 36s48 17.167 73 22.5s45.167 8.66602 60.5 9.99902l1 9c7.33301 15.333 21 23 41 23c5.33301 0 11.666 -0.833008 18.999 -2.5
s14.5 -4.16699 21.5 -7.5s13.333 -7.33301 19 -12s9.5 -9.66699 11.5 -15c1.33301 0 3.83301 -0.333008 7.5 -1s6.16699 -1.33398 7.5 -2.00098c22 -5.33301 41.167 -13.166 57.5 -23.499s33.166 -22.833 50.499 -37.5c4.66699 -4 9.66699 -7.66699 15 -11
s10.666 -7.33301 15.999 -12c15.333 -13.333 28.666 -29.333 39.999 -48c12.667 14 27.334 25.167 44.001 33.5s34.667 12.5 54 12.5c5.33301 0 10.666 -0.666992 15.999 -2l16 -4l1 -1c9.33301 -4 17.833 -8.5 25.5 -13.5s14.167 -12.167 19.5 -21.5
c2.66699 -1.33301 5.16699 -2.5 7.5 -3.5s4.83301 -2.16699 7.5 -3.5c4 6.66699 7.5 13.5 10.5 20.5s6.66699 13 11 18s9.33301 9.16699 15 12.5s13.167 5 22.5 5c8 0 18 -1.5 30 -4.5s20.667 -7.83301 26 -14.5c7.33301 5.33301 15.166 10.5 23.499 15.5
s17.166 7.5 26.499 7.5c13.333 0 25.666 -3.66699 36.999 -11s20.666 -16.333 27.999 -27c6.66699 -2.66699 11.334 -5 14.001 -7c7.33301 7.33301 15 13.5 23 18.5s17.667 7.5 29 7.5c5.33301 0 11.666 -0.666992 18.999 -2s14.333 -3.33301 21 -6
s12.5 -6.33398 17.5 -11.001s7.83301 -10.334 8.5 -17.001c3.33301 -0.666992 6.33301 -1.5 9 -2.5s5.33398 -2.16699 8.00098 -3.5c2 6 6.33301 13.667 13 23s14.167 18.5 22.5 27.5s17 16.833 26 23.5s16.833 10 23.5 10h24.5c8.33301 0 16.166 -1.66699 23.5 -5
c1.33301 0.666992 3.16602 0 5.5 -2c2.33301 -2 4.16602 -3.66699 5.5 -5c15.333 5.33301 28.166 11.5 38.5 18.5c10.333 7 21.5 15.5 33.5 25.5c6 5.33301 13.667 8 23 8c8.66699 0 17.667 -3.33301 27 -10s14.666 -14.667 16 -24c10.667 0 19.334 -3.33301 26 -10h1
c5.33301 -5.33301 9.33301 -10.333 12 -15s4.66699 -10.667 6 -18l-1 -1c0 -10 -3.16699 -18.167 -9.5 -24.5s-14 -11.833 -23 -16.5s-18.167 -8.66699 -27.5 -12s-16.666 -7.33301 -22 -12l1 -2c0 -12.667 -3.16699 -27.334 -9.5 -44.001s-14.333 -32.834 -24 -48.501
s-20.334 -30 -32 -43c-11.667 -13 -23.167 -22.5 -34.5 -28.5c10 -4 18.167 -7.66699 24.5 -11s11.166 -10.666 14.5 -21.999c11.333 -3.33301 21.666 -8.33301 31 -15c9.33301 -6.66699 14 -16.667 14 -30c0 -12 -3.33301 -22.833 -10 -32.5s-16.667 -14.5 -30 -14.5
c-4.66699 0 -9.33398 1 -14 3h-1c-2 1.33301 -3.83301 2.66602 -5.5 3.99902s-3.5 2.66602 -5.5 3.99902l-1 4c-3.33301 1.33301 -9.33301 2.5 -18 3.5s-18.334 1.66699 -29 2c-10.667 0.333008 -20.667 0.5 -30 0.5h-20c-31.333 0 -70 -1.66699 -116 -5
s-95.167 -7.83301 -147.5 -13.5s-106.333 -12.834 -162 -21.501s-109.167 -18.167 -160.5 -28.5s-98.333 -21.833 -141 -34.5s-77.667 -26 -105 -40c-4 -3.33301 -10 -5 -18 -5zM91.0049 389.01c0.666992 51.333 10.998 99.498 30.998 144.498s47 84.167 81 117.5
s73.667 59.666 119 78.999s94 29 146 29c51.333 0 99.5 -10 144.5 -30s84.167 -47 117.5 -81s59.666 -73.667 78.999 -119s29 -94 29 -146c0 -51.333 -10 -99.666 -30 -144.999s-47 -84.666 -81 -117.999s-73.667 -59.666 -119 -78.999s-94 -29 -146 -29
c-51.333 0 -99.666 10 -144.999 30s-84.666 47 -117.999 81s-59.666 73.833 -78.999 119.5s-29 94.5 -29 146.5zM824.003 383.008c0 49.333 -9.33008 95.834 -27.9971 139.501s-44.167 81.834 -76.5 114.501s-70.166 58.667 -113.499 78s-89.333 29 -138 29
c-50 0 -96.833 -9.16699 -140.5 -27.5s-81.834 -43.666 -114.501 -75.999s-58.5 -70.166 -77.5 -113.499s-28.833 -89.333 -29.5 -138c0 -50 9.16699 -96.833 27.5 -140.5s43.666 -81.834 75.999 -114.501s70.166 -58.5 113.499 -77.5s89.666 -28.833 138.999 -29.5
c49.333 0 95.833 9.16699 139.5 27.5s82 43.666 115 75.999s59 70.166 78 113.499s28.833 89.666 29.5 138.999zM218.006 387.009c0 34 6.49805 65.999 19.498 95.999s30.833 56.167 53.5 78.5s49 39.833 79 52.5s62 18.667 96 18c34 0 66 -6.5 96 -19.5
s56.167 -30.667 78.5 -53s40 -48.666 53 -78.999s19.5 -62.5 19.5 -96.5c-0.666992 -34 -7.66699 -66 -21 -96s-31.166 -56 -53.499 -78s-48.666 -39.333 -78.999 -52s-62.5 -19 -96.5 -19s-66 6.5 -96 19.5s-56 30.833 -78 53.5s-39.333 49 -52 79s-19 62 -19 96z
M696.004 384.008c0 32 -5.83301 62.167 -17.5 90.5s-28 53 -49 74s-45.5 37.667 -73.5 50s-58 18.5 -90 18.5s-62 -5.83301 -90 -17.5s-52.5 -28 -73.5 -49s-37.833 -45.5 -50.5 -73.5s-19 -58 -19 -90s5.83301 -62 17.5 -90s28 -52.5 49 -73.5s45.5 -37.833 73.5 -50.5
s58 -19 90 -19s62.167 5.83301 90.5 17.5s53 28 74 49s37.667 45.5 50 73.5s18.5 58 18.5 90zM1083 240.008c-2.66699 0 -7.49609 -0.166992 -14.4961 -0.5s-14.333 -0.833008 -22 -1.5s-14.334 -1.66699 -20.001 -3s-8.5 -3.33301 -8.5 -6
c0 -4.66699 2.16699 -8.5 6.5 -11.5s9.33301 -5.33301 15 -7s11.5 -2.83398 17.5 -3.50098s10.667 -1 14 -1c28 0 56.833 2.66699 86.5 8s58 13.666 85 24.999s52 25.833 75 43.5s42.5 39.167 58.5 64.5c9.33301 14 17 28.333 23 43s9 30.667 9 48
c0 24 -4.83301 46.5 -14.5 67.5s-22.834 39.5 -39.501 55.5s-35.667 29 -57 39s-43.333 16 -66 18c0.666992 5.33301 -0.833008 10.166 -4.5 14.499s-8.33398 8 -14.001 11s-11.5 5.16699 -17.5 6.5s-11 2 -15 2c-4.66699 0 -8.66699 -1 -12 -3s-5 -5.66699 -5 -11v-16
c-13.333 -1.33301 -32.166 -4 -56.499 -8s-48.833 -10 -73.5 -18s-46 -18.333 -64 -31s-27 -27.667 -27 -45c0 -20 7.33301 -34 22 -42l5 1c4.66699 4 8.16699 8.33301 10.5 13s6.16602 9 11.499 13c23.333 18.667 48.333 32.834 75 42.501s55 16.834 85 21.501
c-2 -8.66699 -5.66699 -21 -11 -37l-17.5 -53l-20 -61c-7 -21.333 -13.333 -41.666 -19 -60.999s-10.334 -36.833 -14.001 -52.5s-5.5 -27.834 -5.5 -36.501c0 -6.66699 1.83301 -12.167 5.5 -16.5s8.16699 -8.16602 13.5 -11.499zM1896.01 433.008
c-6.66699 -23.333 -4.83594 -42.8291 5.49707 -58.4961s27.833 -23.5 52.5 -23.5c11.333 0 23.5 2.16699 36.5 6.5s23.167 11.166 30.5 20.499c7.33301 -7.33301 16.666 -13.166 27.999 -17.499s22.333 -6.5 33 -6.5c5.33301 0 10.666 1.33301 16 4h-1
c10 3.33301 20.667 10.833 32 22.5s22 24.667 32 39s18.167 29.166 24.5 44.499s9.5 28 9.5 38c0 7.33301 -3 14 -9 20c4 1.33301 11 3.83301 21 7.5s20.167 8 30.5 13s19.333 10.333 27 16s11.5 11.5 11.5 17.5c0 2.66699 -0.666992 6 -2 10
c-3.33301 3.33301 -6.16602 6.5 -8.49902 9.5s-5.83301 4.5 -10.5 4.5c-2 0 -4.33301 -0.666992 -7 -2c-5.33301 -6 -12.333 -12.167 -21 -18.5s-18 -12 -28 -17s-20 -9.16699 -30 -12.5s-19.333 -5 -28 -5c2 2 3 4 3 6c0 4.66699 -4 7.5 -12 8.5s-13.667 1.5 -17 1.5
c-17.333 0 -32.333 -8.16699 -45 -24.5s-24.667 -35.166 -36 -56.499s-23 -42 -35 -62s-26.333 -33.667 -43 -41c-2 4 -3 8 -3 12c-1.33301 2.66699 -2 6.66699 -2 12c0 8.66699 1.16699 17.5 3.5 26.5s5 17.667 8 26l8.5 24.5c2.66699 8 4 15 4 21
c0 4 -1.66699 7.16699 -5 9.5s-7.33301 4.16602 -12 5.49902s-9.33398 2.33301 -14.001 3s-8.33398 1 -11.001 1c-2 0 -4.5 -0.166992 -7.5 -0.5s-5.16699 -1.5 -6.5 -3.5c-13.333 -8 -26.666 -18.5 -39.999 -31.5s-24.666 -25.167 -33.999 -36.5
c0 8 0.833008 16.167 2.5 24.5s2.5 16.5 2.5 24.5c0 10 -5.16699 19.333 -15.5 28s-20.166 13 -29.499 13c-8.66699 0 -17.334 -2.83301 -26.001 -8.5s-17 -12.334 -25 -20.001s-15.5 -15.5 -22.5 -23.5s-13.5 -14.667 -19.5 -20c0.666992 2 2 5.16699 4 9.5l6.5 14
c2.33301 5 4.83301 9.5 7.5 13.5s5 6.33301 7 7l1 5c-2 8 -7.5 13.333 -16.5 16s-17.167 4 -24.5 4c-2 0 -5.33301 -0.833008 -10 -2.5s-7.66699 -3.5 -9 -5.5l-27.5 -51c-11 -20 -23.5 -39.5 -37.5 -58.5s-29.333 -35.167 -46 -48.5s-34.667 -20 -54 -20
c-13.333 0 -22.333 6.33301 -27 19c8 2 18.667 7 32 15s26.666 17.5 39.999 28.5s24.833 22.667 34.5 35s14.5 23.5 14.5 33.5c0 6.66699 -2.16699 13 -6.5 19s-9.83301 11.167 -16.5 15.5s-13.667 7.66602 -21 9.99902s-14 3.5 -20 3.5c-15.333 0 -30.166 -4 -44.499 -12
s-27.166 -18.333 -38.499 -31s-20.333 -26.5 -27 -41.5s-10 -29.833 -10 -44.5c0 -26.667 8.83301 -47.167 26.5 -61.5s39.167 -21.5 64.5 -21.5c22.667 0 42.334 3.66699 59.001 11s32.667 18.666 48 33.999c5.33301 -7.33301 13 -13.666 23 -18.999s19.667 -8 29 -8
c8.66699 0 14.334 3.33301 17.001 10c4 10 10.167 21.667 18.5 35s17.666 26.666 27.999 39.999s20.833 26 31.5 38s20.667 22.333 30 31c-3.33301 -17.333 -8.33301 -35.333 -15 -54s-10 -36.667 -10 -54c0 -3.33301 1.5 -6.5 4.5 -9.5s6.66699 -5.5 11 -7.5
s8.83301 -3.66699 13.5 -5s8.33398 -2 11.001 -2h12.5c3 0 6.83301 1.66699 11.5 5c6.66699 13.333 15.667 26.5 27 39.5s22 24.5 32 34.5zM485.006 241.012c3.33301 4 5.66699 8.16797 7 12.501s2.66602 9.16602 3.99902 14.499v14l-59 1v-15
c0 -9.33301 3.66699 -18.333 11 -27h-67c3.33301 4.66699 5.66602 9.33398 6.99902 14.001s2.33301 9.33398 3 14.001v81h46v-20h59v34l-145 1v-55c0 -10.667 3.33301 -19.667 10 -27l-67 1c4 3.33301 6.5 7.5 7.5 12.5s2.16699 9.5 3.5 13.5l1 156
c-0.666992 4.66699 -1.83398 9.33398 -3.50098 14.001s-4.16699 9 -7.5 13h68c-4 -4 -6.66699 -8.5 -8 -13.5s-2.66602 -9.5 -3.99902 -13.5v-55h41v54c-0.666992 4.66699 -1.66699 9.16699 -3 13.5s-3.66602 9.16602 -6.99902 14.499l115 -1v14
c0 10 -3.66699 19.333 -11 28h67c-5.33301 -8.66699 -8.66602 -18 -9.99902 -28v-14h4c32 0 57 -11.667 75 -35c9.33301 -9.33301 15.833 -20.333 19.5 -33s5.5 -25.334 5.5 -38.001c0 -13.333 -2 -26 -6 -38s-10.667 -23 -20 -33
c-7.33301 -9.33301 -16.333 -16.833 -27 -22.5s-23 -8.83398 -37 -9.50098v47c15.333 2.66699 26.333 9.66699 33 21s10 23 10 35c0 13.333 -4 26.333 -12 39s-21.667 19 -41 19h-109v-33h59v19l46 -2l-2 -160c0 -9.33301 3.66699 -18.333 11 -27h-67zM2033.01 306.013
c-59.333 0 -121.335 -2.16992 -186.002 -6.50293s-129.834 -10.833 -195.501 -19.5s-130.334 -19 -194.001 -31s-124.167 -25.667 -181.5 -41c-5.33301 -1.33301 -13.166 -3.66602 -23.499 -6.99902s-21 -7 -32 -11s-21.167 -8 -30.5 -12s-15.666 -8 -18.999 -12
c-1.33301 -2 -2.33301 -5 -3 -9s-1 -7.33301 -1 -10c0 -7.33301 1.33301 -14.166 4 -20.499s7.66699 -10.833 15 -13.5c1.33301 0 5.83301 1.5 13.5 4.5l25.5 10.5c9.33301 4 18.333 7.66699 27 11l18 7l51.5 15.5c17 5 34.167 9.5 51.5 13.5
c53.333 12.667 108.833 24.334 166.5 35.001s115.834 19.834 174.501 27.501s117.167 13.667 175.5 18s114.833 6.5 169.5 6.5c4.66699 0 11.667 -0.166992 21 -0.5s19.166 -1 29.5 -2c10.333 -1 19.833 -2.5 28.5 -4.5s14.334 -4.66699 17.001 -8l1 -3l3 -3h4
c4 0 7.5 1.66699 10.5 5s4.5 7 4.5 11v11c0 4 -1 7.66699 -3 11c-3.33301 5.33301 -11.333 9.66602 -24 12.999s-26.667 6 -42 8s-30.333 3.5 -45 4.5s-25 1.5 -31 1.5zM1127 249.01c0 5.33301 0.668945 10.667 2.00195 16l4 16l40.5 145.5
c13.667 48.333 28.5 96.5 44.5 144.5c15.333 -0.666992 31.166 -2.5 47.499 -5.5s31.333 -8.33301 45 -16s25 -17.667 34 -30s13.5 -27.833 13.5 -46.5c0 -28.667 -7.33301 -55.334 -22 -80.001s-33.334 -46.667 -56.001 -66s-47.667 -35.666 -75 -48.999
s-53.333 -23 -78 -29zM1217.01 308.011c13.333 8.66699 27 18.667 41 30s26.667 23.833 38 37.5s20.5 28.334 27.5 44.001s10.5 32.167 10.5 49.5c0 7.33301 -0.5 13.5 -1.5 18.5s-2.83301 10.833 -5.5 17.5c-8 3.33301 -16 5.66602 -24 6.99902l-25 4
c-12 -34 -22.833 -68.333 -32.5 -103l-28.5 -104v-1zM2069.01 385.011c-2 0 -3.16602 1.33203 -3.49902 3.99902s-0.5 4.66699 -0.5 6c0 5.33301 1.66699 13 5 23s7.16602 20.333 11.5 31c4.33301 10.667 9.16602 20.834 14.5 30.501c5.33301 9.66699 10 17.5 14 23.5
c6 -0.666992 12 -0.333984 18 0.999023s12 2 18 2c2 0 3.66699 -1 5 -3c-1.33301 -5.33301 -5.33301 -14.5 -12 -27.5s-14.334 -26.167 -23 -39.5c-8.66699 -13.333 -17.334 -25.166 -26.001 -35.499s-15.667 -15.5 -21 -15.5zM580.008 133.01
c19.333 9.33301 33 5.00098 41 -12.999c7.33301 -16.667 2 -29.667 -16 -39c-20 -8.66699 -33.667 -4.33398 -41 12.999c-10 18 -4.66699 31 16 39zM251.008 555.011l-2 6.00098l-34 33h-5l21 22c14 15.333 27.667 16 41 2c13.333 -12.667 13.333 -26.334 0 -41.001z
M728.008 459.012l26.001 24l-26 -7l-4 -4l-4 20l1 -1c1.33301 -1.33301 2.66602 -2.33301 3.99902 -3l45 13l4 5l4 -19l-28 -27l38 -8l5 -20l-5 3l-46 -12l-4 -4l-6 21l6 -2l25 7l-33 6zM545.009 114.012l-17 -57l-11 -1l-13 27l-8 -30l-13 -2l-27 54l22 2l-3 -5l12 -29
l11 36l9 2l16 -34l8 31l-4 4zM271.009 651.012l29 20c12.667 6 21.667 5 27 -3c5.33301 -8.66699 5 -16 -1 -22l25 -11l-22 -13l1 6l-17 7l-6 -4l7 -13l6 -2l-19 -13l1 6l-27 41zM539.009 707.012l33 -11c14 -4 19.333 -11.667 16 -23c-3.33301 -8 -9 -12 -17 -12l7 -26
l-24 8l6 3l-7 19l-6 1l-6 -15l3 -5l-21 6l3 4l15 46zM620.009 154.012l27 21c12 10 21.333 10 28 0c6 -7.33301 6 -14.333 0 -21l26 -8l-19 -15v5l-18 6l-7 -6l11 -11h5l-18 -16v5l-30 39zM462.009 714.012l35 -1c13.333 -0.666992 20 -8 20 -22
c0 -13.333 -8 -19.333 -24 -18l-14 2l-1 -13l4 -4l-24 1l4 4l2 47zM162.009 517.012l9 16l42 9l-25 14l-5 -1l9 18l2 -6l46 -25l-6 -12l-43 -9l24 -15l6 1l-10 -16l-1 4l-43 22h-5zM327.009 143.012l30 -15c14 -6 18 -15.333 12 -28c-6 -10.667 -15.333 -13 -28 -7l-14 7
l-6 -13l2 -4l-21 10l5 1l20 44v5zM170.009 366.012h18l4 4v-24l-4 4l-48 -1l-4 -4v24l4 -4l17 1v27l-18 -1l-3 -3v24l3 -5l48 2l4 3v-23l-4 3h-17v-27zM363.009 698.012l19 6l42 -46l-23 -7l2 5l-3 5l-26 -9l-1 -6l3 -3l-19 -6l9 58zM740.009 567.012l10 -17l-33 -52l-13 19
h5l5 5l-16 22h-5l-3 -4l-10 16l57 7zM1402.01 258.012c15.333 3.33301 30.667 6.16992 46 8.50293s30.666 5.16602 45.999 8.49902c-10.667 5.33301 -17.667 10.5 -21 15.5s-8.66602 10.167 -15.999 15.5c-2 1.33301 -4 2.5 -6 3.5s-4 2.16699 -6 3.5
c-6 -10.667 -12.5 -20.334 -19.5 -29.001s-14.833 -17.334 -23.5 -26.001zM716.01 199.016v-7l11 -9l4 2l-13 -20l-2 5l-39 29h-4l14 17l1 -5l14 -10l-1 28h-6l16 22l3 -38l42 3l-16 -21l-2 5zM634.01 668.016l16 -11l-7 -62l-20 13l5 2l1 6l-22 14l-6 -2l1 -6l-17 10l49 31
v5zM795.01 386.016l-2 -19l-56 -25l1 23l4 -3l6 2l1 27l-6 3l-5 -3v20l52 -27zM391.01 117.016l52 -11l-4 -14l-2 3l-29 6l-1 -10l17 -4l5 3l-5 -18l-2 3l-18 5l-2 -10l28 -6l5 2l-4 -15l-50 10l3 4l10 47zM1556.01 476.016c0 -5.33301 -3 -11.834 -9 -19.501
s-13.167 -15.167 -21.5 -22.5s-16.833 -14.166 -25.5 -20.499s-15.334 -10.5 -20.001 -12.5c2.66699 5.33301 6.66699 12.833 12 22.5s11.333 19 18 28s13.5 16.833 20.5 23.5s13.5 10 19.5 10c2.66699 0 4.33398 -0.333008 5.00098 -1c0.666992 -1.33301 1 -4 1 -8z
M139.01 438.015l12 50l15 -2l-4 -5l-8 -27l12 -3l4 18l-3 5l18 -5l-5 -2l-3 -18l9 -3l7 28l-2 6l15 -5l-13 -50l-2 3l-47 12zM720.01 595.015l-12 -11l-1 5l-11 11l-27 -27v-6l-17 17l5 1l27 26l-10 11l-5 1l12 12zM253.01 202.015l-14 -9l1 6l-9 11l-33 -21v-4l-14 18h6
l31 21l-9 13l-5 3l14 8zM272.01 135.015l-10 -10v-6l-17 15l4 1l10 11l6 44l18 -16h-5l-4 -26l27 7l-1 6l14 -13zM578.01 101.015c6.66699 -10.667 14 -13.667 22 -9c7.33301 2.66699 9.33301 9.66699 6 21c-4.66699 10 -11.667 13 -21 9
c-8.66699 -3.33301 -11 -10.333 -7 -21zM1809.01 316.015c-8 6.66699 -13.333 13.667 -16 21l-14 5l-19 -27l-1 -4zM255.01 578.015l5.99805 5.99902c6.66699 6.66699 6.33398 14.334 -0.999023 23.001c-7.33301 7.33301 -14.666 7.33301 -21.999 0l-6 -6zM736.008 278.014
c-5.33301 6.66699 -5.33301 13.334 0 20.001c6.66699 6.66699 13.334 6.66699 20.001 0c8 -6.66699 8 -13.334 0 -20.001c-6.66699 -6.66699 -13.334 -6.66699 -20.001 0zM169.008 278.014c-6.66699 6.66699 -6.66699 13.334 0 20.001c2 3.33301 5.16699 5 9.5 5
s7.5 -1.66699 9.5 -5c6.66699 -6.66699 6.66699 -13.334 0 -20.001c-2 -3.33301 -5.16699 -5 -9.5 -5s-7.5 1.66699 -9.5 5zM480.008 702.014v-17l11 -1c5.33301 0 8 2.66699 8 8c1.33301 6.66699 -1 10 -7 10h-12zM339.008 125.014l-7 -16l10 -4c5.33301 -4 9 -3 11 3
c4 6 2.66699 9.66699 -4 11zM554.008 690.014l-4 -12.999l10 -4c6.66699 -2.66699 10.667 -1.33398 12 3.99902c0 4.66699 -2.33301 7.66699 -7 9zM294.008 652.015l7 -11l9 5c4 3.33301 5.33301 7 4 11c-2 4.66699 -6 5 -12 1zM642.008 156.015l10 -10l8 7
c4 2.66699 4.66699 6 2 10c-2 5.33301 -5.33301 5.33301 -10 0zM709.008 548.015l11 -18l11 19zM1928.01 324.015c-2.66699 2.66699 -4.33203 5.00098 -4.99902 7.00098l-1 1l-1 3l-6 2c-4.66699 -4.66699 -8.33398 -9.33398 -11.001 -14.001c4 0 8 0.166992 12 0.5
s8 0.5 12 0.5zM615.01 636.016l17 -9l2 21zM375.01 664.016l17 6l-15 15zM758.01 386.016v-17l20 8z" />
    <glyph glyph-name="registered" unicode="&#xae;" horiz-adv-x="2390" 
d="M1231 59c-9.33301 0 -18.1611 3.17676 -26.4941 9.50977s-13.166 14.166 -14.499 23.499l-1 1c-14 0 -25.167 5.5 -33.5 16.5s-12.5 23.167 -12.5 36.5c0 1.33301 0.166992 2.5 0.5 3.5s0.5 2.16699 0.5 3.5h-27.5c-11.667 0 -23.167 1 -34.5 3s-21.333 5.5 -30 10.5
s-13.667 12.833 -15 23.5c-9.33301 0.666992 -18.833 4.66699 -28.5 12s-14.5 16 -14.5 26c0 13.333 5.5 21.5 16.5 24.5s21.5 4.5 31.5 4.5c-2 5.33301 -2 14.333 0 27s5.16699 27.167 9.5 43.5s9.16602 33.166 14.499 50.499l15.5 49l13 39.5
c3.66699 11 5.83398 17.833 6.50098 20.5c-12.667 -6.66699 -23.667 -12.834 -33 -18.501s-19 -13.167 -29 -22.5c-5.33301 -14.667 -15.666 -22 -30.999 -22c-1.33301 0 -3.83301 0.5 -7.5 1.5s-5.83398 1.5 -6.50098 1.5c-7.33301 4.66699 -13 9 -17 13
s-7.66699 10 -11 18c-16.667 0 -28.667 6.83301 -36 20.5s-11 27.5 -11 41.5c0 20 8.5 37.167 25.5 51.5s37.333 26.333 61 36s48 17.167 73 22.5s45.167 8.66602 60.5 9.99902l1 9c7.33301 15.333 21 23 41 23c5.33301 0 11.666 -0.833008 18.999 -2.5
s14.5 -4.16699 21.5 -7.5s13.333 -7.33301 19 -12s9.5 -9.66699 11.5 -15c1.33301 0 3.83301 -0.333008 7.5 -1s6.16699 -1.33398 7.5 -2.00098c22 -5.33301 41.167 -13.166 57.5 -23.499s33.166 -22.833 50.499 -37.5c4.66699 -4 9.66699 -7.66699 15 -11
s10.666 -7.33301 15.999 -12c15.333 -13.333 28.666 -29.333 39.999 -48c12.667 14 27.334 25.167 44.001 33.5s34.667 12.5 54 12.5c5.33301 0 10.666 -0.666992 15.999 -2l16 -4l1 -1c9.33301 -4 17.833 -8.5 25.5 -13.5s14.167 -12.167 19.5 -21.5
c2.66699 -1.33301 5.16699 -2.5 7.5 -3.5s4.83301 -2.16699 7.5 -3.5c4 6.66699 7.5 13.5 10.5 20.5s6.66699 13 11 18s9.33301 9.16699 15 12.5s13.167 5 22.5 5c8 0 18 -1.5 30 -4.5s20.667 -7.83301 26 -14.5c7.33301 5.33301 15.166 10.5 23.499 15.5
s17.166 7.5 26.499 7.5c13.333 0 25.666 -3.66699 36.999 -11s20.666 -16.333 27.999 -27c6.66699 -2.66699 11.334 -5 14.001 -7c7.33301 7.33301 15 13.5 23 18.5s17.667 7.5 29 7.5c5.33301 0 11.666 -0.666992 18.999 -2s14.333 -3.33301 21 -6
s12.5 -6.33398 17.5 -11.001s7.83301 -10.334 8.5 -17.001c3.33301 -0.666992 6.33301 -1.5 9 -2.5s5.33398 -2.16699 8.00098 -3.5c2 6 6.33301 13.667 13 23s14.167 18.5 22.5 27.5s17 16.833 26 23.5s16.833 10 23.5 10h24.5c8.33301 0 16.166 -1.66699 23.5 -5
c1.33301 0.666992 3.16602 0 5.5 -2c2.33301 -2 4.16602 -3.66699 5.5 -5c15.333 5.33301 28.166 11.5 38.5 18.5c10.333 7 21.5 15.5 33.5 25.5c6 5.33301 13.667 8 23 8c8.66699 0 17.667 -3.33301 27 -10s14.666 -14.667 16 -24c10.667 0 19.334 -3.33301 26 -10h1
c5.33301 -5.33301 9.33301 -10.333 12 -15s4.66699 -10.667 6 -18l-1 -1c0 -10 -3.16699 -18.167 -9.5 -24.5s-14 -11.833 -23 -16.5s-18.167 -8.66699 -27.5 -12s-16.666 -7.33301 -22 -12l1 -2c0 -12.667 -3.16699 -27.334 -9.5 -44.001s-14.333 -32.834 -24 -48.501
s-20.334 -30 -32 -43c-11.667 -13 -23.167 -22.5 -34.5 -28.5c10 -4 18.167 -7.66699 24.5 -11s11.166 -10.666 14.5 -21.999c11.333 -3.33301 21.666 -8.33301 31 -15c9.33301 -6.66699 14 -16.667 14 -30c0 -12 -3.33301 -22.833 -10 -32.5s-16.667 -14.5 -30 -14.5
c-4.66699 0 -9.33398 1 -14 3h-1c-2 1.33301 -3.83301 2.66602 -5.5 3.99902s-3.5 2.66602 -5.5 3.99902l-1 4c-3.33301 1.33301 -9.33301 2.5 -18 3.5s-18.334 1.66699 -29 2c-10.667 0.333008 -20.667 0.5 -30 0.5h-20c-31.333 0 -70 -1.66699 -116 -5
s-95.167 -7.83301 -147.5 -13.5s-106.333 -12.834 -162 -21.501s-109.167 -18.167 -160.5 -28.5s-98.333 -21.833 -141 -34.5s-77.667 -26 -105 -40c-4 -3.33301 -10 -5 -18 -5zM91.0049 389.01c0.666992 51.333 10.998 99.498 30.998 144.498s47 84.167 81 117.5
s73.667 59.666 119 78.999s94 29 146 29c51.333 0 99.5 -10 144.5 -30s84.167 -47 117.5 -81s59.666 -73.667 78.999 -119s29 -94 29 -146c0 -51.333 -10 -99.666 -30 -144.999s-47 -84.666 -81 -117.999s-73.667 -59.666 -119 -78.999s-94 -29 -146 -29
c-51.333 0 -99.666 10 -144.999 30s-84.666 47 -117.999 81s-59.666 73.833 -78.999 119.5s-29 94.5 -29 146.5zM824.003 383.008c0 49.333 -9.33008 95.834 -27.9971 139.501s-44.167 81.834 -76.5 114.501s-70.166 58.667 -113.499 78s-89.333 29 -138 29
c-50 0 -96.833 -9.16699 -140.5 -27.5s-81.834 -43.666 -114.501 -75.999s-58.5 -70.166 -77.5 -113.499s-28.833 -89.333 -29.5 -138c0 -50 9.16699 -96.833 27.5 -140.5s43.666 -81.834 75.999 -114.501s70.166 -58.5 113.499 -77.5s89.666 -28.833 138.999 -29.5
c49.333 0 95.833 9.16699 139.5 27.5s82 43.666 115 75.999s59 70.166 78 113.499s28.833 89.666 29.5 138.999zM218.006 387.009c0 34 6.49805 65.999 19.498 95.999s30.833 56.167 53.5 78.5s49 39.833 79 52.5s62 18.667 96 18c34 0 66 -6.5 96 -19.5
s56.167 -30.667 78.5 -53s40 -48.666 53 -78.999s19.5 -62.5 19.5 -96.5c-0.666992 -34 -7.66699 -66 -21 -96s-31.166 -56 -53.499 -78s-48.666 -39.333 -78.999 -52s-62.5 -19 -96.5 -19s-66 6.5 -96 19.5s-56 30.833 -78 53.5s-39.333 49 -52 79s-19 62 -19 96z
M696.004 384.008c0 32 -5.83301 62.167 -17.5 90.5s-28 53 -49 74s-45.5 37.667 -73.5 50s-58 18.5 -90 18.5s-62 -5.83301 -90 -17.5s-52.5 -28 -73.5 -49s-37.833 -45.5 -50.5 -73.5s-19 -58 -19 -90s5.83301 -62 17.5 -90s28 -52.5 49 -73.5s45.5 -37.833 73.5 -50.5
s58 -19 90 -19s62.167 5.83301 90.5 17.5s53 28 74 49s37.667 45.5 50 73.5s18.5 58 18.5 90zM1083 240.008c-2.66699 0 -7.49609 -0.166992 -14.4961 -0.5s-14.333 -0.833008 -22 -1.5s-14.334 -1.66699 -20.001 -3s-8.5 -3.33301 -8.5 -6
c0 -4.66699 2.16699 -8.5 6.5 -11.5s9.33301 -5.33301 15 -7s11.5 -2.83398 17.5 -3.50098s10.667 -1 14 -1c28 0 56.833 2.66699 86.5 8s58 13.666 85 24.999s52 25.833 75 43.5s42.5 39.167 58.5 64.5c9.33301 14 17 28.333 23 43s9 30.667 9 48
c0 24 -4.83301 46.5 -14.5 67.5s-22.834 39.5 -39.501 55.5s-35.667 29 -57 39s-43.333 16 -66 18c0.666992 5.33301 -0.833008 10.166 -4.5 14.499s-8.33398 8 -14.001 11s-11.5 5.16699 -17.5 6.5s-11 2 -15 2c-4.66699 0 -8.66699 -1 -12 -3s-5 -5.66699 -5 -11v-16
c-13.333 -1.33301 -32.166 -4 -56.499 -8s-48.833 -10 -73.5 -18s-46 -18.333 -64 -31s-27 -27.667 -27 -45c0 -20 7.33301 -34 22 -42l5 1c4.66699 4 8.16699 8.33301 10.5 13s6.16602 9 11.499 13c23.333 18.667 48.333 32.834 75 42.501s55 16.834 85 21.501
c-2 -8.66699 -5.66699 -21 -11 -37l-17.5 -53l-20 -61c-7 -21.333 -13.333 -41.666 -19 -60.999s-10.334 -36.833 -14.001 -52.5s-5.5 -27.834 -5.5 -36.501c0 -6.66699 1.83301 -12.167 5.5 -16.5s8.16699 -8.16602 13.5 -11.499zM1896.01 433.008
c-6.66699 -23.333 -4.83594 -42.8291 5.49707 -58.4961s27.833 -23.5 52.5 -23.5c11.333 0 23.5 2.16699 36.5 6.5s23.167 11.166 30.5 20.499c7.33301 -7.33301 16.666 -13.166 27.999 -17.499s22.333 -6.5 33 -6.5c5.33301 0 10.666 1.33301 16 4h-1
c10 3.33301 20.667 10.833 32 22.5s22 24.667 32 39s18.167 29.166 24.5 44.499s9.5 28 9.5 38c0 7.33301 -3 14 -9 20c4 1.33301 11 3.83301 21 7.5s20.167 8 30.5 13s19.333 10.333 27 16s11.5 11.5 11.5 17.5c0 2.66699 -0.666992 6 -2 10
c-3.33301 3.33301 -6.16602 6.5 -8.49902 9.5s-5.83301 4.5 -10.5 4.5c-2 0 -4.33301 -0.666992 -7 -2c-5.33301 -6 -12.333 -12.167 -21 -18.5s-18 -12 -28 -17s-20 -9.16699 -30 -12.5s-19.333 -5 -28 -5c2 2 3 4 3 6c0 4.66699 -4 7.5 -12 8.5s-13.667 1.5 -17 1.5
c-17.333 0 -32.333 -8.16699 -45 -24.5s-24.667 -35.166 -36 -56.499s-23 -42 -35 -62s-26.333 -33.667 -43 -41c-2 4 -3 8 -3 12c-1.33301 2.66699 -2 6.66699 -2 12c0 8.66699 1.16699 17.5 3.5 26.5s5 17.667 8 26l8.5 24.5c2.66699 8 4 15 4 21
c0 4 -1.66699 7.16699 -5 9.5s-7.33301 4.16602 -12 5.49902s-9.33398 2.33301 -14.001 3s-8.33398 1 -11.001 1c-2 0 -4.5 -0.166992 -7.5 -0.5s-5.16699 -1.5 -6.5 -3.5c-13.333 -8 -26.666 -18.5 -39.999 -31.5s-24.666 -25.167 -33.999 -36.5
c0 8 0.833008 16.167 2.5 24.5s2.5 16.5 2.5 24.5c0 10 -5.16699 19.333 -15.5 28s-20.166 13 -29.499 13c-8.66699 0 -17.334 -2.83301 -26.001 -8.5s-17 -12.334 -25 -20.001s-15.5 -15.5 -22.5 -23.5s-13.5 -14.667 -19.5 -20c0.666992 2 2 5.16699 4 9.5l6.5 14
c2.33301 5 4.83301 9.5 7.5 13.5s5 6.33301 7 7l1 5c-2 8 -7.5 13.333 -16.5 16s-17.167 4 -24.5 4c-2 0 -5.33301 -0.833008 -10 -2.5s-7.66699 -3.5 -9 -5.5l-27.5 -51c-11 -20 -23.5 -39.5 -37.5 -58.5s-29.333 -35.167 -46 -48.5s-34.667 -20 -54 -20
c-13.333 0 -22.333 6.33301 -27 19c8 2 18.667 7 32 15s26.666 17.5 39.999 28.5s24.833 22.667 34.5 35s14.5 23.5 14.5 33.5c0 6.66699 -2.16699 13 -6.5 19s-9.83301 11.167 -16.5 15.5s-13.667 7.66602 -21 9.99902s-14 3.5 -20 3.5c-15.333 0 -30.166 -4 -44.499 -12
s-27.166 -18.333 -38.499 -31s-20.333 -26.5 -27 -41.5s-10 -29.833 -10 -44.5c0 -26.667 8.83301 -47.167 26.5 -61.5s39.167 -21.5 64.5 -21.5c22.667 0 42.334 3.66699 59.001 11s32.667 18.666 48 33.999c5.33301 -7.33301 13 -13.666 23 -18.999s19.667 -8 29 -8
c8.66699 0 14.334 3.33301 17.001 10c4 10 10.167 21.667 18.5 35s17.666 26.666 27.999 39.999s20.833 26 31.5 38s20.667 22.333 30 31c-3.33301 -17.333 -8.33301 -35.333 -15 -54s-10 -36.667 -10 -54c0 -3.33301 1.5 -6.5 4.5 -9.5s6.66699 -5.5 11 -7.5
s8.83301 -3.66699 13.5 -5s8.33398 -2 11.001 -2h12.5c3 0 6.83301 1.66699 11.5 5c6.66699 13.333 15.667 26.5 27 39.5s22 24.5 32 34.5zM485.006 241.012c3.33301 4 5.66699 8.16797 7 12.501s2.66602 9.16602 3.99902 14.499v14l-59 1v-15
c0 -9.33301 3.66699 -18.333 11 -27h-67c3.33301 4.66699 5.66602 9.33398 6.99902 14.001s2.33301 9.33398 3 14.001v81h46v-20h59v34l-145 1v-55c0 -10.667 3.33301 -19.667 10 -27l-67 1c4 3.33301 6.5 7.5 7.5 12.5s2.16699 9.5 3.5 13.5l1 156
c-0.666992 4.66699 -1.83398 9.33398 -3.50098 14.001s-4.16699 9 -7.5 13h68c-4 -4 -6.66699 -8.5 -8 -13.5s-2.66602 -9.5 -3.99902 -13.5v-55h41v54c-0.666992 4.66699 -1.66699 9.16699 -3 13.5s-3.66602 9.16602 -6.99902 14.499l115 -1v14
c0 10 -3.66699 19.333 -11 28h67c-5.33301 -8.66699 -8.66602 -18 -9.99902 -28v-14h4c32 0 57 -11.667 75 -35c9.33301 -9.33301 15.833 -20.333 19.5 -33s5.5 -25.334 5.5 -38.001c0 -13.333 -2 -26 -6 -38s-10.667 -23 -20 -33
c-7.33301 -9.33301 -16.333 -16.833 -27 -22.5s-23 -8.83398 -37 -9.50098v47c15.333 2.66699 26.333 9.66699 33 21s10 23 10 35c0 13.333 -4 26.333 -12 39s-21.667 19 -41 19h-109v-33h59v19l46 -2l-2 -160c0 -9.33301 3.66699 -18.333 11 -27h-67zM2033.01 306.013
c-59.333 0 -121.335 -2.16992 -186.002 -6.50293s-129.834 -10.833 -195.501 -19.5s-130.334 -19 -194.001 -31s-124.167 -25.667 -181.5 -41c-5.33301 -1.33301 -13.166 -3.66602 -23.499 -6.99902s-21 -7 -32 -11s-21.167 -8 -30.5 -12s-15.666 -8 -18.999 -12
c-1.33301 -2 -2.33301 -5 -3 -9s-1 -7.33301 -1 -10c0 -7.33301 1.33301 -14.166 4 -20.499s7.66699 -10.833 15 -13.5c1.33301 0 5.83301 1.5 13.5 4.5l25.5 10.5c9.33301 4 18.333 7.66699 27 11l18 7l51.5 15.5c17 5 34.167 9.5 51.5 13.5
c53.333 12.667 108.833 24.334 166.5 35.001s115.834 19.834 174.501 27.501s117.167 13.667 175.5 18s114.833 6.5 169.5 6.5c4.66699 0 11.667 -0.166992 21 -0.5s19.166 -1 29.5 -2c10.333 -1 19.833 -2.5 28.5 -4.5s14.334 -4.66699 17.001 -8l1 -3l3 -3h4
c4 0 7.5 1.66699 10.5 5s4.5 7 4.5 11v11c0 4 -1 7.66699 -3 11c-3.33301 5.33301 -11.333 9.66602 -24 12.999s-26.667 6 -42 8s-30.333 3.5 -45 4.5s-25 1.5 -31 1.5zM1127 249.01c0 5.33301 0.668945 10.667 2.00195 16l4 16l40.5 145.5
c13.667 48.333 28.5 96.5 44.5 144.5c15.333 -0.666992 31.166 -2.5 47.499 -5.5s31.333 -8.33301 45 -16s25 -17.667 34 -30s13.5 -27.833 13.5 -46.5c0 -28.667 -7.33301 -55.334 -22 -80.001s-33.334 -46.667 -56.001 -66s-47.667 -35.666 -75 -48.999
s-53.333 -23 -78 -29zM1217.01 308.011c13.333 8.66699 27 18.667 41 30s26.667 23.833 38 37.5s20.5 28.334 27.5 44.001s10.5 32.167 10.5 49.5c0 7.33301 -0.5 13.5 -1.5 18.5s-2.83301 10.833 -5.5 17.5c-8 3.33301 -16 5.66602 -24 6.99902l-25 4
c-12 -34 -22.833 -68.333 -32.5 -103l-28.5 -104v-1zM2069.01 385.011c-2 0 -3.16602 1.33203 -3.49902 3.99902s-0.5 4.66699 -0.5 6c0 5.33301 1.66699 13 5 23s7.16602 20.333 11.5 31c4.33301 10.667 9.16602 20.834 14.5 30.501c5.33301 9.66699 10 17.5 14 23.5
c6 -0.666992 12 -0.333984 18 0.999023s12 2 18 2c2 0 3.66699 -1 5 -3c-1.33301 -5.33301 -5.33301 -14.5 -12 -27.5s-14.334 -26.167 -23 -39.5c-8.66699 -13.333 -17.334 -25.166 -26.001 -35.499s-15.667 -15.5 -21 -15.5zM580.008 133.01
c19.333 9.33301 33 5.00098 41 -12.999c7.33301 -16.667 2 -29.667 -16 -39c-20 -8.66699 -33.667 -4.33398 -41 12.999c-10 18 -4.66699 31 16 39zM251.008 555.011l-2 6.00098l-34 33h-5l21 22c14 15.333 27.667 16 41 2c13.333 -12.667 13.333 -26.334 0 -41.001z
M728.008 459.012l26.001 24l-26 -7l-4 -4l-4 20l1 -1c1.33301 -1.33301 2.66602 -2.33301 3.99902 -3l45 13l4 5l4 -19l-28 -27l38 -8l5 -20l-5 3l-46 -12l-4 -4l-6 21l6 -2l25 7l-33 6zM545.009 114.012l-17 -57l-11 -1l-13 27l-8 -30l-13 -2l-27 54l22 2l-3 -5l12 -29
l11 36l9 2l16 -34l8 31l-4 4zM271.009 651.012l29 20c12.667 6 21.667 5 27 -3c5.33301 -8.66699 5 -16 -1 -22l25 -11l-22 -13l1 6l-17 7l-6 -4l7 -13l6 -2l-19 -13l1 6l-27 41zM539.009 707.012l33 -11c14 -4 19.333 -11.667 16 -23c-3.33301 -8 -9 -12 -17 -12l7 -26
l-24 8l6 3l-7 19l-6 1l-6 -15l3 -5l-21 6l3 4l15 46zM620.009 154.012l27 21c12 10 21.333 10 28 0c6 -7.33301 6 -14.333 0 -21l26 -8l-19 -15v5l-18 6l-7 -6l11 -11h5l-18 -16v5l-30 39zM462.009 714.012l35 -1c13.333 -0.666992 20 -8 20 -22
c0 -13.333 -8 -19.333 -24 -18l-14 2l-1 -13l4 -4l-24 1l4 4l2 47zM162.009 517.012l9 16l42 9l-25 14l-5 -1l9 18l2 -6l46 -25l-6 -12l-43 -9l24 -15l6 1l-10 -16l-1 4l-43 22h-5zM327.009 143.012l30 -15c14 -6 18 -15.333 12 -28c-6 -10.667 -15.333 -13 -28 -7l-14 7
l-6 -13l2 -4l-21 10l5 1l20 44v5zM170.009 366.012h18l4 4v-24l-4 4l-48 -1l-4 -4v24l4 -4l17 1v27l-18 -1l-3 -3v24l3 -5l48 2l4 3v-23l-4 3h-17v-27zM363.009 698.012l19 6l42 -46l-23 -7l2 5l-3 5l-26 -9l-1 -6l3 -3l-19 -6l9 58zM740.009 567.012l10 -17l-33 -52l-13 19
h5l5 5l-16 22h-5l-3 -4l-10 16l57 7zM1402.01 258.012c15.333 3.33301 30.667 6.16992 46 8.50293s30.666 5.16602 45.999 8.49902c-10.667 5.33301 -17.667 10.5 -21 15.5s-8.66602 10.167 -15.999 15.5c-2 1.33301 -4 2.5 -6 3.5s-4 2.16699 -6 3.5
c-6 -10.667 -12.5 -20.334 -19.5 -29.001s-14.833 -17.334 -23.5 -26.001zM716.01 199.016v-7l11 -9l4 2l-13 -20l-2 5l-39 29h-4l14 17l1 -5l14 -10l-1 28h-6l16 22l3 -38l42 3l-16 -21l-2 5zM634.01 668.016l16 -11l-7 -62l-20 13l5 2l1 6l-22 14l-6 -2l1 -6l-17 10l49 31
v5zM795.01 386.016l-2 -19l-56 -25l1 23l4 -3l6 2l1 27l-6 3l-5 -3v20l52 -27zM391.01 117.016l52 -11l-4 -14l-2 3l-29 6l-1 -10l17 -4l5 3l-5 -18l-2 3l-18 5l-2 -10l28 -6l5 2l-4 -15l-50 10l3 4l10 47zM1556.01 476.016c0 -5.33301 -3 -11.834 -9 -19.501
s-13.167 -15.167 -21.5 -22.5s-16.833 -14.166 -25.5 -20.499s-15.334 -10.5 -20.001 -12.5c2.66699 5.33301 6.66699 12.833 12 22.5s11.333 19 18 28s13.5 16.833 20.5 23.5s13.5 10 19.5 10c2.66699 0 4.33398 -0.333008 5.00098 -1c0.666992 -1.33301 1 -4 1 -8z
M139.01 438.015l12 50l15 -2l-4 -5l-8 -27l12 -3l4 18l-3 5l18 -5l-5 -2l-3 -18l9 -3l7 28l-2 6l15 -5l-13 -50l-2 3l-47 12zM720.01 595.015l-12 -11l-1 5l-11 11l-27 -27v-6l-17 17l5 1l27 26l-10 11l-5 1l12 12zM253.01 202.015l-14 -9l1 6l-9 11l-33 -21v-4l-14 18h6
l31 21l-9 13l-5 3l14 8zM272.01 135.015l-10 -10v-6l-17 15l4 1l10 11l6 44l18 -16h-5l-4 -26l27 7l-1 6l14 -13zM578.01 101.015c6.66699 -10.667 14 -13.667 22 -9c7.33301 2.66699 9.33301 9.66699 6 21c-4.66699 10 -11.667 13 -21 9
c-8.66699 -3.33301 -11 -10.333 -7 -21zM1809.01 316.015c-8 6.66699 -13.333 13.667 -16 21l-14 5l-19 -27l-1 -4zM255.01 578.015l5.99805 5.99902c6.66699 6.66699 6.33398 14.334 -0.999023 23.001c-7.33301 7.33301 -14.666 7.33301 -21.999 0l-6 -6zM736.008 278.014
c-5.33301 6.66699 -5.33301 13.334 0 20.001c6.66699 6.66699 13.334 6.66699 20.001 0c8 -6.66699 8 -13.334 0 -20.001c-6.66699 -6.66699 -13.334 -6.66699 -20.001 0zM169.008 278.014c-6.66699 6.66699 -6.66699 13.334 0 20.001c2 3.33301 5.16699 5 9.5 5
s7.5 -1.66699 9.5 -5c6.66699 -6.66699 6.66699 -13.334 0 -20.001c-2 -3.33301 -5.16699 -5 -9.5 -5s-7.5 1.66699 -9.5 5zM480.008 702.014v-17l11 -1c5.33301 0 8 2.66699 8 8c1.33301 6.66699 -1 10 -7 10h-12zM339.008 125.014l-7 -16l10 -4c5.33301 -4 9 -3 11 3
c4 6 2.66699 9.66699 -4 11zM554.008 690.014l-4 -12.999l10 -4c6.66699 -2.66699 10.667 -1.33398 12 3.99902c0 4.66699 -2.33301 7.66699 -7 9zM294.008 652.015l7 -11l9 5c4 3.33301 5.33301 7 4 11c-2 4.66699 -6 5 -12 1zM642.008 156.015l10 -10l8 7
c4 2.66699 4.66699 6 2 10c-2 5.33301 -5.33301 5.33301 -10 0zM709.008 548.015l11 -18l11 19zM1928.01 324.015c-2.66699 2.66699 -4.33203 5.00098 -4.99902 7.00098l-1 1l-1 3l-6 2c-4.66699 -4.66699 -8.33398 -9.33398 -11.001 -14.001c4 0 8 0.166992 12 0.5
s8 0.5 12 0.5zM615.01 636.016l17 -9l2 21zM375.01 664.016l17 6l-15 15zM758.01 386.016v-17l20 8z" />
    <glyph glyph-name="degree" unicode="&#xb0;" horiz-adv-x="2390" 
d="M1231 59c-9.33301 0 -18.1611 3.17676 -26.4941 9.50977s-13.166 14.166 -14.499 23.499l-1 1c-14 0 -25.167 5.5 -33.5 16.5s-12.5 23.167 -12.5 36.5c0 1.33301 0.166992 2.5 0.5 3.5s0.5 2.16699 0.5 3.5h-27.5c-11.667 0 -23.167 1 -34.5 3s-21.333 5.5 -30 10.5
s-13.667 12.833 -15 23.5c-9.33301 0.666992 -18.833 4.66699 -28.5 12s-14.5 16 -14.5 26c0 13.333 5.5 21.5 16.5 24.5s21.5 4.5 31.5 4.5c-2 5.33301 -2 14.333 0 27s5.16699 27.167 9.5 43.5s9.16602 33.166 14.499 50.499l15.5 49l13 39.5
c3.66699 11 5.83398 17.833 6.50098 20.5c-12.667 -6.66699 -23.667 -12.834 -33 -18.501s-19 -13.167 -29 -22.5c-5.33301 -14.667 -15.666 -22 -30.999 -22c-1.33301 0 -3.83301 0.5 -7.5 1.5s-5.83398 1.5 -6.50098 1.5c-7.33301 4.66699 -13 9 -17 13
s-7.66699 10 -11 18c-16.667 0 -28.667 6.83301 -36 20.5s-11 27.5 -11 41.5c0 20 8.5 37.167 25.5 51.5s37.333 26.333 61 36s48 17.167 73 22.5s45.167 8.66602 60.5 9.99902l1 9c7.33301 15.333 21 23 41 23c5.33301 0 11.666 -0.833008 18.999 -2.5
s14.5 -4.16699 21.5 -7.5s13.333 -7.33301 19 -12s9.5 -9.66699 11.5 -15c1.33301 0 3.83301 -0.333008 7.5 -1s6.16699 -1.33398 7.5 -2.00098c22 -5.33301 41.167 -13.166 57.5 -23.499s33.166 -22.833 50.499 -37.5c4.66699 -4 9.66699 -7.66699 15 -11
s10.666 -7.33301 15.999 -12c15.333 -13.333 28.666 -29.333 39.999 -48c12.667 14 27.334 25.167 44.001 33.5s34.667 12.5 54 12.5c5.33301 0 10.666 -0.666992 15.999 -2l16 -4l1 -1c9.33301 -4 17.833 -8.5 25.5 -13.5s14.167 -12.167 19.5 -21.5
c2.66699 -1.33301 5.16699 -2.5 7.5 -3.5s4.83301 -2.16699 7.5 -3.5c4 6.66699 7.5 13.5 10.5 20.5s6.66699 13 11 18s9.33301 9.16699 15 12.5s13.167 5 22.5 5c8 0 18 -1.5 30 -4.5s20.667 -7.83301 26 -14.5c7.33301 5.33301 15.166 10.5 23.499 15.5
s17.166 7.5 26.499 7.5c13.333 0 25.666 -3.66699 36.999 -11s20.666 -16.333 27.999 -27c6.66699 -2.66699 11.334 -5 14.001 -7c7.33301 7.33301 15 13.5 23 18.5s17.667 7.5 29 7.5c5.33301 0 11.666 -0.666992 18.999 -2s14.333 -3.33301 21 -6
s12.5 -6.33398 17.5 -11.001s7.83301 -10.334 8.5 -17.001c3.33301 -0.666992 6.33301 -1.5 9 -2.5s5.33398 -2.16699 8.00098 -3.5c2 6 6.33301 13.667 13 23s14.167 18.5 22.5 27.5s17 16.833 26 23.5s16.833 10 23.5 10h24.5c8.33301 0 16.166 -1.66699 23.5 -5
c1.33301 0.666992 3.16602 0 5.5 -2c2.33301 -2 4.16602 -3.66699 5.5 -5c15.333 5.33301 28.166 11.5 38.5 18.5c10.333 7 21.5 15.5 33.5 25.5c6 5.33301 13.667 8 23 8c8.66699 0 17.667 -3.33301 27 -10s14.666 -14.667 16 -24c10.667 0 19.334 -3.33301 26 -10h1
c5.33301 -5.33301 9.33301 -10.333 12 -15s4.66699 -10.667 6 -18l-1 -1c0 -10 -3.16699 -18.167 -9.5 -24.5s-14 -11.833 -23 -16.5s-18.167 -8.66699 -27.5 -12s-16.666 -7.33301 -22 -12l1 -2c0 -12.667 -3.16699 -27.334 -9.5 -44.001s-14.333 -32.834 -24 -48.501
s-20.334 -30 -32 -43c-11.667 -13 -23.167 -22.5 -34.5 -28.5c10 -4 18.167 -7.66699 24.5 -11s11.166 -10.666 14.5 -21.999c11.333 -3.33301 21.666 -8.33301 31 -15c9.33301 -6.66699 14 -16.667 14 -30c0 -12 -3.33301 -22.833 -10 -32.5s-16.667 -14.5 -30 -14.5
c-4.66699 0 -9.33398 1 -14 3h-1c-2 1.33301 -3.83301 2.66602 -5.5 3.99902s-3.5 2.66602 -5.5 3.99902l-1 4c-3.33301 1.33301 -9.33301 2.5 -18 3.5s-18.334 1.66699 -29 2c-10.667 0.333008 -20.667 0.5 -30 0.5h-20c-31.333 0 -70 -1.66699 -116 -5
s-95.167 -7.83301 -147.5 -13.5s-106.333 -12.834 -162 -21.501s-109.167 -18.167 -160.5 -28.5s-98.333 -21.833 -141 -34.5s-77.667 -26 -105 -40c-4 -3.33301 -10 -5 -18 -5zM91.0049 389.01c0.666992 51.333 10.998 99.498 30.998 144.498s47 84.167 81 117.5
s73.667 59.666 119 78.999s94 29 146 29c51.333 0 99.5 -10 144.5 -30s84.167 -47 117.5 -81s59.666 -73.667 78.999 -119s29 -94 29 -146c0 -51.333 -10 -99.666 -30 -144.999s-47 -84.666 -81 -117.999s-73.667 -59.666 -119 -78.999s-94 -29 -146 -29
c-51.333 0 -99.666 10 -144.999 30s-84.666 47 -117.999 81s-59.666 73.833 -78.999 119.5s-29 94.5 -29 146.5zM824.003 383.008c0 49.333 -9.33008 95.834 -27.9971 139.501s-44.167 81.834 -76.5 114.501s-70.166 58.667 -113.499 78s-89.333 29 -138 29
c-50 0 -96.833 -9.16699 -140.5 -27.5s-81.834 -43.666 -114.501 -75.999s-58.5 -70.166 -77.5 -113.499s-28.833 -89.333 -29.5 -138c0 -50 9.16699 -96.833 27.5 -140.5s43.666 -81.834 75.999 -114.501s70.166 -58.5 113.499 -77.5s89.666 -28.833 138.999 -29.5
c49.333 0 95.833 9.16699 139.5 27.5s82 43.666 115 75.999s59 70.166 78 113.499s28.833 89.666 29.5 138.999zM218.006 387.009c0 34 6.49805 65.999 19.498 95.999s30.833 56.167 53.5 78.5s49 39.833 79 52.5s62 18.667 96 18c34 0 66 -6.5 96 -19.5
s56.167 -30.667 78.5 -53s40 -48.666 53 -78.999s19.5 -62.5 19.5 -96.5c-0.666992 -34 -7.66699 -66 -21 -96s-31.166 -56 -53.499 -78s-48.666 -39.333 -78.999 -52s-62.5 -19 -96.5 -19s-66 6.5 -96 19.5s-56 30.833 -78 53.5s-39.333 49 -52 79s-19 62 -19 96z
M696.004 384.008c0 32 -5.83301 62.167 -17.5 90.5s-28 53 -49 74s-45.5 37.667 -73.5 50s-58 18.5 -90 18.5s-62 -5.83301 -90 -17.5s-52.5 -28 -73.5 -49s-37.833 -45.5 -50.5 -73.5s-19 -58 -19 -90s5.83301 -62 17.5 -90s28 -52.5 49 -73.5s45.5 -37.833 73.5 -50.5
s58 -19 90 -19s62.167 5.83301 90.5 17.5s53 28 74 49s37.667 45.5 50 73.5s18.5 58 18.5 90zM1083 240.008c-2.66699 0 -7.49609 -0.166992 -14.4961 -0.5s-14.333 -0.833008 -22 -1.5s-14.334 -1.66699 -20.001 -3s-8.5 -3.33301 -8.5 -6
c0 -4.66699 2.16699 -8.5 6.5 -11.5s9.33301 -5.33301 15 -7s11.5 -2.83398 17.5 -3.50098s10.667 -1 14 -1c28 0 56.833 2.66699 86.5 8s58 13.666 85 24.999s52 25.833 75 43.5s42.5 39.167 58.5 64.5c9.33301 14 17 28.333 23 43s9 30.667 9 48
c0 24 -4.83301 46.5 -14.5 67.5s-22.834 39.5 -39.501 55.5s-35.667 29 -57 39s-43.333 16 -66 18c0.666992 5.33301 -0.833008 10.166 -4.5 14.499s-8.33398 8 -14.001 11s-11.5 5.16699 -17.5 6.5s-11 2 -15 2c-4.66699 0 -8.66699 -1 -12 -3s-5 -5.66699 -5 -11v-16
c-13.333 -1.33301 -32.166 -4 -56.499 -8s-48.833 -10 -73.5 -18s-46 -18.333 -64 -31s-27 -27.667 -27 -45c0 -20 7.33301 -34 22 -42l5 1c4.66699 4 8.16699 8.33301 10.5 13s6.16602 9 11.499 13c23.333 18.667 48.333 32.834 75 42.501s55 16.834 85 21.501
c-2 -8.66699 -5.66699 -21 -11 -37l-17.5 -53l-20 -61c-7 -21.333 -13.333 -41.666 -19 -60.999s-10.334 -36.833 -14.001 -52.5s-5.5 -27.834 -5.5 -36.501c0 -6.66699 1.83301 -12.167 5.5 -16.5s8.16699 -8.16602 13.5 -11.499zM1896.01 433.008
c-6.66699 -23.333 -4.83594 -42.8291 5.49707 -58.4961s27.833 -23.5 52.5 -23.5c11.333 0 23.5 2.16699 36.5 6.5s23.167 11.166 30.5 20.499c7.33301 -7.33301 16.666 -13.166 27.999 -17.499s22.333 -6.5 33 -6.5c5.33301 0 10.666 1.33301 16 4h-1
c10 3.33301 20.667 10.833 32 22.5s22 24.667 32 39s18.167 29.166 24.5 44.499s9.5 28 9.5 38c0 7.33301 -3 14 -9 20c4 1.33301 11 3.83301 21 7.5s20.167 8 30.5 13s19.333 10.333 27 16s11.5 11.5 11.5 17.5c0 2.66699 -0.666992 6 -2 10
c-3.33301 3.33301 -6.16602 6.5 -8.49902 9.5s-5.83301 4.5 -10.5 4.5c-2 0 -4.33301 -0.666992 -7 -2c-5.33301 -6 -12.333 -12.167 -21 -18.5s-18 -12 -28 -17s-20 -9.16699 -30 -12.5s-19.333 -5 -28 -5c2 2 3 4 3 6c0 4.66699 -4 7.5 -12 8.5s-13.667 1.5 -17 1.5
c-17.333 0 -32.333 -8.16699 -45 -24.5s-24.667 -35.166 -36 -56.499s-23 -42 -35 -62s-26.333 -33.667 -43 -41c-2 4 -3 8 -3 12c-1.33301 2.66699 -2 6.66699 -2 12c0 8.66699 1.16699 17.5 3.5 26.5s5 17.667 8 26l8.5 24.5c2.66699 8 4 15 4 21
c0 4 -1.66699 7.16699 -5 9.5s-7.33301 4.16602 -12 5.49902s-9.33398 2.33301 -14.001 3s-8.33398 1 -11.001 1c-2 0 -4.5 -0.166992 -7.5 -0.5s-5.16699 -1.5 -6.5 -3.5c-13.333 -8 -26.666 -18.5 -39.999 -31.5s-24.666 -25.167 -33.999 -36.5
c0 8 0.833008 16.167 2.5 24.5s2.5 16.5 2.5 24.5c0 10 -5.16699 19.333 -15.5 28s-20.166 13 -29.499 13c-8.66699 0 -17.334 -2.83301 -26.001 -8.5s-17 -12.334 -25 -20.001s-15.5 -15.5 -22.5 -23.5s-13.5 -14.667 -19.5 -20c0.666992 2 2 5.16699 4 9.5l6.5 14
c2.33301 5 4.83301 9.5 7.5 13.5s5 6.33301 7 7l1 5c-2 8 -7.5 13.333 -16.5 16s-17.167 4 -24.5 4c-2 0 -5.33301 -0.833008 -10 -2.5s-7.66699 -3.5 -9 -5.5l-27.5 -51c-11 -20 -23.5 -39.5 -37.5 -58.5s-29.333 -35.167 -46 -48.5s-34.667 -20 -54 -20
c-13.333 0 -22.333 6.33301 -27 19c8 2 18.667 7 32 15s26.666 17.5 39.999 28.5s24.833 22.667 34.5 35s14.5 23.5 14.5 33.5c0 6.66699 -2.16699 13 -6.5 19s-9.83301 11.167 -16.5 15.5s-13.667 7.66602 -21 9.99902s-14 3.5 -20 3.5c-15.333 0 -30.166 -4 -44.499 -12
s-27.166 -18.333 -38.499 -31s-20.333 -26.5 -27 -41.5s-10 -29.833 -10 -44.5c0 -26.667 8.83301 -47.167 26.5 -61.5s39.167 -21.5 64.5 -21.5c22.667 0 42.334 3.66699 59.001 11s32.667 18.666 48 33.999c5.33301 -7.33301 13 -13.666 23 -18.999s19.667 -8 29 -8
c8.66699 0 14.334 3.33301 17.001 10c4 10 10.167 21.667 18.5 35s17.666 26.666 27.999 39.999s20.833 26 31.5 38s20.667 22.333 30 31c-3.33301 -17.333 -8.33301 -35.333 -15 -54s-10 -36.667 -10 -54c0 -3.33301 1.5 -6.5 4.5 -9.5s6.66699 -5.5 11 -7.5
s8.83301 -3.66699 13.5 -5s8.33398 -2 11.001 -2h12.5c3 0 6.83301 1.66699 11.5 5c6.66699 13.333 15.667 26.5 27 39.5s22 24.5 32 34.5zM485.006 241.012c3.33301 4 5.66699 8.16797 7 12.501s2.66602 9.16602 3.99902 14.499v14l-59 1v-15
c0 -9.33301 3.66699 -18.333 11 -27h-67c3.33301 4.66699 5.66602 9.33398 6.99902 14.001s2.33301 9.33398 3 14.001v81h46v-20h59v34l-145 1v-55c0 -10.667 3.33301 -19.667 10 -27l-67 1c4 3.33301 6.5 7.5 7.5 12.5s2.16699 9.5 3.5 13.5l1 156
c-0.666992 4.66699 -1.83398 9.33398 -3.50098 14.001s-4.16699 9 -7.5 13h68c-4 -4 -6.66699 -8.5 -8 -13.5s-2.66602 -9.5 -3.99902 -13.5v-55h41v54c-0.666992 4.66699 -1.66699 9.16699 -3 13.5s-3.66602 9.16602 -6.99902 14.499l115 -1v14
c0 10 -3.66699 19.333 -11 28h67c-5.33301 -8.66699 -8.66602 -18 -9.99902 -28v-14h4c32 0 57 -11.667 75 -35c9.33301 -9.33301 15.833 -20.333 19.5 -33s5.5 -25.334 5.5 -38.001c0 -13.333 -2 -26 -6 -38s-10.667 -23 -20 -33
c-7.33301 -9.33301 -16.333 -16.833 -27 -22.5s-23 -8.83398 -37 -9.50098v47c15.333 2.66699 26.333 9.66699 33 21s10 23 10 35c0 13.333 -4 26.333 -12 39s-21.667 19 -41 19h-109v-33h59v19l46 -2l-2 -160c0 -9.33301 3.66699 -18.333 11 -27h-67zM2033.01 306.013
c-59.333 0 -121.335 -2.16992 -186.002 -6.50293s-129.834 -10.833 -195.501 -19.5s-130.334 -19 -194.001 -31s-124.167 -25.667 -181.5 -41c-5.33301 -1.33301 -13.166 -3.66602 -23.499 -6.99902s-21 -7 -32 -11s-21.167 -8 -30.5 -12s-15.666 -8 -18.999 -12
c-1.33301 -2 -2.33301 -5 -3 -9s-1 -7.33301 -1 -10c0 -7.33301 1.33301 -14.166 4 -20.499s7.66699 -10.833 15 -13.5c1.33301 0 5.83301 1.5 13.5 4.5l25.5 10.5c9.33301 4 18.333 7.66699 27 11l18 7l51.5 15.5c17 5 34.167 9.5 51.5 13.5
c53.333 12.667 108.833 24.334 166.5 35.001s115.834 19.834 174.501 27.501s117.167 13.667 175.5 18s114.833 6.5 169.5 6.5c4.66699 0 11.667 -0.166992 21 -0.5s19.166 -1 29.5 -2c10.333 -1 19.833 -2.5 28.5 -4.5s14.334 -4.66699 17.001 -8l1 -3l3 -3h4
c4 0 7.5 1.66699 10.5 5s4.5 7 4.5 11v11c0 4 -1 7.66699 -3 11c-3.33301 5.33301 -11.333 9.66602 -24 12.999s-26.667 6 -42 8s-30.333 3.5 -45 4.5s-25 1.5 -31 1.5zM1127 249.01c0 5.33301 0.668945 10.667 2.00195 16l4 16l40.5 145.5
c13.667 48.333 28.5 96.5 44.5 144.5c15.333 -0.666992 31.166 -2.5 47.499 -5.5s31.333 -8.33301 45 -16s25 -17.667 34 -30s13.5 -27.833 13.5 -46.5c0 -28.667 -7.33301 -55.334 -22 -80.001s-33.334 -46.667 -56.001 -66s-47.667 -35.666 -75 -48.999
s-53.333 -23 -78 -29zM1217.01 308.011c13.333 8.66699 27 18.667 41 30s26.667 23.833 38 37.5s20.5 28.334 27.5 44.001s10.5 32.167 10.5 49.5c0 7.33301 -0.5 13.5 -1.5 18.5s-2.83301 10.833 -5.5 17.5c-8 3.33301 -16 5.66602 -24 6.99902l-25 4
c-12 -34 -22.833 -68.333 -32.5 -103l-28.5 -104v-1zM2069.01 385.011c-2 0 -3.16602 1.33203 -3.49902 3.99902s-0.5 4.66699 -0.5 6c0 5.33301 1.66699 13 5 23s7.16602 20.333 11.5 31c4.33301 10.667 9.16602 20.834 14.5 30.501c5.33301 9.66699 10 17.5 14 23.5
c6 -0.666992 12 -0.333984 18 0.999023s12 2 18 2c2 0 3.66699 -1 5 -3c-1.33301 -5.33301 -5.33301 -14.5 -12 -27.5s-14.334 -26.167 -23 -39.5c-8.66699 -13.333 -17.334 -25.166 -26.001 -35.499s-15.667 -15.5 -21 -15.5zM580.008 133.01
c19.333 9.33301 33 5.00098 41 -12.999c7.33301 -16.667 2 -29.667 -16 -39c-20 -8.66699 -33.667 -4.33398 -41 12.999c-10 18 -4.66699 31 16 39zM251.008 555.011l-2 6.00098l-34 33h-5l21 22c14 15.333 27.667 16 41 2c13.333 -12.667 13.333 -26.334 0 -41.001z
M728.008 459.012l26.001 24l-26 -7l-4 -4l-4 20l1 -1c1.33301 -1.33301 2.66602 -2.33301 3.99902 -3l45 13l4 5l4 -19l-28 -27l38 -8l5 -20l-5 3l-46 -12l-4 -4l-6 21l6 -2l25 7l-33 6zM545.009 114.012l-17 -57l-11 -1l-13 27l-8 -30l-13 -2l-27 54l22 2l-3 -5l12 -29
l11 36l9 2l16 -34l8 31l-4 4zM271.009 651.012l29 20c12.667 6 21.667 5 27 -3c5.33301 -8.66699 5 -16 -1 -22l25 -11l-22 -13l1 6l-17 7l-6 -4l7 -13l6 -2l-19 -13l1 6l-27 41zM539.009 707.012l33 -11c14 -4 19.333 -11.667 16 -23c-3.33301 -8 -9 -12 -17 -12l7 -26
l-24 8l6 3l-7 19l-6 1l-6 -15l3 -5l-21 6l3 4l15 46zM620.009 154.012l27 21c12 10 21.333 10 28 0c6 -7.33301 6 -14.333 0 -21l26 -8l-19 -15v5l-18 6l-7 -6l11 -11h5l-18 -16v5l-30 39zM462.009 714.012l35 -1c13.333 -0.666992 20 -8 20 -22
c0 -13.333 -8 -19.333 -24 -18l-14 2l-1 -13l4 -4l-24 1l4 4l2 47zM162.009 517.012l9 16l42 9l-25 14l-5 -1l9 18l2 -6l46 -25l-6 -12l-43 -9l24 -15l6 1l-10 -16l-1 4l-43 22h-5zM327.009 143.012l30 -15c14 -6 18 -15.333 12 -28c-6 -10.667 -15.333 -13 -28 -7l-14 7
l-6 -13l2 -4l-21 10l5 1l20 44v5zM170.009 366.012h18l4 4v-24l-4 4l-48 -1l-4 -4v24l4 -4l17 1v27l-18 -1l-3 -3v24l3 -5l48 2l4 3v-23l-4 3h-17v-27zM363.009 698.012l19 6l42 -46l-23 -7l2 5l-3 5l-26 -9l-1 -6l3 -3l-19 -6l9 58zM740.009 567.012l10 -17l-33 -52l-13 19
h5l5 5l-16 22h-5l-3 -4l-10 16l57 7zM1402.01 258.012c15.333 3.33301 30.667 6.16992 46 8.50293s30.666 5.16602 45.999 8.49902c-10.667 5.33301 -17.667 10.5 -21 15.5s-8.66602 10.167 -15.999 15.5c-2 1.33301 -4 2.5 -6 3.5s-4 2.16699 -6 3.5
c-6 -10.667 -12.5 -20.334 -19.5 -29.001s-14.833 -17.334 -23.5 -26.001zM716.01 199.016v-7l11 -9l4 2l-13 -20l-2 5l-39 29h-4l14 17l1 -5l14 -10l-1 28h-6l16 22l3 -38l42 3l-16 -21l-2 5zM634.01 668.016l16 -11l-7 -62l-20 13l5 2l1 6l-22 14l-6 -2l1 -6l-17 10l49 31
v5zM795.01 386.016l-2 -19l-56 -25l1 23l4 -3l6 2l1 27l-6 3l-5 -3v20l52 -27zM391.01 117.016l52 -11l-4 -14l-2 3l-29 6l-1 -10l17 -4l5 3l-5 -18l-2 3l-18 5l-2 -10l28 -6l5 2l-4 -15l-50 10l3 4l10 47zM1556.01 476.016c0 -5.33301 -3 -11.834 -9 -19.501
s-13.167 -15.167 -21.5 -22.5s-16.833 -14.166 -25.5 -20.499s-15.334 -10.5 -20.001 -12.5c2.66699 5.33301 6.66699 12.833 12 22.5s11.333 19 18 28s13.5 16.833 20.5 23.5s13.5 10 19.5 10c2.66699 0 4.33398 -0.333008 5.00098 -1c0.666992 -1.33301 1 -4 1 -8z
M139.01 438.015l12 50l15 -2l-4 -5l-8 -27l12 -3l4 18l-3 5l18 -5l-5 -2l-3 -18l9 -3l7 28l-2 6l15 -5l-13 -50l-2 3l-47 12zM720.01 595.015l-12 -11l-1 5l-11 11l-27 -27v-6l-17 17l5 1l27 26l-10 11l-5 1l12 12zM253.01 202.015l-14 -9l1 6l-9 11l-33 -21v-4l-14 18h6
l31 21l-9 13l-5 3l14 8zM272.01 135.015l-10 -10v-6l-17 15l4 1l10 11l6 44l18 -16h-5l-4 -26l27 7l-1 6l14 -13zM578.01 101.015c6.66699 -10.667 14 -13.667 22 -9c7.33301 2.66699 9.33301 9.66699 6 21c-4.66699 10 -11.667 13 -21 9
c-8.66699 -3.33301 -11 -10.333 -7 -21zM1809.01 316.015c-8 6.66699 -13.333 13.667 -16 21l-14 5l-19 -27l-1 -4zM255.01 578.015l5.99805 5.99902c6.66699 6.66699 6.33398 14.334 -0.999023 23.001c-7.33301 7.33301 -14.666 7.33301 -21.999 0l-6 -6zM736.008 278.014
c-5.33301 6.66699 -5.33301 13.334 0 20.001c6.66699 6.66699 13.334 6.66699 20.001 0c8 -6.66699 8 -13.334 0 -20.001c-6.66699 -6.66699 -13.334 -6.66699 -20.001 0zM169.008 278.014c-6.66699 6.66699 -6.66699 13.334 0 20.001c2 3.33301 5.16699 5 9.5 5
s7.5 -1.66699 9.5 -5c6.66699 -6.66699 6.66699 -13.334 0 -20.001c-2 -3.33301 -5.16699 -5 -9.5 -5s-7.5 1.66699 -9.5 5zM480.008 702.014v-17l11 -1c5.33301 0 8 2.66699 8 8c1.33301 6.66699 -1 10 -7 10h-12zM339.008 125.014l-7 -16l10 -4c5.33301 -4 9 -3 11 3
c4 6 2.66699 9.66699 -4 11zM554.008 690.014l-4 -12.999l10 -4c6.66699 -2.66699 10.667 -1.33398 12 3.99902c0 4.66699 -2.33301 7.66699 -7 9zM294.008 652.015l7 -11l9 5c4 3.33301 5.33301 7 4 11c-2 4.66699 -6 5 -12 1zM642.008 156.015l10 -10l8 7
c4 2.66699 4.66699 6 2 10c-2 5.33301 -5.33301 5.33301 -10 0zM709.008 548.015l11 -18l11 19zM1928.01 324.015c-2.66699 2.66699 -4.33203 5.00098 -4.99902 7.00098l-1 1l-1 3l-6 2c-4.66699 -4.66699 -8.33398 -9.33398 -11.001 -14.001c4 0 8 0.166992 12 0.5
s8 0.5 12 0.5zM615.01 636.016l17 -9l2 21zM375.01 664.016l17 6l-15 15zM758.01 386.016v-17l20 8z" />
    <glyph glyph-name="plusminus" unicode="&#xb1;" horiz-adv-x="2390" 
d="M1231 59c-9.33301 0 -18.1611 3.17676 -26.4941 9.50977s-13.166 14.166 -14.499 23.499l-1 1c-14 0 -25.167 5.5 -33.5 16.5s-12.5 23.167 -12.5 36.5c0 1.33301 0.166992 2.5 0.5 3.5s0.5 2.16699 0.5 3.5h-27.5c-11.667 0 -23.167 1 -34.5 3s-21.333 5.5 -30 10.5
s-13.667 12.833 -15 23.5c-9.33301 0.666992 -18.833 4.66699 -28.5 12s-14.5 16 -14.5 26c0 13.333 5.5 21.5 16.5 24.5s21.5 4.5 31.5 4.5c-2 5.33301 -2 14.333 0 27s5.16699 27.167 9.5 43.5s9.16602 33.166 14.499 50.499l15.5 49l13 39.5
c3.66699 11 5.83398 17.833 6.50098 20.5c-12.667 -6.66699 -23.667 -12.834 -33 -18.501s-19 -13.167 -29 -22.5c-5.33301 -14.667 -15.666 -22 -30.999 -22c-1.33301 0 -3.83301 0.5 -7.5 1.5s-5.83398 1.5 -6.50098 1.5c-7.33301 4.66699 -13 9 -17 13
s-7.66699 10 -11 18c-16.667 0 -28.667 6.83301 -36 20.5s-11 27.5 -11 41.5c0 20 8.5 37.167 25.5 51.5s37.333 26.333 61 36s48 17.167 73 22.5s45.167 8.66602 60.5 9.99902l1 9c7.33301 15.333 21 23 41 23c5.33301 0 11.666 -0.833008 18.999 -2.5
s14.5 -4.16699 21.5 -7.5s13.333 -7.33301 19 -12s9.5 -9.66699 11.5 -15c1.33301 0 3.83301 -0.333008 7.5 -1s6.16699 -1.33398 7.5 -2.00098c22 -5.33301 41.167 -13.166 57.5 -23.499s33.166 -22.833 50.499 -37.5c4.66699 -4 9.66699 -7.66699 15 -11
s10.666 -7.33301 15.999 -12c15.333 -13.333 28.666 -29.333 39.999 -48c12.667 14 27.334 25.167 44.001 33.5s34.667 12.5 54 12.5c5.33301 0 10.666 -0.666992 15.999 -2l16 -4l1 -1c9.33301 -4 17.833 -8.5 25.5 -13.5s14.167 -12.167 19.5 -21.5
c2.66699 -1.33301 5.16699 -2.5 7.5 -3.5s4.83301 -2.16699 7.5 -3.5c4 6.66699 7.5 13.5 10.5 20.5s6.66699 13 11 18s9.33301 9.16699 15 12.5s13.167 5 22.5 5c8 0 18 -1.5 30 -4.5s20.667 -7.83301 26 -14.5c7.33301 5.33301 15.166 10.5 23.499 15.5
s17.166 7.5 26.499 7.5c13.333 0 25.666 -3.66699 36.999 -11s20.666 -16.333 27.999 -27c6.66699 -2.66699 11.334 -5 14.001 -7c7.33301 7.33301 15 13.5 23 18.5s17.667 7.5 29 7.5c5.33301 0 11.666 -0.666992 18.999 -2s14.333 -3.33301 21 -6
s12.5 -6.33398 17.5 -11.001s7.83301 -10.334 8.5 -17.001c3.33301 -0.666992 6.33301 -1.5 9 -2.5s5.33398 -2.16699 8.00098 -3.5c2 6 6.33301 13.667 13 23s14.167 18.5 22.5 27.5s17 16.833 26 23.5s16.833 10 23.5 10h24.5c8.33301 0 16.166 -1.66699 23.5 -5
c1.33301 0.666992 3.16602 0 5.5 -2c2.33301 -2 4.16602 -3.66699 5.5 -5c15.333 5.33301 28.166 11.5 38.5 18.5c10.333 7 21.5 15.5 33.5 25.5c6 5.33301 13.667 8 23 8c8.66699 0 17.667 -3.33301 27 -10s14.666 -14.667 16 -24c10.667 0 19.334 -3.33301 26 -10h1
c5.33301 -5.33301 9.33301 -10.333 12 -15s4.66699 -10.667 6 -18l-1 -1c0 -10 -3.16699 -18.167 -9.5 -24.5s-14 -11.833 -23 -16.5s-18.167 -8.66699 -27.5 -12s-16.666 -7.33301 -22 -12l1 -2c0 -12.667 -3.16699 -27.334 -9.5 -44.001s-14.333 -32.834 -24 -48.501
s-20.334 -30 -32 -43c-11.667 -13 -23.167 -22.5 -34.5 -28.5c10 -4 18.167 -7.66699 24.5 -11s11.166 -10.666 14.5 -21.999c11.333 -3.33301 21.666 -8.33301 31 -15c9.33301 -6.66699 14 -16.667 14 -30c0 -12 -3.33301 -22.833 -10 -32.5s-16.667 -14.5 -30 -14.5
c-4.66699 0 -9.33398 1 -14 3h-1c-2 1.33301 -3.83301 2.66602 -5.5 3.99902s-3.5 2.66602 -5.5 3.99902l-1 4c-3.33301 1.33301 -9.33301 2.5 -18 3.5s-18.334 1.66699 -29 2c-10.667 0.333008 -20.667 0.5 -30 0.5h-20c-31.333 0 -70 -1.66699 -116 -5
s-95.167 -7.83301 -147.5 -13.5s-106.333 -12.834 -162 -21.501s-109.167 -18.167 -160.5 -28.5s-98.333 -21.833 -141 -34.5s-77.667 -26 -105 -40c-4 -3.33301 -10 -5 -18 -5zM91.0049 389.01c0.666992 51.333 10.998 99.498 30.998 144.498s47 84.167 81 117.5
s73.667 59.666 119 78.999s94 29 146 29c51.333 0 99.5 -10 144.5 -30s84.167 -47 117.5 -81s59.666 -73.667 78.999 -119s29 -94 29 -146c0 -51.333 -10 -99.666 -30 -144.999s-47 -84.666 -81 -117.999s-73.667 -59.666 -119 -78.999s-94 -29 -146 -29
c-51.333 0 -99.666 10 -144.999 30s-84.666 47 -117.999 81s-59.666 73.833 -78.999 119.5s-29 94.5 -29 146.5zM824.003 383.008c0 49.333 -9.33008 95.834 -27.9971 139.501s-44.167 81.834 -76.5 114.501s-70.166 58.667 -113.499 78s-89.333 29 -138 29
c-50 0 -96.833 -9.16699 -140.5 -27.5s-81.834 -43.666 -114.501 -75.999s-58.5 -70.166 -77.5 -113.499s-28.833 -89.333 -29.5 -138c0 -50 9.16699 -96.833 27.5 -140.5s43.666 -81.834 75.999 -114.501s70.166 -58.5 113.499 -77.5s89.666 -28.833 138.999 -29.5
c49.333 0 95.833 9.16699 139.5 27.5s82 43.666 115 75.999s59 70.166 78 113.499s28.833 89.666 29.5 138.999zM218.006 387.009c0 34 6.49805 65.999 19.498 95.999s30.833 56.167 53.5 78.5s49 39.833 79 52.5s62 18.667 96 18c34 0 66 -6.5 96 -19.5
s56.167 -30.667 78.5 -53s40 -48.666 53 -78.999s19.5 -62.5 19.5 -96.5c-0.666992 -34 -7.66699 -66 -21 -96s-31.166 -56 -53.499 -78s-48.666 -39.333 -78.999 -52s-62.5 -19 -96.5 -19s-66 6.5 -96 19.5s-56 30.833 -78 53.5s-39.333 49 -52 79s-19 62 -19 96z
M696.004 384.008c0 32 -5.83301 62.167 -17.5 90.5s-28 53 -49 74s-45.5 37.667 -73.5 50s-58 18.5 -90 18.5s-62 -5.83301 -90 -17.5s-52.5 -28 -73.5 -49s-37.833 -45.5 -50.5 -73.5s-19 -58 -19 -90s5.83301 -62 17.5 -90s28 -52.5 49 -73.5s45.5 -37.833 73.5 -50.5
s58 -19 90 -19s62.167 5.83301 90.5 17.5s53 28 74 49s37.667 45.5 50 73.5s18.5 58 18.5 90zM1083 240.008c-2.66699 0 -7.49609 -0.166992 -14.4961 -0.5s-14.333 -0.833008 -22 -1.5s-14.334 -1.66699 -20.001 -3s-8.5 -3.33301 -8.5 -6
c0 -4.66699 2.16699 -8.5 6.5 -11.5s9.33301 -5.33301 15 -7s11.5 -2.83398 17.5 -3.50098s10.667 -1 14 -1c28 0 56.833 2.66699 86.5 8s58 13.666 85 24.999s52 25.833 75 43.5s42.5 39.167 58.5 64.5c9.33301 14 17 28.333 23 43s9 30.667 9 48
c0 24 -4.83301 46.5 -14.5 67.5s-22.834 39.5 -39.501 55.5s-35.667 29 -57 39s-43.333 16 -66 18c0.666992 5.33301 -0.833008 10.166 -4.5 14.499s-8.33398 8 -14.001 11s-11.5 5.16699 -17.5 6.5s-11 2 -15 2c-4.66699 0 -8.66699 -1 -12 -3s-5 -5.66699 -5 -11v-16
c-13.333 -1.33301 -32.166 -4 -56.499 -8s-48.833 -10 -73.5 -18s-46 -18.333 -64 -31s-27 -27.667 -27 -45c0 -20 7.33301 -34 22 -42l5 1c4.66699 4 8.16699 8.33301 10.5 13s6.16602 9 11.499 13c23.333 18.667 48.333 32.834 75 42.501s55 16.834 85 21.501
c-2 -8.66699 -5.66699 -21 -11 -37l-17.5 -53l-20 -61c-7 -21.333 -13.333 -41.666 -19 -60.999s-10.334 -36.833 -14.001 -52.5s-5.5 -27.834 -5.5 -36.501c0 -6.66699 1.83301 -12.167 5.5 -16.5s8.16699 -8.16602 13.5 -11.499zM1896.01 433.008
c-6.66699 -23.333 -4.83594 -42.8291 5.49707 -58.4961s27.833 -23.5 52.5 -23.5c11.333 0 23.5 2.16699 36.5 6.5s23.167 11.166 30.5 20.499c7.33301 -7.33301 16.666 -13.166 27.999 -17.499s22.333 -6.5 33 -6.5c5.33301 0 10.666 1.33301 16 4h-1
c10 3.33301 20.667 10.833 32 22.5s22 24.667 32 39s18.167 29.166 24.5 44.499s9.5 28 9.5 38c0 7.33301 -3 14 -9 20c4 1.33301 11 3.83301 21 7.5s20.167 8 30.5 13s19.333 10.333 27 16s11.5 11.5 11.5 17.5c0 2.66699 -0.666992 6 -2 10
c-3.33301 3.33301 -6.16602 6.5 -8.49902 9.5s-5.83301 4.5 -10.5 4.5c-2 0 -4.33301 -0.666992 -7 -2c-5.33301 -6 -12.333 -12.167 -21 -18.5s-18 -12 -28 -17s-20 -9.16699 -30 -12.5s-19.333 -5 -28 -5c2 2 3 4 3 6c0 4.66699 -4 7.5 -12 8.5s-13.667 1.5 -17 1.5
c-17.333 0 -32.333 -8.16699 -45 -24.5s-24.667 -35.166 -36 -56.499s-23 -42 -35 -62s-26.333 -33.667 -43 -41c-2 4 -3 8 -3 12c-1.33301 2.66699 -2 6.66699 -2 12c0 8.66699 1.16699 17.5 3.5 26.5s5 17.667 8 26l8.5 24.5c2.66699 8 4 15 4 21
c0 4 -1.66699 7.16699 -5 9.5s-7.33301 4.16602 -12 5.49902s-9.33398 2.33301 -14.001 3s-8.33398 1 -11.001 1c-2 0 -4.5 -0.166992 -7.5 -0.5s-5.16699 -1.5 -6.5 -3.5c-13.333 -8 -26.666 -18.5 -39.999 -31.5s-24.666 -25.167 -33.999 -36.5
c0 8 0.833008 16.167 2.5 24.5s2.5 16.5 2.5 24.5c0 10 -5.16699 19.333 -15.5 28s-20.166 13 -29.499 13c-8.66699 0 -17.334 -2.83301 -26.001 -8.5s-17 -12.334 -25 -20.001s-15.5 -15.5 -22.5 -23.5s-13.5 -14.667 -19.5 -20c0.666992 2 2 5.16699 4 9.5l6.5 14
c2.33301 5 4.83301 9.5 7.5 13.5s5 6.33301 7 7l1 5c-2 8 -7.5 13.333 -16.5 16s-17.167 4 -24.5 4c-2 0 -5.33301 -0.833008 -10 -2.5s-7.66699 -3.5 -9 -5.5l-27.5 -51c-11 -20 -23.5 -39.5 -37.5 -58.5s-29.333 -35.167 -46 -48.5s-34.667 -20 -54 -20
c-13.333 0 -22.333 6.33301 -27 19c8 2 18.667 7 32 15s26.666 17.5 39.999 28.5s24.833 22.667 34.5 35s14.5 23.5 14.5 33.5c0 6.66699 -2.16699 13 -6.5 19s-9.83301 11.167 -16.5 15.5s-13.667 7.66602 -21 9.99902s-14 3.5 -20 3.5c-15.333 0 -30.166 -4 -44.499 -12
s-27.166 -18.333 -38.499 -31s-20.333 -26.5 -27 -41.5s-10 -29.833 -10 -44.5c0 -26.667 8.83301 -47.167 26.5 -61.5s39.167 -21.5 64.5 -21.5c22.667 0 42.334 3.66699 59.001 11s32.667 18.666 48 33.999c5.33301 -7.33301 13 -13.666 23 -18.999s19.667 -8 29 -8
c8.66699 0 14.334 3.33301 17.001 10c4 10 10.167 21.667 18.5 35s17.666 26.666 27.999 39.999s20.833 26 31.5 38s20.667 22.333 30 31c-3.33301 -17.333 -8.33301 -35.333 -15 -54s-10 -36.667 -10 -54c0 -3.33301 1.5 -6.5 4.5 -9.5s6.66699 -5.5 11 -7.5
s8.83301 -3.66699 13.5 -5s8.33398 -2 11.001 -2h12.5c3 0 6.83301 1.66699 11.5 5c6.66699 13.333 15.667 26.5 27 39.5s22 24.5 32 34.5zM485.006 241.012c3.33301 4 5.66699 8.16797 7 12.501s2.66602 9.16602 3.99902 14.499v14l-59 1v-15
c0 -9.33301 3.66699 -18.333 11 -27h-67c3.33301 4.66699 5.66602 9.33398 6.99902 14.001s2.33301 9.33398 3 14.001v81h46v-20h59v34l-145 1v-55c0 -10.667 3.33301 -19.667 10 -27l-67 1c4 3.33301 6.5 7.5 7.5 12.5s2.16699 9.5 3.5 13.5l1 156
c-0.666992 4.66699 -1.83398 9.33398 -3.50098 14.001s-4.16699 9 -7.5 13h68c-4 -4 -6.66699 -8.5 -8 -13.5s-2.66602 -9.5 -3.99902 -13.5v-55h41v54c-0.666992 4.66699 -1.66699 9.16699 -3 13.5s-3.66602 9.16602 -6.99902 14.499l115 -1v14
c0 10 -3.66699 19.333 -11 28h67c-5.33301 -8.66699 -8.66602 -18 -9.99902 -28v-14h4c32 0 57 -11.667 75 -35c9.33301 -9.33301 15.833 -20.333 19.5 -33s5.5 -25.334 5.5 -38.001c0 -13.333 -2 -26 -6 -38s-10.667 -23 -20 -33
c-7.33301 -9.33301 -16.333 -16.833 -27 -22.5s-23 -8.83398 -37 -9.50098v47c15.333 2.66699 26.333 9.66699 33 21s10 23 10 35c0 13.333 -4 26.333 -12 39s-21.667 19 -41 19h-109v-33h59v19l46 -2l-2 -160c0 -9.33301 3.66699 -18.333 11 -27h-67zM2033.01 306.013
c-59.333 0 -121.335 -2.16992 -186.002 -6.50293s-129.834 -10.833 -195.501 -19.5s-130.334 -19 -194.001 -31s-124.167 -25.667 -181.5 -41c-5.33301 -1.33301 -13.166 -3.66602 -23.499 -6.99902s-21 -7 -32 -11s-21.167 -8 -30.5 -12s-15.666 -8 -18.999 -12
c-1.33301 -2 -2.33301 -5 -3 -9s-1 -7.33301 -1 -10c0 -7.33301 1.33301 -14.166 4 -20.499s7.66699 -10.833 15 -13.5c1.33301 0 5.83301 1.5 13.5 4.5l25.5 10.5c9.33301 4 18.333 7.66699 27 11l18 7l51.5 15.5c17 5 34.167 9.5 51.5 13.5
c53.333 12.667 108.833 24.334 166.5 35.001s115.834 19.834 174.501 27.501s117.167 13.667 175.5 18s114.833 6.5 169.5 6.5c4.66699 0 11.667 -0.166992 21 -0.5s19.166 -1 29.5 -2c10.333 -1 19.833 -2.5 28.5 -4.5s14.334 -4.66699 17.001 -8l1 -3l3 -3h4
c4 0 7.5 1.66699 10.5 5s4.5 7 4.5 11v11c0 4 -1 7.66699 -3 11c-3.33301 5.33301 -11.333 9.66602 -24 12.999s-26.667 6 -42 8s-30.333 3.5 -45 4.5s-25 1.5 -31 1.5zM1127 249.01c0 5.33301 0.668945 10.667 2.00195 16l4 16l40.5 145.5
c13.667 48.333 28.5 96.5 44.5 144.5c15.333 -0.666992 31.166 -2.5 47.499 -5.5s31.333 -8.33301 45 -16s25 -17.667 34 -30s13.5 -27.833 13.5 -46.5c0 -28.667 -7.33301 -55.334 -22 -80.001s-33.334 -46.667 -56.001 -66s-47.667 -35.666 -75 -48.999
s-53.333 -23 -78 -29zM1217.01 308.011c13.333 8.66699 27 18.667 41 30s26.667 23.833 38 37.5s20.5 28.334 27.5 44.001s10.5 32.167 10.5 49.5c0 7.33301 -0.5 13.5 -1.5 18.5s-2.83301 10.833 -5.5 17.5c-8 3.33301 -16 5.66602 -24 6.99902l-25 4
c-12 -34 -22.833 -68.333 -32.5 -103l-28.5 -104v-1zM2069.01 385.011c-2 0 -3.16602 1.33203 -3.49902 3.99902s-0.5 4.66699 -0.5 6c0 5.33301 1.66699 13 5 23s7.16602 20.333 11.5 31c4.33301 10.667 9.16602 20.834 14.5 30.501c5.33301 9.66699 10 17.5 14 23.5
c6 -0.666992 12 -0.333984 18 0.999023s12 2 18 2c2 0 3.66699 -1 5 -3c-1.33301 -5.33301 -5.33301 -14.5 -12 -27.5s-14.334 -26.167 -23 -39.5c-8.66699 -13.333 -17.334 -25.166 -26.001 -35.499s-15.667 -15.5 -21 -15.5zM580.008 133.01
c19.333 9.33301 33 5.00098 41 -12.999c7.33301 -16.667 2 -29.667 -16 -39c-20 -8.66699 -33.667 -4.33398 -41 12.999c-10 18 -4.66699 31 16 39zM251.008 555.011l-2 6.00098l-34 33h-5l21 22c14 15.333 27.667 16 41 2c13.333 -12.667 13.333 -26.334 0 -41.001z
M728.008 459.012l26.001 24l-26 -7l-4 -4l-4 20l1 -1c1.33301 -1.33301 2.66602 -2.33301 3.99902 -3l45 13l4 5l4 -19l-28 -27l38 -8l5 -20l-5 3l-46 -12l-4 -4l-6 21l6 -2l25 7l-33 6zM545.009 114.012l-17 -57l-11 -1l-13 27l-8 -30l-13 -2l-27 54l22 2l-3 -5l12 -29
l11 36l9 2l16 -34l8 31l-4 4zM271.009 651.012l29 20c12.667 6 21.667 5 27 -3c5.33301 -8.66699 5 -16 -1 -22l25 -11l-22 -13l1 6l-17 7l-6 -4l7 -13l6 -2l-19 -13l1 6l-27 41zM539.009 707.012l33 -11c14 -4 19.333 -11.667 16 -23c-3.33301 -8 -9 -12 -17 -12l7 -26
l-24 8l6 3l-7 19l-6 1l-6 -15l3 -5l-21 6l3 4l15 46zM620.009 154.012l27 21c12 10 21.333 10 28 0c6 -7.33301 6 -14.333 0 -21l26 -8l-19 -15v5l-18 6l-7 -6l11 -11h5l-18 -16v5l-30 39zM462.009 714.012l35 -1c13.333 -0.666992 20 -8 20 -22
c0 -13.333 -8 -19.333 -24 -18l-14 2l-1 -13l4 -4l-24 1l4 4l2 47zM162.009 517.012l9 16l42 9l-25 14l-5 -1l9 18l2 -6l46 -25l-6 -12l-43 -9l24 -15l6 1l-10 -16l-1 4l-43 22h-5zM327.009 143.012l30 -15c14 -6 18 -15.333 12 -28c-6 -10.667 -15.333 -13 -28 -7l-14 7
l-6 -13l2 -4l-21 10l5 1l20 44v5zM170.009 366.012h18l4 4v-24l-4 4l-48 -1l-4 -4v24l4 -4l17 1v27l-18 -1l-3 -3v24l3 -5l48 2l4 3v-23l-4 3h-17v-27zM363.009 698.012l19 6l42 -46l-23 -7l2 5l-3 5l-26 -9l-1 -6l3 -3l-19 -6l9 58zM740.009 567.012l10 -17l-33 -52l-13 19
h5l5 5l-16 22h-5l-3 -4l-10 16l57 7zM1402.01 258.012c15.333 3.33301 30.667 6.16992 46 8.50293s30.666 5.16602 45.999 8.49902c-10.667 5.33301 -17.667 10.5 -21 15.5s-8.66602 10.167 -15.999 15.5c-2 1.33301 -4 2.5 -6 3.5s-4 2.16699 -6 3.5
c-6 -10.667 -12.5 -20.334 -19.5 -29.001s-14.833 -17.334 -23.5 -26.001zM716.01 199.016v-7l11 -9l4 2l-13 -20l-2 5l-39 29h-4l14 17l1 -5l14 -10l-1 28h-6l16 22l3 -38l42 3l-16 -21l-2 5zM634.01 668.016l16 -11l-7 -62l-20 13l5 2l1 6l-22 14l-6 -2l1 -6l-17 10l49 31
v5zM795.01 386.016l-2 -19l-56 -25l1 23l4 -3l6 2l1 27l-6 3l-5 -3v20l52 -27zM391.01 117.016l52 -11l-4 -14l-2 3l-29 6l-1 -10l17 -4l5 3l-5 -18l-2 3l-18 5l-2 -10l28 -6l5 2l-4 -15l-50 10l3 4l10 47zM1556.01 476.016c0 -5.33301 -3 -11.834 -9 -19.501
s-13.167 -15.167 -21.5 -22.5s-16.833 -14.166 -25.5 -20.499s-15.334 -10.5 -20.001 -12.5c2.66699 5.33301 6.66699 12.833 12 22.5s11.333 19 18 28s13.5 16.833 20.5 23.5s13.5 10 19.5 10c2.66699 0 4.33398 -0.333008 5.00098 -1c0.666992 -1.33301 1 -4 1 -8z
M139.01 438.015l12 50l15 -2l-4 -5l-8 -27l12 -3l4 18l-3 5l18 -5l-5 -2l-3 -18l9 -3l7 28l-2 6l15 -5l-13 -50l-2 3l-47 12zM720.01 595.015l-12 -11l-1 5l-11 11l-27 -27v-6l-17 17l5 1l27 26l-10 11l-5 1l12 12zM253.01 202.015l-14 -9l1 6l-9 11l-33 -21v-4l-14 18h6
l31 21l-9 13l-5 3l14 8zM272.01 135.015l-10 -10v-6l-17 15l4 1l10 11l6 44l18 -16h-5l-4 -26l27 7l-1 6l14 -13zM578.01 101.015c6.66699 -10.667 14 -13.667 22 -9c7.33301 2.66699 9.33301 9.66699 6 21c-4.66699 10 -11.667 13 -21 9
c-8.66699 -3.33301 -11 -10.333 -7 -21zM1809.01 316.015c-8 6.66699 -13.333 13.667 -16 21l-14 5l-19 -27l-1 -4zM255.01 578.015l5.99805 5.99902c6.66699 6.66699 6.33398 14.334 -0.999023 23.001c-7.33301 7.33301 -14.666 7.33301 -21.999 0l-6 -6zM736.008 278.014
c-5.33301 6.66699 -5.33301 13.334 0 20.001c6.66699 6.66699 13.334 6.66699 20.001 0c8 -6.66699 8 -13.334 0 -20.001c-6.66699 -6.66699 -13.334 -6.66699 -20.001 0zM169.008 278.014c-6.66699 6.66699 -6.66699 13.334 0 20.001c2 3.33301 5.16699 5 9.5 5
s7.5 -1.66699 9.5 -5c6.66699 -6.66699 6.66699 -13.334 0 -20.001c-2 -3.33301 -5.16699 -5 -9.5 -5s-7.5 1.66699 -9.5 5zM480.008 702.014v-17l11 -1c5.33301 0 8 2.66699 8 8c1.33301 6.66699 -1 10 -7 10h-12zM339.008 125.014l-7 -16l10 -4c5.33301 -4 9 -3 11 3
c4 6 2.66699 9.66699 -4 11zM554.008 690.014l-4 -12.999l10 -4c6.66699 -2.66699 10.667 -1.33398 12 3.99902c0 4.66699 -2.33301 7.66699 -7 9zM294.008 652.015l7 -11l9 5c4 3.33301 5.33301 7 4 11c-2 4.66699 -6 5 -12 1zM642.008 156.015l10 -10l8 7
c4 2.66699 4.66699 6 2 10c-2 5.33301 -5.33301 5.33301 -10 0zM709.008 548.015l11 -18l11 19zM1928.01 324.015c-2.66699 2.66699 -4.33203 5.00098 -4.99902 7.00098l-1 1l-1 3l-6 2c-4.66699 -4.66699 -8.33398 -9.33398 -11.001 -14.001c4 0 8 0.166992 12 0.5
s8 0.5 12 0.5zM615.01 636.016l17 -9l2 21zM375.01 664.016l17 6l-15 15zM758.01 386.016v-17l20 8z" />
    <glyph glyph-name="acute" unicode="&#xb4;" horiz-adv-x="833" 
d="M155 412l62 80h75l-86 -80h-51z" />
    <glyph glyph-name="mu" unicode="&#xb5;" horiz-adv-x="343" 
d="M29 -65l-0.000976562 671.999h60v-470c0 -20 5.5 -36.5 16.5 -49.5s26.167 -19.5 45.5 -19.5c10 0 20 2.66699 30 8s19 12.333 27 21s14.5 18.834 19.5 30.501s7.5 23.5 7.5 35.5v444h60v-597c0 -21.333 2.66699 -37.833 8 -49.5s12.666 -18.167 21.999 -19.5l-18 -52
c-21.333 3.33301 -38.666 15.333 -51.999 36s-20 47 -20 79v39c-10 -13.333 -22.833 -22.5 -38.5 -27.5s-30.834 -7.5 -45.501 -7.5c-11.333 0 -22.166 1.5 -32.499 4.5s-20.166 7.16699 -29.499 12.5v-90h-60z" />
    </font>
</defs>
</svg>
