<?xml version="1.0" standalone="no"?>
<!DOCTYPE svg PUBLIC "-//W3C//DTD SVG 1.1//EN" "http://www.w3.org/Graphics/SVG/1.1/DTD/svg11.dtd" >
<svg>
<metadata>
Created by FontForge 20090914 at Thu May  7 09:42:08 2020
 By www-data
ZOMBIES REBORN Typeline Studio 2020. All Rights Reserved
</metadata>
<defs>
<font id="ZOMBIESREBORN" horiz-adv-x="1000" >
  <font-face 
    font-family="ZOMBIES REBORN"
    font-weight="400"
    font-stretch="normal"
    units-per-em="1000"
    panose-1="2 0 5 0 0 0 0 0 0 0"
    ascent="750"
    descent="-250"
    x-height="450"
    cap-height="475"
    bbox="-136 -96 435 750.353"
    underline-thickness="50"
    underline-position="-50"
    unicode-range="U+001D-U+201E"
  />
<missing-glyph horiz-adv-x="500" 
 />
    <glyph glyph-name=".notdef" horiz-adv-x="500" 
 />
    <glyph glyph-name=".null" horiz-adv-x="0" 
 />
    <glyph glyph-name=".null" horiz-adv-x="0" 
 />
    <glyph glyph-name="space" unicode=" " horiz-adv-x="400" 
 />
    <glyph glyph-name="space" unicode="&#xa0;" horiz-adv-x="400" 
 />
    <glyph glyph-name="exclam" unicode="!" horiz-adv-x="224" 
d="M56 236c11 23 16 77 24 106c19 62 12 9 15 74c0 10 2 18 2 30c-3 -13 -6 -33 -10 -44c-17 -45 -15 -58 -28 -103c-8 -27 -2 -36 -3 -63zM116 554c13 -22 -7 -16 5 -56c11 -35 19 -27 26 -45c9 -23 -7 -98 -14 -123c-20 -7 -23 11 -33 -29c13 -5 17 2 23 1
c-3 -47 -9 -72 -21 -117c-13 -48 -11 -72 -18 -119c-19 12 -30 32 -49 45c5 22 7 12 9 39c2 18 3 36 2 55l-15 1c8 25 17 69 21 94c1 5 3 20 4 23c9 25 16 11 15 58c-1 51 32 82 30 131c0 20 1 29 15 42zM4 36c-3 58 93 10 83 -37c-10 -43 -79 -27 -83 37zM48 492
c0 4 7 8 5 0c-2 -7 -5 -4 -5 0z" />
    <glyph glyph-name="quotedbl" unicode="&#x22;" horiz-adv-x="270" 
d="M212 581c6 -19 12 -39 19 -58c2 -7 8 -19 0 -11c-12 12 -10 -12 -8 -16c2 -8 -11 0 -11 -25c0 -18 7 -23 0 -13c-8 14 -20 -15 -22 -21c-5 -15 5 -20 -3 -4c-11 -14 -4 -17 -4 -13c0 15 -27 -9 -37 -1c-5 4 8 2 17 10c16 13 21 22 -3 26c11 5 24 9 29 21
c10 22 -3 17 -4 18c-1 0 1 33 -11 -11c9 13 1 25 -6 37c-12 18 -18 13 -14 13c11 2 -9 43 42 44c-1 1 -9 14 -5 9c26 -34 17 -4 21 -5zM205 528c0 0 2 -10 2 -17c0 -8 1 -19 1 -19s5 18 -3 36zM210 561c0 0 4 -10 6 -13c2 -4 2 -9 2 -9v-11s3 4 2 6c0 1 -3 20 -10 27z
M213 510c0 0 3 24 -1 34c-4 11 -11 26 -17 24s2 -12 2 -12l-3 -6s1 -3 3 -3c2 -1 11 -4 11 -4l-3 -11l4 -2zM97 579c7 -19 12 -38 19 -57c2 -7 8 -20 0 -12c-12 13 -9 -11 -8 -16c3 -7 -11 1 -11 -25c0 -18 7 -23 0 -12c-8 13 -20 -16 -22 -21c-5 -16 5 -21 -3 -5
c-11 -13 -4 -17 -4 -12c1 15 -27 -9 -37 -1c-5 3 8 2 17 9c16 14 21 23 -2 26c10 6 23 10 29 22c9 21 -4 17 -4 17c-2 1 0 33 -12 -10c9 13 2 24 -6 36c-12 19 -18 14 -13 14c10 1 -9 43 41 43c-1 2 -9 15 -4 9c26 -34 16 -4 20 -5zM90 527c0 0 2 -10 2 -18
c1 -7 1 -18 1 -18s5 17 -3 36zM95 560c0 0 4 -10 6 -14s2 -8 2 -8v-12s3 5 3 6s-4 21 -11 28zM98 508c0 0 4 25 -1 35c-4 10 -11 26 -17 23c-6 -2 3 -11 3 -11l-4 -6s1 -3 4 -4c2 -1 10 -3 10 -3l-3 -11l4 -3z" />
    <glyph glyph-name="numbersign" unicode="#" horiz-adv-x="411" 
d="M104 89l8 77c-19 -19 -19 -54 -8 -77zM342 172c-12 5 -13 7 -24 -1c14 -6 13 -5 24 1zM166 269l-12 -53l65 -4c4 12 5 18 6 30c2 22 4 12 -4 21zM166 320c67 -9 52 -13 76 5c11 8 2 -10 11 13c3 11 3 18 6 26c13 28 4 2 16 15c16 16 -9 96 36 75c7 -27 -11 -16 -11 -65
c0 -26 -7 -50 -6 -83c27 0 22 11 42 -5c30 -24 20 -6 44 -20c-7 -8 18 -13 -45 -3c-15 2 -28 1 -43 0l-20 -68c33 6 39 4 53 -13c12 -16 -13 -5 21 -17c11 -4 23 -5 33 -9c-8 -10 -11 -9 -19 -21c-30 7 -69 18 -96 15c-5 -18 -14 -49 -17 -65c-5 -26 6 -60 -17 -68
c-8 12 7 104 -1 122l-13 -39c-13 16 0 20 2 57l-64 -6c-9 -33 -15 -48 -18 -82c-1 0 -3 3 -4 2c-4 -12 -5 3 -6 3c-24 11 14 5 -5 2c-8 -34 5 -57 -22 -70c-15 14 -7 40 -1 58c-7 36 -9 -25 -13 31c-1 14 2 37 3 52l-37 -5c-15 3 -4 -1 -11 4l30 9c-22 1 -23 3 -41 7
c-26 5 -11 -13 -40 5c4 20 12 17 40 19c20 1 43 4 65 5c3 33 15 38 8 77c-20 1 -28 -4 -47 3c-51 18 -36 8 -44 23c33 9 70 -2 100 13c3 30 -2 58 3 94c26 -13 7 -13 13 -46c5 7 7 19 11 28c16 29 5 -6 15 18c13 27 -3 49 22 72c20 -26 0 -5 7 -63c2 -11 0 -7 0 -20
c-3 -76 -18 -58 -16 -85zM216 -15c1 19 -2 9 13 13c-3 -18 7 -12 -13 -13zM212 79c0 9 11 10 9 1c-4 -12 -9 -1 -9 -1zM251 410c0 10 10 9 8 1c-3 -11 -8 -3 -8 -1z" />
    <glyph glyph-name="dollar" unicode="$" horiz-adv-x="420" 
d="M215 185c-14 8 -36 25 -56 27c8 -10 12 -10 27 -17c10 -4 18 -9 29 -10zM85 242l-1 -3c0 -1 1 4 1 3zM115 277l-5 30zM297 311c-28 -3 -8 -4 -15 -10c17 -8 12 -6 15 10zM74 311c1 1 42 65 42 66c-26 -8 -10 -5 -28 -25c-15 -19 -16 -11 -14 -41zM304 459
c5 -19 8 -20 24 -28c-6 17 -8 20 -24 28zM280 49c-10 24 10 6 -3 30c-18 -44 -44 -48 -87 -63c-5 -34 -5 -62 -45 -51l10 50c-58 -21 -147 96 -125 138l17 -53c5 7 -2 42 -1 57c0 15 0 16 -2 28c-2 15 -10 11 10 18c10 -24 7 -51 20 -85c9 -24 0 -10 15 -25
c23 -24 11 -25 27 -42s33 -11 46 1c-4 41 -13 -32 -2 49l16 -8l5 25c19 -5 18 -5 28 -16l-14 -39c35 -10 34 27 34 50c-1 71 -22 28 -102 78l-51 37c-4 7 2 21 3 24l-11 58c-7 12 -1 -10 -9 12c0 20 62 84 82 101c23 18 21 9 45 19c17 40 -2 53 2 84c22 -9 -1 -6 25 -12
c7 29 2 17 17 39c10 15 11 31 22 36c21 -13 5 -39 0 -63c-4 -19 -15 -58 -13 -73c30 21 10 2 48 2c8 16 -4 13 6 28c22 -11 15 -5 26 -25c17 -30 8 -5 25 -25c-5 -54 9 -57 -19 -125c-8 -18 -24 -18 -43 -21l-13 23c-20 -2 -19 -6 -31 2c35 21 23 16 44 50
c13 22 30 43 23 66c-13 9 -35 7 -49 0c-19 -10 -23 -31 -40 -65c-4 -10 -6 -19 -10 -30c-8 -21 -8 -47 -29 -43c-4 24 16 68 11 89c-22 -29 -19 1 -55 -52c-17 -24 3 -2 -18 -11c3 -17 2 -4 4 -13l14 -50c-20 11 -2 6 -19 13c0 -19 13 -40 30 -48c27 -14 6 14 56 -9
c89 -41 56 -57 83 -82c9 22 -6 12 -1 29c11 -4 9 5 13 -20c3 -18 1 -19 -3 -34c-12 -41 2 -23 -12 -53zM170 483l-13 -11c2 11 -1 9 13 11z" />
    <glyph glyph-name="percent" unicode="%" horiz-adv-x="268" 
d="M178 505l-1 16c-4 -7 -5 -6 1 -16zM135 243c-17 -33 -30 -179 -33 -229c-1 -28 1 -56 -30 -51c-5 28 12 121 10 131c-5 22 -9 4 -10 23c0 4 4 23 4 33c-2 29 -6 17 -8 28c0 6 3 17 3 26c-1 29 -10 14 0 57c8 36 16 23 21 57c5 32 14 98 29 124c14 -19 -11 -26 2 -51
c19 13 17 46 22 69c7 33 7 16 14 34c6 18 -3 23 8 41c41 -14 11 -55 1 -88c-7 -21 -5 -37 -8 -58c-8 -38 -20 -12 -15 -50c16 15 3 6 14 23l2 -28c-24 -9 -5 5 -21 -4c-2 -44 4 -47 -1 -67c0 0 2 1 2 0c4 -11 -8 3 13 -3c0 0 2 -1 3 -1c-13 -19 -5 -14 -10 -35
c-17 3 -3 -3 -12 19zM192 109l-36 -9c2 -25 0 -48 30 -51c13 16 17 45 6 60zM132 124c64 34 119 -34 93 -81c-16 -30 -48 -19 -70 -2c-19 16 -24 60 -23 83zM16 329l20 6c1 12 4 21 -5 32c-11 13 -1 2 -10 7c-9 4 -3 0 -13 3c12 -28 -7 -23 8 -48zM42 395
c41 -52 5 -123 -31 -86c-35 35 -44 110 31 86zM58 42c-3 21 -3 36 10 54c3 -15 3 -17 1 -33c-4 -21 -10 -18 -11 -21z" />
    <glyph glyph-name="ampersand" unicode="&#x26;" horiz-adv-x="343" 
d="M158 22c11 3 13 -4 7 9zM259 80c6 6 -4 26 -2 9c0 0 -6 -16 2 -9zM85 416c-1 -3 5 -9 6 4c1 22 -6 -2 -6 -4zM108 284c-2 19 -51 17 -39 69c6 -23 -3 -23 18 -41l-14 73c-5 37 26 49 11 69l18 -6c27 27 0 16 39 34c21 11 27 23 44 14c-22 -13 -33 -7 -43 -28
c18 3 41 11 54 16c3 16 4 24 6 38c2 17 -4 15 17 23c20 -23 3 -14 13 -38c21 19 5 13 21 31c13 -22 -5 -9 -16 -71c27 -29 50 -53 47 -100c-1 -29 -13 -32 -21 -56c-9 -27 -1 -47 -25 -61c-11 14 -5 43 3 60c-16 13 -8 -2 -21 20c16 27 35 50 -2 76c-19 -22 -1 -26 -27 -41
c-16 31 1 30 -7 56c-50 7 -49 -42 -35 -77c16 -36 37 -56 57 -83c-62 -61 -36 -12 -62 -49l-19 11c-36 -44 11 2 -24 -42c-12 -15 -10 -20 -18 -33c0 0 -53 -43 15 -67l24 50l19 -15c15 16 -3 11 21 12c-19 -33 1 -15 -27 -36c18 -21 6 -7 13 -30c50 18 65 45 90 92
c-10 15 -30 17 -13 30c14 10 28 -3 41 -7c8 -33 10 -36 -6 -73c1 0 3 0 3 -1c3 -16 -1 6 15 -4c-25 -33 -15 -3 -38 -33c-10 -11 -1 -4 -14 -15c-54 -49 -27 -26 -66 -43c-34 16 5 8 -20 17c-48 -33 -6 -61 -46 -83c-19 26 15 30 -15 83c-56 98 -76 46 -54 143
c8 36 -21 0 53 91c-20 -2 -8 -1 -25 -14c13 43 29 22 55 39zM141 -30c-6 10 -18 6 2 17c7 -17 8 -4 -2 -17zM68 482c1 7 8 6 6 0c-3 -10 -6 -1 -6 0z" />
    <glyph glyph-name="quotesingle" unicode="'" horiz-adv-x="232" 
d="M130 581c6 -19 12 -39 19 -58c2 -7 8 -19 0 -11c-12 12 -10 -12 -8 -16c2 -8 -11 0 -11 -25c0 -18 7 -23 0 -13c-8 14 -20 -15 -22 -21c-5 -15 5 -20 -3 -4c-11 -14 -4 -17 -4 -13c0 15 -27 -9 -37 -1c-5 4 8 2 17 10c16 13 21 22 -3 26c11 5 24 9 29 21
c10 22 -3 17 -4 18c-1 0 1 33 -11 -11c9 13 1 25 -6 37c-12 18 -18 13 -14 13c11 2 -9 43 42 44c-1 1 -9 14 -5 9c26 -34 17 -4 21 -5zM123 528c0 0 2 -10 2 -17c0 -8 1 -19 1 -19s5 18 -3 36zM128 561c0 0 4 -10 6 -13c2 -4 2 -9 2 -9v-11s3 4 2 6c0 1 -3 20 -10 27z
M131 510c0 0 3 24 -1 34c-4 11 -11 26 -17 24s2 -12 2 -12l-3 -6s1 -3 3 -3c2 -1 11 -4 11 -4l-3 -11l4 -2z" />
    <glyph glyph-name="parenleft" unicode="(" horiz-adv-x="292" 
d="M67 61l17 -23c-1 36 -11 14 -26 42c-65 127 -44 294 33 388c11 14 13 6 18 19s-7 5 13 25c16 16 11 11 35 12c29 -25 6 -32 47 -27c7 -22 6 -38 -14 -40c-22 -2 -14 -3 -52 -31c-53 -40 -76 -183 -71 -208c14 -79 21 -183 82 -191c-13 -28 5 -6 -9 -31
c-30 15 -65 29 -73 65zM174 -28c-5 11 -8 10 0 25c12 -17 7 -15 0 -25zM142 401c0 4 10 10 7 0c-3 -8 -8 -11 -7 0z" />
    <glyph glyph-name="parenright" unicode=")" 
d="M146 60c2 7 -4 5 -5 -3c-3 -11 3 -4 5 3zM164 91c10 8 5 15 1 13c-2 -1 -12 -22 -1 -13zM219 201l-1 38c-4 -9 -3 1 -4 -17c0 -22 5 -21 5 -21zM156 448l-4 18zM170 103l26 41c-5 -27 -22 -51 -35 -75c-16 -27 -15 -55 -44 -66c-15 13 -12 15 -7 30c-29 2 -17 1 -27 16
l-61 -25c29 64 69 33 111 117c17 35 30 113 36 129c10 28 8 4 11 51c-21 5 18 2 -5 -1c-21 -3 16 -8 -7 0c1 55 7 60 -19 115c-5 9 -19 44 -23 48c-13 18 -31 11 -50 26c17 5 1 7 30 0l7 -3c21 -10 -17 17 6 -7c5 -5 14 -5 24 -15c14 -11 11 -18 25 -29c-9 62 -43 57 -64 90
c78 -19 111 -183 118 -257c3 -36 11 -18 5 -58c-3 -20 -9 -35 -11 -54c-4 19 4 9 -7 25c-9 -38 -29 -60 -39 -98zM76 19c0 -22 3 -16 -9 -23c-5 11 -1 13 9 23z" />
    <glyph glyph-name="asterisk" unicode="*" horiz-adv-x="321" 
d="M174 458l10 -15zM97 537v1s-5 -8 2 -2c0 1 -2 2 -2 1zM169 446l-16 -40c-18 -6 4 9 -11 1c-5 -2 -4 -2 -8 -14c-5 25 3 44 6 69c-29 -8 -53 -41 -82 -39c51 33 14 29 64 78l-49 46c20 15 33 -6 53 -12c23 36 -7 49 11 77c16 -24 -3 -11 18 -49c11 -21 4 -15 10 -31
c14 7 67 41 83 44c1 -37 -44 -33 -61 -84c29 -55 34 -30 41 -30c-11 -26 1 -19 1 -42v-5c-19 19 -4 12 -27 19c-9 2 -29 4 -33 12zM270 588c-12 2 -5 -6 -6 10z" />
    <glyph glyph-name="plus" unicode="+" horiz-adv-x="332" 
d="M131 330c18 -7 5 -8 13 -30l12 30l32 1c-3 -30 -10 -47 -6 -81l61 2c12 -20 -1 -12 11 -23l24 -11c-27 -14 -13 -3 -20 -20l-83 -1c-2 -42 -3 -72 -41 -92c-14 14 -6 9 -23 24l7 70l-88 10l-11 33c34 5 85 -5 108 18c-5 20 -1 5 -9 6l1 27c10 2 0 -5 14 5zM70 272
c0 4 10 11 7 -1c-3 -10 -7 -9 -7 1z" />
    <glyph glyph-name="comma" unicode="," horiz-adv-x="196" 
d="M21 57l36 15c0 25 -10 67 17 73c61 14 44 -73 1 -89c-3 -1 -14 -2 -18 -3c-29 -8 -28 -24 -36 4z" />
    <glyph glyph-name="hyphen" unicode="-" 
d="M150 238c34 0 65 -2 99 -2c22 -33 20 -20 28 -31c9 -11 7 5 3 -10c-9 -3 -229 -9 -247 -7c3 7 2 9 13 15l25 9c1 0 3 1 4 2l-18 17c20 15 64 8 93 7zM10 213c11 9 3 8 16 1c-13 -8 0 -10 -16 -1z" />
    <glyph glyph-name="hyphen" unicode="&#xad;" 
d="M150 238c34 0 65 -2 99 -2c22 -33 20 -20 28 -31c9 -11 7 5 3 -10c-9 -3 -229 -9 -247 -7c3 7 2 9 13 15l25 9c1 0 3 1 4 2l-18 17c20 15 64 8 93 7zM10 213c11 9 3 8 16 1c-13 -8 0 -10 -16 -1z" />
    <glyph glyph-name="period" unicode="." horiz-adv-x="227" 
d="M64 94l-13 12c4 -21 5 -7 13 -12zM29 119c5 22 7 25 27 36l40 -17c-6 -17 0 -14 0 -35l-36 -20c-18 14 -21 13 -31 36z" />
    <glyph glyph-name="slash" unicode="/" 
 />
    <glyph glyph-name="zero" unicode="0" horiz-adv-x="224" 
d="M88 193l-4 27c-15 -37 -20 -29 -9 -60c10 -26 0 -42 -1 -69c27 -3 16 -9 37 14c-8 26 -16 17 -18 55c9 -25 2 -30 26 -43l18 122c1 32 -1 85 -16 115c-41 -31 -29 -115 -33 -161zM93 161l-3 21zM181 381c2 -6 4 -15 5 -24c5 -28 0 -9 -1 -29c-2 -21 9 -36 8 -70
c-1 -26 4 -90 -1 -107c-5 -19 -3 -7 -14 -4l-39 -76c26 7 18 15 32 9c8 -29 -51 -54 -73 -69c-18 -12 -22 -6 -44 -8c-8 -40 13 -58 -17 -70c-6 13 -3 37 0 55c10 70 -16 -1 -27 144c-4 45 -22 184 22 207c10 -24 2 -1 -18 -57c-9 -26 -17 -39 1 -63c8 15 5 44 14 58
c17 31 25 34 25 74c0 33 8 27 28 56c22 33 31 30 72 19c19 -40 2 -45 17 -77c8 9 2 12 10 32zM57 397c-11 19 18 37 35 45c-9 -17 -21 -21 -35 -45zM2 90c-13 13 -10 20 -3 34c6 -22 13 -20 3 -34zM197 410l-13 -2c1 3 -2 14 13 2z" />
    <glyph glyph-name="one" unicode="1" horiz-adv-x="196" 
d="M88 -27l-2 2l2 -1v-1zM72 147c27 19 -14 23 11 60l1 -36c10 19 28 72 26 95l-3 8s0 2 -1 3l-15 -41c0 52 18 94 27 142c-36 -18 -50 -49 -94 -71l-6 -36c-13 -2 8 -3 -6 1h-2l-1 1c8 -21 0 -10 -1 -33c73 -57 37 -49 64 -93zM-16 314c45 28 -6 11 26 38
c26 22 59 23 82 63c20 32 6 20 34 46l22 -10v16c18 -11 9 -17 30 -10c26 9 0 10 26 25c-7 -30 -18 -43 -25 -78c-4 -27 -6 -50 -13 -81c-5 -20 -22 -70 -21 -84c1 -39 13 9 6 -37c-3 -18 -9 -25 -10 -44l3 58c-17 -16 -24 -118 -28 -139c-4 -27 -16 -43 -20 -64
c-5 -29 14 -49 -7 -67c-34 28 13 32 -41 79c2 18 5 27 8 43c9 40 -3 12 -4 37c-2 32 33 17 6 78c-32 72 -69 25 -65 94c1 11 2 10 -1 19c0 1 0 3 -1 4l-5 10c0 1 -1 3 -2 4zM-33 289c-14 -11 -5 -6 -12 -2z" />
    <glyph glyph-name="two" unicode="2" horiz-adv-x="219" 
d="M202 50l-19 -11zM75 219l14 18c-4 -22 -14 -30 -14 -54c32 13 24 40 58 106c8 15 4 39 4 58c-1 32 8 33 -15 58c-44 -28 -22 -10 -34 -9c-13 2 -25 -13 -25 -25c1 -15 3 -1 6 -12c3 -16 -19 -34 -48 -40c2 -24 -6 -45 9 -59c22 -21 19 -3 45 -41zM15 88l8 -21
c21 54 46 37 49 110c1 27 4 50 -21 67c-20 13 -34 23 -50 33c7 43 0 17 -5 61c-7 58 37 60 54 73c21 15 22 42 68 64c33 -18 67 -84 69 -94c7 -39 11 -44 5 -64c-5 -18 -18 -47 -21 -63c-7 -42 -5 -51 -30 -91c-3 -4 -72 -92 -75 -130c27 -5 9 2 33 5c16 2 22 -3 38 -4
l42 12c19 12 7 16 29 13c15 -23 4 -21 8 -34l37 -8c-16 -18 -16 -22 -41 -14c1 -16 6 -16 -8 -27c-28 19 39 35 -156 10c-14 -19 -10 -60 -18 -67c5 14 10 52 5 64c-27 -11 2 -21 -20 -45c-14 17 -3 14 -6 35c-3 24 -6 12 -15 33c-13 29 7 34 25 53c-5 18 -23 3 -4 29z
M192 410c-8 23 -29 41 -6 47c13 -19 10 -26 6 -47zM243 44c10 -16 7 -2 -1 -17c-7 13 -8 -11 -3 9c7 31 -12 -15 4 8z" />
    <glyph glyph-name="three" unicode="3" horiz-adv-x="219" 
d="M73 34c0 0 15 2 0 2c-16 1 -1 -5 0 -2zM177 127c0 -1 2 -1 2 -2v-1s4 10 -2 3zM177 153c-1 14 -1 15 -20 32c-1 1 -3 2 -3 3c7 -21 6 -23 23 -35zM124 296l13 34c11 -15 -6 -20 -9 -42c23 11 23 40 24 69c1 32 -13 48 -36 50v-13c-50 20 -68 -38 -68 -42l1 -2
c0 -1 1 -2 1 -2c15 -44 -50 -18 34 -82c23 -17 -2 -3 22 -8c7 28 9 17 5 33c0 1 -11 -8 0 12c14 1 -17 9 4 -3c12 -7 -4 -5 9 -4zM118 279c-3 -5 -4 -7 -6 -12c13 8 11 7 14 20c-4 -3 -2 0 -8 -8zM78 455l2 -1v-1s5 9 -2 2zM146 -25l-3 -39c-8 14 -8 45 -13 66l-20 8
c-12 -13 -14 -10 -17 -30c-10 15 -20 -1 -43 -10c-56 -21 -13 -9 -40 -35c-11 22 6 49 -8 75c-6 13 -49 56 -62 60c17 14 5 1 27 1c11 18 2 14 17 30c17 -19 -9 -35 32 -57c28 -14 42 -7 70 -5c6 20 -5 3 3 18c9 17 26 6 42 50c13 35 -20 67 -41 91c-42 -12 -29 -36 -35 -75
c-20 11 -8 -1 -12 15v11c0 27 6 37 0 64l48 25c-5 29 -33 45 -56 54l-19 -31c-9 13 5 37 3 58c-2 24 -21 32 -18 49c8 45 46 52 74 75c0 19 -6 7 2 36l6 -17c4 -12 4 -3 8 -20c12 18 4 8 28 7c17 0 28 -3 41 -9c26 -10 32 -27 36 -55c3 -21 -3 -14 -1 -38
c2 -25 2 -39 -17 -77l-18 -36c-21 -52 9 -34 22 -66c8 -20 1 -21 1 -37l-4 -41c-11 -63 -28 -35 -33 -115zM-15 110c-14 8 -12 10 -4 26c9 -11 13 -14 4 -26zM16 442l13 -9c-24 1 -12 5 -13 9z" />
    <glyph glyph-name="four" unicode="4" horiz-adv-x="233" 
d="M141 300c-11 -15 -9 6 -5 -23c2 3 5 2 5 23zM188 300c-7 -23 1 4 0 0zM100 424c0 -5 9 -4 3 0c0 0 -4 13 -3 0zM42 177l80 13c3 23 7 47 11 69c4 23 1 9 -1 34c-2 17 -3 26 2 37c21 -12 4 2 15 -23c10 15 8 20 16 30c15 18 14 4 22 25c9 23 -1 48 24 61
c11 -36 -19 -56 -17 -126c2 -47 -25 -71 -15 -97v-11s-1 -1 -1 -2l28 -5c-18 -13 -6 3 -10 -17l-31 -6c-6 -35 -11 -84 -24 -113c15 -4 -14 0 5 2c9 0 2 3 12 -1l-18 -61c-15 21 7 12 -12 35l-7 -28c-17 2 1 6 -14 2c-7 -19 -9 -21 9 -30c-28 -4 -12 -6 -25 -27
c-28 38 -9 48 -1 93c7 37 12 77 20 112c-38 -7 -48 -10 -85 -21c-5 20 10 -3 2 18c-13 0 -25 -1 -36 4c-16 8 1 4 15 12l-23 13c15 35 23 43 36 68c-25 7 6 -12 -22 -3c7 13 23 36 32 51c53 84 30 64 49 109c8 20 17 52 25 65c4 -10 10 -8 2 -23l19 24
c17 -39 -23 -73 5 -126c-29 10 -13 13 -19 35l-36 -91c-14 -38 -22 -62 -32 -101zM-22 177c-1 21 -4 8 6 22c2 -5 9 -16 -6 -22zM162 378c8 -15 8 3 1 -18c-8 11 -13 -3 -1 18z" />
    <glyph glyph-name="five" unicode="5" horiz-adv-x="238" 
d="M188 120l-7 -18c16 3 19 -1 7 18zM224 408c-14 -10 -11 -3 -10 -12c14 0 8 -1 10 12zM26 145c-18 6 -25 2 -35 9c11 11 15 7 27 19l-1 41c-17 9 -8 3 -17 5l17 55c0 15 1 -1 -8 2l7 56c21 -7 -8 -15 16 -8l11 43l-27 26c-24 -1 -35 -6 -52 -8c3 16 107 43 128 48
c16 4 72 5 91 4c66 -3 19 -10 74 9c-13 -44 -16 20 -12 -32c4 -59 -43 -24 -47 -23c-31 9 -19 -1 -29 -2s-46 16 -59 -6l-2 -5c-10 -19 -25 -48 -28 -70c-5 -42 -12 -64 -21 -104c13 6 24 18 38 26c20 10 36 9 48 21c-22 22 -43 51 -47 83c11 -27 18 -42 37 -66
c44 -56 25 -46 51 -41c13 -64 38 -88 -2 -155c-12 -21 -25 -43 -36 -52c-27 -25 -51 -21 -64 -35c-13 -36 12 -44 -22 -56c-16 28 11 16 3 41c-4 11 -69 40 -84 97c23 -6 58 -50 71 -51c31 11 73 57 83 87c15 42 48 89 -17 115c-25 -11 -31 -19 -42 -43c26 -2 31 -1 55 -1
c-1 0 -55 -6 -57 -6c-21 -4 -30 -16 -43 -32c-3 -7 11 -43 1 -70l-11 -14c4 20 11 23 10 47c-2 26 -7 13 -5 46zM106 256h17h-17zM121 479l-6 -13c-11 16 -8 13 6 13zM189 464h14h-14zM26 430l-4 13c14 -14 9 -3 4 -13z" />
    <glyph glyph-name="six" unicode="6" horiz-adv-x="219" 
d="M96 23c7 28 2 57 -2 86c-5 35 1 59 -31 75c-5 -17 -16 -80 -17 -97c-1 -22 24 -66 50 -64zM50 42c-7 13 -12 19 -24 24c19 -20 -1 -16 24 -24zM95 142c10 -62 7 -29 7 -99c24 20 63 164 -28 175c-5 -48 12 -22 21 -76zM133 231l-3 -2c1 -1 3 3 3 2zM126 429
c0 0 11 11 1 5c-2 -1 -7 -15 -1 -5zM-10 160c13 20 24 57 23 79c-2 31 -5 13 12 36c23 33 -8 2 9 38c20 41 58 111 97 134l3 -5c7 -14 14 -12 -11 -43c20 11 40 38 62 40c0 -37 -25 -35 -42 -63c-26 -44 -17 -36 -1 -75l-26 40c-8 -31 -36 -68 -37 -98c22 -4 18 0 31 -1
c12 0 14 -4 24 -5l5 50c10 -25 -4 -55 8 -73c24 -2 -12 4 17 15c11 -8 19 -54 20 -65c1 -14 -6 -20 -6 -33c-1 -28 9 -13 0 -39c-3 -10 -29 -72 -33 -79c-8 -14 -17 -18 -21 -37c-6 -26 9 -29 -14 -46c-37 18 24 35 -22 49l-44 7c-21 6 -21 23 -30 41c-8 19 -29 104 -27 121
c14 -12 5 -8 12 -26l3 34c-14 3 3 -12 -12 4zM135 468c5 22 0 17 15 15c0 -17 1 -14 -15 -15zM80 -35l-9 -16c-1 14 -3 13 9 16z" />
    <glyph glyph-name="seven" unicode="7" horiz-adv-x="219" 
d="M18 366c-1 -4 10 -9 7 0c-2 8 -7 12 -7 0zM-3 378c8 5 8 10 1 3c-1 -1 -8 -7 -1 -3zM169 420c-15 8 -3 7 -27 4c17 -10 12 -10 27 -4zM35 334l-27 -2l16 18c-18 18 -13 15 -34 25l-11 -18c-11 20 -1 12 -10 32l-40 5c6 7 -6 3 14 9c8 3 12 2 21 5c21 7 7 9 32 14
c60 14 203 26 254 -9c-14 -19 -31 -2 -45 -29c-10 -18 -7 -52 -12 -75c-15 -70 -36 -114 -51 -193c-4 -23 -15 -42 -20 -63c-4 -15 -32 -127 -35 -130c-39 5 9 102 10 130c-32 -5 -24 -13 -39 -36c-28 20 9 66 20 133c3 19 -9 27 10 45c12 11 7 -1 15 12c10 17 -1 -5 1 5
l31 105c17 35 3 12 6 50c13 -19 -1 -10 8 -30c14 23 11 20 11 49c-22 -1 -36 -2 -57 -9c-42 -13 -24 1 -55 -2l-19 -26c5 -11 12 -17 19 -32c12 -26 6 -17 28 -34c-33 14 -21 23 -41 51zM54 -39c4 14 0 9 14 15c-2 -26 1 -13 -14 -15zM49 -10c0 6 8 9 6 1c-3 -9 -6 -4 -6 -1
z" />
    <glyph glyph-name="eight" unicode="8" horiz-adv-x="219" 
d="M76 132l20 16c-9 -29 -23 -26 11 -57c-18 9 -26 22 -31 41zM93 175c-19 -24 -28 -49 -21 -82c8 -42 -11 -47 13 -82c30 15 24 6 41 31c36 55 18 29 -2 91c-8 25 -4 27 -31 42zM92 309l-9 -29c5 -13 8 -4 16 -20c13 -25 2 -2 -3 -23c19 3 33 -22 53 49c7 22 -4 32 -4 54
c0 26 14 31 7 61c-22 3 -44 -9 -33 -35l-19 -11l12 35c-39 -13 -11 -23 -20 -81zM212 328v-1s7 -6 1 3c0 1 -1 -1 -1 -2zM186 68c-17 -72 -15 -45 -56 -93c-25 1 -9 9 -36 0c5 -11 5 5 9 -10c-39 -11 -5 14 -41 29c-2 -21 6 -53 -21 -55c-13 21 1 38 0 61
c-2 47 -22 14 -28 15c-10 20 24 12 -17 114c12 22 47 66 69 80l-10 48c-16 5 -27 -2 -21 26c6 30 -5 26 -4 57c1 18 10 37 13 54c3 24 -20 11 3 40l1 -19c15 7 28 24 44 26c20 3 7 -1 20 -6c23 -8 1 0 26 -2c14 -1 63 -44 77 -56l-3 -29l13 1c-3 -35 -10 -14 -14 -53
c-6 -74 -22 -42 -56 -82c-40 -49 10 -59 25 -91c12 -27 15 -20 7 -55zM121 450c3 10 7 19 22 15c0 -15 -10 -15 -22 -15z" />
    <glyph glyph-name="nine" unicode="9" horiz-adv-x="238" 
d="M140 395c-6 -7 -44 -86 -45 -93c-10 -51 33 -122 64 -81c19 25 18 47 8 73c-14 41 14 62 -27 101zM174 419c5 -1 17 1 3 3c-6 1 -13 -2 -3 -3zM216 204l13 -2c-15 -18 -17 -14 -27 -33c-53 -100 -22 -114 -43 -139l-18 16c-32 -17 -13 -12 -30 -25c-10 -8 -28 -9 -41 -18
c-49 -32 -14 -61 -45 -71c-3 6 -1 24 -1 33c0 38 21 39 58 84c15 17 30 39 44 57c16 22 18 44 26 69c-35 29 -7 -38 -95 60c1 -36 17 -31 33 -61l-45 29c6 49 1 41 -7 80c-7 39 18 49 13 71c-25 -3 -5 -8 -26 -23c1 18 12 28 24 44c8 -18 -8 3 2 -20c11 30 7 38 27 59
c37 38 88 34 117 6c12 -12 17 -41 23 -58l1 45c6 -4 4 0 8 -9l10 -41c1 -7 -2 -18 -5 -23c-10 -17 -2 -4 -11 -4c10 -94 19 -51 -3 -106c-4 -12 -3 -4 -2 -20zM85 -16c0 10 8 8 7 1c-2 -11 -7 -2 -7 -1zM127 261c0 3 5 9 8 0c2 -6 -8 -7 -8 0z" />
    <glyph glyph-name="colon" unicode=":" horiz-adv-x="251" 
d="M165 161l-15 -34s-42 -24 -56 -2c-37 55 -13 20 -25 60l70 7c20 -19 1 -16 26 -31zM138 318c43 -43 12 -15 46 -31c-5 -5 -38 -54 -82 -32c-19 9 -12 48 36 63zM145 205c0 1 10 7 6 0c-2 -5 -8 -12 -6 0z" />
    <glyph glyph-name="semicolon" unicode=";" horiz-adv-x="203" 
d="M73 100c-17 -14 -37 -28 -60 -18l36 37l-13 27c36 21 14 46 77 2c-6 -38 -11 -26 -40 -48zM68 282c23 23 33 33 67 33c53 -55 -37 -86 -67 -33z" />
    <glyph glyph-name="semicolon" unicode="&#x37e;" horiz-adv-x="203" 
d="M73 100c-17 -14 -37 -28 -60 -18l36 37l-13 27c36 21 14 46 77 2c-6 -38 -11 -26 -40 -48zM68 282c23 23 33 33 67 33c53 -55 -37 -86 -67 -33z" />
    <glyph glyph-name="less" unicode="&#x3c;" horiz-adv-x="383" 
d="M107 167c13 1 -16 -2 0 0zM260 288c-35 -11 -34 -10 -62 -30c-5 9 -2 1 -3 10c0 0 -1 2 -1 3v5c-22 -9 -85 -44 -92 -61c42 -24 129 -12 168 -49l-43 -6c16 -13 65 -27 88 -29c-37 -29 -102 15 -126 20c-32 5 -120 20 -148 21c-2 10 2 3 -2 7c-8 10 -3 -11 -12 16
c-12 33 3 30 22 40c14 6 18 15 34 26c19 14 36 15 50 27c0 0 5 7 7 8c21 20 19 5 41 14c35 15 10 19 62 13c19 -2 20 7 43 11c-4 -26 -4 -23 -27 -23c3 -20 5 -8 1 -23zM185 356c0 3 10 11 6 0c-3 -7 -8 -10 -6 0z" />
    <glyph glyph-name="equal" unicode="=" horiz-adv-x="343" 
d="M247 280c-21 -3 15 2 0 0zM268 276c-12 -20 -89 -23 -100 -23c-40 -1 13 12 -36 5c-23 -3 -45 -6 -68 -2c7 19 5 3 21 19l-55 10l21 21c31 -7 4 -3 29 -15c16 25 40 15 108 18c66 2 38 -9 60 -22c7 -5 8 -1 20 -11zM19 211c22 16 34 2 59 4c26 1 93 20 125 6
c15 -6 -4 -2 25 -12c13 -4 19 -5 30 -10c-11 -11 -12 -5 -16 -11c-12 -18 0 11 -1 -6c-1 -27 14 14 0 -7c-31 -7 -69 -13 -98 -3c-36 12 -68 -7 -95 17l35 8c-28 15 -44 7 -64 14zM172 331c0 4 9 8 6 -1c-2 -7 -7 -8 -6 1zM96 336c0 5 7 5 6 0c-3 -7 -6 -4 -6 0z" />
    <glyph glyph-name="greater" unicode="&#x3e;" horiz-adv-x="351" 
d="M127 138c0 0 2 -4 2 -3c1 1 -2 4 -2 3zM99 301l3 2s-5 -1 -3 -2zM95 323c18 -5 31 -13 49 -14c19 -1 -5 8 22 -2c61 -22 19 5 128 -41c-6 -16 -20 -11 12 -21l-18 -6l30 -13c-32 -19 -17 -16 -43 -29c-85 -43 -40 -22 -73 -46c-9 -6 -21 -11 -28 -15
c-36 -19 1 -22 -48 -30c3 5 25 18 -14 32c-10 -13 -10 -10 -17 -26l-17 20c95 105 137 85 160 103c-45 13 -56 27 -104 33c-12 1 -104 20 -106 21c16 33 38 25 68 16c6 23 -11 -5 -1 18zM11 339c0 5 9 10 6 0c-1 -9 -5 -7 -6 0zM114 355c0 7 7 9 5 1s-5 -1 -5 -1z" />
    <glyph glyph-name="question" unicode="?" horiz-adv-x="306" 
d="M155 273l-44 -62l2 -8zM82 453c11 6 18 7 28 16c-18 12 -21 6 -28 -16zM226 478c0 11 -28 -6 -6 -2c1 1 6 -16 6 2zM42 457c21 5 7 19 43 33c30 11 49 3 57 25c-17 14 -41 2 -70 -12c-47 -25 -7 -29 -30 -46zM107 340c-9 -12 3 -11 -46 4c-29 9 10 -3 -43 39l-2 53
c2 11 6 11 7 21c4 28 -6 -12 -4 22c45 22 84 52 142 48c-7 -11 -2 -16 6 -32c8 -2 30 3 42 6c47 -52 -3 -7 29 -65c42 -73 -46 -204 -84 -260c-50 -74 -19 -84 -24 -117c-25 7 -19 30 -38 52c-23 26 -27 33 -13 70c18 53 15 25 51 85c10 18 11 8 23 24c7 -18 -12 -5 11 -16
c21 29 -5 46 16 69c15 15 -14 -8 10 2c5 35 18 28 15 61c-14 2 4 13 -7 -4l-5 -14c-7 29 -4 15 2 31c10 26 2 67 -32 52c-40 -19 -3 -4 -38 -5c-23 -1 -44 -30 -51 -53c-22 -68 13 -54 33 -73zM115 -1c-16 -13 0 -7 -22 -7c15 -34 4 19 11 -16c-31 3 -5 3 -29 15
c-15 9 -9 -1 -28 14l1 58c74 7 59 -33 60 -36c3 -16 6 -4 7 -28zM41 85c0 7 9 10 7 1c-3 -11 -7 -2 -7 -1zM137 47c0 2 9 5 6 -2c-1 -5 -7 -15 -6 2z" />
    <glyph glyph-name="at" unicode="@" horiz-adv-x="448" 
d="M110 102c-1 2 -16 13 -10 1c2 -5 15 -15 10 -1zM35 285l-6 -20zM220 184c11 15 8 27 24 44c19 21 15 21 21 51l-30 24c-7 -36 -16 -87 -15 -119zM113 286c-6 -1 17 -5 -4 1c-13 4 3 2 -15 4c-8 -23 -45 -50 -16 -124c12 -31 39 -80 54 -98c22 -13 70 -5 94 -1
c26 4 20 -4 39 14c17 16 11 26 37 5c-6 -19 4 -7 -37 -38c-27 -19 -27 -4 -58 -2c-43 3 -22 -14 -54 -15c-25 -2 -26 15 -42 27c-17 11 -7 -1 -21 11c-8 6 -10 13 -17 21c-14 16 -22 15 -33 38c-23 48 -11 74 -13 119l-10 -22c-1 21 13 91 23 107c8 -13 -4 -24 -5 -47
c7 16 17 43 33 59c37 40 7 21 13 41c6 9 42 39 52 44c36 19 119 16 172 -9c24 -11 78 -61 79 -63c2 -3 12 -27 14 -34c13 -27 19 -54 14 -86c-14 -91 -22 -86 -49 -102c-55 -34 -30 -17 -71 11c-36 24 -8 13 -32 38c-8 -28 -8 -18 -4 -46c-43 22 -29 0 -65 -6
c-33 15 -40 23 -42 61c-2 23 17 72 24 93c28 84 89 67 124 1l32 -5c4 -39 -29 -100 -7 -133c19 7 -5 1 17 37c19 34 6 12 28 27c16 107 -8 120 -39 165c-11 18 -24 29 -47 35c-35 8 -87 -20 -119 -33c-40 -15 -1 -2 -42 -40c-20 -18 -25 -32 -7 -55zM252 96c1 4 12 12 7 0
c-4 -10 -7 -2 -7 0zM308 337l13 -9c-26 5 -11 5 -13 9z" />
    <glyph glyph-name="A" unicode="A" horiz-adv-x="248" 
d="M141 76c-1 0 2 -1 2 -1zM163 53c-1 -1 -5 -2 -16 -6c-2 29 3 15 -19 32c15 0 14 -6 20 23c3 16 6 33 1 46c-6 2 -5 19 -9 -17l-9 86c-41 2 -34 -17 -43 -49v-4l-3 -45l33 -29c-25 20 -18 19 -50 27l-32 -95c-2 -18 0 -17 -13 -32l-18 10l6 48c-24 -14 -6 -12 -27 -26
c-10 18 1 19 7 45c26 95 45 99 18 117c22 7 12 1 23 21c-25 8 -60 8 -80 -3c16 -14 11 -9 30 -15c-43 1 -22 8 -50 31c20 11 19 -4 15 23l16 -17c50 4 30 3 64 25c1 0 3 1 4 2c1 0 2 1 3 2c26 13 10 -12 24 25c7 19 6 11 15 11l2 16h-1l-3 -1h-7c7 37 7 16 17 36
c11 21 -1 12 19 34c23 24 1 38 36 62c35 25 17 17 31 47c16 31 8 -29 35 22c9 17 3 18 21 27c0 -13 -24 -99 -27 -127c-5 -33 6 -44 2 -77c-4 -30 -4 -38 -2 -71l52 -6c0 -34 -1 -5 -23 -19l-31 -20c1 -19 1 -40 2 -60c2 -30 11 -29 10 -44c-3 -28 -9 -11 1 -50
c3 -15 11 -39 -2 -45l-10 38c-14 5 -15 -1 -18 3c-9 -25 -6 -72 -8 -82c-2 -11 -8 -9 -5 0c3 10 4 53 0 73c-1 3 -1 6 -1 8zM187 514c-2 0 -3 -1 -3 -3s2 -4 4 -4s3 2 3 4s-2 3 -4 3zM-2 250l-25 -11c-11 -3 -6 -8 -12 11h37zM1 -42c2 15 0 20 14 15c0 -13 -6 -13 -14 -15z
M148 518c0 12 4 11 12 13c0 -19 6 -12 -12 -13zM180 528c5 5 -12 7 12 8zM224 562c-2 0 -3 -2 -3 -4s2 -3 4 -3s3 1 3 3s-2 4 -4 4zM57 166c16 -8 15 -11 22 -3zM132 272l-15 -12c22 -1 15 -7 15 12zM58 261c1 -12 2 1 2 1c4 2 -3 14 -2 -1zM142 297c-8 -15 -6 -24 3 -38
c5 11 6 -11 4 19c-1 11 -3 12 -7 19zM61 283c-7 -4 3 -1 3 -1h-1c0 1 -1 2 -2 1z" />
    <glyph glyph-name="B" unicode="B" horiz-adv-x="255" 
d="M52 153c-3 -2 3 3 0 0zM-6 464c-2 0 -3 -2 -3 -4s1 -4 3 -4s4 2 4 4s-2 4 -4 4zM96 482c-2 0 -3 -1 -3 -3s1 -4 3 -4s4 2 4 4s-2 3 -4 3zM93 412c-2 0 -4 -1 -4 -3s2 -4 4 -4s3 2 3 4s-1 3 -3 3zM69 387c-3 0 -5 -2 -5 -4s1 -3 2 -4c-10 -20 -7 -49 -10 -58
c-23 11 -16 39 -27 67c-11 26 -37 37 -53 26c46 -8 59 -18 64 -74c1 -14 4 -58 1 -71c-4 -23 -14 -15 -34 -34c8 -28 22 -20 2 -91c-9 -33 -2 -21 -2 -46c0 -24 -16 -21 5 -35c11 10 10 22 14 36c9 29 3 15 23 15c3 28 13 44 22 64c2 -1 4 -2 5 -3c5 -2 8 -6 6 -11
c-1 -6 -1 -12 0 -16c2 -5 5 -7 5 -3c0 3 -1 16 2 23c3 6 0 12 5 17c6 6 17 4 19 -1c1 -6 3 -9 2 -15c-1 -7 -2 -26 -3 -31c-2 -6 -1 -8 1 -9c3 0 7 5 5 11c-1 5 -3 14 -1 24c1 10 1 10 2 18c1 6 3 11 8 14c11 -9 22 -32 25 -45c-22 -25 -85 -77 -95 -94
c-14 -24 -18 -34 -39 -52l-43 -29v-17c19 -4 34 25 50 39l118 81c7 4 17 12 24 17c2 0 4 -1 5 -4c0 -4 7 -3 9 1c2 3 4 3 5 7v5c4 1 6 2 7 1c0 -3 1 -6 1 -8c4 -15 3 -55 2 -68c-1 -12 -5 -20 -2 -21c2 -2 5 4 5 14s2 46 3 58c0 3 1 7 2 10h1c1 5 2 9 4 13c4 9 8 17 10 21
c1 1 1 2 1 3c9 16 17 30 17 61l-61 53c-12 10 -8 2 -22 14c36 49 73 53 82 87c3 14 -1 5 5 22c3 8 5 7 8 19c-14 10 -50 31 -67 39c-63 29 -43 31 -67 27c-41 -7 -127 21 -168 -30c14 -6 40 16 58 20c15 2 56 -7 74 -12c22 -6 33 -23 51 -35c19 -12 40 -20 55 -31
c-28 -20 -16 0 -35 -29c-15 -23 -18 -19 -40 -32c0 41 19 61 3 95c-21 4 -33 -1 -41 -10c-1 1 -2 1 -3 1zM69 411c-3 0 -7 -4 -7 -7c0 -4 4 -7 7 -7c4 0 7 3 7 7c0 3 -3 7 -7 7zM196 3c7 -5 3 -12 0 -11c-3 0 0 11 0 11zM14 473c12 13 17 13 32 0c-13 -9 -14 -9 -32 0z
M103 23c2 14 1 16 16 19c3 -18 0 -16 -16 -19zM159 177c13 -9 11 -7 9 -15l-11 -2c0 23 8 -2 2 17zM147 269c1 4 12 8 5 1c0 0 -6 -11 -5 -1zM106 295c-1 14 7 1 3 0c0 0 -2 -17 -3 0z" />
    <glyph glyph-name="C" unicode="C" horiz-adv-x="285" 
d="M132 330c-6 -7 2 2 0 0zM281 428c-2 0 -3 -2 -3 -4c0 -1 1 -3 3 -3s3 2 3 3c0 2 -1 4 -3 4zM180 483c-2 0 -3 -2 -3 -4c0 -1 1 -3 3 -3s3 2 3 3c0 2 -1 4 -3 4zM168 515c-4 0 -7 -3 -7 -7s3 -7 7 -7s7 3 7 7s-3 7 -7 7zM6 161c-12 14 -16 43 3 52c-6 -24 -5 -26 -3 -52z
M-12 270c6 4 -1 13 16 2c-18 -18 -11 -4 -16 -2zM140 491c1 22 0 11 10 16c-2 -22 6 -8 -10 -16zM116 276c2 12 2 11 11 13c0 -20 1 -10 -11 -13zM146 177c0 3 4 8 6 -1c2 -6 -6 -7 -6 1zM216 487c-4 0 -7 -3 -7 -7s3 -7 7 -7c3 0 6 3 6 7s-3 7 -6 7zM121 458
c27 -2 5 -9 35 -1c47 13 41 2 78 5c36 2 8 6 34 11c2 -13 3 -57 3 -71c0 -31 -1 -16 -7 -30l-7 -16c-7 9 -2 9 -18 13c-15 -36 3 -38 -11 -60c-48 6 6 61 -9 93c-23 27 -59 -30 -72 -45c16 -8 5 -1 16 4l-18 -40c-25 -5 -18 7 -28 -9c-25 -42 -20 -68 -14 -98
c-27 -15 -30 -41 -32 -74l-6 25c-5 -41 1 -36 14 -71c63 38 137 116 201 138c-3 -12 -10 -23 -18 -31c-27 -23 2 6 -27 -10c-17 -8 -33 -34 -47 -46c19 1 9 2 25 13c-23 -34 -14 -14 -44 -28c-1 -1 0 -3 0 -4v-4l3 -44c-26 9 2 6 -27 13c-21 -24 -15 -7 -36 -25
c-5 -4 -20 -21 -25 -28c4 -26 13 -50 -10 -70c-14 14 -3 29 -6 60c0 2 -27 36 -42 45c-4 -29 11 -53 -20 -57c-21 34 15 160 15 205c-1 27 -12 24 0 49c10 20 15 9 22 34c5 20 8 65 17 84c16 -7 3 -4 8 -16c43 68 22 33 19 55c2 0 8 -3 9 -3l5 1s2 0 2 1c11 0 0 12 16 -5z
" />
    <glyph glyph-name="D" unicode="D" horiz-adv-x="287" 
d="M34 111l4 -3l25 28c-7 -3 -31 -23 -29 -25zM141 161c-28 -46 23 -82 -15 -97c-16 19 3 35 -5 59c-26 9 -56 -23 -81 -41c-52 -38 -21 -42 -39 -80c-27 4 -14 7 -25 30c-19 -10 -31 -33 -51 -30l85 81c16 24 -18 3 44 62c7 6 6 0 17 7c45 30 28 53 48 68c8 6 17 7 25 13
c10 9 28 37 30 51c1 13 0 44 -6 59l-4 -12c-2 9 3 25 -34 35c-6 -15 -15 -47 -28 -65l-4 -3c-48 -47 40 11 -28 -47c7 -26 10 -12 4 -41c-3 -14 -5 -28 -9 -38c-1 4 -2 26 -3 28l-21 -51l-22 8c-7 38 42 122 22 157c1 0 11 -19 17 13c3 20 -2 23 -14 35c15 10 16 0 18 22
c-37 8 -35 2 -69 0c-1 1 -35 36 -60 5c14 -30 62 -14 102 -65c-23 21 -25 25 -55 36c-20 8 -50 12 -55 31l-61 -28c4 29 14 13 33 37c12 16 -7 2 13 18c11 9 12 7 27 7l-21 -11c15 -1 69 28 82 33c23 9 49 9 78 6c8 52 15 25 33 50c10 13 5 38 28 49c17 -13 12 -7 9 -26
l-2 -87c23 -29 67 -1 106 -74c11 -20 6 -31 15 -59c13 -35 -4 -25 -18 -47c-4 -7 -6 -12 -8 -16c0 0 13 -42 2 -48c-10 -5 -14 -14 -14 -27c-1 -13 0 -14 -1 -30s3 -31 6 -39c4 -9 -2 -19 -6 -18c-3 1 -5 5 -4 13c2 9 -1 40 0 52c0 11 -3 15 -6 24c-4 9 -23 10 -31 1
s-2 -19 -6 -29c-3 -11 1 -32 2 -38c0 -6 -5 -3 -9 4c-3 8 -4 17 -3 26c2 9 -3 16 -12 19c-4 2 -11 5 -16 8zM179 92c5 0 3 -39 5 -49c3 -9 4 -20 -1 -14c-4 7 -8 27 -6 34c2 8 2 29 2 29zM159 474l13 -2c-14 -11 -4 -5 -13 2zM56 502l14 12c0 -12 1 -21 -14 -12zM-55 440
c11 20 27 11 28 12c0 1 2 -1 4 -3z" />
    <glyph glyph-name="E" unicode="E" horiz-adv-x="364" 
d="M137 178c-6 -8 7 -2 7 -2c11 -3 -2 9 -7 2zM99 83h1c-21 -3 -42 -6 -61 -6c-7 -10 -7 -13 -14 -21c-32 -33 -15 -40 -28 -47c-3 -7 -5 -15 -5 -20c0 -12 1 -46 2 -55c0 -9 -1 -15 -4 -14s0 9 0 21c1 12 -1 50 -6 63c-6 14 -5 24 -2 33v4h2c2 7 5 15 4 25
c-1 19 -18 51 -15 60c10 14 147 12 90 28c26 4 46 17 71 33s41 10 71 23c-22 0 -75 -1 -94 -6c-21 -7 -55 -29 -77 -20c-9 -20 -10 -28 -33 -35c1 28 6 31 0 57l17 10c-14 31 -7 0 -22 25c35 37 33 -7 71 14c53 31 35 30 49 40v-10c7 5 14 12 14 12l48 29
c-25 2 -48 7 -80 -3c-20 -6 -26 -4 -47 -6c-27 -4 -19 -7 -39 -11l-15 16l22 10c-3 35 2 31 14 50c10 16 1 5 7 22l20 -20c71 24 16 17 87 15c54 -3 123 5 178 9c2 -11 8 11 -5 -3c-9 -9 -3 4 -2 -14v-4l-1 -1c25 -10 33 -5 53 -12l-15 -7c-26 -5 -14 7 -50 -11
c-24 -11 -17 2 -43 -24c-32 15 -23 11 -62 -7c-12 -6 -37 -17 -38 -28c0 -1 1 -4 1 -4l-49 -33c38 -2 188 6 210 -1c2 -16 -2 -21 -14 -29c18 -3 24 -1 34 -9c-14 -1 -28 0 -41 -1c-13 -2 -21 -8 -36 -9c-24 -3 -3 11 -60 -13c-20 -9 -48 -23 -67 -25
c-24 -4 -41 -11 -56 -30c21 -9 112 -4 140 -1c19 -2 -2 -4 1 -12c37 6 23 15 63 3l3 14c25 -3 13 -4 46 0l12 -18c20 1 38 6 51 -5c-43 -13 5 14 -87 -13c-28 -9 -63 -6 -91 -8c-18 -2 -38 -5 -58 -8c-2 -3 -2 -7 -3 -11c0 -9 0 -9 -1 -19c-1 -11 2 -20 4 -25
c1 -6 -2 -12 -5 -12c-2 1 -3 3 -2 9c1 5 0 25 1 33c0 7 -2 9 -4 15s-14 7 -19 1s-2 -13 -4 -19c-3 -7 -1 -21 0 -25c0 -3 -4 -2 -6 3s-2 11 -1 17s-2 10 -8 12c-5 2 -17 9 -17 9zM-30 14c4 2 6 -4 6 -8s-2 -4 -4 -8c-1 -3 -8 -4 -9 -1c0 3 -3 5 -5 3c-3 -2 -7 -3 -7 0
c0 2 2 1 2 4s5 3 7 3c3 0 1 0 1 6c1 5 9 1 9 1zM-56 2h2s2 -1 1 -5s-8 -4 -9 -1c0 4 6 6 6 6zM231 86c14 11 9 10 23 2c-4 -3 4 -5 -13 -6c-20 -2 -1 -2 -10 4zM184 52c0 21 2 20 19 13zM104 431c-14 9 -11 5 -2 15c11 -9 11 -1 2 -15zM340 238c-4 15 0 11 12 13zM137 427
c-2 9 3 9 8 1c4 -9 -8 -6 -8 -1zM222 299l10 7c-1 -7 4 -18 -10 -7zM200 438c0 5 3 8 5 1c2 -5 -5 -6 -5 -1zM-8 -86c7 -4 4 -10 1 -10s-1 10 -1 10zM31 359c0 -8 10 -6 7 2c-3 10 -7 9 -7 -2zM418 120c-3 0 -6 -3 -6 -7c1 -3 4 -6 7 -6c4 0 7 4 6 7c0 4 -3 7 -7 6z" />
    <glyph glyph-name="F" unicode="F" horiz-adv-x="320" 
d="M70 3c-12 18 -14 7 -2 29c16 -25 10 -13 2 -29zM38 -62c-4 0 -7 -3 -7 -7s4 -7 7 -7c4 0 7 3 7 7s-3 7 -7 7zM294 240c-3 0 -6 -3 -6 -7s3 -7 7 -7s7 3 7 7s-4 7 -8 7zM-24 403c-4 0 -7 -3 -7 -7s3 -7 7 -7s7 3 7 7s-4 7 -7 7zM13 403c66 3 260 28 320 -1l-22 -8
c17 -17 14 -14 17 -37c-28 2 -65 33 -117 14c-50 -18 -9 -2 -66 -11c-19 -39 -8 -55 -5 -72c1 -6 3 -19 3 -27l-15 25c-10 -58 10 -37 21 -37h9c46 0 6 11 49 6c16 -2 25 -5 44 -5l-43 -13c57 -3 63 2 76 -20l-58 -7c-3 -2 -6 -5 -7 -9c-3 -10 -4 -46 -4 -52
c1 -7 3 -17 -2 -14c-6 4 2 38 0 59c0 8 -5 12 -10 14l-93 -10l-7 -28c-11 20 -5 20 -15 -8c-5 -14 -11 -28 -9 -38c17 12 10 24 21 44c-5 -74 -19 -23 -31 -86c-11 14 -5 18 -11 -14c-18 -84 -3 -22 -24 -78c-8 -19 -4 -23 -10 -37c-35 12 -11 19 -9 49c2 54 28 93 23 189
c-17 0 -43 -5 -56 3c-12 44 39 14 39 50c1 34 -39 32 -21 68c2 -26 11 -51 36 -69c12 3 18 4 28 18c1 2 2 1 2 5c-2 20 2 -3 -9 2c8 20 7 14 -4 34h6c5 0 8 -1 9 9c0 11 -3 17 -1 31c-21 5 -55 -5 -65 -25l3 15c-25 1 -16 -7 -31 8c-2 32 10 21 33 22c-7 30 -16 -13 6 41z
M36 419l6 7l29 -4c-19 -7 -12 -9 -35 -3zM21 441c-2 23 -4 10 5 24c8 -13 13 -9 -5 -24zM9 -77c-10 16 -8 3 -1 20c9 -18 10 -2 1 -20zM-13 420c0 7 4 10 7 0c3 -12 -7 -6 -7 0zM69 458c13 7 0 9 15 1c-11 -6 -5 -7 -15 -1z" />
    <glyph glyph-name="G" unicode="G" horiz-adv-x="263" 
d="M143 -59c1 1 8 12 1 10c-9 -2 -2 -10 -1 -10zM172 316c-4 0 -7 -3 -7 -6c0 -4 3 -7 7 -7c3 0 6 3 6 7c4 21 12 21 16 45c3 17 0 28 7 45c-60 8 -87 -72 -89 -74c-7 -12 -15 -13 -27 -25c-25 -25 -51 -129 -37 -166c20 4 44 18 58 30l9 -4l15 9c-4 24 -2 18 -1 45
c-25 -3 -40 -10 -53 14c32 23 78 22 97 36c27 19 11 13 49 17c65 6 59 4 49 -28c-18 -54 1 -74 -31 -78l5 42c-17 -6 -31 -20 -42 -34c-23 -27 -13 -17 -12 -40c2 -37 -27 -81 -14 -117c-13 -8 1 9 -15 5c-5 -16 -13 -39 -12 -55c2 -22 15 -33 -18 -44c-12 23 -3 -2 -2 47
c1 18 -1 26 -2 43c-3 38 -1 54 1 73c-9 -4 -13 -12 -15 -24s-1 -12 -3 -27c-3 -15 0 -29 2 -37s-4 -17 -7 -16c-4 1 -5 5 -3 13c2 7 3 37 5 47c1 11 -1 14 -3 23c-3 9 -21 11 -29 3s-3 -18 -8 -27c-5 -10 -2 -30 -2 -35c0 -6 -5 -3 -8 4s-3 16 0 24c2 9 -2 15 -10 19
c-3 1 -8 4 -12 6c-1 0 -2 -1 -3 -1c-18 10 -15 29 -33 79c-35 98 22 169 41 234c36 4 -9 -4 13 -8c20 34 35 46 68 64c37 19 8 38 103 20l18 31c12 -2 1 -1 16 -11c19 17 6 17 32 21c-5 -42 -11 -56 -34 -90c-10 -17 -10 -27 -19 -42c-10 -14 -17 -16 -22 -34
c-21 37 0 -16 -38 -22c0 3 -3 6 -6 6zM307 484c-8 16 -1 13 2 18c9 -14 14 -4 -2 -18zM193 486c-10 12 -5 6 1 16c6 -10 11 2 -1 -16zM63 4c4 0 -2 -36 0 -45c1 -9 1 -19 -2 -13c-4 7 -5 25 -3 32c3 7 5 26 5 26zM175 91c-1 -4 1 0 0 0zM179 113c0 -14 2 -1 2 -1
c4 0 -2 10 -2 1zM186 176c13 9 26 25 32 37c-28 -19 -21 5 -32 -37zM-5 271c-7 -11 3 -3 3 -3s-1 0 -1 1s-1 3 -2 2zM262 256l5 17l-16 -4zM1 280c0 -17 3 -1 3 -1c4 0 -2 13 -3 1zM34 345l-29 -57c18 11 24 36 29 57zM37 362c0 -9 7 -10 8 1c1 20 -8 0 -8 -1zM150 403
c18 3 41 2 56 11c-34 7 -30 2 -56 -11z" />
    <glyph glyph-name="H" unicode="H" horiz-adv-x="289" 
d="M73 208c-6 -39 -16 -68 -23 -98c29 19 57 73 69 107zM42 140c-1 -4 7 -8 5 1c-2 7 -5 8 -5 -1zM208 272l21 132c-45 -42 -59 -75 -75 -131c34 2 20 10 54 -1zM255 427l9 9c-2 0 -18 6 -9 -9zM146 265c15 26 10 41 28 70c12 19 26 36 38 54c10 17 19 52 32 59
c33 18 0 -24 54 39c17 -18 14 -25 4 -46c-11 -23 -8 -34 -16 -59c-13 -37 -24 -74 -32 -112c19 -11 16 -6 22 -33c-26 -33 -21 20 -35 -63c-3 -15 -3 -31 -6 -42c-6 -25 -7 -18 -20 -28c-45 -33 -12 -104 -48 -140c-14 21 29 208 32 251l-39 7l-20 -37c-11 22 3 13 -5 34
c-35 -14 -49 -80 -77 -109c-37 -37 -25 -118 -41 -134c-13 12 -3 67 -1 90c-25 -16 -17 -17 -21 -46c-9 27 -3 12 -10 13l-23 -23c23 38 61 47 59 97c-9 -3 -3 -2 -10 -8c-16 -14 8 -6 -2 -3c3 34 -6 84 5 114c-21 14 -6 -9 -42 16c-38 25 -23 1 -38 21c41 21 87 6 93 6
c10 38 10 63 15 102c8 60 16 43 53 60l19 48l27 -6c-22 -47 -48 -149 -56 -198c22 0 41 -2 61 6zM7 -67l8 17c9 -3 11 10 14 -19c-23 -5 -7 -4 -22 2zM209 57c-10 14 -11 9 -1 26c15 -8 12 -12 1 -26zM158 -65l13 11c-1 -17 4 -12 -13 -11z" />
    <glyph glyph-name="I" unicode="I" horiz-adv-x="118" 
d="M24 93c-6 -9 2 3 0 0zM77 163c-4 2 -7 -4 -7 -9c-1 -4 2 -4 3 -8c2 -3 8 -5 9 -2s4 5 7 3c2 -2 7 -4 7 -1s-2 1 -2 4s-5 4 -8 4c-2 1 0 1 0 6c0 6 -9 3 -9 3zM103 148l-1 -1s-3 0 -2 -4s8 -6 9 -2s-6 7 -6 7zM66 187c21 61 45 124 46 144c1 22 8 135 5 144
c-22 -8 -15 -20 -30 -35c-16 -16 -34 -20 -49 -30c-4 -52 -20 -24 -27 -153c-3 -47 0 -26 7 -27l-18 -168c25 5 12 1 22 25c-2 -13 -7 -46 -11 -56c-9 -24 -16 -35 -1 -59c31 27 11 58 27 123c4 15 9 31 14 48v-5c-1 -12 -4 -48 -6 -58c-1 -10 0 -16 3 -15s0 9 1 22
s6 52 12 66c4 10 5 26 5 34zM12 436c-1 14 4 10 7 1c4 -9 -7 -4 -7 -1zM45 59c-8 -3 -4 -10 -2 -10c3 0 2 10 2 10zM32 221l11 19c5 -26 11 -17 -4 -34zM110 317l-30 -75c-1 14 2 29 4 41c5 22 7 23 26 34zM29 315c-5 6 -16 -3 -4 24z" />
    <glyph glyph-name="J" unicode="J" horiz-adv-x="233" 
d="M186 399l-6 -16c8 3 5 -9 6 16zM-19 426c85 23 97 13 186 19c15 1 12 1 24 3c2 1 9 3 10 3l5 -1c57 -12 101 -3 124 -20c-10 -37 5 -13 -62 -25l22 12c-24 18 -14 -5 -69 -2c-42 2 -10 8 -21 -36c-10 -42 -13 -28 -27 -114c53 26 42 112 91 136c-66 -90 -35 -74 -86 -140
c-13 -16 -37 -103 -40 -130c-3 -29 9 -28 -2 -51c-21 -24 -9 8 -36 -23c-66 -77 -11 -82 -44 -118c-30 8 -5 41 -4 62c-25 20 -29 18 -41 51c-9 25 -13 52 -14 81l31 15c2 24 3 9 -12 15c29 31 10 41 37 53c45 2 -69 -136 -1 -172c19 21 18 35 26 61c13 38 15 30 1 64
c19 14 20 33 24 58c7 46 -8 37 -7 55c0 1 18 52 22 83c2 17 -2 6 7 29l-64 -17c-20 -26 -21 -58 -46 -62c41 119 -14 70 -34 111z" />
    <glyph glyph-name="K" unicode="K" horiz-adv-x="317" 
d="M282 75c-1 -18 -8 -10 9 -19c-1 15 10 6 -9 19zM28 54v25c-20 -22 -7 -18 0 -25zM49 401c25 -7 0 -8 12 -12c7 -3 -2 15 24 53c38 55 5 14 38 68c14 -12 10 -9 6 -25l-21 -100c-5 -32 -35 -98 -23 -121c13 7 26 22 41 33c48 32 39 29 60 54l57 53c9 -23 -5 1 -1 -18
c34 6 22 5 48 19c-13 9 -22 10 -23 29c16 -4 15 -8 30 -21l30 10c-13 -38 -1 -14 -31 -39l7 -13c-8 -8 -47 -34 -58 -41c-24 -17 -36 -32 -53 -45c-14 -11 -91 -44 -116 -71c73 -18 50 2 112 -54c8 -8 25 -15 36 -20c44 -21 100 -60 79 -115c-15 5 -19 9 -28 43
c-17 65 -105 80 -117 75c2 -14 14 -28 27 -36c56 -35 55 1 91 -96c-2 9 -16 44 -26 53c-18 16 -31 29 -58 29l36 -33c-17 0 -65 49 -72 62c-14 23 -8 46 -87 54c2 -32 8 -80 -8 -104l-4 32c-7 -6 -1 0 -7 -8c-3 -4 -4 -6 -5 -10c-34 -70 -12 -22 -36 -57
c-26 -38 30 -64 -8 -72c-37 39 4 221 0 237l-56 14c7 26 25 20 39 36c11 13 19 42 23 51c-1 -28 -16 -29 -11 -52h18l21 90v3c0 1 -1 3 -1 4c0 26 9 11 15 61zM30 0c-2 3 -11 4 0 37c18 -13 12 -26 0 -37zM90 71c-11 17 -6 7 0 20c6 -15 9 -2 0 -20zM52 437
c-13 -7 -7 -1 -10 9c3 -1 14 5 10 -9zM71 474c0 2 3 8 6 -1c3 -10 -6 -5 -6 1z" />
    <glyph glyph-name="L" unicode="L" horiz-adv-x="153" 
d="M118 469c6 24 -1 26 15 38c20 -42 -2 -67 -10 -79c-13 -22 -13 -57 -19 -84c-9 -47 1 -38 5 -88c4 -39 -10 -58 -10 -92c-2 25 1 28 6 52c6 25 1 43 1 70c-25 -13 -3 6 -16 -21c-17 -32 -9 -35 -14 -63c-5 -34 -14 -58 -13 -95c23 5 39 6 62 9l29 4c11 -1 9 -12 10 -9
c0 1 0 -3 1 -4c32 4 113 9 143 1l-21 -11c40 -12 63 7 79 -2c-11 -32 -89 -32 -120 -33c-5 18 -4 -18 3 7c3 10 6 -1 1 12c-39 2 -96 -9 -130 -12v-3c-2 -42 -32 -14 -87 -29c-33 -10 -49 -48 -80 -20c-2 37 13 5 8 47c-17 -8 -24 -15 -45 -10c8 19 20 25 41 28
c34 6 60 29 66 67c5 33 -4 25 -13 50c-9 27 12 72 16 106l15 114c14 28 -1 -5 19 18c21 25 -14 10 58 32zM159 57c5 10 37 7 52 7c-16 -2 -18 -5 -30 -8c-16 -4 -18 1 -22 1zM-9 128c0 20 -2 15 9 29c8 -15 6 -18 -9 -29zM351 112c-11 10 -7 5 -2 14c10 -15 5 -7 2 -14z
M106 518c0 0 3 11 7 -2c2 -10 -6 -10 -7 2zM78 487c-1 18 7 10 10 10z" />
    <glyph glyph-name="M" unicode="M" horiz-adv-x="301" 
d="M205 147l2 34zM81 160c4 1 6 -6 4 -10c-1 -4 -3 -4 -5 -7c-3 -3 -10 -3 -10 0c0 4 -2 6 -5 5s-8 -1 -7 2c0 2 2 0 3 3s5 2 8 2c3 -1 1 0 3 5c0 2 1 2 2 3c1 33 9 84 -11 101c-2 -6 -1 -14 -4 -25c-3 -12 -8 -20 -12 -31c-8 -27 -2 -46 -4 -72c-2 -25 -13 -35 -19 -64
c-5 -31 6 -57 -6 -71c-48 21 -4 223 -4 223c-2 28 -3 29 2 60c9 66 -3 54 -7 73c-5 25 2 0 2 25c-1 23 -14 25 -19 40c41 24 22 -40 57 -23c2 20 -18 8 -3 22c1 -1 23 -28 28 -34c17 -20 10 -22 17 -49c7 -28 24 -64 35 -94c26 22 36 78 58 105c15 17 36 54 41 76l10 26
c6 -11 3 -14 -3 -29c12 5 18 20 20 35c23 2 9 -6 27 3c0 10 4 22 2 31c-3 23 1 0 -10 22c30 -13 16 -19 28 -58c8 -25 -11 -34 -17 -65c19 -6 -4 -2 19 8l-18 -49c3 24 11 18 -3 37c-16 -44 -22 -139 -38 -184c-33 -93 -27 -163 -37 -184c-10 13 -3 101 -8 134
c-6 41 11 80 -6 133c-29 -31 -42 -101 -42 -101c-9 -20 0 -8 -10 -3c0 0 -2 0 -2 1s-1 1 -2 1c-7 -10 -15 -21 -24 -29c-5 -9 -11 -19 -13 -25c-3 -13 -10 -48 -12 -58c-2 -9 -5 -15 -7 -13c-3 1 2 9 5 21s10 46 10 63h-1l1 1c0 1 0 2 -1 3c-1 15 7 38 7 38h1
c4 23 9 26 -15 49c-13 -17 -9 -47 -10 -71c2 0 5 -2 5 -2zM51 154l2 -1s2 -1 0 -5s-10 -3 -9 1c0 4 7 5 7 5zM178 60c-3 32 -10 38 13 47c2 -17 -1 -34 -13 -47zM20 425l3 13c19 -3 17 -9 -3 -13zM245 478c-11 11 -9 3 0 17v-17zM-11 335c-12 1 -9 -4 -9 12zM61 442
c0 1 2 9 6 -1c3 -11 -6 -5 -6 1zM311 468c1 14 -6 7 8 11zM80 52c6 -6 1 -12 -2 -11c-2 1 2 11 2 11zM148 204l-5 -18zM200 315c-7 -25 -12 -15 -2 -31c8 11 12 15 2 31z" />
    <glyph glyph-name="N" unicode="N" horiz-adv-x="273" 
d="M259 440c10 -73 -14 -189 -32 -262c-8 -31 -13 -29 -23 -51c-14 -34 3 -32 -9 -66c-11 2 -17 -5 -37 32l18 4c-1 44 8 32 -19 51c-8 -21 9 -11 -2 -31c-11 25 -60 111 -74 122l-17 -87c1 32 21 87 9 110c-28 -23 -27 -101 -15 -135c-20 -11 -6 0 -13 -3
c-16 -8 -18 -40 -17 -54c3 -24 7 -57 -26 -64c-9 16 -3 25 -10 41c-1 2 -24 25 -27 28l19 12l12 -24c20 56 -16 -8 -16 78c20 7 -14 6 9 -1l1 -1c-10 30 -1 19 4 56c2 24 -3 42 -2 67c2 51 13 -3 22 122l42 24l-3 39c14 1 31 -14 40 -29c4 -9 24 -134 74 -165l16 12
c-10 19 12 76 4 138c-4 29 -15 25 5 35c9 -18 3 -7 0 -30c-3 -30 -8 -19 6 -36c19 12 9 35 21 84c11 51 -4 51 -5 85c24 -8 41 -72 45 -101zM-28 252c1 26 1 51 18 63zM17 401c-5 10 -11 7 1 29c6 -12 5 -19 -1 -29zM-24 32c8 -13 6 12 5 -10c-1 -16 3 -2 -5 -12
c-8 14 -11 4 0 22zM172 278c-11 16 -8 5 -2 20c13 -24 5 -12 2 -20zM187 502c0 17 5 10 7 1c3 -9 -8 -4 -7 -1zM51 462l10 12c-3 -15 4 -10 -10 -12zM256 522l3 13z" />
    <glyph glyph-name="O" unicode="O" horiz-adv-x="239" 
d="M141 68c-2 -1 -4 -1 -8 -2c1 -1 1 -3 1 -5c-1 -4 -3 -4 -5 -7c0 -1 -1 -2 -2 -2c-7 -24 2 -37 -22 -48c-15 27 -5 13 -1 38c2 14 6 6 -2 13c-1 -4 -9 -5 -9 -1c0 3 3 5 5 6c-1 1 -3 3 -5 6c-50 -9 -39 -30 -38 -81c-2 41 -1 53 -20 84c19 12 -1 -8 20 7
c-26 18 -7 7 -26 27c-14 -16 10 -8 -12 -20c-24 37 -16 38 -38 55c18 23 10 24 8 56l4 133c5 39 29 28 53 61c4 6 8 11 12 16c11 18 6 -3 9 19c4 24 -9 17 -7 39h33c65 -6 79 -32 101 -62c26 -35 9 -21 18 -50c7 -25 0 0 18 -25c-23 -83 15 -111 -14 -154
c-13 -18 -28 -36 -38 -53c-9 -15 -10 -21 -9 -24l1 -1c3 -6 12 -3 -13 -33c-3 -7 -5 -13 -5 -17c-1 -13 -3 -49 -3 -59s-2 -15 -5 -14s1 9 2 22c1 12 2 52 -2 67c0 3 -1 6 -1 9zM82 163c-2 25 6 14 14 17c-1 -16 5 -7 -5 -19zM-23 258c-7 19 -3 13 1 24c8 -13 12 -1 -1 -24z
M146 454c0 0 4 13 8 -1c2 -9 -8 -10 -8 1zM144 -36c7 -5 3 -12 0 -11c-3 0 0 11 0 11zM55 70c-1 -1 1 -2 2 -2zM79 253c10 -6 19 -17 33 -2c0 1 1 2 2 2l14 81c15 -18 4 -2 10 -27c18 -78 3 -34 1 -77c-1 -41 16 -76 -33 -79l1 67c-14 -12 -9 -8 -18 -26c-35 7 0 13 -17 10
c-2 -8 -2 -17 -4 -30c-4 -22 -8 -15 3 -33c13 -18 42 -30 62 -33c105 165 42 150 31 227c-22 -2 -18 -2 -36 13c-34 -45 -60 -14 -49 -93zM-6 289c14 14 16 25 23 45c8 23 14 21 21 39c-28 -27 -46 -36 -44 -84zM99 441c19 -16 3 1 30 -7c18 -5 7 -5 23 -14
c-12 24 -29 33 -53 21zM72 429l18 15c-16 16 -20 5 -18 -15z" />
    <glyph glyph-name="P" unicode="P" horiz-adv-x="331" 
d="M-16 138c0 0 5 1 4 2zM182 261l3 -1c18 7 25 9 43 32c2 37 -13 56 -48 67l-4 8c-89 54 -56 49 -168 13c-56 -18 -46 -13 -55 -2c21 11 48 23 76 31c14 3 28 8 41 14c51 21 13 51 94 4c33 -18 33 -2 61 -26c37 -32 55 -20 74 -58c6 -12 -3 3 8 -15c3 -4 7 -8 11 -14
c-29 -55 -5 -36 -20 -72c-6 0 -10 1 -12 1c1 -10 0 -20 -5 -22c-11 -5 -15 -14 -17 -27c-2 -12 -1 -13 -4 -29c-2 -16 1 -30 3 -39s-4 -18 -8 -17c-3 2 -5 5 -2 14c2 8 2 39 4 50s-1 15 -3 24s-21 12 -29 3c-8 -8 -3 -18 -8 -29c-5 -10 -3 -31 -3 -37s-5 -3 -8 5
c-2 8 -2 17 0 26c1 2 1 4 1 6c-1 1 -1 2 -1 2v3c-2 3 -5 6 -10 8c-2 1 -4 7 -6 16c-41 -9 -90 -24 -95 -28c-15 -10 -20 -23 -20 -40c1 -103 -33 -29 -28 -101v-2c-3 -27 -2 15 -9 -17c-4 -20 14 -33 -10 -50c-30 23 11 62 1 84l-11 8h-3h-2c3 37 11 67 15 100
c-16 -9 -26 -8 -40 -17c-22 -14 -18 -20 -47 -18l66 42c-29 16 -10 -11 -40 6c12 7 46 7 61 9l17 53c6 44 0 64 47 119c17 21 -4 -4 14 7c19 12 -5 13 25 15c25 -37 -27 -112 -32 -156c28 17 -9 7 65 38c7 3 13 6 18 7v2zM211 122c5 0 -1 -39 0 -48c2 -9 2 -20 -2 -14
c-4 7 -5 27 -2 34c2 7 4 28 4 28zM13 435l21 -1c-15 -10 -7 -11 -21 1zM8 11c-8 13 -8 10 3 21c4 -6 11 -17 -3 -21z" />
    <glyph glyph-name="Q" unicode="Q" horiz-adv-x="265" 
d="M26 184l-6 37c-1 1 -1 3 -2 4c-1 -11 0 -38 8 -41zM133 246c0 11 5 8 7 1c3 -10 -7 -4 -7 -1zM185 51l-25 35c14 -4 22 -21 25 -35zM78 283c-11 -16 -4 -23 -3 -44c1 -22 -28 -106 43 -99c0 18 -12 42 -18 57l50 28c-1 -19 -6 -26 3 -44c8 6 2 -3 7 9l18 40h1
c-16 29 24 65 -24 117c-12 -3 -1 11 -11 -14l-7 26c-24 -16 -48 -75 -57 -103c-7 25 9 6 -2 27zM3 232l14 77c-22 -29 -21 -36 -14 -77zM218 357l-2 -1c1 -1 2 2 2 1zM75 396c34 -4 3 22 58 5c-1 15 5 10 21 27c-46 10 -51 -8 -79 -32zM127 458l2 -19c99 0 60 -41 83 -79
c17 26 -8 8 8 24c9 -9 15 -12 23 -18c-19 -32 -4 -31 -11 -72c23 -10 21 21 5 -56c-21 -98 -77 -84 -33 -146c12 -16 36 -48 42 -65c-51 8 -52 49 -82 79c-23 4 -54 -10 -67 -27c-16 -20 14 -41 -14 -53c-12 14 -4 46 -3 67l-22 11c-12 -24 8 -16 -14 -24
c-20 16 0 20 -18 51c-28 49 -11 23 -12 53l-18 13c3 37 -11 55 -2 94c6 26 14 24 17 34c5 16 -12 9 6 29c22 26 28 16 51 53c20 33 34 13 59 51z" />
    <glyph glyph-name="R" unicode="R" horiz-adv-x="306" 
d="M33 208c9 2 10 16 1 6c0 0 -16 -9 -1 -6zM92 342l11 39c54 -12 3 -38 13 -124c44 8 22 0 57 26c28 21 30 13 45 46l-48 65c-1 1 -2 3 -2 4c-6 7 1 1 -8 10c-5 5 -10 8 -17 8c-30 -1 -8 -7 -19 -22c-34 37 12 52 -108 -9c-28 -15 -28 -1 -31 -32c15 6 46 27 62 29
c24 3 8 2 45 -40zM49 104c-21 -66 -1 -47 -4 -84l-11 1c-1 -24 -2 -29 -20 -42c1 47 26 212 17 222c-13 9 -31 -11 -50 19c10 43 30 21 62 23c6 20 9 33 12 54c5 35 9 26 22 49c-8 11 -7 9 -14 23c-64 22 -112 -67 -112 -67c-12 25 12 51 28 71c26 33 14 38 61 50
c105 27 48 18 136 19c3 0 23 1 23 1c15 -2 6 0 16 -8c30 -22 55 -60 72 -93c9 -17 10 -6 -1 -34c-22 -58 -11 -23 -52 -58c-20 -18 -37 -35 -57 -51c-24 3 -2 -1 -24 10c0 -1 2 -1 2 -3c1 -2 2 -3 3 -4c8 -8 1 -2 9 -8c40 -31 28 -21 46 -15c7 -66 -25 -10 53 -85
c20 -20 20 -4 19 -32c-90 37 -96 82 -155 97c11 -28 50 -52 74 -71c-50 18 -76 81 -126 86c-6 -11 -11 -31 -17 -44c-16 -46 4 9 2 -29c-1 0 -2 2 -3 1c-3 -10 -4 1 -5 2c-20 4 15 8 -6 0zM76 390c9 7 1 17 22 1c-18 -10 -8 -8 -22 -1zM-65 275c8 18 10 11 20 5
c-14 -12 -9 -10 -20 -5zM313 38c-9 -5 -2 -11 -16 0h16z" />
    <glyph glyph-name="S" unicode="S" horiz-adv-x="256" 
d="M227 353c-4 3 6 -5 0 0zM230 407c-34 -3 -18 -24 -88 -42l-18 -45c1 23 8 17 -3 32c-66 -29 -28 -12 -59 -39c-11 -10 -6 1 -18 -16c3 -34 24 -30 54 -47c14 -8 17 -13 29 -20c26 -16 12 -3 34 -9c0 32 -4 29 14 55c27 35 -6 0 7 39c3 7 47 91 48 92zM8 171
c-7 -30 -17 -46 8 -76c29 -13 10 16 48 -15c6 12 -8 11 6 25c1 1 61 24 67 74c-39 40 -107 52 -118 65c-24 27 12 1 -33 33c-1 35 8 51 33 71c23 20 26 41 53 55c44 24 93 49 135 74c-22 -18 -46 -22 -50 -44c22 5 37 15 56 22c54 19 16 11 23 31c19 -4 4 -1 11 -15l39 -3
c-3 -78 -36 -31 -35 -91l14 22c1 -24 -8 -24 -16 -48v26c-8 -24 -17 -30 -27 -51c-14 -30 -5 -28 -33 -49c-16 -13 -23 -26 -18 -50c7 -38 15 -30 35 -26c14 -45 9 -22 18 -41c-11 -21 -29 -35 -44 -58c-29 -41 -49 -20 -63 -42c-18 -22 3 -76 -31 -86c-1 29 16 38 0 54
c0 1 -2 2 -2 2c-20 20 -15 20 -52 26c-15 -24 0 -42 -20 -54c-12 17 0 25 -8 53c-6 23 -21 24 -25 40c-3 15 7 35 5 52c-1 20 -5 33 -4 58c29 -11 3 0 16 -41c20 -2 -17 -9 5 3c10 6 -5 7 7 4zM161 474c1 1 0 4 1 4c13 24 -6 3 11 7c-7 -14 4 -7 -12 -11zM255 332
c6 15 7 5 12 7c-6 -11 6 -7 -12 -7zM131 49c0 6 10 13 6 1c-3 -11 -7 -7 -6 -1zM62 18l-17 3c12 7 11 8 17 -3zM156 315c1 9 5 9 6 1c2 -7 -6 -6 -6 -1z" />
    <glyph glyph-name="T" unicode="T" horiz-adv-x="157" 
d="M78 473l58 6c10 -8 -2 -3 19 -10c43 -12 197 29 224 10c-16 -8 -49 -9 -68 -13c-42 -10 12 -12 -112 -23c-9 -26 -55 -31 -82 -31c-5 -40 -17 -71 -22 -107c-7 -55 -14 -19 -30 -98c-7 -39 -8 -78 -16 -112c-9 -36 12 -85 -22 -101c-2 36 12 7 -2 56c-11 38 0 35 6 62
c8 41 -16 15 -5 54c12 42 13 25 -12 49c4 18 12 23 15 44l31 144c-5 -20 -2 -10 -21 -7h-3l-32 2c-31 -4 -77 -16 -91 -13c-5 22 1 22 23 28c1 6 0 7 0 11l2 14c15 -8 24 -8 37 0c-17 6 1 -14 -28 5c25 13 38 12 67 14c34 2 40 12 64 16zM293 445l39 8
c-10 -5 -15 -4 -14 -15zM-2 56c-11 12 -12 5 -3 18c6 -9 8 -4 3 -18zM-101 425c0 3 3 9 6 0c4 -12 -5 -6 -6 0zM326 161c2 14 -2 -7 0 0zM319 104l23 -19z" />
    <glyph glyph-name="U" unicode="U" horiz-adv-x="246" 
d="M148 97l-4 6l-41 -46c29 11 26 23 45 40zM94 109c-8 4 -8 11 -19 -1c19 -12 10 -5 19 1zM131 176c-1 -1 1 -2 1 -3l1 -1s5 15 -2 4zM228 320c0 0 1 11 -2 6c-2 -5 4 -18 2 -6zM173 276l15 15c9 52 30 78 25 136c-2 17 -7 29 1 41c20 -11 9 -12 19 -38c7 19 5 16 19 18
c9 -31 9 -12 2 -45c-8 -32 4 -8 1 -36c-24 -7 14 -9 -7 3c-22 11 12 9 -6 4l-13 -46c22 18 5 7 20 31c1 -44 -53 -129 -58 -195c-2 -30 -49 -88 -72 -108c-19 -16 -11 -1 -41 -12c-7 -33 12 -73 -29 -76l16 35c-36 45 10 5 -24 52c-65 90 -23 185 -32 236c12 7 22 -11 19 46
c-2 37 2 30 11 64c21 -1 5 -1 25 -10c2 10 22 75 26 81c35 -12 0 -43 11 -76c8 -28 9 -12 -2 -43c-21 -56 -54 -155 -39 -214c6 -27 19 -21 47 -17c14 21 8 22 16 41c13 33 30 -10 58 111c-20 9 14 -5 -3 0c-16 4 16 -19 -5 2zM112 444c1 12 8 13 10 1c3 -13 -10 -7 -10 -1z
" />
    <glyph glyph-name="V" unicode="V" horiz-adv-x="256" 
d="M36 208c-5 -5 0 0 0 0zM10 389c-16 21 -7 17 10 16c-3 -16 5 -5 -10 -16zM68 64c-2 1 -6 1 -15 7c5 33 0 58 -16 84c-15 24 -5 19 -5 38c0 8 -4 22 -5 36c-2 45 8 32 -11 79c-8 22 -16 59 -12 81c15 -26 -10 -21 24 -52c-2 30 7 46 6 79c-1 26 -18 46 7 65
c30 -5 24 -97 32 -127l16 29c-4 -25 -14 -37 -12 -67c3 -44 7 -147 29 -177c44 14 70 89 94 144c11 26 15 25 37 36c-8 23 -13 -3 -4 22c4 12 10 23 15 34v-4v-3v-23c19 42 38 78 60 120c30 57 34 103 62 111c4 -25 -10 -52 -23 -73c-19 -31 -17 -41 -29 -71
c-17 -45 -55 -87 -63 -138c13 14 7 15 20 18c-6 -19 -29 -41 -42 -60c-41 -58 -22 -28 -22 -60c-24 -9 -48 -65 -61 -92c-10 -20 -14 -35 -23 -57c-9 -23 -5 -36 -15 -50c-48 5 1 29 5 67c-9 -5 -15 -6 -21 -7c0 -1 0 -2 1 -3c2 -7 -6 -15 -5 -9c1 5 -3 7 -5 6
c-3 -2 -6 -8 -4 -14c3 -7 0 -20 -3 -23c-4 -3 -9 -3 -4 8c6 12 2 18 -4 13c-6 -6 -9 -31 -10 -43c-1 -11 5 -36 -5 -29s-1 48 8 69c5 11 4 25 3 36zM236 336c1 -19 5 3 5 3c7 13 -6 9 -5 -3z" />
    <glyph glyph-name="W" unicode="W" horiz-adv-x="315" 
d="M80 433c1 16 5 13 8 2c2 -11 -8 -4 -8 -2zM17 433c12 5 1 8 14 0h-14zM325 419l10 40c9 20 56 105 37 135c-21 -22 -13 -88 -32 -93c-32 -8 -1 4 -37 -64c-51 -98 -29 -62 -63 -170c-8 -24 -25 -37 -31 -50c-12 -23 -3 -41 -21 -59c-5 43 5 165 -23 189
c-41 -19 -40 -131 -82 -169c-2 29 -1 58 -2 87c0 18 11 54 8 62c-4 14 -8 -7 -9 30c-1 33 7 73 -28 91c-12 -24 -1 -29 -6 -44c-9 -23 -9 -7 -29 -12c-19 -90 11 -146 6 -233c-20 31 -3 53 -12 83c-11 34 23 -20 -6 9c-22 -49 9 -87 16 -129c5 -38 -9 -93 7 -123
c31 6 22 13 19 39c14 6 17 -9 24 26l-19 -20c1 16 64 106 84 125l17 -12c5 -43 3 -56 13 -96c11 -47 -11 -70 -11 -71c39 0 29 37 39 68c15 48 14 42 50 61c-2 47 17 74 26 111c0 -5 1 -12 -1 -18c-4 -9 -5 -18 -1 -17c3 1 5 16 8 31s6 -1 6 -12c0 -12 -5 -48 -9 -63
s9 -19 8 -8s4 55 12 91c8 35 30 178 32 185z" />
    <glyph glyph-name="X" unicode="X" horiz-adv-x="217" 
d="M-37 88l-12 -16zM171 465c-2 11 4 8 7 0c4 -10 -7 -3 -7 0zM-20 438c5 3 -1 9 13 3c-13 -13 -2 -8 -13 -3zM224 -44c10 -16 4 -5 -1 -15c-7 14 -6 2 1 15zM-13 174l-22 -33c4 13 9 28 22 33zM153 -10c0 0 3 -15 3 -26c0 -12 -4 -25 -6 -16c-2 8 3 42 3 42zM130 61
c-1 1 -1 3 -2 5c-11 33 -39 102 -57 122c-17 -40 -68 -78 -85 -97c-16 -17 -19 -35 -40 -53c-24 -21 -8 3 -17 -27c-6 -17 -4 -17 -21 -28l-7 19c11 21 25 29 33 53c9 28 13 31 30 57l75 104l-20 8c18 27 14 6 30 29c-7 22 -9 3 -18 32l-11 29s-1 2 -2 2l-9 19
c-2 4 -1 1 -6 11c-7 14 -9 24 -18 39c15 12 4 2 20 10c0 9 0 32 -1 40c-5 29 -17 25 -8 43c26 -5 20 -31 44 -94c7 -18 15 -26 23 -42c11 -19 7 -32 19 -50l33 59c20 3 -2 -16 16 2l37 69c19 6 16 -12 34 16c12 20 7 25 33 27c1 -13 -1 -8 -2 -15v-16v-21
c-13 -40 -38 -49 -91 -127c15 -5 -11 -1 7 1c7 0 4 2 10 1c-31 -25 -23 -10 -50 -50c11 -37 72 -204 100 -233c10 -10 30 -4 8 -26c-7 4 -47 49 -56 82c0 0 -7 -12 -9 -23c-1 -10 0 -13 3 -23c3 -11 -4 -14 -5 -9c-1 4 -4 17 -2 28c2 12 2 28 -5 24c-7 -3 -5 -9 -4 -23
c2 -13 -2 -44 -2 -55s-14 -19 -6 18c6 28 2 52 -1 63zM35 226c1 2 8 20 -2 6c-8 -12 -5 -16 2 -6zM141 277c0 -1 -1 1 -1 1s-5 -14 2 -3c1 0 -1 3 -1 2zM194 368c15 24 -7 -13 0 0zM171 400c18 5 11 -2 13 18c-23 -17 -7 -8 -13 -18zM-104 -20l8 -17h-22c5 12 -8 8 14 17z
" />
    <glyph glyph-name="Y" unicode="Y" horiz-adv-x="232" 
d="M92 135c1 -10 2 0 3 0c3 1 -4 11 -3 0zM237 526c1 9 6 11 9 0c2 -10 -9 -8 -9 0zM-17 472c-2 24 1 12 10 15c-3 -15 3 -7 -10 -15zM-21 -80c7 13 13 21 24 25c-2 -20 -4 -36 -24 -25zM166 278l-13 -35zM50 372c-4 -7 3 5 0 0zM223 428c25 18 48 89 80 98
c-9 -28 -25 -40 -33 -71c-8 -30 -6 -13 -18 -35c-2 -5 -11 -26 -15 -35c-28 -57 -60 -84 -65 -93c-7 -14 4 -14 5 -20c-46 -53 -25 -33 -53 -88c-45 -88 -11 -99 -53 -96c2 27 19 12 3 35c-32 -21 -17 -113 -69 -160c-23 10 -10 7 18 89c8 25 0 31 13 57c13 25 12 27 18 54
c-17 -7 -17 -13 -26 -32c3 13 4 22 14 32c9 9 7 2 17 4c24 58 -22 33 -24 144c-1 38 -37 93 -42 134c19 13 18 7 32 15c-6 15 -16 37 -10 48c7 -6 36 -66 39 -75c6 -26 -4 -63 2 -82l9 -9c-8 -14 14 -66 21 -82l16 -21c9 23 21 45 30 68c10 27 4 31 19 61c38 71 24 24 40 59
c13 27 8 38 31 61c7 -16 2 -5 0 -26c22 12 8 7 16 4zM290 425l2 -1s2 0 1 -4c-2 -4 -9 -5 -9 -1s6 6 6 6z" />
    <glyph glyph-name="Z" unicode="Z" horiz-adv-x="382" 
d="M69 138c23 6 25 22 42 43c20 22 35 19 40 48c-23 -19 -69 -71 -82 -91zM305 357c-19 -14 -31 -32 -44 -47l-65 -96c-22 -28 -24 -15 -42 -38c-20 -25 -18 -23 -44 -41c27 1 52 5 78 6c71 1 64 -5 147 6c32 4 31 -4 42 -29c-13 7 -42 26 -63 15c12 -6 -1 5 21 -8
c7 -4 20 -13 26 -17c13 -7 19 -10 35 -7c25 4 9 11 28 16l11 -26c-87 -19 -118 11 -126 11c-64 -1 -91 -14 -105 -26v-1c-5 -8 -16 -30 -17 -41c-1 -12 -3 -46 -3 -56c0 -9 -2 -14 -5 -13c-2 1 1 8 2 21c1 12 3 49 -1 63c-3 11 -1 27 0 34c-4 3 -12 4 -27 3
c-37 -4 -46 -4 -73 -20l-14 -7c-42 -21 -6 -61 -42 -79c-13 16 -1 11 -2 37c0 31 -3 7 12 40c-17 13 -7 -2 -17 8l-7 11c-8 13 -12 9 -15 27v17c28 10 55 -15 98 60c15 26 27 21 35 52c28 118 -20 85 -49 113c6 14 20 28 21 41c0 9 -32 13 -54 20c-5 -9 -14 -27 -15 -38
c-1 -12 -3 -46 -3 -55s-2 -15 -5 -14s1 9 2 21s2 50 -1 64c-4 13 0 36 0 36l2 1v2c18 13 70 26 90 27c-16 -11 -12 -2 -17 -20c78 -2 48 -20 88 -12c27 6 67 17 100 5c18 -7 10 -14 41 -17c34 -3 -3 2 31 1c21 -1 28 -2 40 -14l-22 -14c-3 -2 -7 -5 -11 -7
c-6 -3 -9 -8 -10 -15c-1 -8 -1 -8 -2 -17c-2 -10 0 -18 1 -23s-2 -11 -4 -10s-3 3 -2 8c2 5 2 23 3 29c1 7 -1 9 -2 14c-1 6 -12 7 -17 2c-6 -5 -3 -11 -6 -17c-2 -6 -1 -18 -1 -22c0 -3 -3 -1 -5 3c-1 5 -1 10 0 15c1 6 -1 9 -6 12c-3 1 -7 3 -10 6zM10 395c4 2 6 -5 6 -9
c-1 -4 -3 -4 -5 -7s-8 -4 -9 -1c0 3 -3 5 -5 3c-3 -1 -7 -1 -7 1c0 3 2 1 3 4c0 3 4 2 7 2c3 1 1 1 1 6c1 5 9 1 9 1zM25 294c7 -5 3 -11 0 -11c-3 1 0 11 0 11zM166 60c4 2 6 -4 6 -8c-1 -4 -3 -4 -5 -8c-2 -3 -8 -4 -9 0c0 3 -3 4 -5 3c-3 -2 -7 -2 -7 1c0 2 2 0 3 3
c0 3 4 3 7 3s1 0 1 5c1 6 9 1 9 1zM139 50h2s2 -1 1 -5c-2 -4 -9 -4 -9 0s6 5 6 5zM181 -41c7 -5 3 -11 0 -10c-2 0 0 10 0 10zM320 421c10 8 -1 12 21 -1c-11 -4 1 -11 -21 1zM99 342c11 -7 46 7 41 -78c-1 -13 -7 -17 -7 -36c21 16 76 78 82 107c-33 -9 -26 -22 -49 -40
c23 38 58 45 63 79c-19 -4 -57 -12 -78 -14c-36 -2 -15 25 -52 -18zM145 269l18 26l4 -6z" />
    <glyph glyph-name="bracketleft" unicode="[" 
 />
    <glyph glyph-name="backslash" unicode="\" 
 />
    <glyph glyph-name="bracketright" unicode="]" 
 />
    <glyph glyph-name="asciicircum" unicode="^" horiz-adv-x="327" 
d="M84 669l-32 -52c13 2 13 5 21 20c8 14 7 16 11 32zM100 656c12 4 15 12 18 29c-17 -6 -24 -11 -18 -29zM49 477c-1 14 6 35 4 46c-2 19 -10 4 -7 48c4 54 8 87 52 123c15 13 13 25 36 27c29 3 45 -52 48 -75c1 0 2 2 2 1c4 -16 -1 1 7 1h6h4c1 -28 -2 -65 1 -89
c3 -37 21 -41 -4 -78c-13 14 -7 20 -15 26c-3 2 -25 7 -36 13c3 34 -5 100 -16 132c-15 -32 -31 -55 -42 -92c-6 -20 -1 -31 -11 -47c-8 -12 -16 -32 -29 -36zM178 717c11 7 2 9 17 -2c-13 -9 -10 -12 -17 2zM145 745c0 5 9 9 7 0c-2 -10 -6 -8 -7 0z" />
    <glyph glyph-name="underscore" unicode="_" 
 />
    <glyph glyph-name="grave" unicode="`" 
 />
    <glyph glyph-name="a" unicode="a" horiz-adv-x="248" 
d="M141 76c-1 0 2 -1 2 -1zM163 53c-1 -1 -5 -2 -16 -6c-2 29 3 15 -19 32c15 0 14 -6 20 23c3 16 6 33 1 46c-6 2 -5 19 -9 -17l-9 86c-41 2 -34 -17 -43 -49v-4l-3 -45l33 -29c-25 20 -18 19 -50 27l-32 -95c-2 -18 0 -17 -13 -32l-18 10l6 48c-24 -14 -6 -12 -27 -26
c-10 18 1 19 7 45c26 95 45 99 18 117c22 7 12 1 23 21c-25 8 -60 8 -80 -3c16 -14 11 -9 30 -15c-43 1 -22 8 -50 31c20 11 19 -4 15 23l16 -17c50 4 30 3 64 25c1 0 3 1 4 2c1 0 2 1 3 2c26 13 10 -12 24 25c7 19 6 11 15 11l2 16h-1l-3 -1h-7c7 37 7 16 17 36
c11 21 -1 12 19 34c23 24 1 38 36 62c35 25 17 17 31 47c16 31 8 -29 35 22c9 17 3 18 21 27c0 -13 -24 -99 -27 -127c-5 -33 6 -44 2 -77c-4 -30 -4 -38 -2 -71l52 -6c0 -34 -1 -5 -23 -19l-31 -20c1 -19 1 -40 2 -60c2 -30 11 -29 10 -44c-3 -28 -9 -11 1 -50
c3 -15 11 -39 -2 -45l-10 38c-14 5 -15 -1 -18 3c-9 -25 -6 -72 -8 -82c-2 -11 -8 -9 -5 0c3 10 4 53 0 73c-1 3 -1 6 -1 8zM187 514c-2 0 -3 -1 -3 -3s2 -4 4 -4s3 2 3 4s-2 3 -4 3zM-2 250l-25 -11c-11 -3 -6 -8 -12 11h37zM1 -42c2 15 0 20 14 15c0 -13 -6 -13 -14 -15z
M148 518c0 12 4 11 12 13c0 -19 6 -12 -12 -13zM180 528c5 5 -12 7 12 8zM224 562c-2 0 -3 -2 -3 -4s2 -3 4 -3s3 1 3 3s-2 4 -4 4zM57 166c16 -8 15 -11 22 -3zM132 272l-15 -12c22 -1 15 -7 15 12zM58 261c1 -12 2 1 2 1c4 2 -3 14 -2 -1zM142 297c-8 -15 -6 -24 3 -38
c5 11 6 -11 4 19c-1 11 -3 12 -7 19zM61 283c-7 -4 3 -1 3 -1h-1c0 1 -1 2 -2 1z" />
    <glyph glyph-name="b" unicode="b" horiz-adv-x="255" 
d="M52 153c-3 -2 3 3 0 0zM-6 464c-2 0 -3 -2 -3 -4s1 -4 3 -4s4 2 4 4s-2 4 -4 4zM96 482c-2 0 -3 -1 -3 -3s1 -4 3 -4s4 2 4 4s-2 3 -4 3zM93 412c-2 0 -4 -1 -4 -3s2 -4 4 -4s3 2 3 4s-1 3 -3 3zM69 387c-3 0 -5 -2 -5 -4s1 -3 2 -4c-10 -20 -7 -49 -10 -58
c-23 11 -16 39 -27 67c-11 26 -37 37 -53 26c46 -8 59 -18 64 -74c1 -14 4 -58 1 -71c-4 -23 -14 -15 -34 -34c8 -28 22 -20 2 -91c-9 -33 -2 -21 -2 -46c0 -24 -16 -21 5 -35c11 10 10 22 14 36c9 29 3 15 23 15c3 28 13 44 22 64c2 -1 4 -2 5 -3c5 -2 8 -6 6 -11
c-1 -6 -1 -12 0 -16c2 -5 5 -7 5 -3c0 3 -1 16 2 23c3 6 0 12 5 17c6 6 17 4 19 -1c1 -6 3 -9 2 -15c-1 -7 -2 -26 -3 -31c-2 -6 -1 -8 1 -9c3 0 7 5 5 11c-1 5 -3 14 -1 24c1 10 1 10 2 18c1 6 3 11 8 14c11 -9 22 -32 25 -45c-22 -25 -85 -77 -95 -94
c-14 -24 -18 -34 -39 -52l-43 -29v-17c19 -4 34 25 50 39l118 81c7 4 17 12 24 17c2 0 4 -1 5 -4c0 -4 7 -3 9 1c2 3 4 3 5 7v5c4 1 6 2 7 1c0 -3 1 -6 1 -8c4 -15 3 -55 2 -68c-1 -12 -5 -20 -2 -21c2 -2 5 4 5 14s2 46 3 58c0 3 1 7 2 10h1c1 5 2 9 4 13c4 9 8 17 10 21
c1 1 1 2 1 3c9 16 17 30 17 61l-61 53c-12 10 -8 2 -22 14c36 49 73 53 82 87c3 14 -1 5 5 22c3 8 5 7 8 19c-14 10 -50 31 -67 39c-63 29 -43 31 -67 27c-41 -7 -127 21 -168 -30c14 -6 40 16 58 20c15 2 56 -7 74 -12c22 -6 33 -23 51 -35c19 -12 40 -20 55 -31
c-28 -20 -16 0 -35 -29c-15 -23 -18 -19 -40 -32c0 41 19 61 3 95c-21 4 -33 -1 -41 -10c-1 1 -2 1 -3 1zM69 411c-3 0 -7 -4 -7 -7c0 -4 4 -7 7 -7c4 0 7 3 7 7c0 3 -3 7 -7 7zM196 3c7 -5 3 -12 0 -11c-3 0 0 11 0 11zM14 473c12 13 17 13 32 0c-13 -9 -14 -9 -32 0z
M103 23c2 14 1 16 16 19c3 -18 0 -16 -16 -19zM159 177c13 -9 11 -7 9 -15l-11 -2c0 23 8 -2 2 17zM147 269c1 4 12 8 5 1c0 0 -6 -11 -5 -1zM106 295c-1 14 7 1 3 0c0 0 -2 -17 -3 0z" />
    <glyph glyph-name="c" unicode="c" horiz-adv-x="285" 
d="M132 330c-6 -7 2 2 0 0zM281 428c-2 0 -3 -2 -3 -4c0 -1 1 -3 3 -3s3 2 3 3c0 2 -1 4 -3 4zM180 483c-2 0 -3 -2 -3 -4c0 -1 1 -3 3 -3s3 2 3 3c0 2 -1 4 -3 4zM168 515c-4 0 -7 -3 -7 -7s3 -7 7 -7s7 3 7 7s-3 7 -7 7zM6 161c-12 14 -16 43 3 52c-6 -24 -5 -26 -3 -52z
M-12 270c6 4 -1 13 16 2c-18 -18 -11 -4 -16 -2zM140 491c1 22 0 11 10 16c-2 -22 6 -8 -10 -16zM116 276c2 12 2 11 11 13c0 -20 1 -10 -11 -13zM146 177c0 3 4 8 6 -1c2 -6 -6 -7 -6 1zM216 487c-4 0 -7 -3 -7 -7s3 -7 7 -7c3 0 6 3 6 7s-3 7 -6 7zM121 458
c27 -2 5 -9 35 -1c47 13 41 2 78 5c36 2 8 6 34 11c2 -13 3 -57 3 -71c0 -31 -1 -16 -7 -30l-7 -16c-7 9 -2 9 -18 13c-15 -36 3 -38 -11 -60c-48 6 6 61 -9 93c-23 27 -59 -30 -72 -45c16 -8 5 -1 16 4l-18 -40c-25 -5 -18 7 -28 -9c-25 -42 -20 -68 -14 -98
c-27 -15 -30 -41 -32 -74l-6 25c-5 -41 1 -36 14 -71c63 38 137 116 201 138c-3 -12 -10 -23 -18 -31c-27 -23 2 6 -27 -10c-17 -8 -33 -34 -47 -46c19 1 9 2 25 13c-23 -34 -14 -14 -44 -28c-1 -1 0 -3 0 -4v-4l3 -44c-26 9 2 6 -27 13c-21 -24 -15 -7 -36 -25
c-5 -4 -20 -21 -25 -28c4 -26 13 -50 -10 -70c-14 14 -3 29 -6 60c0 2 -27 36 -42 45c-4 -29 11 -53 -20 -57c-21 34 15 160 15 205c-1 27 -12 24 0 49c10 20 15 9 22 34c5 20 8 65 17 84c16 -7 3 -4 8 -16c43 68 22 33 19 55c2 0 8 -3 9 -3l5 1s2 0 2 1c11 0 0 12 16 -5z
" />
    <glyph glyph-name="d" unicode="d" horiz-adv-x="287" 
d="M34 111l4 -3l25 28c-7 -3 -31 -23 -29 -25zM141 161c-28 -46 23 -82 -15 -97c-16 19 3 35 -5 59c-26 9 -56 -23 -81 -41c-52 -38 -21 -42 -39 -80c-27 4 -14 7 -25 30c-19 -10 -31 -33 -51 -30l85 81c16 24 -18 3 44 62c7 6 6 0 17 7c45 30 28 53 48 68c8 6 17 7 25 13
c10 9 28 37 30 51c1 13 0 44 -6 59l-4 -12c-2 9 3 25 -34 35c-6 -15 -15 -47 -28 -65l-4 -3c-48 -47 40 11 -28 -47c7 -26 10 -12 4 -41c-3 -14 -5 -28 -9 -38c-1 4 -2 26 -3 28l-21 -51l-22 8c-7 38 42 122 22 157c1 0 11 -19 17 13c3 20 -2 23 -14 35c15 10 16 0 18 22
c-37 8 -35 2 -69 0c-1 1 -35 36 -60 5c14 -30 62 -14 102 -65c-23 21 -25 25 -55 36c-20 8 -50 12 -55 31l-61 -28c4 29 14 13 33 37c12 16 -7 2 13 18c11 9 12 7 27 7l-21 -11c15 -1 69 28 82 33c23 9 49 9 78 6c8 52 15 25 33 50c10 13 5 38 28 49c17 -13 12 -7 9 -26
l-2 -87c23 -29 67 -1 106 -74c11 -20 6 -31 15 -59c13 -35 -4 -25 -18 -47c-4 -7 -6 -12 -8 -16c0 0 13 -42 2 -48c-10 -5 -14 -14 -14 -27c-1 -13 0 -14 -1 -30s3 -31 6 -39c4 -9 -2 -19 -6 -18c-3 1 -5 5 -4 13c2 9 -1 40 0 52c0 11 -3 15 -6 24c-4 9 -23 10 -31 1
s-2 -19 -6 -29c-3 -11 1 -32 2 -38c0 -6 -5 -3 -9 4c-3 8 -4 17 -3 26c2 9 -3 16 -12 19c-4 2 -11 5 -16 8zM179 92c5 0 3 -39 5 -49c3 -9 4 -20 -1 -14c-4 7 -8 27 -6 34c2 8 2 29 2 29zM159 474l13 -2c-14 -11 -4 -5 -13 2zM56 502l14 12c0 -12 1 -21 -14 -12zM-55 440
c11 20 27 11 28 12c0 1 2 -1 4 -3z" />
    <glyph glyph-name="e" unicode="e" horiz-adv-x="364" 
d="M137 178c-6 -8 7 -2 7 -2c11 -3 -2 9 -7 2zM99 83h1c-21 -3 -42 -6 -61 -6c-7 -10 -7 -13 -14 -21c-32 -33 -15 -40 -28 -47c-3 -7 -5 -15 -5 -20c0 -12 1 -46 2 -55c0 -9 -1 -15 -4 -14s0 9 0 21c1 12 -1 50 -6 63c-6 14 -5 24 -2 33v4h2c2 7 5 15 4 25
c-1 19 -18 51 -15 60c10 14 147 12 90 28c26 4 46 17 71 33s41 10 71 23c-22 0 -75 -1 -94 -6c-21 -7 -55 -29 -77 -20c-9 -20 -10 -28 -33 -35c1 28 6 31 0 57l17 10c-14 31 -7 0 -22 25c35 37 33 -7 71 14c53 31 35 30 49 40v-10c7 5 14 12 14 12l48 29
c-25 2 -48 7 -80 -3c-20 -6 -26 -4 -47 -6c-27 -4 -19 -7 -39 -11l-15 16l22 10c-3 35 2 31 14 50c10 16 1 5 7 22l20 -20c71 24 16 17 87 15c54 -3 123 5 178 9c2 -11 8 11 -5 -3c-9 -9 -3 4 -2 -14v-4l-1 -1c25 -10 33 -5 53 -12l-15 -7c-26 -5 -14 7 -50 -11
c-24 -11 -17 2 -43 -24c-32 15 -23 11 -62 -7c-12 -6 -37 -17 -38 -28c0 -1 1 -4 1 -4l-49 -33c38 -2 188 6 210 -1c2 -16 -2 -21 -14 -29c18 -3 24 -1 34 -9c-14 -1 -28 0 -41 -1c-13 -2 -21 -8 -36 -9c-24 -3 -3 11 -60 -13c-20 -9 -48 -23 -67 -25
c-24 -4 -41 -11 -56 -30c21 -9 112 -4 140 -1c19 -2 -2 -4 1 -12c37 6 23 15 63 3l3 14c25 -3 13 -4 46 0l12 -18c20 1 38 6 51 -5c-43 -13 5 14 -87 -13c-28 -9 -63 -6 -91 -8c-18 -2 -38 -5 -58 -8c-2 -3 -2 -7 -3 -11c0 -9 0 -9 -1 -19c-1 -11 2 -20 4 -25
c1 -6 -2 -12 -5 -12c-2 1 -3 3 -2 9c1 5 0 25 1 33c0 7 -2 9 -4 15s-14 7 -19 1s-2 -13 -4 -19c-3 -7 -1 -21 0 -25c0 -3 -4 -2 -6 3s-2 11 -1 17s-2 10 -8 12c-5 2 -17 9 -17 9zM-30 14c4 2 6 -4 6 -8s-2 -4 -4 -8c-1 -3 -8 -4 -9 -1c0 3 -3 5 -5 3c-3 -2 -7 -3 -7 0
c0 2 2 1 2 4s5 3 7 3c3 0 1 0 1 6c1 5 9 1 9 1zM-56 2h2s2 -1 1 -5s-8 -4 -9 -1c0 4 6 6 6 6zM231 86c14 11 9 10 23 2c-4 -3 4 -5 -13 -6c-20 -2 -1 -2 -10 4zM184 52c0 21 2 20 19 13zM104 431c-14 9 -11 5 -2 15c11 -9 11 -1 2 -15zM340 238c-4 15 0 11 12 13zM137 427
c-2 9 3 9 8 1c4 -9 -8 -6 -8 -1zM222 299l10 7c-1 -7 4 -18 -10 -7zM200 438c0 5 3 8 5 1c2 -5 -5 -6 -5 -1zM-8 -86c7 -4 4 -10 1 -10s-1 10 -1 10zM31 359c0 -8 10 -6 7 2c-3 10 -7 9 -7 -2zM418 120c-3 0 -6 -3 -6 -7c1 -3 4 -6 7 -6c4 0 7 4 6 7c0 4 -3 7 -7 6z" />
    <glyph glyph-name="f" unicode="f" horiz-adv-x="320" 
d="M70 3c-12 18 -14 7 -2 29c16 -25 10 -13 2 -29zM38 -62c-4 0 -7 -3 -7 -7s4 -7 7 -7c4 0 7 3 7 7s-3 7 -7 7zM294 240c-3 0 -6 -3 -6 -7s3 -7 7 -7s7 3 7 7s-4 7 -8 7zM-24 403c-4 0 -7 -3 -7 -7s3 -7 7 -7s7 3 7 7s-4 7 -7 7zM13 403c66 3 260 28 320 -1l-22 -8
c17 -17 14 -14 17 -37c-28 2 -65 33 -117 14c-50 -18 -9 -2 -66 -11c-19 -39 -8 -55 -5 -72c1 -6 3 -19 3 -27l-15 25c-10 -58 10 -37 21 -37h9c46 0 6 11 49 6c16 -2 25 -5 44 -5l-43 -13c57 -3 63 2 76 -20l-58 -7c-3 -2 -6 -5 -7 -9c-3 -10 -4 -46 -4 -52
c1 -7 3 -17 -2 -14c-6 4 2 38 0 59c0 8 -5 12 -10 14l-93 -10l-7 -28c-11 20 -5 20 -15 -8c-5 -14 -11 -28 -9 -38c17 12 10 24 21 44c-5 -74 -19 -23 -31 -86c-11 14 -5 18 -11 -14c-18 -84 -3 -22 -24 -78c-8 -19 -4 -23 -10 -37c-35 12 -11 19 -9 49c2 54 28 93 23 189
c-17 0 -43 -5 -56 3c-12 44 39 14 39 50c1 34 -39 32 -21 68c2 -26 11 -51 36 -69c12 3 18 4 28 18c1 2 2 1 2 5c-2 20 2 -3 -9 2c8 20 7 14 -4 34h6c5 0 8 -1 9 9c0 11 -3 17 -1 31c-21 5 -55 -5 -65 -25l3 15c-25 1 -16 -7 -31 8c-2 32 10 21 33 22c-7 30 -16 -13 6 41z
M36 419l6 7l29 -4c-19 -7 -12 -9 -35 -3zM21 441c-2 23 -4 10 5 24c8 -13 13 -9 -5 -24zM9 -77c-10 16 -8 3 -1 20c9 -18 10 -2 1 -20zM-13 420c0 7 4 10 7 0c3 -12 -7 -6 -7 0zM69 458c13 7 0 9 15 1c-11 -6 -5 -7 -15 -1z" />
    <glyph glyph-name="g" unicode="g" horiz-adv-x="263" 
d="M143 -59c1 1 8 12 1 10c-9 -2 -2 -10 -1 -10zM172 316c-4 0 -7 -3 -7 -6c0 -4 3 -7 7 -7c3 0 6 3 6 7c4 21 12 21 16 45c3 17 0 28 7 45c-60 8 -87 -72 -89 -74c-7 -12 -15 -13 -27 -25c-25 -25 -51 -129 -37 -166c20 4 44 18 58 30l9 -4l15 9c-4 24 -2 18 -1 45
c-25 -3 -40 -10 -53 14c32 23 78 22 97 36c27 19 11 13 49 17c65 6 59 4 49 -28c-18 -54 1 -74 -31 -78l5 42c-17 -6 -31 -20 -42 -34c-23 -27 -13 -17 -12 -40c2 -37 -27 -81 -14 -117c-13 -8 1 9 -15 5c-5 -16 -13 -39 -12 -55c2 -22 15 -33 -18 -44c-12 23 -3 -2 -2 47
c1 18 -1 26 -2 43c-3 38 -1 54 1 73c-9 -4 -13 -12 -15 -24s-1 -12 -3 -27c-3 -15 0 -29 2 -37s-4 -17 -7 -16c-4 1 -5 5 -3 13c2 7 3 37 5 47c1 11 -1 14 -3 23c-3 9 -21 11 -29 3s-3 -18 -8 -27c-5 -10 -2 -30 -2 -35c0 -6 -5 -3 -8 4s-3 16 0 24c2 9 -2 15 -10 19
c-3 1 -8 4 -12 6c-1 0 -2 -1 -3 -1c-18 10 -15 29 -33 79c-35 98 22 169 41 234c36 4 -9 -4 13 -8c20 34 35 46 68 64c37 19 8 38 103 20l18 31c12 -2 1 -1 16 -11c19 17 6 17 32 21c-5 -42 -11 -56 -34 -90c-10 -17 -10 -27 -19 -42c-10 -14 -17 -16 -22 -34
c-21 37 0 -16 -38 -22c0 3 -3 6 -6 6zM307 484c-8 16 -1 13 2 18c9 -14 14 -4 -2 -18zM193 486c-10 12 -5 6 1 16c6 -10 11 2 -1 -16zM63 4c4 0 -2 -36 0 -45c1 -9 1 -19 -2 -13c-4 7 -5 25 -3 32c3 7 5 26 5 26zM175 91c-1 -4 1 0 0 0zM179 113c0 -14 2 -1 2 -1
c4 0 -2 10 -2 1zM186 176c13 9 26 25 32 37c-28 -19 -21 5 -32 -37zM-5 271c-7 -11 3 -3 3 -3s-1 0 -1 1s-1 3 -2 2zM262 256l5 17l-16 -4zM1 280c0 -17 3 -1 3 -1c4 0 -2 13 -3 1zM34 345l-29 -57c18 11 24 36 29 57zM37 362c0 -9 7 -10 8 1c1 20 -8 0 -8 -1zM150 403
c18 3 41 2 56 11c-34 7 -30 2 -56 -11z" />
    <glyph glyph-name="h" unicode="h" horiz-adv-x="289" 
d="M73 208c-6 -39 -16 -68 -23 -98c29 19 57 73 69 107zM42 140c-1 -4 7 -8 5 1c-2 7 -5 8 -5 -1zM208 272l21 132c-45 -42 -59 -75 -75 -131c34 2 20 10 54 -1zM255 427l9 9c-2 0 -18 6 -9 -9zM146 265c15 26 10 41 28 70c12 19 26 36 38 54c10 17 19 52 32 59
c33 18 0 -24 54 39c17 -18 14 -25 4 -46c-11 -23 -8 -34 -16 -59c-13 -37 -24 -74 -32 -112c19 -11 16 -6 22 -33c-26 -33 -21 20 -35 -63c-3 -15 -3 -31 -6 -42c-6 -25 -7 -18 -20 -28c-45 -33 -12 -104 -48 -140c-14 21 29 208 32 251l-39 7l-20 -37c-11 22 3 13 -5 34
c-35 -14 -49 -80 -77 -109c-37 -37 -25 -118 -41 -134c-13 12 -3 67 -1 90c-25 -16 -17 -17 -21 -46c-9 27 -3 12 -10 13l-23 -23c23 38 61 47 59 97c-9 -3 -3 -2 -10 -8c-16 -14 8 -6 -2 -3c3 34 -6 84 5 114c-21 14 -6 -9 -42 16c-38 25 -23 1 -38 21c41 21 87 6 93 6
c10 38 10 63 15 102c8 60 16 43 53 60l19 48l27 -6c-22 -47 -48 -149 -56 -198c22 0 41 -2 61 6zM7 -67l8 17c9 -3 11 10 14 -19c-23 -5 -7 -4 -22 2zM209 57c-10 14 -11 9 -1 26c15 -8 12 -12 1 -26zM158 -65l13 11c-1 -17 4 -12 -13 -11z" />
    <glyph glyph-name="i" unicode="i" horiz-adv-x="118" 
d="M24 93c-6 -9 2 3 0 0zM77 163c-4 2 -7 -4 -7 -9c-1 -4 2 -4 3 -8c2 -3 8 -5 9 -2s4 5 7 3c2 -2 7 -4 7 -1s-2 1 -2 4s-5 4 -8 4c-2 1 0 1 0 6c0 6 -9 3 -9 3zM103 148l-1 -1s-3 0 -2 -4s8 -6 9 -2s-6 7 -6 7zM66 187c21 61 45 124 46 144c1 22 8 135 5 144
c-22 -8 -15 -20 -30 -35c-16 -16 -34 -20 -49 -30c-4 -52 -20 -24 -27 -153c-3 -47 0 -26 7 -27l-18 -168c25 5 12 1 22 25c-2 -13 -7 -46 -11 -56c-9 -24 -16 -35 -1 -59c31 27 11 58 27 123c4 15 9 31 14 48v-5c-1 -12 -4 -48 -6 -58c-1 -10 0 -16 3 -15s0 9 1 22
s6 52 12 66c4 10 5 26 5 34zM12 436c-1 14 4 10 7 1c4 -9 -7 -4 -7 -1zM45 59c-8 -3 -4 -10 -2 -10c3 0 2 10 2 10zM32 221l11 19c5 -26 11 -17 -4 -34zM110 317l-30 -75c-1 14 2 29 4 41c5 22 7 23 26 34zM29 315c-5 6 -16 -3 -4 24z" />
    <glyph glyph-name="j" unicode="j" horiz-adv-x="233" 
d="M186 399l-6 -16c8 3 5 -9 6 16zM-19 426c85 23 97 13 186 19c15 1 12 1 24 3c2 1 9 3 10 3l5 -1c57 -12 101 -3 124 -20c-10 -37 5 -13 -62 -25l22 12c-24 18 -14 -5 -69 -2c-42 2 -10 8 -21 -36c-10 -42 -13 -28 -27 -114c53 26 42 112 91 136c-66 -90 -35 -74 -86 -140
c-13 -16 -37 -103 -40 -130c-3 -29 9 -28 -2 -51c-21 -24 -9 8 -36 -23c-66 -77 -11 -82 -44 -118c-30 8 -5 41 -4 62c-25 20 -29 18 -41 51c-9 25 -13 52 -14 81l31 15c2 24 3 9 -12 15c29 31 10 41 37 53c45 2 -69 -136 -1 -172c19 21 18 35 26 61c13 38 15 30 1 64
c19 14 20 33 24 58c7 46 -8 37 -7 55c0 1 18 52 22 83c2 17 -2 6 7 29l-64 -17c-20 -26 -21 -58 -46 -62c41 119 -14 70 -34 111z" />
    <glyph glyph-name="k" unicode="k" horiz-adv-x="317" 
d="M282 75c-1 -18 -8 -10 9 -19c-1 15 10 6 -9 19zM28 54v25c-20 -22 -7 -18 0 -25zM49 401c25 -7 0 -8 12 -12c7 -3 -2 15 24 53c38 55 5 14 38 68c14 -12 10 -9 6 -25l-21 -100c-5 -32 -35 -98 -23 -121c13 7 26 22 41 33c48 32 39 29 60 54l57 53c9 -23 -5 1 -1 -18
c34 6 22 5 48 19c-13 9 -22 10 -23 29c16 -4 15 -8 30 -21l30 10c-13 -38 -1 -14 -31 -39l7 -13c-8 -8 -47 -34 -58 -41c-24 -17 -36 -32 -53 -45c-14 -11 -91 -44 -116 -71c73 -18 50 2 112 -54c8 -8 25 -15 36 -20c44 -21 100 -60 79 -115c-15 5 -19 9 -28 43
c-17 65 -105 80 -117 75c2 -14 14 -28 27 -36c56 -35 55 1 91 -96c-2 9 -16 44 -26 53c-18 16 -31 29 -58 29l36 -33c-17 0 -65 49 -72 62c-14 23 -8 46 -87 54c2 -32 8 -80 -8 -104l-4 32c-7 -6 -1 0 -7 -8c-3 -4 -4 -6 -5 -10c-34 -70 -12 -22 -36 -57
c-26 -38 30 -64 -8 -72c-37 39 4 221 0 237l-56 14c7 26 25 20 39 36c11 13 19 42 23 51c-1 -28 -16 -29 -11 -52h18l21 90v3c0 1 -1 3 -1 4c0 26 9 11 15 61zM30 0c-2 3 -11 4 0 37c18 -13 12 -26 0 -37zM90 71c-11 17 -6 7 0 20c6 -15 9 -2 0 -20zM52 437
c-13 -7 -7 -1 -10 9c3 -1 14 5 10 -9zM71 474c0 2 3 8 6 -1c3 -10 -6 -5 -6 1z" />
    <glyph glyph-name="l" unicode="l" horiz-adv-x="153" 
d="M118 469c6 24 -1 26 15 38c20 -42 -2 -67 -10 -79c-13 -22 -13 -57 -19 -84c-9 -47 1 -38 5 -88c4 -39 -10 -58 -10 -92c-2 25 1 28 6 52c6 25 1 43 1 70c-25 -13 -3 6 -16 -21c-17 -32 -9 -35 -14 -63c-5 -34 -14 -58 -13 -95c23 5 39 6 62 9l29 4c11 -1 9 -12 10 -9
c0 1 0 -3 1 -4c32 4 113 9 143 1l-21 -11c40 -12 63 7 79 -2c-11 -32 -89 -32 -120 -33c-5 18 -4 -18 3 7c3 10 6 -1 1 12c-39 2 -96 -9 -130 -12v-3c-2 -42 -32 -14 -87 -29c-33 -10 -49 -48 -80 -20c-2 37 13 5 8 47c-17 -8 -24 -15 -45 -10c8 19 20 25 41 28
c34 6 60 29 66 67c5 33 -4 25 -13 50c-9 27 12 72 16 106l15 114c14 28 -1 -5 19 18c21 25 -14 10 58 32zM159 57c5 10 37 7 52 7c-16 -2 -18 -5 -30 -8c-16 -4 -18 1 -22 1zM-9 128c0 20 -2 15 9 29c8 -15 6 -18 -9 -29zM351 112c-11 10 -7 5 -2 14c10 -15 5 -7 2 -14z
M106 518c0 0 3 11 7 -2c2 -10 -6 -10 -7 2zM78 487c-1 18 7 10 10 10z" />
    <glyph glyph-name="m" unicode="m" horiz-adv-x="301" 
d="M205 147l2 34zM81 160c4 1 6 -6 4 -10c-1 -4 -3 -4 -5 -7c-3 -3 -10 -3 -10 0c0 4 -2 6 -5 5s-8 -1 -7 2c0 2 2 0 3 3s5 2 8 2c3 -1 1 0 3 5c0 2 1 2 2 3c1 33 9 84 -11 101c-2 -6 -1 -14 -4 -25c-3 -12 -8 -20 -12 -31c-8 -27 -2 -46 -4 -72c-2 -25 -13 -35 -19 -64
c-5 -31 6 -57 -6 -71c-48 21 -4 223 -4 223c-2 28 -3 29 2 60c9 66 -3 54 -7 73c-5 25 2 0 2 25c-1 23 -14 25 -19 40c41 24 22 -40 57 -23c2 20 -18 8 -3 22c1 -1 23 -28 28 -34c17 -20 10 -22 17 -49c7 -28 24 -64 35 -94c26 22 36 78 58 105c15 17 36 54 41 76l10 26
c6 -11 3 -14 -3 -29c12 5 18 20 20 35c23 2 9 -6 27 3c0 10 4 22 2 31c-3 23 1 0 -10 22c30 -13 16 -19 28 -58c8 -25 -11 -34 -17 -65c19 -6 -4 -2 19 8l-18 -49c3 24 11 18 -3 37c-16 -44 -22 -139 -38 -184c-33 -93 -27 -163 -37 -184c-10 13 -3 101 -8 134
c-6 41 11 80 -6 133c-29 -31 -42 -101 -42 -101c-9 -20 0 -8 -10 -3c0 0 -2 0 -2 1s-1 1 -2 1c-7 -10 -15 -21 -24 -29c-5 -9 -11 -19 -13 -25c-3 -13 -10 -48 -12 -58c-2 -9 -5 -15 -7 -13c-3 1 2 9 5 21s10 46 10 63h-1l1 1c0 1 0 2 -1 3c-1 15 7 38 7 38h1
c4 23 9 26 -15 49c-13 -17 -9 -47 -10 -71c2 0 5 -2 5 -2zM51 154l2 -1s2 -1 0 -5s-10 -3 -9 1c0 4 7 5 7 5zM178 60c-3 32 -10 38 13 47c2 -17 -1 -34 -13 -47zM20 425l3 13c19 -3 17 -9 -3 -13zM245 478c-11 11 -9 3 0 17v-17zM-11 335c-12 1 -9 -4 -9 12zM61 442
c0 1 2 9 6 -1c3 -11 -6 -5 -6 1zM311 468c1 14 -6 7 8 11zM80 52c6 -6 1 -12 -2 -11c-2 1 2 11 2 11zM148 204l-5 -18zM200 315c-7 -25 -12 -15 -2 -31c8 11 12 15 2 31z" />
    <glyph glyph-name="n" unicode="n" horiz-adv-x="273" 
d="M259 440c10 -73 -14 -189 -32 -262c-8 -31 -13 -29 -23 -51c-14 -34 3 -32 -9 -66c-11 2 -17 -5 -37 32l18 4c-1 44 8 32 -19 51c-8 -21 9 -11 -2 -31c-11 25 -60 111 -74 122l-17 -87c1 32 21 87 9 110c-28 -23 -27 -101 -15 -135c-20 -11 -6 0 -13 -3
c-16 -8 -18 -40 -17 -54c3 -24 7 -57 -26 -64c-9 16 -3 25 -10 41c-1 2 -24 25 -27 28l19 12l12 -24c20 56 -16 -8 -16 78c20 7 -14 6 9 -1l1 -1c-10 30 -1 19 4 56c2 24 -3 42 -2 67c2 51 13 -3 22 122l42 24l-3 39c14 1 31 -14 40 -29c4 -9 24 -134 74 -165l16 12
c-10 19 12 76 4 138c-4 29 -15 25 5 35c9 -18 3 -7 0 -30c-3 -30 -8 -19 6 -36c19 12 9 35 21 84c11 51 -4 51 -5 85c24 -8 41 -72 45 -101zM-28 252c1 26 1 51 18 63zM17 401c-5 10 -11 7 1 29c6 -12 5 -19 -1 -29zM-24 32c8 -13 6 12 5 -10c-1 -16 3 -2 -5 -12
c-8 14 -11 4 0 22zM172 278c-11 16 -8 5 -2 20c13 -24 5 -12 2 -20zM187 502c0 17 5 10 7 1c3 -9 -8 -4 -7 -1zM51 462l10 12c-3 -15 4 -10 -10 -12zM256 522l3 13z" />
    <glyph glyph-name="o" unicode="o" horiz-adv-x="239" 
d="M141 68c-2 -1 -4 -1 -8 -2c1 -1 1 -3 1 -5c-1 -4 -3 -4 -5 -7c0 -1 -1 -2 -2 -2c-7 -24 2 -37 -22 -48c-15 27 -5 13 -1 38c2 14 6 6 -2 13c-1 -4 -9 -5 -9 -1c0 3 3 5 5 6c-1 1 -3 3 -5 6c-50 -9 -39 -30 -38 -81c-2 41 -1 53 -20 84c19 12 -1 -8 20 7
c-26 18 -7 7 -26 27c-14 -16 10 -8 -12 -20c-24 37 -16 38 -38 55c18 23 10 24 8 56l4 133c5 39 29 28 53 61c4 6 8 11 12 16c11 18 6 -3 9 19c4 24 -9 17 -7 39h33c65 -6 79 -32 101 -62c26 -35 9 -21 18 -50c7 -25 0 0 18 -25c-23 -83 15 -111 -14 -154
c-13 -18 -28 -36 -38 -53c-9 -15 -10 -21 -9 -24l1 -1c3 -6 12 -3 -13 -33c-3 -7 -5 -13 -5 -17c-1 -13 -3 -49 -3 -59s-2 -15 -5 -14s1 9 2 22c1 12 2 52 -2 67c0 3 -1 6 -1 9zM82 163c-2 25 6 14 14 17c-1 -16 5 -7 -5 -19zM-23 258c-7 19 -3 13 1 24c8 -13 12 -1 -1 -24z
M146 454c0 0 4 13 8 -1c2 -9 -8 -10 -8 1zM144 -36c7 -5 3 -12 0 -11c-3 0 0 11 0 11zM55 70c-1 -1 1 -2 2 -2zM79 253c10 -6 19 -17 33 -2c0 1 1 2 2 2l14 81c15 -18 4 -2 10 -27c18 -78 3 -34 1 -77c-1 -41 16 -76 -33 -79l1 67c-14 -12 -9 -8 -18 -26c-35 7 0 13 -17 10
c-2 -8 -2 -17 -4 -30c-4 -22 -8 -15 3 -33c13 -18 42 -30 62 -33c105 165 42 150 31 227c-22 -2 -18 -2 -36 13c-34 -45 -60 -14 -49 -93zM-6 289c14 14 16 25 23 45c8 23 14 21 21 39c-28 -27 -46 -36 -44 -84zM99 441c19 -16 3 1 30 -7c18 -5 7 -5 23 -14
c-12 24 -29 33 -53 21zM72 429l18 15c-16 16 -20 5 -18 -15z" />
    <glyph glyph-name="p" unicode="p" horiz-adv-x="331" 
d="M-16 138c0 0 5 1 4 2zM182 261l3 -1c18 7 25 9 43 32c2 37 -13 56 -48 67l-4 8c-89 54 -56 49 -168 13c-56 -18 -46 -13 -55 -2c21 11 48 23 76 31c14 3 28 8 41 14c51 21 13 51 94 4c33 -18 33 -2 61 -26c37 -32 55 -20 74 -58c6 -12 -3 3 8 -15c3 -4 7 -8 11 -14
c-29 -55 -5 -36 -20 -72c-6 0 -10 1 -12 1c1 -10 0 -20 -5 -22c-11 -5 -15 -14 -17 -27c-2 -12 -1 -13 -4 -29c-2 -16 1 -30 3 -39s-4 -18 -8 -17c-3 2 -5 5 -2 14c2 8 2 39 4 50s-1 15 -3 24s-21 12 -29 3c-8 -8 -3 -18 -8 -29c-5 -10 -3 -31 -3 -37s-5 -3 -8 5
c-2 8 -2 17 0 26c1 2 1 4 1 6c-1 1 -1 2 -1 2v3c-2 3 -5 6 -10 8c-2 1 -4 7 -6 16c-41 -9 -90 -24 -95 -28c-15 -10 -20 -23 -20 -40c1 -103 -33 -29 -28 -101v-2c-3 -27 -2 15 -9 -17c-4 -20 14 -33 -10 -50c-30 23 11 62 1 84l-11 8h-3h-2c3 37 11 67 15 100
c-16 -9 -26 -8 -40 -17c-22 -14 -18 -20 -47 -18l66 42c-29 16 -10 -11 -40 6c12 7 46 7 61 9l17 53c6 44 0 64 47 119c17 21 -4 -4 14 7c19 12 -5 13 25 15c25 -37 -27 -112 -32 -156c28 17 -9 7 65 38c7 3 13 6 18 7v2zM211 122c5 0 -1 -39 0 -48c2 -9 2 -20 -2 -14
c-4 7 -5 27 -2 34c2 7 4 28 4 28zM13 435l21 -1c-15 -10 -7 -11 -21 1zM8 11c-8 13 -8 10 3 21c4 -6 11 -17 -3 -21z" />
    <glyph glyph-name="q" unicode="q" horiz-adv-x="265" 
d="M26 184l-6 37c-1 1 -1 3 -2 4c-1 -11 0 -38 8 -41zM133 246c0 11 5 8 7 1c3 -10 -7 -4 -7 -1zM185 51l-25 35c14 -4 22 -21 25 -35zM78 283c-11 -16 -4 -23 -3 -44c1 -22 -28 -106 43 -99c0 18 -12 42 -18 57l50 28c-1 -19 -6 -26 3 -44c8 6 2 -3 7 9l18 40h1
c-16 29 24 65 -24 117c-12 -3 -1 11 -11 -14l-7 26c-24 -16 -48 -75 -57 -103c-7 25 9 6 -2 27zM3 232l14 77c-22 -29 -21 -36 -14 -77zM218 357l-2 -1c1 -1 2 2 2 1zM75 396c34 -4 3 22 58 5c-1 15 5 10 21 27c-46 10 -51 -8 -79 -32zM127 458l2 -19c99 0 60 -41 83 -79
c17 26 -8 8 8 24c9 -9 15 -12 23 -18c-19 -32 -4 -31 -11 -72c23 -10 21 21 5 -56c-21 -98 -77 -84 -33 -146c12 -16 36 -48 42 -65c-51 8 -52 49 -82 79c-23 4 -54 -10 -67 -27c-16 -20 14 -41 -14 -53c-12 14 -4 46 -3 67l-22 11c-12 -24 8 -16 -14 -24
c-20 16 0 20 -18 51c-28 49 -11 23 -12 53l-18 13c3 37 -11 55 -2 94c6 26 14 24 17 34c5 16 -12 9 6 29c22 26 28 16 51 53c20 33 34 13 59 51z" />
    <glyph glyph-name="r" unicode="r" horiz-adv-x="306" 
d="M33 208c9 2 10 16 1 6c0 0 -16 -9 -1 -6zM92 342l11 39c54 -12 3 -38 13 -124c44 8 22 0 57 26c28 21 30 13 45 46l-48 65c-1 1 -2 3 -2 4c-6 7 1 1 -8 10c-5 5 -10 8 -17 8c-30 -1 -8 -7 -19 -22c-34 37 12 52 -108 -9c-28 -15 -28 -1 -31 -32c15 6 46 27 62 29
c24 3 8 2 45 -40zM49 104c-21 -66 -1 -47 -4 -84l-11 1c-1 -24 -2 -29 -20 -42c1 47 26 212 17 222c-13 9 -31 -11 -50 19c10 43 30 21 62 23c6 20 9 33 12 54c5 35 9 26 22 49c-8 11 -7 9 -14 23c-64 22 -112 -67 -112 -67c-12 25 12 51 28 71c26 33 14 38 61 50
c105 27 48 18 136 19c3 0 23 1 23 1c15 -2 6 0 16 -8c30 -22 55 -60 72 -93c9 -17 10 -6 -1 -34c-22 -58 -11 -23 -52 -58c-20 -18 -37 -35 -57 -51c-24 3 -2 -1 -24 10c0 -1 2 -1 2 -3c1 -2 2 -3 3 -4c8 -8 1 -2 9 -8c40 -31 28 -21 46 -15c7 -66 -25 -10 53 -85
c20 -20 20 -4 19 -32c-90 37 -96 82 -155 97c11 -28 50 -52 74 -71c-50 18 -76 81 -126 86c-6 -11 -11 -31 -17 -44c-16 -46 4 9 2 -29c-1 0 -2 2 -3 1c-3 -10 -4 1 -5 2c-20 4 15 8 -6 0zM76 390c9 7 1 17 22 1c-18 -10 -8 -8 -22 -1zM-65 275c8 18 10 11 20 5
c-14 -12 -9 -10 -20 -5zM313 38c-9 -5 -2 -11 -16 0h16z" />
    <glyph glyph-name="s" unicode="s" horiz-adv-x="256" 
d="M227 353c-4 3 6 -5 0 0zM230 407c-34 -3 -18 -24 -88 -42l-18 -45c1 23 8 17 -3 32c-66 -29 -28 -12 -59 -39c-11 -10 -6 1 -18 -16c3 -34 24 -30 54 -47c14 -8 17 -13 29 -20c26 -16 12 -3 34 -9c0 32 -4 29 14 55c27 35 -6 0 7 39c3 7 47 91 48 92zM8 171
c-7 -30 -17 -46 8 -76c29 -13 10 16 48 -15c6 12 -8 11 6 25c1 1 61 24 67 74c-39 40 -107 52 -118 65c-24 27 12 1 -33 33c-1 35 8 51 33 71c23 20 26 41 53 55c44 24 93 49 135 74c-22 -18 -46 -22 -50 -44c22 5 37 15 56 22c54 19 16 11 23 31c19 -4 4 -1 11 -15l39 -3
c-3 -78 -36 -31 -35 -91l14 22c1 -24 -8 -24 -16 -48v26c-8 -24 -17 -30 -27 -51c-14 -30 -5 -28 -33 -49c-16 -13 -23 -26 -18 -50c7 -38 15 -30 35 -26c14 -45 9 -22 18 -41c-11 -21 -29 -35 -44 -58c-29 -41 -49 -20 -63 -42c-18 -22 3 -76 -31 -86c-1 29 16 38 0 54
c0 1 -2 2 -2 2c-20 20 -15 20 -52 26c-15 -24 0 -42 -20 -54c-12 17 0 25 -8 53c-6 23 -21 24 -25 40c-3 15 7 35 5 52c-1 20 -5 33 -4 58c29 -11 3 0 16 -41c20 -2 -17 -9 5 3c10 6 -5 7 7 4zM161 474c1 1 0 4 1 4c13 24 -6 3 11 7c-7 -14 4 -7 -12 -11zM255 332
c6 15 7 5 12 7c-6 -11 6 -7 -12 -7zM131 49c0 6 10 13 6 1c-3 -11 -7 -7 -6 -1zM62 18l-17 3c12 7 11 8 17 -3zM156 315c1 9 5 9 6 1c2 -7 -6 -6 -6 -1z" />
    <glyph glyph-name="t" unicode="t" horiz-adv-x="157" 
d="M78 473l58 6c10 -8 -2 -3 19 -10c43 -12 197 29 224 10c-16 -8 -49 -9 -68 -13c-42 -10 12 -12 -112 -23c-9 -26 -55 -31 -82 -31c-5 -40 -17 -71 -22 -107c-7 -55 -14 -19 -30 -98c-7 -39 -8 -78 -16 -112c-9 -36 12 -85 -22 -101c-2 36 12 7 -2 56c-11 38 0 35 6 62
c8 41 -16 15 -5 54c12 42 13 25 -12 49c4 18 12 23 15 44l31 144c-5 -20 -2 -10 -21 -7h-3l-32 2c-31 -4 -77 -16 -91 -13c-5 22 1 22 23 28c1 6 0 7 0 11l2 14c15 -8 24 -8 37 0c-17 6 1 -14 -28 5c25 13 38 12 67 14c34 2 40 12 64 16zM293 445l39 8
c-10 -5 -15 -4 -14 -15zM-2 56c-11 12 -12 5 -3 18c6 -9 8 -4 3 -18zM-101 425c0 3 3 9 6 0c4 -12 -5 -6 -6 0zM326 161c2 14 -2 -7 0 0zM319 104l23 -19z" />
    <glyph glyph-name="u" unicode="u" horiz-adv-x="246" 
d="M148 97l-4 6l-41 -46c29 11 26 23 45 40zM94 109c-8 4 -8 11 -19 -1c19 -12 10 -5 19 1zM131 176c-1 -1 1 -2 1 -3l1 -1s5 15 -2 4zM228 320c0 0 1 11 -2 6c-2 -5 4 -18 2 -6zM173 276l15 15c9 52 30 78 25 136c-2 17 -7 29 1 41c20 -11 9 -12 19 -38c7 19 5 16 19 18
c9 -31 9 -12 2 -45c-8 -32 4 -8 1 -36c-24 -7 14 -9 -7 3c-22 11 12 9 -6 4l-13 -46c22 18 5 7 20 31c1 -44 -53 -129 -58 -195c-2 -30 -49 -88 -72 -108c-19 -16 -11 -1 -41 -12c-7 -33 12 -73 -29 -76l16 35c-36 45 10 5 -24 52c-65 90 -23 185 -32 236c12 7 22 -11 19 46
c-2 37 2 30 11 64c21 -1 5 -1 25 -10c2 10 22 75 26 81c35 -12 0 -43 11 -76c8 -28 9 -12 -2 -43c-21 -56 -54 -155 -39 -214c6 -27 19 -21 47 -17c14 21 8 22 16 41c13 33 30 -10 58 111c-20 9 14 -5 -3 0c-16 4 16 -19 -5 2zM112 444c1 12 8 13 10 1c3 -13 -10 -7 -10 -1z
" />
    <glyph glyph-name="v" unicode="v" horiz-adv-x="256" 
d="M36 208c-5 -5 0 0 0 0zM10 389c-16 21 -7 17 10 16c-3 -16 5 -5 -10 -16zM68 64c-2 1 -6 1 -15 7c5 33 0 58 -16 84c-15 24 -5 19 -5 38c0 8 -4 22 -5 36c-2 45 8 32 -11 79c-8 22 -16 59 -12 81c15 -26 -10 -21 24 -52c-2 30 7 46 6 79c-1 26 -18 46 7 65
c30 -5 24 -97 32 -127l16 29c-4 -25 -14 -37 -12 -67c3 -44 7 -147 29 -177c44 14 70 89 94 144c11 26 15 25 37 36c-8 23 -13 -3 -4 22c4 12 10 23 15 34v-4v-3v-23c19 42 38 78 60 120c30 57 34 103 62 111c4 -25 -10 -52 -23 -73c-19 -31 -17 -41 -29 -71
c-17 -45 -55 -87 -63 -138c13 14 7 15 20 18c-6 -19 -29 -41 -42 -60c-41 -58 -22 -28 -22 -60c-24 -9 -48 -65 -61 -92c-10 -20 -14 -35 -23 -57c-9 -23 -5 -36 -15 -50c-48 5 1 29 5 67c-9 -5 -15 -6 -21 -7c0 -1 0 -2 1 -3c2 -7 -6 -15 -5 -9c1 5 -3 7 -5 6
c-3 -2 -6 -8 -4 -14c3 -7 0 -20 -3 -23c-4 -3 -9 -3 -4 8c6 12 2 18 -4 13c-6 -6 -9 -31 -10 -43c-1 -11 5 -36 -5 -29s-1 48 8 69c5 11 4 25 3 36zM236 336c1 -19 5 3 5 3c7 13 -6 9 -5 -3z" />
    <glyph glyph-name="w" unicode="w" horiz-adv-x="315" 
d="M80 433c1 16 5 13 8 2c2 -11 -8 -4 -8 -2zM17 433c12 5 1 8 14 0h-14zM325 419l10 40c9 20 56 105 37 135c-21 -22 -13 -88 -32 -93c-32 -8 -1 4 -37 -64c-51 -98 -29 -62 -63 -170c-8 -24 -25 -37 -31 -50c-12 -23 -3 -41 -21 -59c-5 43 5 165 -23 189
c-41 -19 -40 -131 -82 -169c-2 29 -1 58 -2 87c0 18 11 54 8 62c-4 14 -8 -7 -9 30c-1 33 7 73 -28 91c-12 -24 -1 -29 -6 -44c-9 -23 -9 -7 -29 -12c-19 -90 11 -146 6 -233c-20 31 -3 53 -12 83c-11 34 23 -20 -6 9c-22 -49 9 -87 16 -129c5 -38 -9 -93 7 -123
c31 6 22 13 19 39c14 6 17 -9 24 26l-19 -20c1 16 64 106 84 125l17 -12c5 -43 3 -56 13 -96c11 -47 -11 -70 -11 -71c39 0 29 37 39 68c15 48 14 42 50 61c-2 47 17 74 26 111c0 -5 1 -12 -1 -18c-4 -9 -5 -18 -1 -17c3 1 5 16 8 31s6 -1 6 -12c0 -12 -5 -48 -9 -63
s9 -19 8 -8s4 55 12 91c8 35 30 178 32 185z" />
    <glyph glyph-name="x" unicode="x" horiz-adv-x="217" 
d="M-37 88l-12 -16zM171 465c-2 11 4 8 7 0c4 -10 -7 -3 -7 0zM-20 438c5 3 -1 9 13 3c-13 -13 -2 -8 -13 -3zM224 -44c10 -16 4 -5 -1 -15c-7 14 -6 2 1 15zM-13 174l-22 -33c4 13 9 28 22 33zM153 -10c0 0 3 -15 3 -26c0 -12 -4 -25 -6 -16c-2 8 3 42 3 42zM130 61
c-1 1 -1 3 -2 5c-11 33 -39 102 -57 122c-17 -40 -68 -78 -85 -97c-16 -17 -19 -35 -40 -53c-24 -21 -8 3 -17 -27c-6 -17 -4 -17 -21 -28l-7 19c11 21 25 29 33 53c9 28 13 31 30 57l75 104l-20 8c18 27 14 6 30 29c-7 22 -9 3 -18 32l-11 29s-1 2 -2 2l-9 19
c-2 4 -1 1 -6 11c-7 14 -9 24 -18 39c15 12 4 2 20 10c0 9 0 32 -1 40c-5 29 -17 25 -8 43c26 -5 20 -31 44 -94c7 -18 15 -26 23 -42c11 -19 7 -32 19 -50l33 59c20 3 -2 -16 16 2l37 69c19 6 16 -12 34 16c12 20 7 25 33 27c1 -13 -1 -8 -2 -15v-16v-21
c-13 -40 -38 -49 -91 -127c15 -5 -11 -1 7 1c7 0 4 2 10 1c-31 -25 -23 -10 -50 -50c11 -37 72 -204 100 -233c10 -10 30 -4 8 -26c-7 4 -47 49 -56 82c0 0 -7 -12 -9 -23c-1 -10 0 -13 3 -23c3 -11 -4 -14 -5 -9c-1 4 -4 17 -2 28c2 12 2 28 -5 24c-7 -3 -5 -9 -4 -23
c2 -13 -2 -44 -2 -55s-14 -19 -6 18c6 28 2 52 -1 63zM35 226c1 2 8 20 -2 6c-8 -12 -5 -16 2 -6zM141 277c0 -1 -1 1 -1 1s-5 -14 2 -3c1 0 -1 3 -1 2zM194 368c15 24 -7 -13 0 0zM171 400c18 5 11 -2 13 18c-23 -17 -7 -8 -13 -18zM-104 -20l8 -17h-22c5 12 -8 8 14 17z
" />
    <glyph glyph-name="y" unicode="y" horiz-adv-x="232" 
d="M92 135c1 -10 2 0 3 0c3 1 -4 11 -3 0zM237 526c1 9 6 11 9 0c2 -10 -9 -8 -9 0zM-17 472c-2 24 1 12 10 15c-3 -15 3 -7 -10 -15zM-21 -80c7 13 13 21 24 25c-2 -20 -4 -36 -24 -25zM166 278l-13 -35zM50 372c-4 -7 3 5 0 0zM223 428c25 18 48 89 80 98
c-9 -28 -25 -40 -33 -71c-8 -30 -6 -13 -18 -35c-2 -5 -11 -26 -15 -35c-28 -57 -60 -84 -65 -93c-7 -14 4 -14 5 -20c-46 -53 -25 -33 -53 -88c-45 -88 -11 -99 -53 -96c2 27 19 12 3 35c-32 -21 -17 -113 -69 -160c-23 10 -10 7 18 89c8 25 0 31 13 57c13 25 12 27 18 54
c-17 -7 -17 -13 -26 -32c3 13 4 22 14 32c9 9 7 2 17 4c24 58 -22 33 -24 144c-1 38 -37 93 -42 134c19 13 18 7 32 15c-6 15 -16 37 -10 48c7 -6 36 -66 39 -75c6 -26 -4 -63 2 -82l9 -9c-8 -14 14 -66 21 -82l16 -21c9 23 21 45 30 68c10 27 4 31 19 61c38 71 24 24 40 59
c13 27 8 38 31 61c7 -16 2 -5 0 -26c22 12 8 7 16 4zM290 425l2 -1s2 0 1 -4c-2 -4 -9 -5 -9 -1s6 6 6 6z" />
    <glyph glyph-name="z" unicode="z" horiz-adv-x="382" 
d="M69 138c23 6 25 22 42 43c20 22 35 19 40 48c-23 -19 -69 -71 -82 -91zM305 357c-19 -14 -31 -32 -44 -47l-65 -96c-22 -28 -24 -15 -42 -38c-20 -25 -18 -23 -44 -41c27 1 52 5 78 6c71 1 64 -5 147 6c32 4 31 -4 42 -29c-13 7 -42 26 -63 15c12 -6 -1 5 21 -8
c7 -4 20 -13 26 -17c13 -7 19 -10 35 -7c25 4 9 11 28 16l11 -26c-87 -19 -118 11 -126 11c-64 -1 -91 -14 -105 -26v-1c-5 -8 -16 -30 -17 -41c-1 -12 -3 -46 -3 -56c0 -9 -2 -14 -5 -13c-2 1 1 8 2 21c1 12 3 49 -1 63c-3 11 -1 27 0 34c-4 3 -12 4 -27 3
c-37 -4 -46 -4 -73 -20l-14 -7c-42 -21 -6 -61 -42 -79c-13 16 -1 11 -2 37c0 31 -3 7 12 40c-17 13 -7 -2 -17 8l-7 11c-8 13 -12 9 -15 27v17c28 10 55 -15 98 60c15 26 27 21 35 52c28 118 -20 85 -49 113c6 14 20 28 21 41c0 9 -32 13 -54 20c-5 -9 -14 -27 -15 -38
c-1 -12 -3 -46 -3 -55s-2 -15 -5 -14s1 9 2 21s2 50 -1 64c-4 13 0 36 0 36l2 1v2c18 13 70 26 90 27c-16 -11 -12 -2 -17 -20c78 -2 48 -20 88 -12c27 6 67 17 100 5c18 -7 10 -14 41 -17c34 -3 -3 2 31 1c21 -1 28 -2 40 -14l-22 -14c-3 -2 -7 -5 -11 -7
c-6 -3 -9 -8 -10 -15c-1 -8 -1 -8 -2 -17c-2 -10 0 -18 1 -23s-2 -11 -4 -10s-3 3 -2 8c2 5 2 23 3 29c1 7 -1 9 -2 14c-1 6 -12 7 -17 2c-6 -5 -3 -11 -6 -17c-2 -6 -1 -18 -1 -22c0 -3 -3 -1 -5 3c-1 5 -1 10 0 15c1 6 -1 9 -6 12c-3 1 -7 3 -10 6zM10 395c4 2 6 -5 6 -9
c-1 -4 -3 -4 -5 -7s-8 -4 -9 -1c0 3 -3 5 -5 3c-3 -1 -7 -1 -7 1c0 3 2 1 3 4c0 3 4 2 7 2c3 1 1 1 1 6c1 5 9 1 9 1zM25 294c7 -5 3 -11 0 -11c-3 1 0 11 0 11zM166 60c4 2 6 -4 6 -8c-1 -4 -3 -4 -5 -8c-2 -3 -8 -4 -9 0c0 3 -3 4 -5 3c-3 -2 -7 -2 -7 1c0 2 2 0 3 3
c0 3 4 3 7 3s1 0 1 5c1 6 9 1 9 1zM139 50h2s2 -1 1 -5c-2 -4 -9 -4 -9 0s6 5 6 5zM181 -41c7 -5 3 -11 0 -10c-2 0 0 10 0 10zM320 421c10 8 -1 12 21 -1c-11 -4 1 -11 -21 1zM99 342c11 -7 46 7 41 -78c-1 -13 -7 -17 -7 -36c21 16 76 78 82 107c-33 -9 -26 -22 -49 -40
c23 38 58 45 63 79c-19 -4 -57 -12 -78 -14c-36 -2 -15 25 -52 -18zM145 269l18 26l4 -6z" />
    <glyph glyph-name="braceleft" unicode="{" 
 />
    <glyph glyph-name="bar" unicode="|" 
 />
    <glyph glyph-name="braceright" unicode="}" 
 />
    <glyph glyph-name="exclamdown" unicode="&#xa1;" 
 />
    <glyph glyph-name="cent" unicode="&#xa2;" 
 />
    <glyph glyph-name="sterling" unicode="&#xa3;" 
 />
    <glyph glyph-name="currency" unicode="&#xa4;" 
 />
    <glyph glyph-name="yen" unicode="&#xa5;" 
 />
    <glyph glyph-name="threequarters" unicode="&#xbe;" 
 />
    <glyph glyph-name="questiondown" unicode="&#xbf;" 
 />
    <glyph glyph-name="Agrave" unicode="&#xc0;" horiz-adv-x="248" 
d="M151 86c-1 0 2 -1 2 -1zM173 63c-1 -1 -5 -2 -16 -6c-2 29 3 15 -19 32c15 0 14 -6 20 23c3 16 6 33 1 46c-6 2 -5 19 -9 -17l-9 86c-41 2 -34 -17 -43 -49v-4l-3 -45l33 -29c-25 20 -18 19 -50 27l-32 -95c-2 -18 0 -17 -13 -32l-18 10l6 48c-24 -14 -6 -12 -27 -26
c-10 18 1 19 7 45c26 95 45 99 18 117c22 7 12 1 23 21c-25 8 -60 8 -80 -3c16 -14 11 -9 30 -15c-43 1 -22 8 -50 31c20 11 19 -4 15 23l16 -17c50 4 30 3 64 25c1 0 3 1 4 2c1 0 2 1 3 2c26 13 10 -12 24 25c7 19 6 11 15 11l2 16h-1l-3 -1h-7c7 37 7 16 17 36
c11 21 -1 12 19 34c23 24 1 38 36 62c35 25 17 17 31 47c16 31 8 -29 35 22c9 17 3 18 21 27c0 -13 -24 -99 -27 -127c-5 -33 6 -44 2 -77c-4 -30 -4 -38 -2 -71l52 -6c0 -34 -1 -5 -23 -19l-31 -20c1 -19 1 -40 2 -60c2 -30 11 -29 10 -44c-3 -28 -9 -11 1 -50
c3 -15 11 -39 -2 -45l-10 38c-14 5 -15 -1 -18 3c-9 -25 -6 -72 -8 -82c-2 -11 -8 -9 -5 0c3 10 4 53 0 73c-1 3 -1 6 -1 8zM197 524c-2 0 -3 -1 -3 -3s2 -4 4 -4s3 2 3 4s-2 3 -4 3zM8 260l-25 -11c-11 -3 -6 -8 -12 11h37zM11 -32c2 15 0 20 14 15c0 -13 -6 -13 -14 -15z
M158 528c0 12 4 11 12 13c0 -19 6 -12 -12 -13zM190 538c5 5 -12 7 12 8zM234 572c-2 0 -3 -2 -3 -4s2 -3 4 -3s3 1 3 3s-2 4 -4 4zM67 176c16 -8 15 -11 22 -3zM142 282l-15 -12c22 -1 15 -7 15 12zM68 271c1 -12 2 1 2 1c4 2 -3 14 -2 -1zM152 307c-8 -15 -6 -24 3 -38
c5 11 6 -11 4 19c-1 11 -3 12 -7 19zM71 293c-7 -4 3 -1 3 -1h-1c0 1 -1 2 -2 1z" />
    <glyph glyph-name="Aacute" unicode="&#xc1;" horiz-adv-x="248" 
d="M151 86c-1 0 2 -1 2 -1zM173 63c-1 -1 -5 -2 -16 -6c-2 29 3 15 -19 32c15 0 14 -6 20 23c3 16 6 33 1 46c-6 2 -5 19 -9 -17l-9 86c-41 2 -34 -17 -43 -49v-4l-3 -45l33 -29c-25 20 -18 19 -50 27l-32 -95c-2 -18 0 -17 -13 -32l-18 10l6 48c-24 -14 -6 -12 -27 -26
c-10 18 1 19 7 45c26 95 45 99 18 117c22 7 12 1 23 21c-25 8 -60 8 -80 -3c16 -14 11 -9 30 -15c-43 1 -22 8 -50 31c20 11 19 -4 15 23l16 -17c50 4 30 3 64 25c1 0 3 1 4 2c1 0 2 1 3 2c26 13 10 -12 24 25c7 19 6 11 15 11l2 16h-1l-3 -1h-7c7 37 7 16 17 36
c11 21 -1 12 19 34c23 24 1 38 36 62c35 25 17 17 31 47c16 31 8 -29 35 22c9 17 3 18 21 27c0 -13 -24 -99 -27 -127c-5 -33 6 -44 2 -77c-4 -30 -4 -38 -2 -71l52 -6c0 -34 -1 -5 -23 -19l-31 -20c1 -19 1 -40 2 -60c2 -30 11 -29 10 -44c-3 -28 -9 -11 1 -50
c3 -15 11 -39 -2 -45l-10 38c-14 5 -15 -1 -18 3c-9 -25 -6 -72 -8 -82c-2 -11 -8 -9 -5 0c3 10 4 53 0 73c-1 3 -1 6 -1 8zM197 524c-2 0 -3 -1 -3 -3s2 -4 4 -4s3 2 3 4s-2 3 -4 3zM8 260l-25 -11c-11 -3 -6 -8 -12 11h37zM11 -32c2 15 0 20 14 15c0 -13 -6 -13 -14 -15z
M158 528c0 12 4 11 12 13c0 -19 6 -12 -12 -13zM190 538c5 5 -12 7 12 8zM234 572c-2 0 -3 -2 -3 -4s2 -3 4 -3s3 1 3 3s-2 4 -4 4zM67 176c16 -8 15 -11 22 -3zM142 282l-15 -12c22 -1 15 -7 15 12zM68 271c1 -12 2 1 2 1c4 2 -3 14 -2 -1zM152 307c-8 -15 -6 -24 3 -38
c5 11 6 -11 4 19c-1 11 -3 12 -7 19zM71 293c-7 -4 3 -1 3 -1h-1c0 1 -1 2 -2 1z" />
    <glyph glyph-name="Acircumflex" unicode="&#xc2;" horiz-adv-x="248" 
d="M151 86c-1 0 2 -1 2 -1zM173 63c-1 -1 -5 -2 -16 -6c-2 29 3 15 -19 32c15 0 14 -6 20 23c3 16 6 33 1 46c-6 2 -5 19 -9 -17l-9 86c-41 2 -34 -17 -43 -49v-4l-3 -45l33 -29c-25 20 -18 19 -50 27l-32 -95c-2 -18 0 -17 -13 -32l-18 10l6 48c-24 -14 -6 -12 -27 -26
c-10 18 1 19 7 45c26 95 45 99 18 117c22 7 12 1 23 21c-25 8 -60 8 -80 -3c16 -14 11 -9 30 -15c-43 1 -22 8 -50 31c20 11 19 -4 15 23l16 -17c50 4 30 3 64 25c1 0 3 1 4 2c1 0 2 1 3 2c26 13 10 -12 24 25c7 19 6 11 15 11l2 16h-1l-3 -1h-7c7 37 7 16 17 36
c11 21 -1 12 19 34c23 24 1 38 36 62c35 25 17 17 31 47c16 31 8 -29 35 22c9 17 3 18 21 27c0 -13 -24 -99 -27 -127c-5 -33 6 -44 2 -77c-4 -30 -4 -38 -2 -71l52 -6c0 -34 -1 -5 -23 -19l-31 -20c1 -19 1 -40 2 -60c2 -30 11 -29 10 -44c-3 -28 -9 -11 1 -50
c3 -15 11 -39 -2 -45l-10 38c-14 5 -15 -1 -18 3c-9 -25 -6 -72 -8 -82c-2 -11 -8 -9 -5 0c3 10 4 53 0 73c-1 3 -1 6 -1 8zM197 524c-2 0 -3 -1 -3 -3s2 -4 4 -4s3 2 3 4s-2 3 -4 3zM8 260l-25 -11c-11 -3 -6 -8 -12 11h37zM11 -32c2 15 0 20 14 15c0 -13 -6 -13 -14 -15z
M158 528c0 12 4 11 12 13c0 -19 6 -12 -12 -13zM190 538c5 5 -12 7 12 8zM234 572c-2 0 -3 -2 -3 -4s2 -3 4 -3s3 1 3 3s-2 4 -4 4zM67 176c16 -8 15 -11 22 -3zM142 282l-15 -12c22 -1 15 -7 15 12zM68 271c1 -12 2 1 2 1c4 2 -3 14 -2 -1zM152 307c-8 -15 -6 -24 3 -38
c5 11 6 -11 4 19c-1 11 -3 12 -7 19zM71 293c-7 -4 3 -1 3 -1h-1c0 1 -1 2 -2 1z" />
    <glyph glyph-name="Atilde" unicode="&#xc3;" horiz-adv-x="248" 
d="M151 86c-1 0 2 -1 2 -1zM173 63c-1 -1 -5 -2 -16 -6c-2 29 3 15 -19 32c15 0 14 -6 20 23c3 16 6 33 1 46c-6 2 -5 19 -9 -17l-9 86c-41 2 -34 -17 -43 -49v-4l-3 -45l33 -29c-25 20 -18 19 -50 27l-32 -95c-2 -18 0 -17 -13 -32l-18 10l6 48c-24 -14 -6 -12 -27 -26
c-10 18 1 19 7 45c26 95 45 99 18 117c22 7 12 1 23 21c-25 8 -60 8 -80 -3c16 -14 11 -9 30 -15c-43 1 -22 8 -50 31c20 11 19 -4 15 23l16 -17c50 4 30 3 64 25c1 0 3 1 4 2c1 0 2 1 3 2c26 13 10 -12 24 25c7 19 6 11 15 11l2 16h-1l-3 -1h-7c7 37 7 16 17 36
c11 21 -1 12 19 34c23 24 1 38 36 62c35 25 17 17 31 47c16 31 8 -29 35 22c9 17 3 18 21 27c0 -13 -24 -99 -27 -127c-5 -33 6 -44 2 -77c-4 -30 -4 -38 -2 -71l52 -6c0 -34 -1 -5 -23 -19l-31 -20c1 -19 1 -40 2 -60c2 -30 11 -29 10 -44c-3 -28 -9 -11 1 -50
c3 -15 11 -39 -2 -45l-10 38c-14 5 -15 -1 -18 3c-9 -25 -6 -72 -8 -82c-2 -11 -8 -9 -5 0c3 10 4 53 0 73c-1 3 -1 6 -1 8zM197 524c-2 0 -3 -1 -3 -3s2 -4 4 -4s3 2 3 4s-2 3 -4 3zM8 260l-25 -11c-11 -3 -6 -8 -12 11h37zM11 -32c2 15 0 20 14 15c0 -13 -6 -13 -14 -15z
M158 528c0 12 4 11 12 13c0 -19 6 -12 -12 -13zM190 538c5 5 -12 7 12 8zM234 572c-2 0 -3 -2 -3 -4s2 -3 4 -3s3 1 3 3s-2 4 -4 4zM67 176c16 -8 15 -11 22 -3zM142 282l-15 -12c22 -1 15 -7 15 12zM68 271c1 -12 2 1 2 1c4 2 -3 14 -2 -1zM152 307c-8 -15 -6 -24 3 -38
c5 11 6 -11 4 19c-1 11 -3 12 -7 19zM71 293c-7 -4 3 -1 3 -1h-1c0 1 -1 2 -2 1z" />
    <glyph glyph-name="Adieresis" unicode="&#xc4;" horiz-adv-x="248" 
d="M151 86c-1 0 2 -1 2 -1zM173 63c-1 -1 -5 -2 -16 -6c-2 29 3 15 -19 32c15 0 14 -6 20 23c3 16 6 33 1 46c-6 2 -5 19 -9 -17l-9 86c-41 2 -34 -17 -43 -49v-4l-3 -45l33 -29c-25 20 -18 19 -50 27l-32 -95c-2 -18 0 -17 -13 -32l-18 10l6 48c-24 -14 -6 -12 -27 -26
c-10 18 1 19 7 45c26 95 45 99 18 117c22 7 12 1 23 21c-25 8 -60 8 -80 -3c16 -14 11 -9 30 -15c-43 1 -22 8 -50 31c20 11 19 -4 15 23l16 -17c50 4 30 3 64 25c1 0 3 1 4 2c1 0 2 1 3 2c26 13 10 -12 24 25c7 19 6 11 15 11l2 16h-1l-3 -1h-7c7 37 7 16 17 36
c11 21 -1 12 19 34c23 24 1 38 36 62c35 25 17 17 31 47c16 31 8 -29 35 22c9 17 3 18 21 27c0 -13 -24 -99 -27 -127c-5 -33 6 -44 2 -77c-4 -30 -4 -38 -2 -71l52 -6c0 -34 -1 -5 -23 -19l-31 -20c1 -19 1 -40 2 -60c2 -30 11 -29 10 -44c-3 -28 -9 -11 1 -50
c3 -15 11 -39 -2 -45l-10 38c-14 5 -15 -1 -18 3c-9 -25 -6 -72 -8 -82c-2 -11 -8 -9 -5 0c3 10 4 53 0 73c-1 3 -1 6 -1 8zM197 524c-2 0 -3 -1 -3 -3s2 -4 4 -4s3 2 3 4s-2 3 -4 3zM8 260l-25 -11c-11 -3 -6 -8 -12 11h37zM11 -32c2 15 0 20 14 15c0 -13 -6 -13 -14 -15z
M158 528c0 12 4 11 12 13c0 -19 6 -12 -12 -13zM190 538c5 5 -12 7 12 8zM234 572c-2 0 -3 -2 -3 -4s2 -3 4 -3s3 1 3 3s-2 4 -4 4zM67 176c16 -8 15 -11 22 -3zM142 282l-15 -12c22 -1 15 -7 15 12zM68 271c1 -12 2 1 2 1c4 2 -3 14 -2 -1zM152 307c-8 -15 -6 -24 3 -38
c5 11 6 -11 4 19c-1 11 -3 12 -7 19zM71 293c-7 -4 3 -1 3 -1h-1c0 1 -1 2 -2 1z" />
    <glyph glyph-name="Aring" unicode="&#xc5;" horiz-adv-x="248" 
d="M151 86c-1 0 2 -1 2 -1zM173 63c-1 -1 -5 -2 -16 -6c-2 29 3 15 -19 32c15 0 14 -6 20 23c3 16 6 33 1 46c-6 2 -5 19 -9 -17l-9 86c-41 2 -34 -17 -43 -49v-4l-3 -45l33 -29c-25 20 -18 19 -50 27l-32 -95c-2 -18 0 -17 -13 -32l-18 10l6 48c-24 -14 -6 -12 -27 -26
c-10 18 1 19 7 45c26 95 45 99 18 117c22 7 12 1 23 21c-25 8 -60 8 -80 -3c16 -14 11 -9 30 -15c-43 1 -22 8 -50 31c20 11 19 -4 15 23l16 -17c50 4 30 3 64 25c1 0 3 1 4 2c1 0 2 1 3 2c26 13 10 -12 24 25c7 19 6 11 15 11l2 16h-1l-3 -1h-7c7 37 7 16 17 36
c11 21 -1 12 19 34c23 24 1 38 36 62c35 25 17 17 31 47c16 31 8 -29 35 22c9 17 3 18 21 27c0 -13 -24 -99 -27 -127c-5 -33 6 -44 2 -77c-4 -30 -4 -38 -2 -71l52 -6c0 -34 -1 -5 -23 -19l-31 -20c1 -19 1 -40 2 -60c2 -30 11 -29 10 -44c-3 -28 -9 -11 1 -50
c3 -15 11 -39 -2 -45l-10 38c-14 5 -15 -1 -18 3c-9 -25 -6 -72 -8 -82c-2 -11 -8 -9 -5 0c3 10 4 53 0 73c-1 3 -1 6 -1 8zM197 524c-2 0 -3 -1 -3 -3s2 -4 4 -4s3 2 3 4s-2 3 -4 3zM8 260l-25 -11c-11 -3 -6 -8 -12 11h37zM11 -32c2 15 0 20 14 15c0 -13 -6 -13 -14 -15z
M158 528c0 12 4 11 12 13c0 -19 6 -12 -12 -13zM190 538c5 5 -12 7 12 8zM234 572c-2 0 -3 -2 -3 -4s2 -3 4 -3s3 1 3 3s-2 4 -4 4zM67 176c16 -8 15 -11 22 -3zM142 282l-15 -12c22 -1 15 -7 15 12zM68 271c1 -12 2 1 2 1c4 2 -3 14 -2 -1zM152 307c-8 -15 -6 -24 3 -38
c5 11 6 -11 4 19c-1 11 -3 12 -7 19zM71 293c-7 -4 3 -1 3 -1h-1c0 1 -1 2 -2 1z" />
    <glyph glyph-name="AE" unicode="&#xc6;" 
 />
    <glyph glyph-name="Ccedilla" unicode="&#xc7;" horiz-adv-x="296" 
d="M132 330c-6 -7 2 2 0 0zM281 428c-2 0 -3 -2 -3 -4c0 -1 1 -3 3 -3s3 2 3 3c0 2 -1 4 -3 4zM180 483c-2 0 -3 -2 -3 -4c0 -1 1 -3 3 -3s3 2 3 3c0 2 -1 4 -3 4zM168 515c-4 0 -7 -3 -7 -7s3 -7 7 -7s7 3 7 7s-3 7 -7 7zM6 161c-12 14 -16 43 3 52c-6 -24 -5 -26 -3 -52z
M-12 270c6 4 -1 13 16 2c-18 -18 -11 -4 -16 -2zM140 491c1 22 0 11 10 16c-2 -22 6 -8 -10 -16zM116 276c2 12 2 11 11 13c0 -20 1 -10 -11 -13zM146 177c0 3 4 8 6 -1c2 -6 -6 -7 -6 1zM216 487c-4 0 -7 -3 -7 -7s3 -7 7 -7c3 0 6 3 6 7s-3 7 -6 7zM121 458
c27 -2 5 -9 35 -1c47 13 41 2 78 5c36 2 8 6 34 11c2 -13 3 -57 3 -71c0 -31 -1 -16 -7 -30l-7 -16c-7 9 -2 9 -18 13c-15 -36 3 -38 -11 -60c-48 6 6 61 -9 93c-23 27 -59 -30 -72 -45c16 -8 5 -1 16 4l-18 -40c-25 -5 -18 7 -28 -9c-25 -42 -20 -68 -14 -98
c-27 -15 -30 -41 -32 -74l-6 25c-5 -41 1 -36 14 -71c63 38 137 116 201 138c-3 -12 -10 -23 -18 -31c-27 -23 2 6 -27 -10c-17 -8 -33 -34 -47 -46c19 1 9 2 25 13c-23 -34 -14 -14 -44 -28c-1 -1 0 -3 0 -4v-4l3 -44c-26 9 2 6 -27 13c-21 -24 -15 -7 -36 -25
c-5 -4 -20 -21 -25 -28c4 -26 13 -50 -10 -70c-14 14 -3 29 -6 60c0 2 -27 36 -42 45c-4 -29 11 -53 -20 -57c-21 34 15 160 15 205c-1 27 -12 24 0 49c10 20 15 9 22 34c5 20 8 65 17 84c16 -7 3 -4 8 -16c43 68 22 33 19 55c2 0 8 -3 9 -3l5 1s2 0 2 1c11 0 0 12 16 -5z
" />
    <glyph glyph-name="Egrave" unicode="&#xc8;" horiz-adv-x="386" 
d="M137 178c-6 -8 7 -2 7 -2c11 -3 -2 9 -7 2zM99 83h1c-21 -3 -42 -6 -61 -6c-7 -10 -7 -13 -14 -21c-32 -33 -15 -40 -28 -47c-3 -7 -5 -15 -5 -20c0 -12 1 -46 2 -55c0 -9 -1 -15 -4 -14s0 9 0 21c1 12 -1 50 -6 63c-6 14 -5 24 -2 33v4h2c2 7 5 15 4 25
c-1 19 -18 51 -15 60c10 14 147 12 90 28c26 4 46 17 71 33s41 10 71 23c-22 0 -75 -1 -94 -6c-21 -7 -55 -29 -77 -20c-9 -20 -10 -28 -33 -35c1 28 6 31 0 57l17 10c-14 31 -7 0 -22 25c35 37 33 -7 71 14c53 31 35 30 49 40v-10c7 5 14 12 14 12l48 29
c-25 2 -48 7 -80 -3c-20 -6 -26 -4 -47 -6c-27 -4 -19 -7 -39 -11l-15 16l22 10c-3 35 2 31 14 50c10 16 1 5 7 22l20 -20c71 24 16 17 87 15c54 -3 123 5 178 9c2 -11 8 11 -5 -3c-9 -9 -3 4 -2 -14v-4l-1 -1c25 -10 33 -5 53 -12l-15 -7c-26 -5 -14 7 -50 -11
c-24 -11 -17 2 -43 -24c-32 15 -23 11 -62 -7c-12 -6 -37 -17 -38 -28c0 -1 1 -4 1 -4l-49 -33c38 -2 188 6 210 -1c2 -16 -2 -21 -14 -29c18 -3 24 -1 34 -9c-14 -1 -28 0 -41 -1c-13 -2 -21 -8 -36 -9c-24 -3 -3 11 -60 -13c-20 -9 -48 -23 -67 -25
c-24 -4 -41 -11 -56 -30c21 -9 112 -4 140 -1c19 -2 -2 -4 1 -12c37 6 23 15 63 3l3 14c25 -3 13 -4 46 0l12 -18c20 1 38 6 51 -5c-43 -13 5 14 -87 -13c-28 -9 -63 -6 -91 -8c-18 -2 -38 -5 -58 -8c-2 -3 -2 -7 -3 -11c0 -9 0 -9 -1 -19c-1 -11 2 -20 4 -25
c1 -6 -2 -12 -5 -12c-2 1 -3 3 -2 9c1 5 0 25 1 33c0 7 -2 9 -4 15s-14 7 -19 1s-2 -13 -4 -19c-3 -7 -1 -21 0 -25c0 -3 -4 -2 -6 3s-2 11 -1 17s-2 10 -8 12c-5 2 -17 9 -17 9zM-30 14c4 2 6 -4 6 -8s-2 -4 -4 -8c-1 -3 -8 -4 -9 -1c0 3 -3 5 -5 3c-3 -2 -7 -3 -7 0
c0 2 2 1 2 4s5 3 7 3c3 0 1 0 1 6c1 5 9 1 9 1zM-56 2h2s2 -1 1 -5s-8 -4 -9 -1c0 4 6 6 6 6zM231 86c14 11 9 10 23 2c-4 -3 4 -5 -13 -6c-20 -2 -1 -2 -10 4zM184 52c0 21 2 20 19 13zM104 431c-14 9 -11 5 -2 15c11 -9 11 -1 2 -15zM340 238c-4 15 0 11 12 13zM137 427
c-2 9 3 9 8 1c4 -9 -8 -6 -8 -1zM222 299l10 7c-1 -7 4 -18 -10 -7zM200 438c0 5 3 8 5 1c2 -5 -5 -6 -5 -1zM-8 -86c7 -4 4 -10 1 -10s-1 10 -1 10zM31 359c0 -8 10 -6 7 2c-3 10 -7 9 -7 -2zM418 120c-3 0 -6 -3 -6 -7c1 -3 4 -6 7 -6c4 0 7 4 6 7c0 4 -3 7 -7 6z" />
    <glyph glyph-name="Eacute" unicode="&#xc9;" horiz-adv-x="386" 
d="M137 178c-6 -8 7 -2 7 -2c11 -3 -2 9 -7 2zM99 83h1c-21 -3 -42 -6 -61 -6c-7 -10 -7 -13 -14 -21c-32 -33 -15 -40 -28 -47c-3 -7 -5 -15 -5 -20c0 -12 1 -46 2 -55c0 -9 -1 -15 -4 -14s0 9 0 21c1 12 -1 50 -6 63c-6 14 -5 24 -2 33v4h2c2 7 5 15 4 25
c-1 19 -18 51 -15 60c10 14 147 12 90 28c26 4 46 17 71 33s41 10 71 23c-22 0 -75 -1 -94 -6c-21 -7 -55 -29 -77 -20c-9 -20 -10 -28 -33 -35c1 28 6 31 0 57l17 10c-14 31 -7 0 -22 25c35 37 33 -7 71 14c53 31 35 30 49 40v-10c7 5 14 12 14 12l48 29
c-25 2 -48 7 -80 -3c-20 -6 -26 -4 -47 -6c-27 -4 -19 -7 -39 -11l-15 16l22 10c-3 35 2 31 14 50c10 16 1 5 7 22l20 -20c71 24 16 17 87 15c54 -3 123 5 178 9c2 -11 8 11 -5 -3c-9 -9 -3 4 -2 -14v-4l-1 -1c25 -10 33 -5 53 -12l-15 -7c-26 -5 -14 7 -50 -11
c-24 -11 -17 2 -43 -24c-32 15 -23 11 -62 -7c-12 -6 -37 -17 -38 -28c0 -1 1 -4 1 -4l-49 -33c38 -2 188 6 210 -1c2 -16 -2 -21 -14 -29c18 -3 24 -1 34 -9c-14 -1 -28 0 -41 -1c-13 -2 -21 -8 -36 -9c-24 -3 -3 11 -60 -13c-20 -9 -48 -23 -67 -25
c-24 -4 -41 -11 -56 -30c21 -9 112 -4 140 -1c19 -2 -2 -4 1 -12c37 6 23 15 63 3l3 14c25 -3 13 -4 46 0l12 -18c20 1 38 6 51 -5c-43 -13 5 14 -87 -13c-28 -9 -63 -6 -91 -8c-18 -2 -38 -5 -58 -8c-2 -3 -2 -7 -3 -11c0 -9 0 -9 -1 -19c-1 -11 2 -20 4 -25
c1 -6 -2 -12 -5 -12c-2 1 -3 3 -2 9c1 5 0 25 1 33c0 7 -2 9 -4 15s-14 7 -19 1s-2 -13 -4 -19c-3 -7 -1 -21 0 -25c0 -3 -4 -2 -6 3s-2 11 -1 17s-2 10 -8 12c-5 2 -17 9 -17 9zM-30 14c4 2 6 -4 6 -8s-2 -4 -4 -8c-1 -3 -8 -4 -9 -1c0 3 -3 5 -5 3c-3 -2 -7 -3 -7 0
c0 2 2 1 2 4s5 3 7 3c3 0 1 0 1 6c1 5 9 1 9 1zM-56 2h2s2 -1 1 -5s-8 -4 -9 -1c0 4 6 6 6 6zM231 86c14 11 9 10 23 2c-4 -3 4 -5 -13 -6c-20 -2 -1 -2 -10 4zM184 52c0 21 2 20 19 13zM104 431c-14 9 -11 5 -2 15c11 -9 11 -1 2 -15zM340 238c-4 15 0 11 12 13zM137 427
c-2 9 3 9 8 1c4 -9 -8 -6 -8 -1zM222 299l10 7c-1 -7 4 -18 -10 -7zM200 438c0 5 3 8 5 1c2 -5 -5 -6 -5 -1zM-8 -86c7 -4 4 -10 1 -10s-1 10 -1 10zM31 359c0 -8 10 -6 7 2c-3 10 -7 9 -7 -2zM418 120c-3 0 -6 -3 -6 -7c1 -3 4 -6 7 -6c4 0 7 4 6 7c0 4 -3 7 -7 6z" />
    <glyph glyph-name="Ecircumflex" unicode="&#xca;" horiz-adv-x="386" 
d="M137 178c-6 -8 7 -2 7 -2c11 -3 -2 9 -7 2zM99 83h1c-21 -3 -42 -6 -61 -6c-7 -10 -7 -13 -14 -21c-32 -33 -15 -40 -28 -47c-3 -7 -5 -15 -5 -20c0 -12 1 -46 2 -55c0 -9 -1 -15 -4 -14s0 9 0 21c1 12 -1 50 -6 63c-6 14 -5 24 -2 33v4h2c2 7 5 15 4 25
c-1 19 -18 51 -15 60c10 14 147 12 90 28c26 4 46 17 71 33s41 10 71 23c-22 0 -75 -1 -94 -6c-21 -7 -55 -29 -77 -20c-9 -20 -10 -28 -33 -35c1 28 6 31 0 57l17 10c-14 31 -7 0 -22 25c35 37 33 -7 71 14c53 31 35 30 49 40v-10c7 5 14 12 14 12l48 29
c-25 2 -48 7 -80 -3c-20 -6 -26 -4 -47 -6c-27 -4 -19 -7 -39 -11l-15 16l22 10c-3 35 2 31 14 50c10 16 1 5 7 22l20 -20c71 24 16 17 87 15c54 -3 123 5 178 9c2 -11 8 11 -5 -3c-9 -9 -3 4 -2 -14v-4l-1 -1c25 -10 33 -5 53 -12l-15 -7c-26 -5 -14 7 -50 -11
c-24 -11 -17 2 -43 -24c-32 15 -23 11 -62 -7c-12 -6 -37 -17 -38 -28c0 -1 1 -4 1 -4l-49 -33c38 -2 188 6 210 -1c2 -16 -2 -21 -14 -29c18 -3 24 -1 34 -9c-14 -1 -28 0 -41 -1c-13 -2 -21 -8 -36 -9c-24 -3 -3 11 -60 -13c-20 -9 -48 -23 -67 -25
c-24 -4 -41 -11 -56 -30c21 -9 112 -4 140 -1c19 -2 -2 -4 1 -12c37 6 23 15 63 3l3 14c25 -3 13 -4 46 0l12 -18c20 1 38 6 51 -5c-43 -13 5 14 -87 -13c-28 -9 -63 -6 -91 -8c-18 -2 -38 -5 -58 -8c-2 -3 -2 -7 -3 -11c0 -9 0 -9 -1 -19c-1 -11 2 -20 4 -25
c1 -6 -2 -12 -5 -12c-2 1 -3 3 -2 9c1 5 0 25 1 33c0 7 -2 9 -4 15s-14 7 -19 1s-2 -13 -4 -19c-3 -7 -1 -21 0 -25c0 -3 -4 -2 -6 3s-2 11 -1 17s-2 10 -8 12c-5 2 -17 9 -17 9zM-30 14c4 2 6 -4 6 -8s-2 -4 -4 -8c-1 -3 -8 -4 -9 -1c0 3 -3 5 -5 3c-3 -2 -7 -3 -7 0
c0 2 2 1 2 4s5 3 7 3c3 0 1 0 1 6c1 5 9 1 9 1zM-56 2h2s2 -1 1 -5s-8 -4 -9 -1c0 4 6 6 6 6zM231 86c14 11 9 10 23 2c-4 -3 4 -5 -13 -6c-20 -2 -1 -2 -10 4zM184 52c0 21 2 20 19 13zM104 431c-14 9 -11 5 -2 15c11 -9 11 -1 2 -15zM340 238c-4 15 0 11 12 13zM137 427
c-2 9 3 9 8 1c4 -9 -8 -6 -8 -1zM222 299l10 7c-1 -7 4 -18 -10 -7zM200 438c0 5 3 8 5 1c2 -5 -5 -6 -5 -1zM-8 -86c7 -4 4 -10 1 -10s-1 10 -1 10zM31 359c0 -8 10 -6 7 2c-3 10 -7 9 -7 -2zM418 120c-3 0 -6 -3 -6 -7c1 -3 4 -6 7 -6c4 0 7 4 6 7c0 4 -3 7 -7 6z" />
    <glyph glyph-name="Edieresis" unicode="&#xcb;" horiz-adv-x="386" 
d="M137 178c-6 -8 7 -2 7 -2c11 -3 -2 9 -7 2zM99 83h1c-21 -3 -42 -6 -61 -6c-7 -10 -7 -13 -14 -21c-32 -33 -15 -40 -28 -47c-3 -7 -5 -15 -5 -20c0 -12 1 -46 2 -55c0 -9 -1 -15 -4 -14s0 9 0 21c1 12 -1 50 -6 63c-6 14 -5 24 -2 33v4h2c2 7 5 15 4 25
c-1 19 -18 51 -15 60c10 14 147 12 90 28c26 4 46 17 71 33s41 10 71 23c-22 0 -75 -1 -94 -6c-21 -7 -55 -29 -77 -20c-9 -20 -10 -28 -33 -35c1 28 6 31 0 57l17 10c-14 31 -7 0 -22 25c35 37 33 -7 71 14c53 31 35 30 49 40v-10c7 5 14 12 14 12l48 29
c-25 2 -48 7 -80 -3c-20 -6 -26 -4 -47 -6c-27 -4 -19 -7 -39 -11l-15 16l22 10c-3 35 2 31 14 50c10 16 1 5 7 22l20 -20c71 24 16 17 87 15c54 -3 123 5 178 9c2 -11 8 11 -5 -3c-9 -9 -3 4 -2 -14v-4l-1 -1c25 -10 33 -5 53 -12l-15 -7c-26 -5 -14 7 -50 -11
c-24 -11 -17 2 -43 -24c-32 15 -23 11 -62 -7c-12 -6 -37 -17 -38 -28c0 -1 1 -4 1 -4l-49 -33c38 -2 188 6 210 -1c2 -16 -2 -21 -14 -29c18 -3 24 -1 34 -9c-14 -1 -28 0 -41 -1c-13 -2 -21 -8 -36 -9c-24 -3 -3 11 -60 -13c-20 -9 -48 -23 -67 -25
c-24 -4 -41 -11 -56 -30c21 -9 112 -4 140 -1c19 -2 -2 -4 1 -12c37 6 23 15 63 3l3 14c25 -3 13 -4 46 0l12 -18c20 1 38 6 51 -5c-43 -13 5 14 -87 -13c-28 -9 -63 -6 -91 -8c-18 -2 -38 -5 -58 -8c-2 -3 -2 -7 -3 -11c0 -9 0 -9 -1 -19c-1 -11 2 -20 4 -25
c1 -6 -2 -12 -5 -12c-2 1 -3 3 -2 9c1 5 0 25 1 33c0 7 -2 9 -4 15s-14 7 -19 1s-2 -13 -4 -19c-3 -7 -1 -21 0 -25c0 -3 -4 -2 -6 3s-2 11 -1 17s-2 10 -8 12c-5 2 -17 9 -17 9zM-30 14c4 2 6 -4 6 -8s-2 -4 -4 -8c-1 -3 -8 -4 -9 -1c0 3 -3 5 -5 3c-3 -2 -7 -3 -7 0
c0 2 2 1 2 4s5 3 7 3c3 0 1 0 1 6c1 5 9 1 9 1zM-56 2h2s2 -1 1 -5s-8 -4 -9 -1c0 4 6 6 6 6zM231 86c14 11 9 10 23 2c-4 -3 4 -5 -13 -6c-20 -2 -1 -2 -10 4zM184 52c0 21 2 20 19 13zM104 431c-14 9 -11 5 -2 15c11 -9 11 -1 2 -15zM340 238c-4 15 0 11 12 13zM137 427
c-2 9 3 9 8 1c4 -9 -8 -6 -8 -1zM222 299l10 7c-1 -7 4 -18 -10 -7zM200 438c0 5 3 8 5 1c2 -5 -5 -6 -5 -1zM-8 -86c7 -4 4 -10 1 -10s-1 10 -1 10zM31 359c0 -8 10 -6 7 2c-3 10 -7 9 -7 -2zM418 120c-3 0 -6 -3 -6 -7c1 -3 4 -6 7 -6c4 0 7 4 6 7c0 4 -3 7 -7 6z" />
    <glyph glyph-name="Igrave" unicode="&#xcc;" horiz-adv-x="118" 
d="M24 93c-6 -9 2 3 0 0zM77 163c-4 2 -7 -4 -7 -9c-1 -4 2 -4 3 -8c2 -3 8 -5 9 -2s4 5 7 3c2 -2 7 -4 7 -1s-2 1 -2 4s-5 4 -8 4c-2 1 0 1 0 6c0 6 -9 3 -9 3zM103 148l-1 -1s-3 0 -2 -4s8 -6 9 -2s-6 7 -6 7zM66 187c21 61 45 124 46 144c1 22 8 135 5 144
c-22 -8 -15 -20 -30 -35c-16 -16 -34 -20 -49 -30c-4 -52 -20 -24 -27 -153c-3 -47 0 -26 7 -27l-18 -168c25 5 12 1 22 25c-2 -13 -7 -46 -11 -56c-9 -24 -16 -35 -1 -59c31 27 11 58 27 123c4 15 9 31 14 48v-5c-1 -12 -4 -48 -6 -58c-1 -10 0 -16 3 -15s0 9 1 22
s6 52 12 66c4 10 5 26 5 34zM12 436c-1 14 4 10 7 1c4 -9 -7 -4 -7 -1zM45 59c-8 -3 -4 -10 -2 -10c3 0 2 10 2 10zM32 221l11 19c5 -26 11 -17 -4 -34zM110 317l-30 -75c-1 14 2 29 4 41c5 22 7 23 26 34zM29 315c-5 6 -16 -3 -4 24z" />
    <glyph glyph-name="Iacute" unicode="&#xcd;" horiz-adv-x="118" 
d="M24 93c-6 -9 2 3 0 0zM77 163c-4 2 -7 -4 -7 -9c-1 -4 2 -4 3 -8c2 -3 8 -5 9 -2s4 5 7 3c2 -2 7 -4 7 -1s-2 1 -2 4s-5 4 -8 4c-2 1 0 1 0 6c0 6 -9 3 -9 3zM103 148l-1 -1s-3 0 -2 -4s8 -6 9 -2s-6 7 -6 7zM66 187c21 61 45 124 46 144c1 22 8 135 5 144
c-22 -8 -15 -20 -30 -35c-16 -16 -34 -20 -49 -30c-4 -52 -20 -24 -27 -153c-3 -47 0 -26 7 -27l-18 -168c25 5 12 1 22 25c-2 -13 -7 -46 -11 -56c-9 -24 -16 -35 -1 -59c31 27 11 58 27 123c4 15 9 31 14 48v-5c-1 -12 -4 -48 -6 -58c-1 -10 0 -16 3 -15s0 9 1 22
s6 52 12 66c4 10 5 26 5 34zM12 436c-1 14 4 10 7 1c4 -9 -7 -4 -7 -1zM45 59c-8 -3 -4 -10 -2 -10c3 0 2 10 2 10zM32 221l11 19c5 -26 11 -17 -4 -34zM110 317l-30 -75c-1 14 2 29 4 41c5 22 7 23 26 34zM29 315c-5 6 -16 -3 -4 24z" />
    <glyph glyph-name="Icircumflex" unicode="&#xce;" horiz-adv-x="118" 
d="M24 93c-6 -9 2 3 0 0zM77 163c-4 2 -7 -4 -7 -9c-1 -4 2 -4 3 -8c2 -3 8 -5 9 -2s4 5 7 3c2 -2 7 -4 7 -1s-2 1 -2 4s-5 4 -8 4c-2 1 0 1 0 6c0 6 -9 3 -9 3zM103 148l-1 -1s-3 0 -2 -4s8 -6 9 -2s-6 7 -6 7zM66 187c21 61 45 124 46 144c1 22 8 135 5 144
c-22 -8 -15 -20 -30 -35c-16 -16 -34 -20 -49 -30c-4 -52 -20 -24 -27 -153c-3 -47 0 -26 7 -27l-18 -168c25 5 12 1 22 25c-2 -13 -7 -46 -11 -56c-9 -24 -16 -35 -1 -59c31 27 11 58 27 123c4 15 9 31 14 48v-5c-1 -12 -4 -48 -6 -58c-1 -10 0 -16 3 -15s0 9 1 22
s6 52 12 66c4 10 5 26 5 34zM12 436c-1 14 4 10 7 1c4 -9 -7 -4 -7 -1zM45 59c-8 -3 -4 -10 -2 -10c3 0 2 10 2 10zM32 221l11 19c5 -26 11 -17 -4 -34zM110 317l-30 -75c-1 14 2 29 4 41c5 22 7 23 26 34zM29 315c-5 6 -16 -3 -4 24z" />
    <glyph glyph-name="Idieresis" unicode="&#xcf;" horiz-adv-x="118" 
d="M24 93c-6 -9 2 3 0 0zM77 163c-4 2 -7 -4 -7 -9c-1 -4 2 -4 3 -8c2 -3 8 -5 9 -2s4 5 7 3c2 -2 7 -4 7 -1s-2 1 -2 4s-5 4 -8 4c-2 1 0 1 0 6c0 6 -9 3 -9 3zM103 148l-1 -1s-3 0 -2 -4s8 -6 9 -2s-6 7 -6 7zM66 187c21 61 45 124 46 144c1 22 8 135 5 144
c-22 -8 -15 -20 -30 -35c-16 -16 -34 -20 -49 -30c-4 -52 -20 -24 -27 -153c-3 -47 0 -26 7 -27l-18 -168c25 5 12 1 22 25c-2 -13 -7 -46 -11 -56c-9 -24 -16 -35 -1 -59c31 27 11 58 27 123c4 15 9 31 14 48v-5c-1 -12 -4 -48 -6 -58c-1 -10 0 -16 3 -15s0 9 1 22
s6 52 12 66c4 10 5 26 5 34zM12 436c-1 14 4 10 7 1c4 -9 -7 -4 -7 -1zM45 59c-8 -3 -4 -10 -2 -10c3 0 2 10 2 10zM32 221l11 19c5 -26 11 -17 -4 -34zM110 317l-30 -75c-1 14 2 29 4 41c5 22 7 23 26 34zM29 315c-5 6 -16 -3 -4 24z" />
    <glyph glyph-name="Eth" unicode="&#xd0;" horiz-adv-x="287" 
d="M34 111l4 -3l25 28c-7 -3 -31 -23 -29 -25zM141 161c-28 -46 23 -82 -15 -97c-16 19 3 35 -5 59c-26 9 -56 -23 -81 -41c-52 -38 -21 -42 -39 -80c-27 4 -14 7 -25 30c-19 -10 -31 -33 -51 -30l85 81c16 24 -18 3 44 62c7 6 6 0 17 7c45 30 28 53 48 68c8 6 17 7 25 13
c10 9 28 37 30 51c1 13 0 44 -6 59l-4 -12c-2 9 3 25 -34 35c-6 -15 -15 -47 -28 -65l-4 -3c-48 -47 40 11 -28 -47c7 -26 10 -12 4 -41c-3 -14 -5 -28 -9 -38c-1 4 -2 26 -3 28l-21 -51l-22 8c-7 38 42 122 22 157c1 0 11 -19 17 13c3 20 -2 23 -14 35c15 10 16 0 18 22
c-37 8 -35 2 -69 0c-1 1 -35 36 -60 5c14 -30 62 -14 102 -65c-23 21 -25 25 -55 36c-20 8 -50 12 -55 31l-61 -28c4 29 14 13 33 37c12 16 -7 2 13 18c11 9 12 7 27 7l-21 -11c15 -1 69 28 82 33c23 9 49 9 78 6c8 52 15 25 33 50c10 13 5 38 28 49c17 -13 12 -7 9 -26
l-2 -87c23 -29 67 -1 106 -74c11 -20 6 -31 15 -59c13 -35 -4 -25 -18 -47c-4 -7 -6 -12 -8 -16c0 0 13 -42 2 -48c-10 -5 -14 -14 -14 -27c-1 -13 0 -14 -1 -30s3 -31 6 -39c4 -9 -2 -19 -6 -18c-3 1 -5 5 -4 13c2 9 -1 40 0 52c0 11 -3 15 -6 24c-4 9 -23 10 -31 1
s-2 -19 -6 -29c-3 -11 1 -32 2 -38c0 -6 -5 -3 -9 4c-3 8 -4 17 -3 26c2 9 -3 16 -12 19c-4 2 -11 5 -16 8zM179 92c5 0 3 -39 5 -49c3 -9 4 -20 -1 -14c-4 7 -8 27 -6 34c2 8 2 29 2 29zM159 474l13 -2c-14 -11 -4 -5 -13 2zM56 502l14 12c0 -12 1 -21 -14 -12zM-55 440
c11 20 27 11 28 12c0 1 2 -1 4 -3z" />
    <glyph glyph-name="Ntilde" unicode="&#xd1;" horiz-adv-x="273" 
d="M259 440c10 -73 -14 -189 -32 -262c-8 -31 -13 -29 -23 -51c-14 -34 3 -32 -9 -66c-11 2 -17 -5 -37 32l18 4c-1 44 8 32 -19 51c-8 -21 9 -11 -2 -31c-11 25 -60 111 -74 122l-17 -87c1 32 21 87 9 110c-28 -23 -27 -101 -15 -135c-20 -11 -6 0 -13 -3
c-16 -8 -18 -40 -17 -54c3 -24 7 -57 -26 -64c-9 16 -3 25 -10 41c-1 2 -24 25 -27 28l19 12l12 -24c20 56 -16 -8 -16 78c20 7 -14 6 9 -1l1 -1c-10 30 -1 19 4 56c2 24 -3 42 -2 67c2 51 13 -3 22 122l42 24l-3 39c14 1 31 -14 40 -29c4 -9 24 -134 74 -165l16 12
c-10 19 12 76 4 138c-4 29 -15 25 5 35c9 -18 3 -7 0 -30c-3 -30 -8 -19 6 -36c19 12 9 35 21 84c11 51 -4 51 -5 85c24 -8 41 -72 45 -101zM-28 252c1 26 1 51 18 63zM17 401c-5 10 -11 7 1 29c6 -12 5 -19 -1 -29zM-24 32c8 -13 6 12 5 -10c-1 -16 3 -2 -5 -12
c-8 14 -11 4 0 22zM172 278c-11 16 -8 5 -2 20c13 -24 5 -12 2 -20zM187 502c0 17 5 10 7 1c3 -9 -8 -4 -7 -1zM51 462l10 12c-3 -15 4 -10 -10 -12zM256 522l3 13z" />
    <glyph glyph-name="Ograve" unicode="&#xd2;" horiz-adv-x="239" 
d="M141 68c-2 -1 -4 -1 -8 -2c1 -1 1 -3 1 -5c-1 -4 -3 -4 -5 -7c0 -1 -1 -2 -2 -2c-7 -24 2 -37 -22 -48c-15 27 -5 13 -1 38c2 14 6 6 -2 13c-1 -4 -9 -5 -9 -1c0 3 3 5 5 6c-1 1 -3 3 -5 6c-50 -9 -39 -30 -38 -81c-2 41 -1 53 -20 84c19 12 -1 -8 20 7
c-26 18 -7 7 -26 27c-14 -16 10 -8 -12 -20c-24 37 -16 38 -38 55c18 23 10 24 8 56l4 133c5 39 29 28 53 61c4 6 8 11 12 16c11 18 6 -3 9 19c4 24 -9 17 -7 39h33c65 -6 79 -32 101 -62c26 -35 9 -21 18 -50c7 -25 0 0 18 -25c-23 -83 15 -111 -14 -154
c-13 -18 -28 -36 -38 -53c-9 -15 -10 -21 -9 -24l1 -1c3 -6 12 -3 -13 -33c-3 -7 -5 -13 -5 -17c-1 -13 -3 -49 -3 -59s-2 -15 -5 -14s1 9 2 22c1 12 2 52 -2 67c0 3 -1 6 -1 9zM82 163c-2 25 6 14 14 17c-1 -16 5 -7 -5 -19zM-23 258c-7 19 -3 13 1 24c8 -13 12 -1 -1 -24z
M146 454c0 0 4 13 8 -1c2 -9 -8 -10 -8 1zM144 -36c7 -5 3 -12 0 -11c-3 0 0 11 0 11zM55 70c-1 -1 1 -2 2 -2zM79 253c10 -6 19 -17 33 -2c0 1 1 2 2 2l14 81c15 -18 4 -2 10 -27c18 -78 3 -34 1 -77c-1 -41 16 -76 -33 -79l1 67c-14 -12 -9 -8 -18 -26c-35 7 0 13 -17 10
c-2 -8 -2 -17 -4 -30c-4 -22 -8 -15 3 -33c13 -18 42 -30 62 -33c105 165 42 150 31 227c-22 -2 -18 -2 -36 13c-34 -45 -60 -14 -49 -93zM-6 289c14 14 16 25 23 45c8 23 14 21 21 39c-28 -27 -46 -36 -44 -84zM99 441c19 -16 3 1 30 -7c18 -5 7 -5 23 -14
c-12 24 -29 33 -53 21zM72 429l18 15c-16 16 -20 5 -18 -15z" />
    <glyph glyph-name="Oacute" unicode="&#xd3;" horiz-adv-x="239" 
d="M141 68c-2 -1 -4 -1 -8 -2c1 -1 1 -3 1 -5c-1 -4 -3 -4 -5 -7c0 -1 -1 -2 -2 -2c-7 -24 2 -37 -22 -48c-15 27 -5 13 -1 38c2 14 6 6 -2 13c-1 -4 -9 -5 -9 -1c0 3 3 5 5 6c-1 1 -3 3 -5 6c-50 -9 -39 -30 -38 -81c-2 41 -1 53 -20 84c19 12 -1 -8 20 7
c-26 18 -7 7 -26 27c-14 -16 10 -8 -12 -20c-24 37 -16 38 -38 55c18 23 10 24 8 56l4 133c5 39 29 28 53 61c4 6 8 11 12 16c11 18 6 -3 9 19c4 24 -9 17 -7 39h33c65 -6 79 -32 101 -62c26 -35 9 -21 18 -50c7 -25 0 0 18 -25c-23 -83 15 -111 -14 -154
c-13 -18 -28 -36 -38 -53c-9 -15 -10 -21 -9 -24l1 -1c3 -6 12 -3 -13 -33c-3 -7 -5 -13 -5 -17c-1 -13 -3 -49 -3 -59s-2 -15 -5 -14s1 9 2 22c1 12 2 52 -2 67c0 3 -1 6 -1 9zM82 163c-2 25 6 14 14 17c-1 -16 5 -7 -5 -19zM-23 258c-7 19 -3 13 1 24c8 -13 12 -1 -1 -24z
M146 454c0 0 4 13 8 -1c2 -9 -8 -10 -8 1zM144 -36c7 -5 3 -12 0 -11c-3 0 0 11 0 11zM55 70c-1 -1 1 -2 2 -2zM79 253c10 -6 19 -17 33 -2c0 1 1 2 2 2l14 81c15 -18 4 -2 10 -27c18 -78 3 -34 1 -77c-1 -41 16 -76 -33 -79l1 67c-14 -12 -9 -8 -18 -26c-35 7 0 13 -17 10
c-2 -8 -2 -17 -4 -30c-4 -22 -8 -15 3 -33c13 -18 42 -30 62 -33c105 165 42 150 31 227c-22 -2 -18 -2 -36 13c-34 -45 -60 -14 -49 -93zM-6 289c14 14 16 25 23 45c8 23 14 21 21 39c-28 -27 -46 -36 -44 -84zM99 441c19 -16 3 1 30 -7c18 -5 7 -5 23 -14
c-12 24 -29 33 -53 21zM72 429l18 15c-16 16 -20 5 -18 -15z" />
    <glyph glyph-name="Ocircumflex" unicode="&#xd4;" horiz-adv-x="239" 
d="M141 68c-2 -1 -4 -1 -8 -2c1 -1 1 -3 1 -5c-1 -4 -3 -4 -5 -7c0 -1 -1 -2 -2 -2c-7 -24 2 -37 -22 -48c-15 27 -5 13 -1 38c2 14 6 6 -2 13c-1 -4 -9 -5 -9 -1c0 3 3 5 5 6c-1 1 -3 3 -5 6c-50 -9 -39 -30 -38 -81c-2 41 -1 53 -20 84c19 12 -1 -8 20 7
c-26 18 -7 7 -26 27c-14 -16 10 -8 -12 -20c-24 37 -16 38 -38 55c18 23 10 24 8 56l4 133c5 39 29 28 53 61c4 6 8 11 12 16c11 18 6 -3 9 19c4 24 -9 17 -7 39h33c65 -6 79 -32 101 -62c26 -35 9 -21 18 -50c7 -25 0 0 18 -25c-23 -83 15 -111 -14 -154
c-13 -18 -28 -36 -38 -53c-9 -15 -10 -21 -9 -24l1 -1c3 -6 12 -3 -13 -33c-3 -7 -5 -13 -5 -17c-1 -13 -3 -49 -3 -59s-2 -15 -5 -14s1 9 2 22c1 12 2 52 -2 67c0 3 -1 6 -1 9zM82 163c-2 25 6 14 14 17c-1 -16 5 -7 -5 -19zM-23 258c-7 19 -3 13 1 24c8 -13 12 -1 -1 -24z
M146 454c0 0 4 13 8 -1c2 -9 -8 -10 -8 1zM144 -36c7 -5 3 -12 0 -11c-3 0 0 11 0 11zM55 70c-1 -1 1 -2 2 -2zM79 253c10 -6 19 -17 33 -2c0 1 1 2 2 2l14 81c15 -18 4 -2 10 -27c18 -78 3 -34 1 -77c-1 -41 16 -76 -33 -79l1 67c-14 -12 -9 -8 -18 -26c-35 7 0 13 -17 10
c-2 -8 -2 -17 -4 -30c-4 -22 -8 -15 3 -33c13 -18 42 -30 62 -33c105 165 42 150 31 227c-22 -2 -18 -2 -36 13c-34 -45 -60 -14 -49 -93zM-6 289c14 14 16 25 23 45c8 23 14 21 21 39c-28 -27 -46 -36 -44 -84zM99 441c19 -16 3 1 30 -7c18 -5 7 -5 23 -14
c-12 24 -29 33 -53 21zM72 429l18 15c-16 16 -20 5 -18 -15z" />
    <glyph glyph-name="Otilde" unicode="&#xd5;" horiz-adv-x="239" 
d="M141 68c-2 -1 -4 -1 -8 -2c1 -1 1 -3 1 -5c-1 -4 -3 -4 -5 -7c0 -1 -1 -2 -2 -2c-7 -24 2 -37 -22 -48c-15 27 -5 13 -1 38c2 14 6 6 -2 13c-1 -4 -9 -5 -9 -1c0 3 3 5 5 6c-1 1 -3 3 -5 6c-50 -9 -39 -30 -38 -81c-2 41 -1 53 -20 84c19 12 -1 -8 20 7
c-26 18 -7 7 -26 27c-14 -16 10 -8 -12 -20c-24 37 -16 38 -38 55c18 23 10 24 8 56l4 133c5 39 29 28 53 61c4 6 8 11 12 16c11 18 6 -3 9 19c4 24 -9 17 -7 39h33c65 -6 79 -32 101 -62c26 -35 9 -21 18 -50c7 -25 0 0 18 -25c-23 -83 15 -111 -14 -154
c-13 -18 -28 -36 -38 -53c-9 -15 -10 -21 -9 -24l1 -1c3 -6 12 -3 -13 -33c-3 -7 -5 -13 -5 -17c-1 -13 -3 -49 -3 -59s-2 -15 -5 -14s1 9 2 22c1 12 2 52 -2 67c0 3 -1 6 -1 9zM82 163c-2 25 6 14 14 17c-1 -16 5 -7 -5 -19zM-23 258c-7 19 -3 13 1 24c8 -13 12 -1 -1 -24z
M146 454c0 0 4 13 8 -1c2 -9 -8 -10 -8 1zM144 -36c7 -5 3 -12 0 -11c-3 0 0 11 0 11zM55 70c-1 -1 1 -2 2 -2zM79 253c10 -6 19 -17 33 -2c0 1 1 2 2 2l14 81c15 -18 4 -2 10 -27c18 -78 3 -34 1 -77c-1 -41 16 -76 -33 -79l1 67c-14 -12 -9 -8 -18 -26c-35 7 0 13 -17 10
c-2 -8 -2 -17 -4 -30c-4 -22 -8 -15 3 -33c13 -18 42 -30 62 -33c105 165 42 150 31 227c-22 -2 -18 -2 -36 13c-34 -45 -60 -14 -49 -93zM-6 289c14 14 16 25 23 45c8 23 14 21 21 39c-28 -27 -46 -36 -44 -84zM99 441c19 -16 3 1 30 -7c18 -5 7 -5 23 -14
c-12 24 -29 33 -53 21zM72 429l18 15c-16 16 -20 5 -18 -15z" />
    <glyph glyph-name="Odieresis" unicode="&#xd6;" horiz-adv-x="239" 
d="M141 68c-2 -1 -4 -1 -8 -2c1 -1 1 -3 1 -5c-1 -4 -3 -4 -5 -7c0 -1 -1 -2 -2 -2c-7 -24 2 -37 -22 -48c-15 27 -5 13 -1 38c2 14 6 6 -2 13c-1 -4 -9 -5 -9 -1c0 3 3 5 5 6c-1 1 -3 3 -5 6c-50 -9 -39 -30 -38 -81c-2 41 -1 53 -20 84c19 12 -1 -8 20 7
c-26 18 -7 7 -26 27c-14 -16 10 -8 -12 -20c-24 37 -16 38 -38 55c18 23 10 24 8 56l4 133c5 39 29 28 53 61c4 6 8 11 12 16c11 18 6 -3 9 19c4 24 -9 17 -7 39h33c65 -6 79 -32 101 -62c26 -35 9 -21 18 -50c7 -25 0 0 18 -25c-23 -83 15 -111 -14 -154
c-13 -18 -28 -36 -38 -53c-9 -15 -10 -21 -9 -24l1 -1c3 -6 12 -3 -13 -33c-3 -7 -5 -13 -5 -17c-1 -13 -3 -49 -3 -59s-2 -15 -5 -14s1 9 2 22c1 12 2 52 -2 67c0 3 -1 6 -1 9zM82 163c-2 25 6 14 14 17c-1 -16 5 -7 -5 -19zM-23 258c-7 19 -3 13 1 24c8 -13 12 -1 -1 -24z
M146 454c0 0 4 13 8 -1c2 -9 -8 -10 -8 1zM144 -36c7 -5 3 -12 0 -11c-3 0 0 11 0 11zM55 70c-1 -1 1 -2 2 -2zM79 253c10 -6 19 -17 33 -2c0 1 1 2 2 2l14 81c15 -18 4 -2 10 -27c18 -78 3 -34 1 -77c-1 -41 16 -76 -33 -79l1 67c-14 -12 -9 -8 -18 -26c-35 7 0 13 -17 10
c-2 -8 -2 -17 -4 -30c-4 -22 -8 -15 3 -33c13 -18 42 -30 62 -33c105 165 42 150 31 227c-22 -2 -18 -2 -36 13c-34 -45 -60 -14 -49 -93zM-6 289c14 14 16 25 23 45c8 23 14 21 21 39c-28 -27 -46 -36 -44 -84zM99 441c19 -16 3 1 30 -7c18 -5 7 -5 23 -14
c-12 24 -29 33 -53 21zM72 429l18 15c-16 16 -20 5 -18 -15z" />
    <glyph glyph-name="multiply" unicode="&#xd7;" 
 />
    <glyph glyph-name="Oslash" unicode="&#xd8;" horiz-adv-x="239" 
d="M141 68c-2 -1 -4 -1 -8 -2c1 -1 1 -3 1 -5c-1 -4 -3 -4 -5 -7c0 -1 -1 -2 -2 -2c-7 -24 2 -37 -22 -48c-15 27 -5 13 -1 38c2 14 6 6 -2 13c-1 -4 -9 -5 -9 -1c0 3 3 5 5 6c-1 1 -3 3 -5 6c-50 -9 -39 -30 -38 -81c-2 41 -1 53 -20 84c19 12 -1 -8 20 7
c-26 18 -7 7 -26 27c-14 -16 10 -8 -12 -20c-24 37 -16 38 -38 55c18 23 10 24 8 56l4 133c5 39 29 28 53 61c4 6 8 11 12 16c11 18 6 -3 9 19c4 24 -9 17 -7 39h33c65 -6 79 -32 101 -62c26 -35 9 -21 18 -50c7 -25 0 0 18 -25c-23 -83 15 -111 -14 -154
c-13 -18 -28 -36 -38 -53c-9 -15 -10 -21 -9 -24l1 -1c3 -6 12 -3 -13 -33c-3 -7 -5 -13 -5 -17c-1 -13 -3 -49 -3 -59s-2 -15 -5 -14s1 9 2 22c1 12 2 52 -2 67c0 3 -1 6 -1 9zM82 163c-2 25 6 14 14 17c-1 -16 5 -7 -5 -19zM-23 258c-7 19 -3 13 1 24c8 -13 12 -1 -1 -24z
M146 454c0 0 4 13 8 -1c2 -9 -8 -10 -8 1zM144 -36c7 -5 3 -12 0 -11c-3 0 0 11 0 11zM55 70c-1 -1 1 -2 2 -2zM79 253c10 -6 19 -17 33 -2c0 1 1 2 2 2l14 81c15 -18 4 -2 10 -27c18 -78 3 -34 1 -77c-1 -41 16 -76 -33 -79l1 67c-14 -12 -9 -8 -18 -26c-35 7 0 13 -17 10
c-2 -8 -2 -17 -4 -30c-4 -22 -8 -15 3 -33c13 -18 42 -30 62 -33c105 165 42 150 31 227c-22 -2 -18 -2 -36 13c-34 -45 -60 -14 -49 -93zM-6 289c14 14 16 25 23 45c8 23 14 21 21 39c-28 -27 -46 -36 -44 -84zM99 441c19 -16 3 1 30 -7c18 -5 7 -5 23 -14
c-12 24 -29 33 -53 21zM72 429l18 15c-16 16 -20 5 -18 -15z" />
    <glyph glyph-name="Ugrave" unicode="&#xd9;" horiz-adv-x="246" 
d="M148 97l-4 6l-41 -46c29 11 26 23 45 40zM94 109c-8 4 -8 11 -19 -1c19 -12 10 -5 19 1zM131 176c-1 -1 1 -2 1 -3l1 -1s5 15 -2 4zM228 320c0 0 1 11 -2 6c-2 -5 4 -18 2 -6zM173 276l15 15c9 52 30 78 25 136c-2 17 -7 29 1 41c20 -11 9 -12 19 -38c7 19 5 16 19 18
c9 -31 9 -12 2 -45c-8 -32 4 -8 1 -36c-24 -7 14 -9 -7 3c-22 11 12 9 -6 4l-13 -46c22 18 5 7 20 31c1 -44 -53 -129 -58 -195c-2 -30 -49 -88 -72 -108c-19 -16 -11 -1 -41 -12c-7 -33 12 -73 -29 -76l16 35c-36 45 10 5 -24 52c-65 90 -23 185 -32 236c12 7 22 -11 19 46
c-2 37 2 30 11 64c21 -1 5 -1 25 -10c2 10 22 75 26 81c35 -12 0 -43 11 -76c8 -28 9 -12 -2 -43c-21 -56 -54 -155 -39 -214c6 -27 19 -21 47 -17c14 21 8 22 16 41c13 33 30 -10 58 111c-20 9 14 -5 -3 0c-16 4 16 -19 -5 2zM112 444c1 12 8 13 10 1c3 -13 -10 -7 -10 -1z
" />
    <glyph glyph-name="Uacute" unicode="&#xda;" horiz-adv-x="246" 
d="M148 97l-4 6l-41 -46c29 11 26 23 45 40zM94 109c-8 4 -8 11 -19 -1c19 -12 10 -5 19 1zM131 176c-1 -1 1 -2 1 -3l1 -1s5 15 -2 4zM228 320c0 0 1 11 -2 6c-2 -5 4 -18 2 -6zM173 276l15 15c9 52 30 78 25 136c-2 17 -7 29 1 41c20 -11 9 -12 19 -38c7 19 5 16 19 18
c9 -31 9 -12 2 -45c-8 -32 4 -8 1 -36c-24 -7 14 -9 -7 3c-22 11 12 9 -6 4l-13 -46c22 18 5 7 20 31c1 -44 -53 -129 -58 -195c-2 -30 -49 -88 -72 -108c-19 -16 -11 -1 -41 -12c-7 -33 12 -73 -29 -76l16 35c-36 45 10 5 -24 52c-65 90 -23 185 -32 236c12 7 22 -11 19 46
c-2 37 2 30 11 64c21 -1 5 -1 25 -10c2 10 22 75 26 81c35 -12 0 -43 11 -76c8 -28 9 -12 -2 -43c-21 -56 -54 -155 -39 -214c6 -27 19 -21 47 -17c14 21 8 22 16 41c13 33 30 -10 58 111c-20 9 14 -5 -3 0c-16 4 16 -19 -5 2zM112 444c1 12 8 13 10 1c3 -13 -10 -7 -10 -1z
" />
    <glyph glyph-name="Ucircumflex" unicode="&#xdb;" horiz-adv-x="246" 
d="M148 97l-4 6l-41 -46c29 11 26 23 45 40zM94 109c-8 4 -8 11 -19 -1c19 -12 10 -5 19 1zM131 176c-1 -1 1 -2 1 -3l1 -1s5 15 -2 4zM228 320c0 0 1 11 -2 6c-2 -5 4 -18 2 -6zM173 276l15 15c9 52 30 78 25 136c-2 17 -7 29 1 41c20 -11 9 -12 19 -38c7 19 5 16 19 18
c9 -31 9 -12 2 -45c-8 -32 4 -8 1 -36c-24 -7 14 -9 -7 3c-22 11 12 9 -6 4l-13 -46c22 18 5 7 20 31c1 -44 -53 -129 -58 -195c-2 -30 -49 -88 -72 -108c-19 -16 -11 -1 -41 -12c-7 -33 12 -73 -29 -76l16 35c-36 45 10 5 -24 52c-65 90 -23 185 -32 236c12 7 22 -11 19 46
c-2 37 2 30 11 64c21 -1 5 -1 25 -10c2 10 22 75 26 81c35 -12 0 -43 11 -76c8 -28 9 -12 -2 -43c-21 -56 -54 -155 -39 -214c6 -27 19 -21 47 -17c14 21 8 22 16 41c13 33 30 -10 58 111c-20 9 14 -5 -3 0c-16 4 16 -19 -5 2zM112 444c1 12 8 13 10 1c3 -13 -10 -7 -10 -1z
" />
    <glyph glyph-name="Udieresis" unicode="&#xdc;" horiz-adv-x="246" 
d="M148 97l-4 6l-41 -46c29 11 26 23 45 40zM94 109c-8 4 -8 11 -19 -1c19 -12 10 -5 19 1zM131 176c-1 -1 1 -2 1 -3l1 -1s5 15 -2 4zM228 320c0 0 1 11 -2 6c-2 -5 4 -18 2 -6zM173 276l15 15c9 52 30 78 25 136c-2 17 -7 29 1 41c20 -11 9 -12 19 -38c7 19 5 16 19 18
c9 -31 9 -12 2 -45c-8 -32 4 -8 1 -36c-24 -7 14 -9 -7 3c-22 11 12 9 -6 4l-13 -46c22 18 5 7 20 31c1 -44 -53 -129 -58 -195c-2 -30 -49 -88 -72 -108c-19 -16 -11 -1 -41 -12c-7 -33 12 -73 -29 -76l16 35c-36 45 10 5 -24 52c-65 90 -23 185 -32 236c12 7 22 -11 19 46
c-2 37 2 30 11 64c21 -1 5 -1 25 -10c2 10 22 75 26 81c35 -12 0 -43 11 -76c8 -28 9 -12 -2 -43c-21 -56 -54 -155 -39 -214c6 -27 19 -21 47 -17c14 21 8 22 16 41c13 33 30 -10 58 111c-20 9 14 -5 -3 0c-16 4 16 -19 -5 2zM112 444c1 12 8 13 10 1c3 -13 -10 -7 -10 -1z
" />
    <glyph glyph-name="Yacute" unicode="&#xdd;" horiz-adv-x="232" 
d="M92 135c1 -10 2 0 3 0c3 1 -4 11 -3 0zM237 526c1 9 6 11 9 0c2 -10 -9 -8 -9 0zM-17 472c-2 24 1 12 10 15c-3 -15 3 -7 -10 -15zM-21 -80c7 13 13 21 24 25c-2 -20 -4 -36 -24 -25zM166 278l-13 -35zM50 372c-4 -7 3 5 0 0zM223 428c25 18 48 89 80 98
c-9 -28 -25 -40 -33 -71c-8 -30 -6 -13 -18 -35c-2 -5 -11 -26 -15 -35c-28 -57 -60 -84 -65 -93c-7 -14 4 -14 5 -20c-46 -53 -25 -33 -53 -88c-45 -88 -11 -99 -53 -96c2 27 19 12 3 35c-32 -21 -17 -113 -69 -160c-23 10 -10 7 18 89c8 25 0 31 13 57c13 25 12 27 18 54
c-17 -7 -17 -13 -26 -32c3 13 4 22 14 32c9 9 7 2 17 4c24 58 -22 33 -24 144c-1 38 -37 93 -42 134c19 13 18 7 32 15c-6 15 -16 37 -10 48c7 -6 36 -66 39 -75c6 -26 -4 -63 2 -82l9 -9c-8 -14 14 -66 21 -82l16 -21c9 23 21 45 30 68c10 27 4 31 19 61c38 71 24 24 40 59
c13 27 8 38 31 61c7 -16 2 -5 0 -26c22 12 8 7 16 4zM290 425l2 -1s2 0 1 -4c-2 -4 -9 -5 -9 -1s6 6 6 6z" />
    <glyph glyph-name="Thorn" unicode="&#xde;" 
 />
    <glyph glyph-name="germandbls" unicode="&#xdf;" 
 />
    <glyph glyph-name="agrave" unicode="&#xe0;" horiz-adv-x="248" 
d="M151 86c-1 0 2 -1 2 -1zM173 63c-1 -1 -5 -2 -16 -6c-2 29 3 15 -19 32c15 0 14 -6 20 23c3 16 6 33 1 46c-6 2 -5 19 -9 -17l-9 86c-41 2 -34 -17 -43 -49v-4l-3 -45l33 -29c-25 20 -18 19 -50 27l-32 -95c-2 -18 0 -17 -13 -32l-18 10l6 48c-24 -14 -6 -12 -27 -26
c-10 18 1 19 7 45c26 95 45 99 18 117c22 7 12 1 23 21c-25 8 -60 8 -80 -3c16 -14 11 -9 30 -15c-43 1 -22 8 -50 31c20 11 19 -4 15 23l16 -17c50 4 30 3 64 25c1 0 3 1 4 2c1 0 2 1 3 2c26 13 10 -12 24 25c7 19 6 11 15 11l2 16h-1l-3 -1h-7c7 37 7 16 17 36
c11 21 -1 12 19 34c23 24 1 38 36 62c35 25 17 17 31 47c16 31 8 -29 35 22c9 17 3 18 21 27c0 -13 -24 -99 -27 -127c-5 -33 6 -44 2 -77c-4 -30 -4 -38 -2 -71l52 -6c0 -34 -1 -5 -23 -19l-31 -20c1 -19 1 -40 2 -60c2 -30 11 -29 10 -44c-3 -28 -9 -11 1 -50
c3 -15 11 -39 -2 -45l-10 38c-14 5 -15 -1 -18 3c-9 -25 -6 -72 -8 -82c-2 -11 -8 -9 -5 0c3 10 4 53 0 73c-1 3 -1 6 -1 8zM197 524c-2 0 -3 -1 -3 -3s2 -4 4 -4s3 2 3 4s-2 3 -4 3zM8 260l-25 -11c-11 -3 -6 -8 -12 11h37zM11 -32c2 15 0 20 14 15c0 -13 -6 -13 -14 -15z
M158 528c0 12 4 11 12 13c0 -19 6 -12 -12 -13zM190 538c5 5 -12 7 12 8zM234 572c-2 0 -3 -2 -3 -4s2 -3 4 -3s3 1 3 3s-2 4 -4 4zM67 176c16 -8 15 -11 22 -3zM142 282l-15 -12c22 -1 15 -7 15 12zM68 271c1 -12 2 1 2 1c4 2 -3 14 -2 -1zM152 307c-8 -15 -6 -24 3 -38
c5 11 6 -11 4 19c-1 11 -3 12 -7 19zM71 293c-7 -4 3 -1 3 -1h-1c0 1 -1 2 -2 1z" />
    <glyph glyph-name="aacute" unicode="&#xe1;" horiz-adv-x="248" 
d="M151 86c-1 0 2 -1 2 -1zM173 63c-1 -1 -5 -2 -16 -6c-2 29 3 15 -19 32c15 0 14 -6 20 23c3 16 6 33 1 46c-6 2 -5 19 -9 -17l-9 86c-41 2 -34 -17 -43 -49v-4l-3 -45l33 -29c-25 20 -18 19 -50 27l-32 -95c-2 -18 0 -17 -13 -32l-18 10l6 48c-24 -14 -6 -12 -27 -26
c-10 18 1 19 7 45c26 95 45 99 18 117c22 7 12 1 23 21c-25 8 -60 8 -80 -3c16 -14 11 -9 30 -15c-43 1 -22 8 -50 31c20 11 19 -4 15 23l16 -17c50 4 30 3 64 25c1 0 3 1 4 2c1 0 2 1 3 2c26 13 10 -12 24 25c7 19 6 11 15 11l2 16h-1l-3 -1h-7c7 37 7 16 17 36
c11 21 -1 12 19 34c23 24 1 38 36 62c35 25 17 17 31 47c16 31 8 -29 35 22c9 17 3 18 21 27c0 -13 -24 -99 -27 -127c-5 -33 6 -44 2 -77c-4 -30 -4 -38 -2 -71l52 -6c0 -34 -1 -5 -23 -19l-31 -20c1 -19 1 -40 2 -60c2 -30 11 -29 10 -44c-3 -28 -9 -11 1 -50
c3 -15 11 -39 -2 -45l-10 38c-14 5 -15 -1 -18 3c-9 -25 -6 -72 -8 -82c-2 -11 -8 -9 -5 0c3 10 4 53 0 73c-1 3 -1 6 -1 8zM197 524c-2 0 -3 -1 -3 -3s2 -4 4 -4s3 2 3 4s-2 3 -4 3zM8 260l-25 -11c-11 -3 -6 -8 -12 11h37zM11 -32c2 15 0 20 14 15c0 -13 -6 -13 -14 -15z
M158 528c0 12 4 11 12 13c0 -19 6 -12 -12 -13zM190 538c5 5 -12 7 12 8zM234 572c-2 0 -3 -2 -3 -4s2 -3 4 -3s3 1 3 3s-2 4 -4 4zM67 176c16 -8 15 -11 22 -3zM142 282l-15 -12c22 -1 15 -7 15 12zM68 271c1 -12 2 1 2 1c4 2 -3 14 -2 -1zM152 307c-8 -15 -6 -24 3 -38
c5 11 6 -11 4 19c-1 11 -3 12 -7 19zM71 293c-7 -4 3 -1 3 -1h-1c0 1 -1 2 -2 1z" />
    <glyph glyph-name="acircumflex" unicode="&#xe2;" horiz-adv-x="248" 
d="M151 86c-1 0 2 -1 2 -1zM173 63c-1 -1 -5 -2 -16 -6c-2 29 3 15 -19 32c15 0 14 -6 20 23c3 16 6 33 1 46c-6 2 -5 19 -9 -17l-9 86c-41 2 -34 -17 -43 -49v-4l-3 -45l33 -29c-25 20 -18 19 -50 27l-32 -95c-2 -18 0 -17 -13 -32l-18 10l6 48c-24 -14 -6 -12 -27 -26
c-10 18 1 19 7 45c26 95 45 99 18 117c22 7 12 1 23 21c-25 8 -60 8 -80 -3c16 -14 11 -9 30 -15c-43 1 -22 8 -50 31c20 11 19 -4 15 23l16 -17c50 4 30 3 64 25c1 0 3 1 4 2c1 0 2 1 3 2c26 13 10 -12 24 25c7 19 6 11 15 11l2 16h-1l-3 -1h-7c7 37 7 16 17 36
c11 21 -1 12 19 34c23 24 1 38 36 62c35 25 17 17 31 47c16 31 8 -29 35 22c9 17 3 18 21 27c0 -13 -24 -99 -27 -127c-5 -33 6 -44 2 -77c-4 -30 -4 -38 -2 -71l52 -6c0 -34 -1 -5 -23 -19l-31 -20c1 -19 1 -40 2 -60c2 -30 11 -29 10 -44c-3 -28 -9 -11 1 -50
c3 -15 11 -39 -2 -45l-10 38c-14 5 -15 -1 -18 3c-9 -25 -6 -72 -8 -82c-2 -11 -8 -9 -5 0c3 10 4 53 0 73c-1 3 -1 6 -1 8zM197 524c-2 0 -3 -1 -3 -3s2 -4 4 -4s3 2 3 4s-2 3 -4 3zM8 260l-25 -11c-11 -3 -6 -8 -12 11h37zM11 -32c2 15 0 20 14 15c0 -13 -6 -13 -14 -15z
M158 528c0 12 4 11 12 13c0 -19 6 -12 -12 -13zM190 538c5 5 -12 7 12 8zM234 572c-2 0 -3 -2 -3 -4s2 -3 4 -3s3 1 3 3s-2 4 -4 4zM67 176c16 -8 15 -11 22 -3zM142 282l-15 -12c22 -1 15 -7 15 12zM68 271c1 -12 2 1 2 1c4 2 -3 14 -2 -1zM152 307c-8 -15 -6 -24 3 -38
c5 11 6 -11 4 19c-1 11 -3 12 -7 19zM71 293c-7 -4 3 -1 3 -1h-1c0 1 -1 2 -2 1z" />
    <glyph glyph-name="atilde" unicode="&#xe3;" horiz-adv-x="248" 
d="M151 86c-1 0 2 -1 2 -1zM173 63c-1 -1 -5 -2 -16 -6c-2 29 3 15 -19 32c15 0 14 -6 20 23c3 16 6 33 1 46c-6 2 -5 19 -9 -17l-9 86c-41 2 -34 -17 -43 -49v-4l-3 -45l33 -29c-25 20 -18 19 -50 27l-32 -95c-2 -18 0 -17 -13 -32l-18 10l6 48c-24 -14 -6 -12 -27 -26
c-10 18 1 19 7 45c26 95 45 99 18 117c22 7 12 1 23 21c-25 8 -60 8 -80 -3c16 -14 11 -9 30 -15c-43 1 -22 8 -50 31c20 11 19 -4 15 23l16 -17c50 4 30 3 64 25c1 0 3 1 4 2c1 0 2 1 3 2c26 13 10 -12 24 25c7 19 6 11 15 11l2 16h-1l-3 -1h-7c7 37 7 16 17 36
c11 21 -1 12 19 34c23 24 1 38 36 62c35 25 17 17 31 47c16 31 8 -29 35 22c9 17 3 18 21 27c0 -13 -24 -99 -27 -127c-5 -33 6 -44 2 -77c-4 -30 -4 -38 -2 -71l52 -6c0 -34 -1 -5 -23 -19l-31 -20c1 -19 1 -40 2 -60c2 -30 11 -29 10 -44c-3 -28 -9 -11 1 -50
c3 -15 11 -39 -2 -45l-10 38c-14 5 -15 -1 -18 3c-9 -25 -6 -72 -8 -82c-2 -11 -8 -9 -5 0c3 10 4 53 0 73c-1 3 -1 6 -1 8zM197 524c-2 0 -3 -1 -3 -3s2 -4 4 -4s3 2 3 4s-2 3 -4 3zM8 260l-25 -11c-11 -3 -6 -8 -12 11h37zM11 -32c2 15 0 20 14 15c0 -13 -6 -13 -14 -15z
M158 528c0 12 4 11 12 13c0 -19 6 -12 -12 -13zM190 538c5 5 -12 7 12 8zM234 572c-2 0 -3 -2 -3 -4s2 -3 4 -3s3 1 3 3s-2 4 -4 4zM67 176c16 -8 15 -11 22 -3zM142 282l-15 -12c22 -1 15 -7 15 12zM68 271c1 -12 2 1 2 1c4 2 -3 14 -2 -1zM152 307c-8 -15 -6 -24 3 -38
c5 11 6 -11 4 19c-1 11 -3 12 -7 19zM71 293c-7 -4 3 -1 3 -1h-1c0 1 -1 2 -2 1z" />
    <glyph glyph-name="adieresis" unicode="&#xe4;" horiz-adv-x="248" 
d="M151 86c-1 0 2 -1 2 -1zM173 63c-1 -1 -5 -2 -16 -6c-2 29 3 15 -19 32c15 0 14 -6 20 23c3 16 6 33 1 46c-6 2 -5 19 -9 -17l-9 86c-41 2 -34 -17 -43 -49v-4l-3 -45l33 -29c-25 20 -18 19 -50 27l-32 -95c-2 -18 0 -17 -13 -32l-18 10l6 48c-24 -14 -6 -12 -27 -26
c-10 18 1 19 7 45c26 95 45 99 18 117c22 7 12 1 23 21c-25 8 -60 8 -80 -3c16 -14 11 -9 30 -15c-43 1 -22 8 -50 31c20 11 19 -4 15 23l16 -17c50 4 30 3 64 25c1 0 3 1 4 2c1 0 2 1 3 2c26 13 10 -12 24 25c7 19 6 11 15 11l2 16h-1l-3 -1h-7c7 37 7 16 17 36
c11 21 -1 12 19 34c23 24 1 38 36 62c35 25 17 17 31 47c16 31 8 -29 35 22c9 17 3 18 21 27c0 -13 -24 -99 -27 -127c-5 -33 6 -44 2 -77c-4 -30 -4 -38 -2 -71l52 -6c0 -34 -1 -5 -23 -19l-31 -20c1 -19 1 -40 2 -60c2 -30 11 -29 10 -44c-3 -28 -9 -11 1 -50
c3 -15 11 -39 -2 -45l-10 38c-14 5 -15 -1 -18 3c-9 -25 -6 -72 -8 -82c-2 -11 -8 -9 -5 0c3 10 4 53 0 73c-1 3 -1 6 -1 8zM197 524c-2 0 -3 -1 -3 -3s2 -4 4 -4s3 2 3 4s-2 3 -4 3zM8 260l-25 -11c-11 -3 -6 -8 -12 11h37zM11 -32c2 15 0 20 14 15c0 -13 -6 -13 -14 -15z
M158 528c0 12 4 11 12 13c0 -19 6 -12 -12 -13zM190 538c5 5 -12 7 12 8zM234 572c-2 0 -3 -2 -3 -4s2 -3 4 -3s3 1 3 3s-2 4 -4 4zM67 176c16 -8 15 -11 22 -3zM142 282l-15 -12c22 -1 15 -7 15 12zM68 271c1 -12 2 1 2 1c4 2 -3 14 -2 -1zM152 307c-8 -15 -6 -24 3 -38
c5 11 6 -11 4 19c-1 11 -3 12 -7 19zM71 293c-7 -4 3 -1 3 -1h-1c0 1 -1 2 -2 1z" />
    <glyph glyph-name="aring" unicode="&#xe5;" horiz-adv-x="248" 
d="M151 86c-1 0 2 -1 2 -1zM173 63c-1 -1 -5 -2 -16 -6c-2 29 3 15 -19 32c15 0 14 -6 20 23c3 16 6 33 1 46c-6 2 -5 19 -9 -17l-9 86c-41 2 -34 -17 -43 -49v-4l-3 -45l33 -29c-25 20 -18 19 -50 27l-32 -95c-2 -18 0 -17 -13 -32l-18 10l6 48c-24 -14 -6 -12 -27 -26
c-10 18 1 19 7 45c26 95 45 99 18 117c22 7 12 1 23 21c-25 8 -60 8 -80 -3c16 -14 11 -9 30 -15c-43 1 -22 8 -50 31c20 11 19 -4 15 23l16 -17c50 4 30 3 64 25c1 0 3 1 4 2c1 0 2 1 3 2c26 13 10 -12 24 25c7 19 6 11 15 11l2 16h-1l-3 -1h-7c7 37 7 16 17 36
c11 21 -1 12 19 34c23 24 1 38 36 62c35 25 17 17 31 47c16 31 8 -29 35 22c9 17 3 18 21 27c0 -13 -24 -99 -27 -127c-5 -33 6 -44 2 -77c-4 -30 -4 -38 -2 -71l52 -6c0 -34 -1 -5 -23 -19l-31 -20c1 -19 1 -40 2 -60c2 -30 11 -29 10 -44c-3 -28 -9 -11 1 -50
c3 -15 11 -39 -2 -45l-10 38c-14 5 -15 -1 -18 3c-9 -25 -6 -72 -8 -82c-2 -11 -8 -9 -5 0c3 10 4 53 0 73c-1 3 -1 6 -1 8zM197 524c-2 0 -3 -1 -3 -3s2 -4 4 -4s3 2 3 4s-2 3 -4 3zM8 260l-25 -11c-11 -3 -6 -8 -12 11h37zM11 -32c2 15 0 20 14 15c0 -13 -6 -13 -14 -15z
M158 528c0 12 4 11 12 13c0 -19 6 -12 -12 -13zM190 538c5 5 -12 7 12 8zM234 572c-2 0 -3 -2 -3 -4s2 -3 4 -3s3 1 3 3s-2 4 -4 4zM67 176c16 -8 15 -11 22 -3zM142 282l-15 -12c22 -1 15 -7 15 12zM68 271c1 -12 2 1 2 1c4 2 -3 14 -2 -1zM152 307c-8 -15 -6 -24 3 -38
c5 11 6 -11 4 19c-1 11 -3 12 -7 19zM71 293c-7 -4 3 -1 3 -1h-1c0 1 -1 2 -2 1z" />
    <glyph glyph-name="ae" unicode="&#xe6;" 
 />
    <glyph glyph-name="ccedilla" unicode="&#xe7;" horiz-adv-x="296" 
d="M132 330c-6 -7 2 2 0 0zM281 428c-2 0 -3 -2 -3 -4c0 -1 1 -3 3 -3s3 2 3 3c0 2 -1 4 -3 4zM180 483c-2 0 -3 -2 -3 -4c0 -1 1 -3 3 -3s3 2 3 3c0 2 -1 4 -3 4zM168 515c-4 0 -7 -3 -7 -7s3 -7 7 -7s7 3 7 7s-3 7 -7 7zM6 161c-12 14 -16 43 3 52c-6 -24 -5 -26 -3 -52z
M-12 270c6 4 -1 13 16 2c-18 -18 -11 -4 -16 -2zM140 491c1 22 0 11 10 16c-2 -22 6 -8 -10 -16zM116 276c2 12 2 11 11 13c0 -20 1 -10 -11 -13zM146 177c0 3 4 8 6 -1c2 -6 -6 -7 -6 1zM216 487c-4 0 -7 -3 -7 -7s3 -7 7 -7c3 0 6 3 6 7s-3 7 -6 7zM121 458
c27 -2 5 -9 35 -1c47 13 41 2 78 5c36 2 8 6 34 11c2 -13 3 -57 3 -71c0 -31 -1 -16 -7 -30l-7 -16c-7 9 -2 9 -18 13c-15 -36 3 -38 -11 -60c-48 6 6 61 -9 93c-23 27 -59 -30 -72 -45c16 -8 5 -1 16 4l-18 -40c-25 -5 -18 7 -28 -9c-25 -42 -20 -68 -14 -98
c-27 -15 -30 -41 -32 -74l-6 25c-5 -41 1 -36 14 -71c63 38 137 116 201 138c-3 -12 -10 -23 -18 -31c-27 -23 2 6 -27 -10c-17 -8 -33 -34 -47 -46c19 1 9 2 25 13c-23 -34 -14 -14 -44 -28c-1 -1 0 -3 0 -4v-4l3 -44c-26 9 2 6 -27 13c-21 -24 -15 -7 -36 -25
c-5 -4 -20 -21 -25 -28c4 -26 13 -50 -10 -70c-14 14 -3 29 -6 60c0 2 -27 36 -42 45c-4 -29 11 -53 -20 -57c-21 34 15 160 15 205c-1 27 -12 24 0 49c10 20 15 9 22 34c5 20 8 65 17 84c16 -7 3 -4 8 -16c43 68 22 33 19 55c2 0 8 -3 9 -3l5 1s2 0 2 1c11 0 0 12 16 -5z
" />
    <glyph glyph-name="egrave" unicode="&#xe8;" horiz-adv-x="386" 
d="M137 178c-6 -8 7 -2 7 -2c11 -3 -2 9 -7 2zM99 83h1c-21 -3 -42 -6 -61 -6c-7 -10 -7 -13 -14 -21c-32 -33 -15 -40 -28 -47c-3 -7 -5 -15 -5 -20c0 -12 1 -46 2 -55c0 -9 -1 -15 -4 -14s0 9 0 21c1 12 -1 50 -6 63c-6 14 -5 24 -2 33v4h2c2 7 5 15 4 25
c-1 19 -18 51 -15 60c10 14 147 12 90 28c26 4 46 17 71 33s41 10 71 23c-22 0 -75 -1 -94 -6c-21 -7 -55 -29 -77 -20c-9 -20 -10 -28 -33 -35c1 28 6 31 0 57l17 10c-14 31 -7 0 -22 25c35 37 33 -7 71 14c53 31 35 30 49 40v-10c7 5 14 12 14 12l48 29
c-25 2 -48 7 -80 -3c-20 -6 -26 -4 -47 -6c-27 -4 -19 -7 -39 -11l-15 16l22 10c-3 35 2 31 14 50c10 16 1 5 7 22l20 -20c71 24 16 17 87 15c54 -3 123 5 178 9c2 -11 8 11 -5 -3c-9 -9 -3 4 -2 -14v-4l-1 -1c25 -10 33 -5 53 -12l-15 -7c-26 -5 -14 7 -50 -11
c-24 -11 -17 2 -43 -24c-32 15 -23 11 -62 -7c-12 -6 -37 -17 -38 -28c0 -1 1 -4 1 -4l-49 -33c38 -2 188 6 210 -1c2 -16 -2 -21 -14 -29c18 -3 24 -1 34 -9c-14 -1 -28 0 -41 -1c-13 -2 -21 -8 -36 -9c-24 -3 -3 11 -60 -13c-20 -9 -48 -23 -67 -25
c-24 -4 -41 -11 -56 -30c21 -9 112 -4 140 -1c19 -2 -2 -4 1 -12c37 6 23 15 63 3l3 14c25 -3 13 -4 46 0l12 -18c20 1 38 6 51 -5c-43 -13 5 14 -87 -13c-28 -9 -63 -6 -91 -8c-18 -2 -38 -5 -58 -8c-2 -3 -2 -7 -3 -11c0 -9 0 -9 -1 -19c-1 -11 2 -20 4 -25
c1 -6 -2 -12 -5 -12c-2 1 -3 3 -2 9c1 5 0 25 1 33c0 7 -2 9 -4 15s-14 7 -19 1s-2 -13 -4 -19c-3 -7 -1 -21 0 -25c0 -3 -4 -2 -6 3s-2 11 -1 17s-2 10 -8 12c-5 2 -17 9 -17 9zM-30 14c4 2 6 -4 6 -8s-2 -4 -4 -8c-1 -3 -8 -4 -9 -1c0 3 -3 5 -5 3c-3 -2 -7 -3 -7 0
c0 2 2 1 2 4s5 3 7 3c3 0 1 0 1 6c1 5 9 1 9 1zM-56 2h2s2 -1 1 -5s-8 -4 -9 -1c0 4 6 6 6 6zM231 86c14 11 9 10 23 2c-4 -3 4 -5 -13 -6c-20 -2 -1 -2 -10 4zM184 52c0 21 2 20 19 13zM104 431c-14 9 -11 5 -2 15c11 -9 11 -1 2 -15zM340 238c-4 15 0 11 12 13zM137 427
c-2 9 3 9 8 1c4 -9 -8 -6 -8 -1zM222 299l10 7c-1 -7 4 -18 -10 -7zM200 438c0 5 3 8 5 1c2 -5 -5 -6 -5 -1zM-8 -86c7 -4 4 -10 1 -10s-1 10 -1 10zM31 359c0 -8 10 -6 7 2c-3 10 -7 9 -7 -2zM418 120c-3 0 -6 -3 -6 -7c1 -3 4 -6 7 -6c4 0 7 4 6 7c0 4 -3 7 -7 6z" />
    <glyph glyph-name="eacute" unicode="&#xe9;" horiz-adv-x="386" 
d="M137 178c-6 -8 7 -2 7 -2c11 -3 -2 9 -7 2zM99 83h1c-21 -3 -42 -6 -61 -6c-7 -10 -7 -13 -14 -21c-32 -33 -15 -40 -28 -47c-3 -7 -5 -15 -5 -20c0 -12 1 -46 2 -55c0 -9 -1 -15 -4 -14s0 9 0 21c1 12 -1 50 -6 63c-6 14 -5 24 -2 33v4h2c2 7 5 15 4 25
c-1 19 -18 51 -15 60c10 14 147 12 90 28c26 4 46 17 71 33s41 10 71 23c-22 0 -75 -1 -94 -6c-21 -7 -55 -29 -77 -20c-9 -20 -10 -28 -33 -35c1 28 6 31 0 57l17 10c-14 31 -7 0 -22 25c35 37 33 -7 71 14c53 31 35 30 49 40v-10c7 5 14 12 14 12l48 29
c-25 2 -48 7 -80 -3c-20 -6 -26 -4 -47 -6c-27 -4 -19 -7 -39 -11l-15 16l22 10c-3 35 2 31 14 50c10 16 1 5 7 22l20 -20c71 24 16 17 87 15c54 -3 123 5 178 9c2 -11 8 11 -5 -3c-9 -9 -3 4 -2 -14v-4l-1 -1c25 -10 33 -5 53 -12l-15 -7c-26 -5 -14 7 -50 -11
c-24 -11 -17 2 -43 -24c-32 15 -23 11 -62 -7c-12 -6 -37 -17 -38 -28c0 -1 1 -4 1 -4l-49 -33c38 -2 188 6 210 -1c2 -16 -2 -21 -14 -29c18 -3 24 -1 34 -9c-14 -1 -28 0 -41 -1c-13 -2 -21 -8 -36 -9c-24 -3 -3 11 -60 -13c-20 -9 -48 -23 -67 -25
c-24 -4 -41 -11 -56 -30c21 -9 112 -4 140 -1c19 -2 -2 -4 1 -12c37 6 23 15 63 3l3 14c25 -3 13 -4 46 0l12 -18c20 1 38 6 51 -5c-43 -13 5 14 -87 -13c-28 -9 -63 -6 -91 -8c-18 -2 -38 -5 -58 -8c-2 -3 -2 -7 -3 -11c0 -9 0 -9 -1 -19c-1 -11 2 -20 4 -25
c1 -6 -2 -12 -5 -12c-2 1 -3 3 -2 9c1 5 0 25 1 33c0 7 -2 9 -4 15s-14 7 -19 1s-2 -13 -4 -19c-3 -7 -1 -21 0 -25c0 -3 -4 -2 -6 3s-2 11 -1 17s-2 10 -8 12c-5 2 -17 9 -17 9zM-30 14c4 2 6 -4 6 -8s-2 -4 -4 -8c-1 -3 -8 -4 -9 -1c0 3 -3 5 -5 3c-3 -2 -7 -3 -7 0
c0 2 2 1 2 4s5 3 7 3c3 0 1 0 1 6c1 5 9 1 9 1zM-56 2h2s2 -1 1 -5s-8 -4 -9 -1c0 4 6 6 6 6zM231 86c14 11 9 10 23 2c-4 -3 4 -5 -13 -6c-20 -2 -1 -2 -10 4zM184 52c0 21 2 20 19 13zM104 431c-14 9 -11 5 -2 15c11 -9 11 -1 2 -15zM340 238c-4 15 0 11 12 13zM137 427
c-2 9 3 9 8 1c4 -9 -8 -6 -8 -1zM222 299l10 7c-1 -7 4 -18 -10 -7zM200 438c0 5 3 8 5 1c2 -5 -5 -6 -5 -1zM-8 -86c7 -4 4 -10 1 -10s-1 10 -1 10zM31 359c0 -8 10 -6 7 2c-3 10 -7 9 -7 -2zM418 120c-3 0 -6 -3 -6 -7c1 -3 4 -6 7 -6c4 0 7 4 6 7c0 4 -3 7 -7 6z" />
    <glyph glyph-name="ecircumflex" unicode="&#xea;" horiz-adv-x="386" 
d="M137 178c-6 -8 7 -2 7 -2c11 -3 -2 9 -7 2zM99 83h1c-21 -3 -42 -6 -61 -6c-7 -10 -7 -13 -14 -21c-32 -33 -15 -40 -28 -47c-3 -7 -5 -15 -5 -20c0 -12 1 -46 2 -55c0 -9 -1 -15 -4 -14s0 9 0 21c1 12 -1 50 -6 63c-6 14 -5 24 -2 33v4h2c2 7 5 15 4 25
c-1 19 -18 51 -15 60c10 14 147 12 90 28c26 4 46 17 71 33s41 10 71 23c-22 0 -75 -1 -94 -6c-21 -7 -55 -29 -77 -20c-9 -20 -10 -28 -33 -35c1 28 6 31 0 57l17 10c-14 31 -7 0 -22 25c35 37 33 -7 71 14c53 31 35 30 49 40v-10c7 5 14 12 14 12l48 29
c-25 2 -48 7 -80 -3c-20 -6 -26 -4 -47 -6c-27 -4 -19 -7 -39 -11l-15 16l22 10c-3 35 2 31 14 50c10 16 1 5 7 22l20 -20c71 24 16 17 87 15c54 -3 123 5 178 9c2 -11 8 11 -5 -3c-9 -9 -3 4 -2 -14v-4l-1 -1c25 -10 33 -5 53 -12l-15 -7c-26 -5 -14 7 -50 -11
c-24 -11 -17 2 -43 -24c-32 15 -23 11 -62 -7c-12 -6 -37 -17 -38 -28c0 -1 1 -4 1 -4l-49 -33c38 -2 188 6 210 -1c2 -16 -2 -21 -14 -29c18 -3 24 -1 34 -9c-14 -1 -28 0 -41 -1c-13 -2 -21 -8 -36 -9c-24 -3 -3 11 -60 -13c-20 -9 -48 -23 -67 -25
c-24 -4 -41 -11 -56 -30c21 -9 112 -4 140 -1c19 -2 -2 -4 1 -12c37 6 23 15 63 3l3 14c25 -3 13 -4 46 0l12 -18c20 1 38 6 51 -5c-43 -13 5 14 -87 -13c-28 -9 -63 -6 -91 -8c-18 -2 -38 -5 -58 -8c-2 -3 -2 -7 -3 -11c0 -9 0 -9 -1 -19c-1 -11 2 -20 4 -25
c1 -6 -2 -12 -5 -12c-2 1 -3 3 -2 9c1 5 0 25 1 33c0 7 -2 9 -4 15s-14 7 -19 1s-2 -13 -4 -19c-3 -7 -1 -21 0 -25c0 -3 -4 -2 -6 3s-2 11 -1 17s-2 10 -8 12c-5 2 -17 9 -17 9zM-30 14c4 2 6 -4 6 -8s-2 -4 -4 -8c-1 -3 -8 -4 -9 -1c0 3 -3 5 -5 3c-3 -2 -7 -3 -7 0
c0 2 2 1 2 4s5 3 7 3c3 0 1 0 1 6c1 5 9 1 9 1zM-56 2h2s2 -1 1 -5s-8 -4 -9 -1c0 4 6 6 6 6zM231 86c14 11 9 10 23 2c-4 -3 4 -5 -13 -6c-20 -2 -1 -2 -10 4zM184 52c0 21 2 20 19 13zM104 431c-14 9 -11 5 -2 15c11 -9 11 -1 2 -15zM340 238c-4 15 0 11 12 13zM137 427
c-2 9 3 9 8 1c4 -9 -8 -6 -8 -1zM222 299l10 7c-1 -7 4 -18 -10 -7zM200 438c0 5 3 8 5 1c2 -5 -5 -6 -5 -1zM-8 -86c7 -4 4 -10 1 -10s-1 10 -1 10zM31 359c0 -8 10 -6 7 2c-3 10 -7 9 -7 -2zM418 120c-3 0 -6 -3 -6 -7c1 -3 4 -6 7 -6c4 0 7 4 6 7c0 4 -3 7 -7 6z" />
    <glyph glyph-name="edieresis" unicode="&#xeb;" horiz-adv-x="386" 
d="M137 178c-6 -8 7 -2 7 -2c11 -3 -2 9 -7 2zM99 83h1c-21 -3 -42 -6 -61 -6c-7 -10 -7 -13 -14 -21c-32 -33 -15 -40 -28 -47c-3 -7 -5 -15 -5 -20c0 -12 1 -46 2 -55c0 -9 -1 -15 -4 -14s0 9 0 21c1 12 -1 50 -6 63c-6 14 -5 24 -2 33v4h2c2 7 5 15 4 25
c-1 19 -18 51 -15 60c10 14 147 12 90 28c26 4 46 17 71 33s41 10 71 23c-22 0 -75 -1 -94 -6c-21 -7 -55 -29 -77 -20c-9 -20 -10 -28 -33 -35c1 28 6 31 0 57l17 10c-14 31 -7 0 -22 25c35 37 33 -7 71 14c53 31 35 30 49 40v-10c7 5 14 12 14 12l48 29
c-25 2 -48 7 -80 -3c-20 -6 -26 -4 -47 -6c-27 -4 -19 -7 -39 -11l-15 16l22 10c-3 35 2 31 14 50c10 16 1 5 7 22l20 -20c71 24 16 17 87 15c54 -3 123 5 178 9c2 -11 8 11 -5 -3c-9 -9 -3 4 -2 -14v-4l-1 -1c25 -10 33 -5 53 -12l-15 -7c-26 -5 -14 7 -50 -11
c-24 -11 -17 2 -43 -24c-32 15 -23 11 -62 -7c-12 -6 -37 -17 -38 -28c0 -1 1 -4 1 -4l-49 -33c38 -2 188 6 210 -1c2 -16 -2 -21 -14 -29c18 -3 24 -1 34 -9c-14 -1 -28 0 -41 -1c-13 -2 -21 -8 -36 -9c-24 -3 -3 11 -60 -13c-20 -9 -48 -23 -67 -25
c-24 -4 -41 -11 -56 -30c21 -9 112 -4 140 -1c19 -2 -2 -4 1 -12c37 6 23 15 63 3l3 14c25 -3 13 -4 46 0l12 -18c20 1 38 6 51 -5c-43 -13 5 14 -87 -13c-28 -9 -63 -6 -91 -8c-18 -2 -38 -5 -58 -8c-2 -3 -2 -7 -3 -11c0 -9 0 -9 -1 -19c-1 -11 2 -20 4 -25
c1 -6 -2 -12 -5 -12c-2 1 -3 3 -2 9c1 5 0 25 1 33c0 7 -2 9 -4 15s-14 7 -19 1s-2 -13 -4 -19c-3 -7 -1 -21 0 -25c0 -3 -4 -2 -6 3s-2 11 -1 17s-2 10 -8 12c-5 2 -17 9 -17 9zM-30 14c4 2 6 -4 6 -8s-2 -4 -4 -8c-1 -3 -8 -4 -9 -1c0 3 -3 5 -5 3c-3 -2 -7 -3 -7 0
c0 2 2 1 2 4s5 3 7 3c3 0 1 0 1 6c1 5 9 1 9 1zM-56 2h2s2 -1 1 -5s-8 -4 -9 -1c0 4 6 6 6 6zM231 86c14 11 9 10 23 2c-4 -3 4 -5 -13 -6c-20 -2 -1 -2 -10 4zM184 52c0 21 2 20 19 13zM104 431c-14 9 -11 5 -2 15c11 -9 11 -1 2 -15zM340 238c-4 15 0 11 12 13zM137 427
c-2 9 3 9 8 1c4 -9 -8 -6 -8 -1zM222 299l10 7c-1 -7 4 -18 -10 -7zM200 438c0 5 3 8 5 1c2 -5 -5 -6 -5 -1zM-8 -86c7 -4 4 -10 1 -10s-1 10 -1 10zM31 359c0 -8 10 -6 7 2c-3 10 -7 9 -7 -2zM418 120c-3 0 -6 -3 -6 -7c1 -3 4 -6 7 -6c4 0 7 4 6 7c0 4 -3 7 -7 6z" />
    <glyph glyph-name="igrave" unicode="&#xec;" horiz-adv-x="118" 
d="M24 93c-6 -9 2 3 0 0zM77 163c-4 2 -7 -4 -7 -9c-1 -4 2 -4 3 -8c2 -3 8 -5 9 -2s4 5 7 3c2 -2 7 -4 7 -1s-2 1 -2 4s-5 4 -8 4c-2 1 0 1 0 6c0 6 -9 3 -9 3zM103 148l-1 -1s-3 0 -2 -4s8 -6 9 -2s-6 7 -6 7zM66 187c21 61 45 124 46 144c1 22 8 135 5 144
c-22 -8 -15 -20 -30 -35c-16 -16 -34 -20 -49 -30c-4 -52 -20 -24 -27 -153c-3 -47 0 -26 7 -27l-18 -168c25 5 12 1 22 25c-2 -13 -7 -46 -11 -56c-9 -24 -16 -35 -1 -59c31 27 11 58 27 123c4 15 9 31 14 48v-5c-1 -12 -4 -48 -6 -58c-1 -10 0 -16 3 -15s0 9 1 22
s6 52 12 66c4 10 5 26 5 34zM12 436c-1 14 4 10 7 1c4 -9 -7 -4 -7 -1zM45 59c-8 -3 -4 -10 -2 -10c3 0 2 10 2 10zM32 221l11 19c5 -26 11 -17 -4 -34zM110 317l-30 -75c-1 14 2 29 4 41c5 22 7 23 26 34zM29 315c-5 6 -16 -3 -4 24z" />
    <glyph glyph-name="iacute" unicode="&#xed;" horiz-adv-x="118" 
d="M24 93c-6 -9 2 3 0 0zM77 163c-4 2 -7 -4 -7 -9c-1 -4 2 -4 3 -8c2 -3 8 -5 9 -2s4 5 7 3c2 -2 7 -4 7 -1s-2 1 -2 4s-5 4 -8 4c-2 1 0 1 0 6c0 6 -9 3 -9 3zM103 148l-1 -1s-3 0 -2 -4s8 -6 9 -2s-6 7 -6 7zM66 187c21 61 45 124 46 144c1 22 8 135 5 144
c-22 -8 -15 -20 -30 -35c-16 -16 -34 -20 -49 -30c-4 -52 -20 -24 -27 -153c-3 -47 0 -26 7 -27l-18 -168c25 5 12 1 22 25c-2 -13 -7 -46 -11 -56c-9 -24 -16 -35 -1 -59c31 27 11 58 27 123c4 15 9 31 14 48v-5c-1 -12 -4 -48 -6 -58c-1 -10 0 -16 3 -15s0 9 1 22
s6 52 12 66c4 10 5 26 5 34zM12 436c-1 14 4 10 7 1c4 -9 -7 -4 -7 -1zM45 59c-8 -3 -4 -10 -2 -10c3 0 2 10 2 10zM32 221l11 19c5 -26 11 -17 -4 -34zM110 317l-30 -75c-1 14 2 29 4 41c5 22 7 23 26 34zM29 315c-5 6 -16 -3 -4 24z" />
    <glyph glyph-name="icircumflex" unicode="&#xee;" horiz-adv-x="118" 
d="M24 93c-6 -9 2 3 0 0zM77 163c-4 2 -7 -4 -7 -9c-1 -4 2 -4 3 -8c2 -3 8 -5 9 -2s4 5 7 3c2 -2 7 -4 7 -1s-2 1 -2 4s-5 4 -8 4c-2 1 0 1 0 6c0 6 -9 3 -9 3zM103 148l-1 -1s-3 0 -2 -4s8 -6 9 -2s-6 7 -6 7zM66 187c21 61 45 124 46 144c1 22 8 135 5 144
c-22 -8 -15 -20 -30 -35c-16 -16 -34 -20 -49 -30c-4 -52 -20 -24 -27 -153c-3 -47 0 -26 7 -27l-18 -168c25 5 12 1 22 25c-2 -13 -7 -46 -11 -56c-9 -24 -16 -35 -1 -59c31 27 11 58 27 123c4 15 9 31 14 48v-5c-1 -12 -4 -48 -6 -58c-1 -10 0 -16 3 -15s0 9 1 22
s6 52 12 66c4 10 5 26 5 34zM12 436c-1 14 4 10 7 1c4 -9 -7 -4 -7 -1zM45 59c-8 -3 -4 -10 -2 -10c3 0 2 10 2 10zM32 221l11 19c5 -26 11 -17 -4 -34zM110 317l-30 -75c-1 14 2 29 4 41c5 22 7 23 26 34zM29 315c-5 6 -16 -3 -4 24z" />
    <glyph glyph-name="idieresis" unicode="&#xef;" horiz-adv-x="118" 
d="M24 93c-6 -9 2 3 0 0zM77 163c-4 2 -7 -4 -7 -9c-1 -4 2 -4 3 -8c2 -3 8 -5 9 -2s4 5 7 3c2 -2 7 -4 7 -1s-2 1 -2 4s-5 4 -8 4c-2 1 0 1 0 6c0 6 -9 3 -9 3zM103 148l-1 -1s-3 0 -2 -4s8 -6 9 -2s-6 7 -6 7zM66 187c21 61 45 124 46 144c1 22 8 135 5 144
c-22 -8 -15 -20 -30 -35c-16 -16 -34 -20 -49 -30c-4 -52 -20 -24 -27 -153c-3 -47 0 -26 7 -27l-18 -168c25 5 12 1 22 25c-2 -13 -7 -46 -11 -56c-9 -24 -16 -35 -1 -59c31 27 11 58 27 123c4 15 9 31 14 48v-5c-1 -12 -4 -48 -6 -58c-1 -10 0 -16 3 -15s0 9 1 22
s6 52 12 66c4 10 5 26 5 34zM12 436c-1 14 4 10 7 1c4 -9 -7 -4 -7 -1zM45 59c-8 -3 -4 -10 -2 -10c3 0 2 10 2 10zM32 221l11 19c5 -26 11 -17 -4 -34zM110 317l-30 -75c-1 14 2 29 4 41c5 22 7 23 26 34zM29 315c-5 6 -16 -3 -4 24z" />
    <glyph glyph-name="eth" unicode="&#xf0;" 
 />
    <glyph glyph-name="ntilde" unicode="&#xf1;" horiz-adv-x="273" 
d="M259 440c10 -73 -14 -189 -32 -262c-8 -31 -13 -29 -23 -51c-14 -34 3 -32 -9 -66c-11 2 -17 -5 -37 32l18 4c-1 44 8 32 -19 51c-8 -21 9 -11 -2 -31c-11 25 -60 111 -74 122l-17 -87c1 32 21 87 9 110c-28 -23 -27 -101 -15 -135c-20 -11 -6 0 -13 -3
c-16 -8 -18 -40 -17 -54c3 -24 7 -57 -26 -64c-9 16 -3 25 -10 41c-1 2 -24 25 -27 28l19 12l12 -24c20 56 -16 -8 -16 78c20 7 -14 6 9 -1l1 -1c-10 30 -1 19 4 56c2 24 -3 42 -2 67c2 51 13 -3 22 122l42 24l-3 39c14 1 31 -14 40 -29c4 -9 24 -134 74 -165l16 12
c-10 19 12 76 4 138c-4 29 -15 25 5 35c9 -18 3 -7 0 -30c-3 -30 -8 -19 6 -36c19 12 9 35 21 84c11 51 -4 51 -5 85c24 -8 41 -72 45 -101zM-28 252c1 26 1 51 18 63zM17 401c-5 10 -11 7 1 29c6 -12 5 -19 -1 -29zM-24 32c8 -13 6 12 5 -10c-1 -16 3 -2 -5 -12
c-8 14 -11 4 0 22zM172 278c-11 16 -8 5 -2 20c13 -24 5 -12 2 -20zM187 502c0 17 5 10 7 1c3 -9 -8 -4 -7 -1zM51 462l10 12c-3 -15 4 -10 -10 -12zM256 522l3 13z" />
    <glyph glyph-name="ograve" unicode="&#xf2;" horiz-adv-x="239" 
d="M141 68c-2 -1 -4 -1 -8 -2c1 -1 1 -3 1 -5c-1 -4 -3 -4 -5 -7c0 -1 -1 -2 -2 -2c-7 -24 2 -37 -22 -48c-15 27 -5 13 -1 38c2 14 6 6 -2 13c-1 -4 -9 -5 -9 -1c0 3 3 5 5 6c-1 1 -3 3 -5 6c-50 -9 -39 -30 -38 -81c-2 41 -1 53 -20 84c19 12 -1 -8 20 7
c-26 18 -7 7 -26 27c-14 -16 10 -8 -12 -20c-24 37 -16 38 -38 55c18 23 10 24 8 56l4 133c5 39 29 28 53 61c4 6 8 11 12 16c11 18 6 -3 9 19c4 24 -9 17 -7 39h33c65 -6 79 -32 101 -62c26 -35 9 -21 18 -50c7 -25 0 0 18 -25c-23 -83 15 -111 -14 -154
c-13 -18 -28 -36 -38 -53c-9 -15 -10 -21 -9 -24l1 -1c3 -6 12 -3 -13 -33c-3 -7 -5 -13 -5 -17c-1 -13 -3 -49 -3 -59s-2 -15 -5 -14s1 9 2 22c1 12 2 52 -2 67c0 3 -1 6 -1 9zM82 163c-2 25 6 14 14 17c-1 -16 5 -7 -5 -19zM-23 258c-7 19 -3 13 1 24c8 -13 12 -1 -1 -24z
M146 454c0 0 4 13 8 -1c2 -9 -8 -10 -8 1zM144 -36c7 -5 3 -12 0 -11c-3 0 0 11 0 11zM55 70c-1 -1 1 -2 2 -2zM79 253c10 -6 19 -17 33 -2c0 1 1 2 2 2l14 81c15 -18 4 -2 10 -27c18 -78 3 -34 1 -77c-1 -41 16 -76 -33 -79l1 67c-14 -12 -9 -8 -18 -26c-35 7 0 13 -17 10
c-2 -8 -2 -17 -4 -30c-4 -22 -8 -15 3 -33c13 -18 42 -30 62 -33c105 165 42 150 31 227c-22 -2 -18 -2 -36 13c-34 -45 -60 -14 -49 -93zM-6 289c14 14 16 25 23 45c8 23 14 21 21 39c-28 -27 -46 -36 -44 -84zM99 441c19 -16 3 1 30 -7c18 -5 7 -5 23 -14
c-12 24 -29 33 -53 21zM72 429l18 15c-16 16 -20 5 -18 -15z" />
    <glyph glyph-name="oacute" unicode="&#xf3;" horiz-adv-x="239" 
d="M141 68c-2 -1 -4 -1 -8 -2c1 -1 1 -3 1 -5c-1 -4 -3 -4 -5 -7c0 -1 -1 -2 -2 -2c-7 -24 2 -37 -22 -48c-15 27 -5 13 -1 38c2 14 6 6 -2 13c-1 -4 -9 -5 -9 -1c0 3 3 5 5 6c-1 1 -3 3 -5 6c-50 -9 -39 -30 -38 -81c-2 41 -1 53 -20 84c19 12 -1 -8 20 7
c-26 18 -7 7 -26 27c-14 -16 10 -8 -12 -20c-24 37 -16 38 -38 55c18 23 10 24 8 56l4 133c5 39 29 28 53 61c4 6 8 11 12 16c11 18 6 -3 9 19c4 24 -9 17 -7 39h33c65 -6 79 -32 101 -62c26 -35 9 -21 18 -50c7 -25 0 0 18 -25c-23 -83 15 -111 -14 -154
c-13 -18 -28 -36 -38 -53c-9 -15 -10 -21 -9 -24l1 -1c3 -6 12 -3 -13 -33c-3 -7 -5 -13 -5 -17c-1 -13 -3 -49 -3 -59s-2 -15 -5 -14s1 9 2 22c1 12 2 52 -2 67c0 3 -1 6 -1 9zM82 163c-2 25 6 14 14 17c-1 -16 5 -7 -5 -19zM-23 258c-7 19 -3 13 1 24c8 -13 12 -1 -1 -24z
M146 454c0 0 4 13 8 -1c2 -9 -8 -10 -8 1zM144 -36c7 -5 3 -12 0 -11c-3 0 0 11 0 11zM55 70c-1 -1 1 -2 2 -2zM79 253c10 -6 19 -17 33 -2c0 1 1 2 2 2l14 81c15 -18 4 -2 10 -27c18 -78 3 -34 1 -77c-1 -41 16 -76 -33 -79l1 67c-14 -12 -9 -8 -18 -26c-35 7 0 13 -17 10
c-2 -8 -2 -17 -4 -30c-4 -22 -8 -15 3 -33c13 -18 42 -30 62 -33c105 165 42 150 31 227c-22 -2 -18 -2 -36 13c-34 -45 -60 -14 -49 -93zM-6 289c14 14 16 25 23 45c8 23 14 21 21 39c-28 -27 -46 -36 -44 -84zM99 441c19 -16 3 1 30 -7c18 -5 7 -5 23 -14
c-12 24 -29 33 -53 21zM72 429l18 15c-16 16 -20 5 -18 -15z" />
    <glyph glyph-name="ocircumflex" unicode="&#xf4;" horiz-adv-x="239" 
d="M141 68c-2 -1 -4 -1 -8 -2c1 -1 1 -3 1 -5c-1 -4 -3 -4 -5 -7c0 -1 -1 -2 -2 -2c-7 -24 2 -37 -22 -48c-15 27 -5 13 -1 38c2 14 6 6 -2 13c-1 -4 -9 -5 -9 -1c0 3 3 5 5 6c-1 1 -3 3 -5 6c-50 -9 -39 -30 -38 -81c-2 41 -1 53 -20 84c19 12 -1 -8 20 7
c-26 18 -7 7 -26 27c-14 -16 10 -8 -12 -20c-24 37 -16 38 -38 55c18 23 10 24 8 56l4 133c5 39 29 28 53 61c4 6 8 11 12 16c11 18 6 -3 9 19c4 24 -9 17 -7 39h33c65 -6 79 -32 101 -62c26 -35 9 -21 18 -50c7 -25 0 0 18 -25c-23 -83 15 -111 -14 -154
c-13 -18 -28 -36 -38 -53c-9 -15 -10 -21 -9 -24l1 -1c3 -6 12 -3 -13 -33c-3 -7 -5 -13 -5 -17c-1 -13 -3 -49 -3 -59s-2 -15 -5 -14s1 9 2 22c1 12 2 52 -2 67c0 3 -1 6 -1 9zM82 163c-2 25 6 14 14 17c-1 -16 5 -7 -5 -19zM-23 258c-7 19 -3 13 1 24c8 -13 12 -1 -1 -24z
M146 454c0 0 4 13 8 -1c2 -9 -8 -10 -8 1zM144 -36c7 -5 3 -12 0 -11c-3 0 0 11 0 11zM55 70c-1 -1 1 -2 2 -2zM79 253c10 -6 19 -17 33 -2c0 1 1 2 2 2l14 81c15 -18 4 -2 10 -27c18 -78 3 -34 1 -77c-1 -41 16 -76 -33 -79l1 67c-14 -12 -9 -8 -18 -26c-35 7 0 13 -17 10
c-2 -8 -2 -17 -4 -30c-4 -22 -8 -15 3 -33c13 -18 42 -30 62 -33c105 165 42 150 31 227c-22 -2 -18 -2 -36 13c-34 -45 -60 -14 -49 -93zM-6 289c14 14 16 25 23 45c8 23 14 21 21 39c-28 -27 -46 -36 -44 -84zM99 441c19 -16 3 1 30 -7c18 -5 7 -5 23 -14
c-12 24 -29 33 -53 21zM72 429l18 15c-16 16 -20 5 -18 -15z" />
    <glyph glyph-name="otilde" unicode="&#xf5;" horiz-adv-x="239" 
d="M141 68c-2 -1 -4 -1 -8 -2c1 -1 1 -3 1 -5c-1 -4 -3 -4 -5 -7c0 -1 -1 -2 -2 -2c-7 -24 2 -37 -22 -48c-15 27 -5 13 -1 38c2 14 6 6 -2 13c-1 -4 -9 -5 -9 -1c0 3 3 5 5 6c-1 1 -3 3 -5 6c-50 -9 -39 -30 -38 -81c-2 41 -1 53 -20 84c19 12 -1 -8 20 7
c-26 18 -7 7 -26 27c-14 -16 10 -8 -12 -20c-24 37 -16 38 -38 55c18 23 10 24 8 56l4 133c5 39 29 28 53 61c4 6 8 11 12 16c11 18 6 -3 9 19c4 24 -9 17 -7 39h33c65 -6 79 -32 101 -62c26 -35 9 -21 18 -50c7 -25 0 0 18 -25c-23 -83 15 -111 -14 -154
c-13 -18 -28 -36 -38 -53c-9 -15 -10 -21 -9 -24l1 -1c3 -6 12 -3 -13 -33c-3 -7 -5 -13 -5 -17c-1 -13 -3 -49 -3 -59s-2 -15 -5 -14s1 9 2 22c1 12 2 52 -2 67c0 3 -1 6 -1 9zM82 163c-2 25 6 14 14 17c-1 -16 5 -7 -5 -19zM-23 258c-7 19 -3 13 1 24c8 -13 12 -1 -1 -24z
M146 454c0 0 4 13 8 -1c2 -9 -8 -10 -8 1zM144 -36c7 -5 3 -12 0 -11c-3 0 0 11 0 11zM55 70c-1 -1 1 -2 2 -2zM79 253c10 -6 19 -17 33 -2c0 1 1 2 2 2l14 81c15 -18 4 -2 10 -27c18 -78 3 -34 1 -77c-1 -41 16 -76 -33 -79l1 67c-14 -12 -9 -8 -18 -26c-35 7 0 13 -17 10
c-2 -8 -2 -17 -4 -30c-4 -22 -8 -15 3 -33c13 -18 42 -30 62 -33c105 165 42 150 31 227c-22 -2 -18 -2 -36 13c-34 -45 -60 -14 -49 -93zM-6 289c14 14 16 25 23 45c8 23 14 21 21 39c-28 -27 -46 -36 -44 -84zM99 441c19 -16 3 1 30 -7c18 -5 7 -5 23 -14
c-12 24 -29 33 -53 21zM72 429l18 15c-16 16 -20 5 -18 -15z" />
    <glyph glyph-name="odieresis" unicode="&#xf6;" horiz-adv-x="239" 
d="M141 68c-2 -1 -4 -1 -8 -2c1 -1 1 -3 1 -5c-1 -4 -3 -4 -5 -7c0 -1 -1 -2 -2 -2c-7 -24 2 -37 -22 -48c-15 27 -5 13 -1 38c2 14 6 6 -2 13c-1 -4 -9 -5 -9 -1c0 3 3 5 5 6c-1 1 -3 3 -5 6c-50 -9 -39 -30 -38 -81c-2 41 -1 53 -20 84c19 12 -1 -8 20 7
c-26 18 -7 7 -26 27c-14 -16 10 -8 -12 -20c-24 37 -16 38 -38 55c18 23 10 24 8 56l4 133c5 39 29 28 53 61c4 6 8 11 12 16c11 18 6 -3 9 19c4 24 -9 17 -7 39h33c65 -6 79 -32 101 -62c26 -35 9 -21 18 -50c7 -25 0 0 18 -25c-23 -83 15 -111 -14 -154
c-13 -18 -28 -36 -38 -53c-9 -15 -10 -21 -9 -24l1 -1c3 -6 12 -3 -13 -33c-3 -7 -5 -13 -5 -17c-1 -13 -3 -49 -3 -59s-2 -15 -5 -14s1 9 2 22c1 12 2 52 -2 67c0 3 -1 6 -1 9zM82 163c-2 25 6 14 14 17c-1 -16 5 -7 -5 -19zM-23 258c-7 19 -3 13 1 24c8 -13 12 -1 -1 -24z
M146 454c0 0 4 13 8 -1c2 -9 -8 -10 -8 1zM144 -36c7 -5 3 -12 0 -11c-3 0 0 11 0 11zM55 70c-1 -1 1 -2 2 -2zM79 253c10 -6 19 -17 33 -2c0 1 1 2 2 2l14 81c15 -18 4 -2 10 -27c18 -78 3 -34 1 -77c-1 -41 16 -76 -33 -79l1 67c-14 -12 -9 -8 -18 -26c-35 7 0 13 -17 10
c-2 -8 -2 -17 -4 -30c-4 -22 -8 -15 3 -33c13 -18 42 -30 62 -33c105 165 42 150 31 227c-22 -2 -18 -2 -36 13c-34 -45 -60 -14 -49 -93zM-6 289c14 14 16 25 23 45c8 23 14 21 21 39c-28 -27 -46 -36 -44 -84zM99 441c19 -16 3 1 30 -7c18 -5 7 -5 23 -14
c-12 24 -29 33 -53 21zM72 429l18 15c-16 16 -20 5 -18 -15z" />
    <glyph glyph-name="divide" unicode="&#xf7;" 
 />
    <glyph glyph-name="oslash" unicode="&#xf8;" horiz-adv-x="239" 
d="M141 68c-2 -1 -4 -1 -8 -2c1 -1 1 -3 1 -5c-1 -4 -3 -4 -5 -7c0 -1 -1 -2 -2 -2c-7 -24 2 -37 -22 -48c-15 27 -5 13 -1 38c2 14 6 6 -2 13c-1 -4 -9 -5 -9 -1c0 3 3 5 5 6c-1 1 -3 3 -5 6c-50 -9 -39 -30 -38 -81c-2 41 -1 53 -20 84c19 12 -1 -8 20 7
c-26 18 -7 7 -26 27c-14 -16 10 -8 -12 -20c-24 37 -16 38 -38 55c18 23 10 24 8 56l4 133c5 39 29 28 53 61c4 6 8 11 12 16c11 18 6 -3 9 19c4 24 -9 17 -7 39h33c65 -6 79 -32 101 -62c26 -35 9 -21 18 -50c7 -25 0 0 18 -25c-23 -83 15 -111 -14 -154
c-13 -18 -28 -36 -38 -53c-9 -15 -10 -21 -9 -24l1 -1c3 -6 12 -3 -13 -33c-3 -7 -5 -13 -5 -17c-1 -13 -3 -49 -3 -59s-2 -15 -5 -14s1 9 2 22c1 12 2 52 -2 67c0 3 -1 6 -1 9zM82 163c-2 25 6 14 14 17c-1 -16 5 -7 -5 -19zM-23 258c-7 19 -3 13 1 24c8 -13 12 -1 -1 -24z
M146 454c0 0 4 13 8 -1c2 -9 -8 -10 -8 1zM144 -36c7 -5 3 -12 0 -11c-3 0 0 11 0 11zM55 70c-1 -1 1 -2 2 -2zM79 253c10 -6 19 -17 33 -2c0 1 1 2 2 2l14 81c15 -18 4 -2 10 -27c18 -78 3 -34 1 -77c-1 -41 16 -76 -33 -79l1 67c-14 -12 -9 -8 -18 -26c-35 7 0 13 -17 10
c-2 -8 -2 -17 -4 -30c-4 -22 -8 -15 3 -33c13 -18 42 -30 62 -33c105 165 42 150 31 227c-22 -2 -18 -2 -36 13c-34 -45 -60 -14 -49 -93zM-6 289c14 14 16 25 23 45c8 23 14 21 21 39c-28 -27 -46 -36 -44 -84zM99 441c19 -16 3 1 30 -7c18 -5 7 -5 23 -14
c-12 24 -29 33 -53 21zM72 429l18 15c-16 16 -20 5 -18 -15z" />
    <glyph glyph-name="ugrave" unicode="&#xf9;" horiz-adv-x="246" 
d="M148 97l-4 6l-41 -46c29 11 26 23 45 40zM94 109c-8 4 -8 11 -19 -1c19 -12 10 -5 19 1zM131 176c-1 -1 1 -2 1 -3l1 -1s5 15 -2 4zM228 320c0 0 1 11 -2 6c-2 -5 4 -18 2 -6zM173 276l15 15c9 52 30 78 25 136c-2 17 -7 29 1 41c20 -11 9 -12 19 -38c7 19 5 16 19 18
c9 -31 9 -12 2 -45c-8 -32 4 -8 1 -36c-24 -7 14 -9 -7 3c-22 11 12 9 -6 4l-13 -46c22 18 5 7 20 31c1 -44 -53 -129 -58 -195c-2 -30 -49 -88 -72 -108c-19 -16 -11 -1 -41 -12c-7 -33 12 -73 -29 -76l16 35c-36 45 10 5 -24 52c-65 90 -23 185 -32 236c12 7 22 -11 19 46
c-2 37 2 30 11 64c21 -1 5 -1 25 -10c2 10 22 75 26 81c35 -12 0 -43 11 -76c8 -28 9 -12 -2 -43c-21 -56 -54 -155 -39 -214c6 -27 19 -21 47 -17c14 21 8 22 16 41c13 33 30 -10 58 111c-20 9 14 -5 -3 0c-16 4 16 -19 -5 2zM112 444c1 12 8 13 10 1c3 -13 -10 -7 -10 -1z
" />
    <glyph glyph-name="uacute" unicode="&#xfa;" horiz-adv-x="246" 
d="M148 97l-4 6l-41 -46c29 11 26 23 45 40zM94 109c-8 4 -8 11 -19 -1c19 -12 10 -5 19 1zM131 176c-1 -1 1 -2 1 -3l1 -1s5 15 -2 4zM228 320c0 0 1 11 -2 6c-2 -5 4 -18 2 -6zM173 276l15 15c9 52 30 78 25 136c-2 17 -7 29 1 41c20 -11 9 -12 19 -38c7 19 5 16 19 18
c9 -31 9 -12 2 -45c-8 -32 4 -8 1 -36c-24 -7 14 -9 -7 3c-22 11 12 9 -6 4l-13 -46c22 18 5 7 20 31c1 -44 -53 -129 -58 -195c-2 -30 -49 -88 -72 -108c-19 -16 -11 -1 -41 -12c-7 -33 12 -73 -29 -76l16 35c-36 45 10 5 -24 52c-65 90 -23 185 -32 236c12 7 22 -11 19 46
c-2 37 2 30 11 64c21 -1 5 -1 25 -10c2 10 22 75 26 81c35 -12 0 -43 11 -76c8 -28 9 -12 -2 -43c-21 -56 -54 -155 -39 -214c6 -27 19 -21 47 -17c14 21 8 22 16 41c13 33 30 -10 58 111c-20 9 14 -5 -3 0c-16 4 16 -19 -5 2zM112 444c1 12 8 13 10 1c3 -13 -10 -7 -10 -1z
" />
    <glyph glyph-name="ucircumflex" unicode="&#xfb;" horiz-adv-x="246" 
d="M148 97l-4 6l-41 -46c29 11 26 23 45 40zM94 109c-8 4 -8 11 -19 -1c19 -12 10 -5 19 1zM131 176c-1 -1 1 -2 1 -3l1 -1s5 15 -2 4zM228 320c0 0 1 11 -2 6c-2 -5 4 -18 2 -6zM173 276l15 15c9 52 30 78 25 136c-2 17 -7 29 1 41c20 -11 9 -12 19 -38c7 19 5 16 19 18
c9 -31 9 -12 2 -45c-8 -32 4 -8 1 -36c-24 -7 14 -9 -7 3c-22 11 12 9 -6 4l-13 -46c22 18 5 7 20 31c1 -44 -53 -129 -58 -195c-2 -30 -49 -88 -72 -108c-19 -16 -11 -1 -41 -12c-7 -33 12 -73 -29 -76l16 35c-36 45 10 5 -24 52c-65 90 -23 185 -32 236c12 7 22 -11 19 46
c-2 37 2 30 11 64c21 -1 5 -1 25 -10c2 10 22 75 26 81c35 -12 0 -43 11 -76c8 -28 9 -12 -2 -43c-21 -56 -54 -155 -39 -214c6 -27 19 -21 47 -17c14 21 8 22 16 41c13 33 30 -10 58 111c-20 9 14 -5 -3 0c-16 4 16 -19 -5 2zM112 444c1 12 8 13 10 1c3 -13 -10 -7 -10 -1z
" />
    <glyph glyph-name="udieresis" unicode="&#xfc;" horiz-adv-x="246" 
d="M148 97l-4 6l-41 -46c29 11 26 23 45 40zM94 109c-8 4 -8 11 -19 -1c19 -12 10 -5 19 1zM131 176c-1 -1 1 -2 1 -3l1 -1s5 15 -2 4zM228 320c0 0 1 11 -2 6c-2 -5 4 -18 2 -6zM173 276l15 15c9 52 30 78 25 136c-2 17 -7 29 1 41c20 -11 9 -12 19 -38c7 19 5 16 19 18
c9 -31 9 -12 2 -45c-8 -32 4 -8 1 -36c-24 -7 14 -9 -7 3c-22 11 12 9 -6 4l-13 -46c22 18 5 7 20 31c1 -44 -53 -129 -58 -195c-2 -30 -49 -88 -72 -108c-19 -16 -11 -1 -41 -12c-7 -33 12 -73 -29 -76l16 35c-36 45 10 5 -24 52c-65 90 -23 185 -32 236c12 7 22 -11 19 46
c-2 37 2 30 11 64c21 -1 5 -1 25 -10c2 10 22 75 26 81c35 -12 0 -43 11 -76c8 -28 9 -12 -2 -43c-21 -56 -54 -155 -39 -214c6 -27 19 -21 47 -17c14 21 8 22 16 41c13 33 30 -10 58 111c-20 9 14 -5 -3 0c-16 4 16 -19 -5 2zM112 444c1 12 8 13 10 1c3 -13 -10 -7 -10 -1z
" />
    <glyph glyph-name="yacute" unicode="&#xfd;" horiz-adv-x="232" 
d="M92 135c1 -10 2 0 3 0c3 1 -4 11 -3 0zM237 526c1 9 6 11 9 0c2 -10 -9 -8 -9 0zM-17 472c-2 24 1 12 10 15c-3 -15 3 -7 -10 -15zM-21 -80c7 13 13 21 24 25c-2 -20 -4 -36 -24 -25zM166 278l-13 -35zM50 372c-4 -7 3 5 0 0zM223 428c25 18 48 89 80 98
c-9 -28 -25 -40 -33 -71c-8 -30 -6 -13 -18 -35c-2 -5 -11 -26 -15 -35c-28 -57 -60 -84 -65 -93c-7 -14 4 -14 5 -20c-46 -53 -25 -33 -53 -88c-45 -88 -11 -99 -53 -96c2 27 19 12 3 35c-32 -21 -17 -113 -69 -160c-23 10 -10 7 18 89c8 25 0 31 13 57c13 25 12 27 18 54
c-17 -7 -17 -13 -26 -32c3 13 4 22 14 32c9 9 7 2 17 4c24 58 -22 33 -24 144c-1 38 -37 93 -42 134c19 13 18 7 32 15c-6 15 -16 37 -10 48c7 -6 36 -66 39 -75c6 -26 -4 -63 2 -82l9 -9c-8 -14 14 -66 21 -82l16 -21c9 23 21 45 30 68c10 27 4 31 19 61c38 71 24 24 40 59
c13 27 8 38 31 61c7 -16 2 -5 0 -26c22 12 8 7 16 4zM290 425l2 -1s2 0 1 -4c-2 -4 -9 -5 -9 -1s6 6 6 6z" />
    <glyph glyph-name="thorn" unicode="&#xfe;" 
 />
    <glyph glyph-name="ydieresis" unicode="&#xff;" horiz-adv-x="232" 
d="M92 135c1 -10 2 0 3 0c3 1 -4 11 -3 0zM237 526c1 9 6 11 9 0c2 -10 -9 -8 -9 0zM-17 472c-2 24 1 12 10 15c-3 -15 3 -7 -10 -15zM-21 -80c7 13 13 21 24 25c-2 -20 -4 -36 -24 -25zM166 278l-13 -35zM50 372c-4 -7 3 5 0 0zM223 428c25 18 48 89 80 98
c-9 -28 -25 -40 -33 -71c-8 -30 -6 -13 -18 -35c-2 -5 -11 -26 -15 -35c-28 -57 -60 -84 -65 -93c-7 -14 4 -14 5 -20c-46 -53 -25 -33 -53 -88c-45 -88 -11 -99 -53 -96c2 27 19 12 3 35c-32 -21 -17 -113 -69 -160c-23 10 -10 7 18 89c8 25 0 31 13 57c13 25 12 27 18 54
c-17 -7 -17 -13 -26 -32c3 13 4 22 14 32c9 9 7 2 17 4c24 58 -22 33 -24 144c-1 38 -37 93 -42 134c19 13 18 7 32 15c-6 15 -16 37 -10 48c7 -6 36 -66 39 -75c6 -26 -4 -63 2 -82l9 -9c-8 -14 14 -66 21 -82l16 -21c9 23 21 45 30 68c10 27 4 31 19 61c38 71 24 24 40 59
c13 27 8 38 31 61c7 -16 2 -5 0 -26c22 12 8 7 16 4zM290 425l2 -1s2 0 1 -4c-2 -4 -9 -5 -9 -1s6 6 6 6z" />
    <glyph glyph-name="quoteleft" unicode="&#x2018;" horiz-adv-x="349" 
d="M168 424c-7 19 -12 38 -19 57c-2 7 -8 20 0 11c12 -12 10 12 8 17c-3 7 11 -1 11 25c0 18 -7 23 0 12c8 -13 20 16 22 21c5 15 -5 21 3 5c11 13 4 17 4 12c0 -15 27 9 37 1c5 -3 -8 -2 -17 -9c-16 -14 -21 -23 3 -26c-11 -6 -24 -10 -30 -22c-9 -21 4 -17 5 -17
c1 -1 -1 -33 11 10c-9 -13 -2 -24 6 -37c12 -18 18 -13 13 -13c-10 -1 9 -43 -41 -43c1 -2 9 -15 5 -9c-26 34 -17 4 -21 5zM175 476c0 0 -2 10 -2 17c0 8 -1 19 -1 19s-5 -17 3 -36zM170 443c0 0 -4 10 -6 14c-2 3 -2 8 -2 8v12s-3 -5 -3 -6s4 -21 11 -28zM167 495
c0 0 -4 -25 1 -35c4 -10 11 -26 17 -23c6 2 -3 11 -3 11l4 6s-1 3 -4 4c-2 0 -10 3 -10 3l3 11l-4 3z" />
    <glyph glyph-name="quoteright" unicode="&#x2019;" horiz-adv-x="366" 
d="M212 581c6 -19 12 -39 19 -58c2 -7 8 -19 0 -11c-12 12 -10 -12 -8 -16c2 -8 -11 0 -11 -25c0 -18 7 -23 0 -13c-8 14 -20 -15 -22 -21c-5 -15 5 -20 -3 -4c-11 -14 -4 -17 -4 -13c0 15 -27 -9 -37 -1c-5 4 8 2 17 10c16 13 21 22 -3 26c11 5 24 9 29 21
c10 22 -3 17 -4 18c-1 0 1 33 -11 -11c9 13 1 25 -6 37c-12 18 -18 13 -14 13c11 2 -9 43 42 44c-1 1 -9 14 -5 9c26 -34 17 -4 21 -5zM205 528c0 0 2 -10 2 -17c0 -8 1 -19 1 -19s5 18 -3 36zM210 561c0 0 4 -10 6 -13c2 -4 2 -9 2 -9v-11s3 4 2 6c0 1 -3 20 -10 27z
M213 510c0 0 3 24 -1 34c-4 11 -11 26 -17 24s2 -12 2 -12l-3 -6s1 -3 3 -3c2 -1 11 -4 11 -4l-3 -11l4 -2z" />
    <glyph glyph-name="quotesinglbase" unicode="&#x201a;" horiz-adv-x="162" 
d="M21 57l36 15c0 25 -10 67 17 73c61 14 44 -73 1 -89c-3 -1 -14 -2 -18 -3c-29 -8 -28 -24 -36 4z" />
    <glyph glyph-name="quotedblleft" unicode="&#x201c;" horiz-adv-x="291" 
d="M53 422c-6 19 -12 39 -19 58c-2 7 -8 19 0 11c13 -12 10 12 8 16c-2 8 11 0 12 25c0 18 -7 23 -1 12c8 -13 21 16 22 22c5 15 -5 20 4 4c11 13 4 17 3 13c0 -15 27 9 37 1c5 -4 -8 -2 -17 -10c-16 -13 -21 -23 3 -26c-11 -5 -24 -10 -29 -21c-10 -22 3 -17 4 -18
c1 0 0 -33 12 11c-10 -13 -2 -25 6 -37c11 -18 17 -14 13 -13c-11 -2 9 -43 -42 -44c1 -1 9 -14 5 -9c-26 34 -17 4 -21 5zM60 475c0 0 -2 10 -2 17c0 8 -1 19 -1 19s-5 -18 3 -36zM55 442c0 0 -4 10 -6 13c-2 4 -2 9 -2 9v11s-2 -5 -2 -6s3 -20 10 -27zM52 493
c0 0 -3 -24 1 -35c5 -10 12 -25 18 -23s-3 12 -3 12l3 6s-1 3 -3 3c-2 1 -11 3 -11 3l3 12l-4 2zM168 424c-7 19 -12 38 -19 57c-2 7 -8 20 0 11c12 -12 10 12 8 17c-3 7 11 -1 11 25c0 18 -7 23 0 12c8 -13 20 16 22 21c5 15 -5 21 3 5c11 13 4 17 4 12c0 -15 27 9 37 1
c5 -3 -8 -2 -17 -9c-16 -14 -21 -23 3 -26c-11 -6 -24 -10 -30 -22c-9 -21 4 -17 5 -17c1 -1 -1 -33 11 10c-9 -13 -2 -24 6 -37c12 -18 18 -13 13 -13c-10 -1 9 -43 -41 -43c1 -2 9 -15 5 -9c-26 34 -17 4 -21 5zM175 476c0 0 -2 10 -2 17c0 8 -1 19 -1 19s-5 -17 3 -36z
M170 443c0 0 -4 10 -6 14c-2 3 -2 8 -2 8v12s-3 -5 -3 -6s4 -21 11 -28zM167 495c0 0 -4 -25 1 -35c4 -10 11 -26 17 -23c6 2 -3 11 -3 11l4 6s-1 3 -4 4c-2 0 -10 3 -10 3l3 11l-4 3z" />
    <glyph glyph-name="quotedblright" unicode="&#x201d;" horiz-adv-x="270" 
d="M212 581c6 -19 12 -39 19 -58c2 -7 8 -19 0 -11c-12 12 -10 -12 -8 -16c2 -8 -11 0 -11 -25c0 -18 7 -23 0 -13c-8 14 -20 -15 -22 -21c-5 -15 5 -20 -3 -4c-11 -14 -4 -17 -4 -13c0 15 -27 -9 -37 -1c-5 4 8 2 17 10c16 13 21 22 -3 26c11 5 24 9 29 21
c10 22 -3 17 -4 18c-1 0 1 33 -11 -11c9 13 1 25 -6 37c-12 18 -18 13 -14 13c11 2 -9 43 42 44c-1 1 -9 14 -5 9c26 -34 17 -4 21 -5zM205 528c0 0 2 -10 2 -17c0 -8 1 -19 1 -19s5 18 -3 36zM210 561c0 0 4 -10 6 -13c2 -4 2 -9 2 -9v-11s3 4 2 6c0 1 -3 20 -10 27z
M213 510c0 0 3 24 -1 34c-4 11 -11 26 -17 24s2 -12 2 -12l-3 -6s1 -3 3 -3c2 -1 11 -4 11 -4l-3 -11l4 -2zM97 579c7 -19 12 -38 19 -57c2 -7 8 -20 0 -12c-12 13 -9 -11 -8 -16c3 -7 -11 1 -11 -25c0 -18 7 -23 0 -12c-8 13 -20 -16 -22 -21c-5 -16 5 -21 -3 -5
c-11 -13 -4 -17 -4 -12c1 15 -27 -9 -37 -1c-5 3 8 2 17 9c16 14 21 23 -2 26c10 6 23 10 29 22c9 21 -4 17 -4 17c-2 1 0 33 -12 -10c9 13 2 24 -6 36c-12 19 -18 14 -13 14c10 1 -9 43 41 43c-1 2 -9 15 -4 9c26 -34 16 -4 20 -5zM90 527c0 0 2 -10 2 -18
c1 -7 1 -18 1 -18s5 17 -3 36zM95 560c0 0 4 -10 6 -14s2 -8 2 -8v-12s3 5 3 6s-4 21 -11 28zM98 508c0 0 4 25 -1 35c-4 10 -11 26 -17 23c-6 -2 3 -11 3 -11l-4 -6s1 -3 4 -4c2 -1 10 -3 10 -3l-3 -11l4 -3z" />
    <glyph glyph-name="quotedblbase" unicode="&#x201e;" horiz-adv-x="289" 
d="M29 57l36 15c0 25 -10 67 17 73c61 14 44 -73 1 -89c-3 -1 -14 -2 -18 -3c-29 -8 -28 -24 -36 4zM121 56l36 15c0 25 -10 67 17 73c61 14 44 -73 1 -89c-3 -1 -14 -2 -18 -3c-29 -8 -28 -24 -36 4z" />
    <glyph glyph-name="nonmarkingreturn" horiz-adv-x="508" 
 />
  </font>
</defs>
</svg>
