<svg xmlns="http://www.w3.org/2000/svg" width="24.943" height="24.943" viewBox="0 0 24.943 24.943">
  <path id="noun_avatar_2102861_2_" data-name="noun_avatar_2102861 (2)" d="M28.506,24.147l-5.512-2.263a.78.78,0,0,1-.492-.72V19.876a.731.731,0,0,1,.156-.458,10.85,10.85,0,0,0,2.259-6.6C24.917,8.739,22.327,6,18.471,6s-6.446,2.739-6.446,6.815a10.852,10.852,0,0,0,2.259,6.6.731.731,0,0,1,.156.457v1.288a.78.78,0,0,1-.492.72L8.437,24.147A3.9,3.9,0,0,0,6,27.759V29.9a1.039,1.039,0,0,0,1.039,1.039H29.9A1.039,1.039,0,0,0,30.943,29.9V27.759A3.9,3.9,0,0,0,28.506,24.147Zm.358,4.718H8.079V27.759a1.828,1.828,0,0,1,1.147-1.69l5.512-2.263a2.851,2.851,0,0,0,1.781-2.643V19.876a2.816,2.816,0,0,0-.614-1.759,8.834,8.834,0,0,1-1.8-5.3c0-3.493,2.256-4.737,4.367-4.737s4.367,1.244,4.367,4.737a8.834,8.834,0,0,1-1.8,5.3,2.817,2.817,0,0,0-.614,1.759v1.288a2.851,2.851,0,0,0,1.781,2.643l5.512,2.263a1.828,1.828,0,0,1,1.147,1.69Z" transform="translate(-6 -6)" fill="#3b6978"/>
</svg>
